%TF.GenerationSoftware,KiCad,Pcbnew,(6.0.1)*%
%TF.CreationDate,2022-04-06T09:12:37+03:00*%
%TF.ProjectId,shield MCU V3,73686965-6c64-4204-9d43-552056332e6b,rev?*%
%TF.SameCoordinates,Original*%
%TF.FileFunction,Copper,L1,Top*%
%TF.FilePolarity,Positive*%
%FSLAX46Y46*%
G04 Gerber Fmt 4.6, Leading zero omitted, Abs format (unit mm)*
G04 Created by KiCad (PCBNEW (6.0.1)) date 2022-04-06 09:12:37*
%MOMM*%
%LPD*%
G01*
G04 APERTURE LIST*
G04 Aperture macros list*
%AMRoundRect*
0 Rectangle with rounded corners*
0 $1 Rounding radius*
0 $2 $3 $4 $5 $6 $7 $8 $9 X,Y pos of 4 corners*
0 Add a 4 corners polygon primitive as box body*
4,1,4,$2,$3,$4,$5,$6,$7,$8,$9,$2,$3,0*
0 Add four circle primitives for the rounded corners*
1,1,$1+$1,$2,$3*
1,1,$1+$1,$4,$5*
1,1,$1+$1,$6,$7*
1,1,$1+$1,$8,$9*
0 Add four rect primitives between the rounded corners*
20,1,$1+$1,$2,$3,$4,$5,0*
20,1,$1+$1,$4,$5,$6,$7,0*
20,1,$1+$1,$6,$7,$8,$9,0*
20,1,$1+$1,$8,$9,$2,$3,0*%
G04 Aperture macros list end*
%TA.AperFunction,ComponentPad*%
%ADD10R,1.700000X1.500000*%
%TD*%
%TA.AperFunction,ComponentPad*%
%ADD11C,1.500000*%
%TD*%
%TA.AperFunction,ComponentPad*%
%ADD12R,1.500000X1.700000*%
%TD*%
%TA.AperFunction,ComponentPad*%
%ADD13RoundRect,0.375000X-0.375000X0.375000X-0.375000X-0.375000X0.375000X-0.375000X0.375000X0.375000X0*%
%TD*%
%TA.AperFunction,ComponentPad*%
%ADD14R,1.700000X1.700000*%
%TD*%
%TA.AperFunction,ComponentPad*%
%ADD15O,1.700000X1.700000*%
%TD*%
%TA.AperFunction,ComponentPad*%
%ADD16C,1.524000*%
%TD*%
%TA.AperFunction,ComponentPad*%
%ADD17R,1.320800X1.320800*%
%TD*%
%TA.AperFunction,ComponentPad*%
%ADD18C,1.320800*%
%TD*%
%TA.AperFunction,ComponentPad*%
%ADD19C,1.600000*%
%TD*%
%TA.AperFunction,ViaPad*%
%ADD20C,1.500000*%
%TD*%
%TA.AperFunction,Conductor*%
%ADD21C,1.000000*%
%TD*%
%TA.AperFunction,Conductor*%
%ADD22C,0.250000*%
%TD*%
G04 APERTURE END LIST*
D10*
%TO.P,J2,1,P1*%
%TO.N,Net-(J2-Pad1)*%
X111125000Y-116459000D03*
D11*
%TO.P,J2,2,P2*%
%TO.N,GND*%
X113665000Y-116459000D03*
%TO.P,J2,3,P3*%
%TO.N,/5V*%
X116205000Y-116459000D03*
%TD*%
D12*
%TO.P,PoL1,1,P1*%
%TO.N,Net-(H1-Pad14)*%
X121412000Y-118872000D03*
D11*
%TO.P,PoL1,2,P2*%
%TO.N,Net-(H1-Pad13)*%
X121412000Y-116332000D03*
%TD*%
%TO.P,U3,1,SDO*%
%TO.N,Net-(U3-Pad1)*%
X117697000Y-92043000D03*
%TO.P,U3,2,CS*%
%TO.N,Net-(U3-Pad2)*%
X117697000Y-94583000D03*
%TO.P,U3,3,DR*%
%TO.N,unconnected-(U3-Pad3)*%
X117697000Y-97123000D03*
%TO.P,U3,4,INT*%
%TO.N,Net-(U3-Pad4)*%
X117697000Y-99663000D03*
D13*
%TO.P,U3,5,VCC*%
%TO.N,/3.3V*%
X135477000Y-92043000D03*
D11*
%TO.P,U3,6,SCL*%
%TO.N,Net-(U3-Pad6)*%
X135477000Y-94583000D03*
%TO.P,U3,7,SDA*%
%TO.N,Net-(U3-Pad7)*%
X135477000Y-97123000D03*
%TO.P,U3,8,GND*%
%TO.N,GND*%
X135477000Y-99663000D03*
%TD*%
%TO.P,TP1,1,1*%
%TO.N,/Vin*%
X126619000Y-69469000D03*
%TD*%
D14*
%TO.P,Bt1,1,P1*%
%TO.N,/3.3V*%
X122809000Y-137922000D03*
D15*
%TO.P,Bt1,2,P2*%
%TO.N,GND*%
X122809000Y-135382000D03*
%TO.P,Bt1,3,P3*%
%TO.N,Net-(Bt1-Pad3)*%
X122809000Y-132842000D03*
%TO.P,Bt1,4,P4*%
%TO.N,Net-(Bt1-Pad4)*%
X122809000Y-130302000D03*
%TD*%
D11*
%TO.P,SW1,1,A*%
%TO.N,/Vin*%
X126651000Y-79470000D03*
%TO.P,SW1,2,B*%
%TO.N,/Batt+*%
X131350000Y-79470000D03*
%TO.P,SW1,3,C*%
%TO.N,/chrg+*%
X136049000Y-79470000D03*
%TD*%
D10*
%TO.P,J3,1,P1*%
%TO.N,Net-(J3-Pad1)*%
X111125000Y-120396000D03*
D11*
%TO.P,J3,2,P2*%
%TO.N,GND*%
X113665000Y-120396000D03*
%TO.P,J3,3,P3*%
%TO.N,/5V*%
X116205000Y-120396000D03*
%TD*%
D10*
%TO.P,J4,1,P1*%
%TO.N,Net-(J4-Pad1)*%
X111125000Y-124333000D03*
D11*
%TO.P,J4,2,P2*%
%TO.N,GND*%
X113665000Y-124333000D03*
%TO.P,J4,3,P3*%
%TO.N,/5V*%
X116205000Y-124333000D03*
%TD*%
D10*
%TO.P,J5,1,P1*%
%TO.N,Net-(J5-Pad1)*%
X111125000Y-128016000D03*
D11*
%TO.P,J5,2,P2*%
%TO.N,GND*%
X113665000Y-128016000D03*
%TO.P,J5,3,P3*%
%TO.N,/5V*%
X116205000Y-128016000D03*
%TD*%
%TO.P,U1,1,out-*%
%TO.N,GND*%
X140557000Y-92551000D03*
%TO.P,U1,2,bat-*%
X143605000Y-92551000D03*
%TO.P,U1,3,bat+*%
%TO.N,/chrg+*%
X150971000Y-92551000D03*
%TO.P,U1,4,out+*%
%TO.N,unconnected-(U1-Pad4)*%
X154019000Y-92551000D03*
%TO.P,U1,5,in-*%
%TO.N,unconnected-(U1-Pad5)*%
X140557000Y-70199000D03*
%TO.P,U1,6,in+*%
%TO.N,unconnected-(U1-Pad6)*%
X154019000Y-70199000D03*
%TD*%
%TO.P,TP2,1,1*%
%TO.N,/3.3V*%
X106172000Y-100330000D03*
%TD*%
D12*
%TO.P,PoR1,1,P1*%
%TO.N,Net-(H1-Pad3)*%
X146431000Y-116713000D03*
D11*
%TO.P,PoR1,2,P2*%
%TO.N,Net-(H1-Pad2)*%
X146431000Y-119253000D03*
%TD*%
D16*
%TO.P,J6,1,Pin_1*%
%TO.N,GND*%
X136493500Y-69183000D03*
%TO.P,J6,2,Pin_2*%
%TO.N,unconnected-(J6-Pad2)*%
X133953500Y-69183000D03*
D11*
%TO.P,J6,3,Pin_3*%
%TO.N,/Batt+*%
X131413500Y-69183000D03*
%TD*%
D17*
%TO.P,H1,1,Current_Sensing_A*%
%TO.N,GND*%
X142367000Y-115138200D03*
D18*
%TO.P,H1,2,OUT1*%
%TO.N,Net-(H1-Pad2)*%
X141097000Y-119761000D03*
%TO.P,H1,3,OUT2*%
%TO.N,Net-(H1-Pad3)*%
X139827000Y-115138200D03*
%TO.P,H1,4,VS*%
%TO.N,/5V*%
X138557000Y-119761000D03*
%TO.P,H1,5,IN1*%
%TO.N,Net-(H1-Pad5)*%
X137287000Y-115138200D03*
%TO.P,H1,6,ENA_A*%
%TO.N,Net-(H1-Pad6)*%
X136017000Y-119761000D03*
%TO.P,H1,7,IN2*%
%TO.N,Net-(H1-Pad7)*%
X134747000Y-115138200D03*
%TO.P,H1,8,GND*%
%TO.N,GND*%
X133477000Y-119761000D03*
%TO.P,H1,9,VSS*%
%TO.N,/5V*%
X132207000Y-115138200D03*
%TO.P,H1,10,IN3*%
%TO.N,Net-(H1-Pad10)*%
X130937000Y-119761000D03*
%TO.P,H1,11,ENA_B*%
%TO.N,Net-(H1-Pad11)*%
X129667000Y-115138200D03*
%TO.P,H1,12,IN4*%
%TO.N,Net-(H1-Pad12)*%
X128397000Y-119761000D03*
%TO.P,H1,13,OUT3*%
%TO.N,Net-(H1-Pad13)*%
X127127000Y-115138200D03*
%TO.P,H1,14,OUT4*%
%TO.N,Net-(H1-Pad14)*%
X125857000Y-119761000D03*
%TO.P,H1,15,Current_Sensing_B*%
%TO.N,GND*%
X124587000Y-115138200D03*
%TD*%
D19*
%TO.P,U4,16,+3V3*%
%TO.N,/3.3V*%
X106222800Y-102746000D03*
D11*
%TO.P,U4,18,+5V*%
%TO.N,/5V*%
X106222800Y-105286000D03*
%TO.P,U4,24,VIN*%
%TO.N,/Vin*%
X106222800Y-112906000D03*
%TO.P,U4,37,PC3*%
%TO.N,Net-(J3-Pad1)*%
X106222800Y-123066000D03*
%TO.P,U4,38,PC0*%
%TO.N,Net-(J2-Pad1)*%
X106222800Y-120526000D03*
%TO.P,U4,63,PG9*%
%TO.N,Net-(Bt1-Pad3)*%
X154482800Y-130686000D03*
%TO.P,U4,83,PA5*%
%TO.N,Net-(U3-Pad6)*%
X154482800Y-96146000D03*
%TO.P,U4,85,PA6*%
%TO.N,Net-(U3-Pad1)*%
X154482800Y-98686000D03*
%TO.P,U4,87,ETH_CRS_DV/PA7*%
%TO.N,Net-(U3-Pad7)*%
X154482800Y-101226000D03*
%TO.P,U4,108,PF5*%
%TO.N,Net-(J5-Pad1)*%
X106222800Y-128146000D03*
%TO.P,U4,114,PF10*%
%TO.N,Net-(J1-Pad1)*%
X106222800Y-117986000D03*
%TO.P,U4,118,PD14*%
%TO.N,Net-(U3-Pad2)*%
X154482800Y-103766000D03*
%TO.P,U4,120,PD15*%
%TO.N,Net-(H1-Pad7)*%
X154482800Y-106306000D03*
%TO.P,U4,124,PE9*%
%TO.N,Net-(U3-Pad4)*%
X154482800Y-115446000D03*
%TO.P,U4,127,PE13*%
%TO.N,Net-(H1-Pad12)*%
X154482800Y-123066000D03*
%TO.P,U4,128,PE11*%
%TO.N,Net-(H1-Pad10)*%
X154482800Y-117986000D03*
%TO.P,U4,129,PF13*%
%TO.N,Net-(H1-Pad11)*%
X154482800Y-112906000D03*
%TO.P,U4,130,PF3*%
%TO.N,Net-(J4-Pad1)*%
X106222800Y-125606000D03*
%TO.P,U4,131,PF12*%
%TO.N,Net-(H1-Pad5)*%
X154482800Y-108846000D03*
%TO.P,U4,132,PF15*%
%TO.N,Net-(H1-Pad6)*%
X154482800Y-125606000D03*
%TO.P,U4,133,PG14*%
%TO.N,Net-(Bt1-Pad4)*%
X154482800Y-128146000D03*
%TO.P,U4,143,GND*%
%TO.N,GND*%
X106222800Y-107826000D03*
%TO.P,U4,144,GND*%
X106222800Y-110366000D03*
%TD*%
D10*
%TO.P,J1,1,P1*%
%TO.N,Net-(J1-Pad1)*%
X111125000Y-112522000D03*
D11*
%TO.P,J1,2,P2*%
%TO.N,GND*%
X113665000Y-112522000D03*
%TO.P,J1,3,P3*%
%TO.N,/5V*%
X116205000Y-112522000D03*
%TD*%
D20*
%TO.N,GND*%
X108585000Y-107823000D03*
X108585000Y-110363000D03*
%TO.N,/3.3V*%
X108585000Y-102743000D03*
%TO.N,Net-(U3-Pad2)*%
X151511000Y-103759000D03*
%TO.N,Net-(U3-Pad4)*%
X151511000Y-115443000D03*
%TO.N,Net-(U3-Pad6)*%
X151511000Y-96139000D03*
%TO.N,Net-(U3-Pad7)*%
X151511000Y-101219000D03*
%TO.N,Net-(J3-Pad1)*%
X108585000Y-123063000D03*
%TO.N,/5V*%
X108585000Y-105283000D03*
%TO.N,/Vin*%
X113538000Y-79375000D03*
%TO.N,Net-(J2-Pad1)*%
X108585000Y-120523000D03*
%TO.N,Net-(Bt1-Pad3)*%
X151511000Y-130683000D03*
%TO.N,Net-(U3-Pad1)*%
X151511000Y-98679000D03*
%TO.N,Net-(J1-Pad1)*%
X108585000Y-117983000D03*
%TO.N,Net-(H1-Pad7)*%
X134747000Y-111252000D03*
%TO.N,Net-(H1-Pad12)*%
X146812000Y-126677500D03*
%TO.N,Net-(H1-Pad10)*%
X136779000Y-124079000D03*
%TO.N,Net-(H1-Pad11)*%
X129667000Y-113284000D03*
%TO.N,Net-(J4-Pad1)*%
X108585000Y-125603000D03*
%TO.N,Net-(H1-Pad5)*%
X137248025Y-112146039D03*
%TO.N,Net-(H1-Pad6)*%
X151511000Y-125603000D03*
%TO.N,Net-(Bt1-Pad4)*%
X151511000Y-128143000D03*
%TO.N,Net-(J5-Pad1)*%
X108585000Y-128143000D03*
%TD*%
D21*
%TO.N,GND*%
X108582000Y-110366000D02*
X108585000Y-110363000D01*
X106222800Y-110366000D02*
X108582000Y-110366000D01*
X106222800Y-107826000D02*
X108582000Y-107826000D01*
X108582000Y-107826000D02*
X108585000Y-107823000D01*
%TO.N,/3.3V*%
X108582000Y-102746000D02*
X108585000Y-102743000D01*
X106222800Y-102746000D02*
X108582000Y-102746000D01*
D22*
%TO.N,Net-(U3-Pad2)*%
X154482800Y-103766000D02*
X151518000Y-103766000D01*
X151518000Y-103766000D02*
X151511000Y-103759000D01*
%TO.N,Net-(U3-Pad4)*%
X154482800Y-115446000D02*
X151514000Y-115446000D01*
X151514000Y-115446000D02*
X151511000Y-115443000D01*
%TO.N,Net-(U3-Pad6)*%
X154482800Y-96146000D02*
X151518000Y-96146000D01*
X151518000Y-96146000D02*
X151511000Y-96139000D01*
%TO.N,Net-(U3-Pad7)*%
X151518000Y-101226000D02*
X151511000Y-101219000D01*
X154482800Y-101226000D02*
X151518000Y-101226000D01*
%TO.N,Net-(J3-Pad1)*%
X108582000Y-123066000D02*
X108585000Y-123063000D01*
X106222800Y-123066000D02*
X108582000Y-123066000D01*
D21*
%TO.N,/5V*%
X106222800Y-105286000D02*
X108582000Y-105286000D01*
X108582000Y-105286000D02*
X108585000Y-105283000D01*
%TO.N,/Vin*%
X104013000Y-88900000D02*
X113538000Y-79375000D01*
X106222800Y-112906000D02*
X104013000Y-110696200D01*
X104013000Y-110696200D02*
X104013000Y-88900000D01*
D22*
%TO.N,Net-(J2-Pad1)*%
X106222800Y-120526000D02*
X108582000Y-120526000D01*
X108582000Y-120526000D02*
X108585000Y-120523000D01*
%TO.N,Net-(Bt1-Pad3)*%
X154482800Y-130686000D02*
X151514000Y-130686000D01*
X151514000Y-130686000D02*
X151511000Y-130683000D01*
%TO.N,Net-(U3-Pad1)*%
X154482800Y-98686000D02*
X151518000Y-98686000D01*
X151518000Y-98686000D02*
X151511000Y-98679000D01*
%TO.N,Net-(J1-Pad1)*%
X106222800Y-117986000D02*
X108582000Y-117986000D01*
X108582000Y-117986000D02*
X108585000Y-117983000D01*
%TO.N,Net-(H1-Pad7)*%
X136652000Y-111252000D02*
X141598000Y-106306000D01*
X134747000Y-111252000D02*
X136652000Y-111252000D01*
X141598000Y-106306000D02*
X154482800Y-106306000D01*
%TO.N,Net-(H1-Pad12)*%
X150423500Y-123066000D02*
X154482800Y-123066000D01*
X146812000Y-126677500D02*
X150423500Y-123066000D01*
%TO.N,Net-(H1-Pad10)*%
X148389800Y-124079000D02*
X154482800Y-117986000D01*
X136779000Y-124079000D02*
X148389800Y-124079000D01*
%TO.N,Net-(H1-Pad11)*%
X129667000Y-113284000D02*
X154104800Y-113284000D01*
X154104800Y-113284000D02*
X154482800Y-112906000D01*
%TO.N,Net-(J4-Pad1)*%
X108582000Y-125606000D02*
X108585000Y-125603000D01*
X106222800Y-125606000D02*
X108582000Y-125606000D01*
%TO.N,Net-(H1-Pad5)*%
X137248025Y-112146039D02*
X140569837Y-112146039D01*
X143869876Y-108846000D02*
X154482800Y-108846000D01*
X140569837Y-112146039D02*
X143869876Y-108846000D01*
%TO.N,Net-(H1-Pad6)*%
X151514000Y-125606000D02*
X151511000Y-125603000D01*
X154482800Y-125606000D02*
X151514000Y-125606000D01*
%TO.N,Net-(Bt1-Pad4)*%
X151514000Y-128146000D02*
X151511000Y-128143000D01*
X154482800Y-128146000D02*
X151514000Y-128146000D01*
%TO.N,Net-(J5-Pad1)*%
X106222800Y-128146000D02*
X108582000Y-128146000D01*
X108582000Y-128146000D02*
X108585000Y-128143000D01*
%TD*%
%TA.AperFunction,Conductor*%
%TO.N,GND*%
G36*
X158438121Y-66441002D02*
G01*
X158484614Y-66494658D01*
X158496000Y-66547000D01*
X158496000Y-140463000D01*
X158475998Y-140531121D01*
X158422342Y-140577614D01*
X158370000Y-140589000D01*
X103631000Y-140589000D01*
X103562879Y-140568998D01*
X103516386Y-140515342D01*
X103505000Y-140463000D01*
X103505000Y-138820134D01*
X121450500Y-138820134D01*
X121457255Y-138882316D01*
X121508385Y-139018705D01*
X121595739Y-139135261D01*
X121712295Y-139222615D01*
X121848684Y-139273745D01*
X121910866Y-139280500D01*
X123707134Y-139280500D01*
X123769316Y-139273745D01*
X123905705Y-139222615D01*
X124022261Y-139135261D01*
X124109615Y-139018705D01*
X124160745Y-138882316D01*
X124167500Y-138820134D01*
X124167500Y-137023866D01*
X124160745Y-136961684D01*
X124109615Y-136825295D01*
X124022261Y-136708739D01*
X123905705Y-136621385D01*
X123786687Y-136576767D01*
X123729923Y-136534125D01*
X123705223Y-136467564D01*
X123720430Y-136398215D01*
X123741977Y-136369535D01*
X123843052Y-136268812D01*
X123849730Y-136260965D01*
X123974003Y-136088020D01*
X123979313Y-136079183D01*
X124073670Y-135888267D01*
X124077469Y-135878672D01*
X124139377Y-135674910D01*
X124141555Y-135664837D01*
X124142986Y-135653962D01*
X124140775Y-135639778D01*
X124127617Y-135636000D01*
X121492225Y-135636000D01*
X121478694Y-135639973D01*
X121477257Y-135649966D01*
X121507565Y-135784446D01*
X121510645Y-135794275D01*
X121590770Y-135991603D01*
X121595413Y-136000794D01*
X121706694Y-136182388D01*
X121712777Y-136190699D01*
X121852213Y-136351667D01*
X121859577Y-136358879D01*
X121864522Y-136362985D01*
X121904156Y-136421889D01*
X121905653Y-136492870D01*
X121868537Y-136553392D01*
X121828264Y-136577910D01*
X121720705Y-136618232D01*
X121720704Y-136618233D01*
X121712295Y-136621385D01*
X121595739Y-136708739D01*
X121508385Y-136825295D01*
X121457255Y-136961684D01*
X121450500Y-137023866D01*
X121450500Y-138820134D01*
X103505000Y-138820134D01*
X103505000Y-132808695D01*
X121446251Y-132808695D01*
X121446548Y-132813848D01*
X121446548Y-132813851D01*
X121452011Y-132908590D01*
X121459110Y-133031715D01*
X121460247Y-133036761D01*
X121460248Y-133036767D01*
X121480119Y-133124939D01*
X121508222Y-133249639D01*
X121592266Y-133456616D01*
X121708987Y-133647088D01*
X121855250Y-133815938D01*
X122027126Y-133958632D01*
X122100955Y-134001774D01*
X122149679Y-134053412D01*
X122162750Y-134123195D01*
X122136019Y-134188967D01*
X122095562Y-134222327D01*
X122087457Y-134226546D01*
X122078738Y-134232036D01*
X121908433Y-134359905D01*
X121900726Y-134366748D01*
X121753590Y-134520717D01*
X121747104Y-134528727D01*
X121627098Y-134704649D01*
X121622000Y-134713623D01*
X121532338Y-134906783D01*
X121528775Y-134916470D01*
X121473389Y-135116183D01*
X121474912Y-135124607D01*
X121487292Y-135128000D01*
X124127344Y-135128000D01*
X124140875Y-135124027D01*
X124142180Y-135114947D01*
X124100214Y-134947875D01*
X124096894Y-134938124D01*
X124011972Y-134742814D01*
X124007105Y-134733739D01*
X123891426Y-134554926D01*
X123885136Y-134546757D01*
X123741806Y-134389240D01*
X123734273Y-134382215D01*
X123567139Y-134250222D01*
X123558556Y-134244520D01*
X123521602Y-134224120D01*
X123471631Y-134173687D01*
X123456859Y-134104245D01*
X123481975Y-134037839D01*
X123509327Y-134011232D01*
X123532797Y-133994491D01*
X123688860Y-133883173D01*
X123847096Y-133725489D01*
X123906594Y-133642689D01*
X123974435Y-133548277D01*
X123977453Y-133544077D01*
X124076430Y-133343811D01*
X124141370Y-133130069D01*
X124170529Y-132908590D01*
X124172156Y-132842000D01*
X124153852Y-132619361D01*
X124099431Y-132402702D01*
X124010354Y-132197840D01*
X123889014Y-132010277D01*
X123738670Y-131845051D01*
X123734619Y-131841852D01*
X123734615Y-131841848D01*
X123567414Y-131709800D01*
X123567410Y-131709798D01*
X123563359Y-131706598D01*
X123522053Y-131683796D01*
X123472084Y-131633364D01*
X123457312Y-131563921D01*
X123482428Y-131497516D01*
X123509780Y-131470909D01*
X123553603Y-131439650D01*
X123688860Y-131343173D01*
X123714470Y-131317653D01*
X123843435Y-131189137D01*
X123847096Y-131185489D01*
X123906594Y-131102689D01*
X123974435Y-131008277D01*
X123977453Y-131004077D01*
X124076430Y-130803811D01*
X124141370Y-130590069D01*
X124170529Y-130368590D01*
X124172156Y-130302000D01*
X124153852Y-130079361D01*
X124099431Y-129862702D01*
X124010354Y-129657840D01*
X123907518Y-129498880D01*
X123891822Y-129474617D01*
X123891820Y-129474614D01*
X123889014Y-129470277D01*
X123738670Y-129305051D01*
X123734619Y-129301852D01*
X123734615Y-129301848D01*
X123567414Y-129169800D01*
X123567410Y-129169798D01*
X123563359Y-129166598D01*
X123367789Y-129058638D01*
X123362920Y-129056914D01*
X123362916Y-129056912D01*
X123162087Y-128985795D01*
X123162083Y-128985794D01*
X123157212Y-128984069D01*
X123152119Y-128983162D01*
X123152116Y-128983161D01*
X122942373Y-128945800D01*
X122942367Y-128945799D01*
X122937284Y-128944894D01*
X122863452Y-128943992D01*
X122719081Y-128942228D01*
X122719079Y-128942228D01*
X122713911Y-128942165D01*
X122493091Y-128975955D01*
X122280756Y-129045357D01*
X122250443Y-129061137D01*
X122156471Y-129110056D01*
X122082607Y-129148507D01*
X122078474Y-129151610D01*
X122078471Y-129151612D01*
X121909704Y-129278326D01*
X121903965Y-129282635D01*
X121900393Y-129286373D01*
X121778431Y-129413999D01*
X121749629Y-129444138D01*
X121746715Y-129448410D01*
X121746714Y-129448411D01*
X121692971Y-129527195D01*
X121623743Y-129628680D01*
X121529688Y-129831305D01*
X121469989Y-130046570D01*
X121446251Y-130268695D01*
X121446548Y-130273848D01*
X121446548Y-130273851D01*
X121452011Y-130368590D01*
X121459110Y-130491715D01*
X121460247Y-130496761D01*
X121460248Y-130496767D01*
X121480119Y-130584939D01*
X121508222Y-130709639D01*
X121592266Y-130916616D01*
X121708987Y-131107088D01*
X121855250Y-131275938D01*
X122027126Y-131418632D01*
X122097595Y-131459811D01*
X122100445Y-131461476D01*
X122149169Y-131513114D01*
X122162240Y-131582897D01*
X122135509Y-131648669D01*
X122095055Y-131682027D01*
X122082607Y-131688507D01*
X122078474Y-131691610D01*
X122078471Y-131691612D01*
X121957578Y-131782381D01*
X121903965Y-131822635D01*
X121749629Y-131984138D01*
X121623743Y-132168680D01*
X121529688Y-132371305D01*
X121469989Y-132586570D01*
X121446251Y-132808695D01*
X103505000Y-132808695D01*
X103505000Y-128146000D01*
X104959493Y-128146000D01*
X104978685Y-128365371D01*
X105035680Y-128578076D01*
X105038005Y-128583061D01*
X105126418Y-128772666D01*
X105126421Y-128772671D01*
X105128744Y-128777653D01*
X105131900Y-128782160D01*
X105131901Y-128782162D01*
X105249792Y-128950527D01*
X105255051Y-128958038D01*
X105410762Y-129113749D01*
X105415271Y-129116906D01*
X105415273Y-129116908D01*
X105482672Y-129164101D01*
X105591146Y-129240056D01*
X105790724Y-129333120D01*
X106003429Y-129390115D01*
X106222800Y-129409307D01*
X106442171Y-129390115D01*
X106654876Y-129333120D01*
X106854454Y-129240056D01*
X106962928Y-129164101D01*
X107030327Y-129116908D01*
X107030329Y-129116906D01*
X107034838Y-129113749D01*
X107190549Y-128958038D01*
X107195809Y-128950527D01*
X107242591Y-128883715D01*
X107277942Y-128833228D01*
X107333398Y-128788901D01*
X107381154Y-128779500D01*
X107428746Y-128779500D01*
X107496867Y-128799502D01*
X107531959Y-128833229D01*
X107614090Y-128950524D01*
X107617251Y-128955038D01*
X107772962Y-129110749D01*
X107777471Y-129113906D01*
X107777473Y-129113908D01*
X107823474Y-129146118D01*
X107953346Y-129237056D01*
X108152924Y-129330120D01*
X108365629Y-129387115D01*
X108585000Y-129406307D01*
X108804371Y-129387115D01*
X109017076Y-129330120D01*
X109216654Y-129237056D01*
X109346526Y-129146118D01*
X109392527Y-129113908D01*
X109392529Y-129113906D01*
X109397038Y-129110749D01*
X109552749Y-128955038D01*
X109555910Y-128950524D01*
X109578369Y-128918450D01*
X109633826Y-128874122D01*
X109704446Y-128866814D01*
X109767806Y-128898845D01*
X109799563Y-128946493D01*
X109804228Y-128958935D01*
X109824385Y-129012705D01*
X109911739Y-129129261D01*
X110028295Y-129216615D01*
X110164684Y-129267745D01*
X110226866Y-129274500D01*
X112023134Y-129274500D01*
X112085316Y-129267745D01*
X112221705Y-129216615D01*
X112338261Y-129129261D01*
X112385552Y-129066161D01*
X112979393Y-129066161D01*
X112988687Y-129078175D01*
X113029088Y-129106464D01*
X113038584Y-129111947D01*
X113228113Y-129200326D01*
X113238405Y-129204072D01*
X113440401Y-129258196D01*
X113451196Y-129260099D01*
X113659525Y-129278326D01*
X113670475Y-129278326D01*
X113878804Y-129260099D01*
X113889599Y-129258196D01*
X114091595Y-129204072D01*
X114101887Y-129200326D01*
X114291416Y-129111947D01*
X114300912Y-129106464D01*
X114342148Y-129077590D01*
X114350523Y-129067112D01*
X114343457Y-129053668D01*
X113677811Y-128388021D01*
X113663868Y-128380408D01*
X113662034Y-128380539D01*
X113655420Y-128384790D01*
X112985820Y-129054391D01*
X112979393Y-129066161D01*
X112385552Y-129066161D01*
X112425615Y-129012705D01*
X112476745Y-128876316D01*
X112483364Y-128815386D01*
X112510606Y-128749824D01*
X112568969Y-128709398D01*
X112606731Y-128705284D01*
X112627334Y-128694455D01*
X113292979Y-128028811D01*
X113299356Y-128017132D01*
X114029408Y-128017132D01*
X114029539Y-128018966D01*
X114033790Y-128025580D01*
X114703391Y-128695180D01*
X114715161Y-128701607D01*
X114727176Y-128692311D01*
X114755466Y-128651907D01*
X114760946Y-128642417D01*
X114820529Y-128514640D01*
X114867446Y-128461355D01*
X114935724Y-128441894D01*
X115003684Y-128462436D01*
X115048919Y-128514640D01*
X115108618Y-128642666D01*
X115108621Y-128642671D01*
X115110944Y-128647653D01*
X115114100Y-128652160D01*
X115114101Y-128652162D01*
X115203028Y-128779162D01*
X115237251Y-128828038D01*
X115392962Y-128983749D01*
X115397471Y-128986906D01*
X115397473Y-128986908D01*
X115422307Y-129004297D01*
X115573346Y-129110056D01*
X115772924Y-129203120D01*
X115985629Y-129260115D01*
X116205000Y-129279307D01*
X116424371Y-129260115D01*
X116637076Y-129203120D01*
X116836654Y-129110056D01*
X116987693Y-129004297D01*
X117012527Y-128986908D01*
X117012529Y-128986906D01*
X117017038Y-128983749D01*
X117172749Y-128828038D01*
X117206973Y-128779162D01*
X117295899Y-128652162D01*
X117295900Y-128652160D01*
X117299056Y-128647653D01*
X117301379Y-128642671D01*
X117301382Y-128642666D01*
X117361081Y-128514640D01*
X117392120Y-128448076D01*
X117449115Y-128235371D01*
X117468307Y-128016000D01*
X117449115Y-127796629D01*
X117392120Y-127583924D01*
X117346004Y-127485027D01*
X117301382Y-127389334D01*
X117301379Y-127389329D01*
X117299056Y-127384347D01*
X117278603Y-127355137D01*
X117175908Y-127208473D01*
X117175906Y-127208470D01*
X117172749Y-127203962D01*
X117017038Y-127048251D01*
X116836654Y-126921944D01*
X116637076Y-126828880D01*
X116424371Y-126771885D01*
X116205000Y-126752693D01*
X115985629Y-126771885D01*
X115772924Y-126828880D01*
X115692661Y-126866307D01*
X115578334Y-126919618D01*
X115578329Y-126919621D01*
X115573347Y-126921944D01*
X115568840Y-126925100D01*
X115568838Y-126925101D01*
X115397473Y-127045092D01*
X115397470Y-127045094D01*
X115392962Y-127048251D01*
X115237251Y-127203962D01*
X115234094Y-127208470D01*
X115234092Y-127208473D01*
X115131397Y-127355137D01*
X115110944Y-127384347D01*
X115108621Y-127389329D01*
X115108618Y-127389334D01*
X115048919Y-127517360D01*
X115002002Y-127570645D01*
X114933724Y-127590106D01*
X114865764Y-127569564D01*
X114820529Y-127517360D01*
X114760946Y-127389583D01*
X114755466Y-127380093D01*
X114726589Y-127338851D01*
X114716113Y-127330477D01*
X114702666Y-127337545D01*
X114037021Y-128003189D01*
X114029408Y-128017132D01*
X113299356Y-128017132D01*
X113300592Y-128014868D01*
X113300461Y-128013034D01*
X113296210Y-128006420D01*
X112626609Y-127336820D01*
X112608305Y-127326825D01*
X112548259Y-127313762D01*
X112498057Y-127263559D01*
X112483382Y-127216782D01*
X112482480Y-127208473D01*
X112478871Y-127175251D01*
X112477599Y-127163540D01*
X112477598Y-127163536D01*
X112476745Y-127155684D01*
X112425615Y-127019295D01*
X112384838Y-126964887D01*
X112979477Y-126964887D01*
X112986545Y-126978334D01*
X113652189Y-127643979D01*
X113666132Y-127651592D01*
X113667966Y-127651461D01*
X113674580Y-127647210D01*
X114344180Y-126977609D01*
X114350607Y-126965839D01*
X114341313Y-126953825D01*
X114300912Y-126925536D01*
X114291416Y-126920053D01*
X114101887Y-126831674D01*
X114091595Y-126827928D01*
X113889599Y-126773804D01*
X113878804Y-126771901D01*
X113670475Y-126753674D01*
X113659525Y-126753674D01*
X113451196Y-126771901D01*
X113440401Y-126773804D01*
X113238405Y-126827928D01*
X113228113Y-126831674D01*
X113038583Y-126920054D01*
X113029093Y-126925534D01*
X112987851Y-126954411D01*
X112979477Y-126964887D01*
X112384838Y-126964887D01*
X112338261Y-126902739D01*
X112221705Y-126815385D01*
X112085316Y-126764255D01*
X112023134Y-126757500D01*
X110226866Y-126757500D01*
X110164684Y-126764255D01*
X110028295Y-126815385D01*
X109911739Y-126902739D01*
X109824385Y-127019295D01*
X109773255Y-127155684D01*
X109766500Y-127217866D01*
X109766500Y-127240523D01*
X109746498Y-127308644D01*
X109692842Y-127355137D01*
X109622568Y-127365241D01*
X109557988Y-127335747D01*
X109551405Y-127329618D01*
X109397038Y-127175251D01*
X109216654Y-127048944D01*
X109211672Y-127046621D01*
X109211667Y-127046618D01*
X109084232Y-126987195D01*
X109030947Y-126940278D01*
X109011486Y-126872001D01*
X109032028Y-126804041D01*
X109084232Y-126758805D01*
X109211667Y-126699382D01*
X109211672Y-126699379D01*
X109216654Y-126697056D01*
X109317759Y-126626261D01*
X109392527Y-126573908D01*
X109392529Y-126573906D01*
X109397038Y-126570749D01*
X109552749Y-126415038D01*
X109629746Y-126305076D01*
X109675899Y-126239162D01*
X109675900Y-126239160D01*
X109679056Y-126234653D01*
X109681379Y-126229671D01*
X109681382Y-126229666D01*
X109767097Y-126045847D01*
X109772120Y-126035076D01*
X109829115Y-125822371D01*
X109845635Y-125633546D01*
X109871497Y-125567430D01*
X109929001Y-125525790D01*
X109999888Y-125521849D01*
X110025855Y-125531786D01*
X110028295Y-125533615D01*
X110164684Y-125584745D01*
X110226866Y-125591500D01*
X112023134Y-125591500D01*
X112085316Y-125584745D01*
X112221705Y-125533615D01*
X112338261Y-125446261D01*
X112385552Y-125383161D01*
X112979393Y-125383161D01*
X112988687Y-125395175D01*
X113029088Y-125423464D01*
X113038584Y-125428947D01*
X113228113Y-125517326D01*
X113238405Y-125521072D01*
X113440401Y-125575196D01*
X113451196Y-125577099D01*
X113659525Y-125595326D01*
X113670475Y-125595326D01*
X113878804Y-125577099D01*
X113889599Y-125575196D01*
X114091595Y-125521072D01*
X114101887Y-125517326D01*
X114291416Y-125428947D01*
X114300912Y-125423464D01*
X114342148Y-125394590D01*
X114350523Y-125384112D01*
X114343457Y-125370668D01*
X113677811Y-124705021D01*
X113663868Y-124697408D01*
X113662034Y-124697539D01*
X113655420Y-124701790D01*
X112985820Y-125371391D01*
X112979393Y-125383161D01*
X112385552Y-125383161D01*
X112425615Y-125329705D01*
X112476745Y-125193316D01*
X112483364Y-125132386D01*
X112510606Y-125066824D01*
X112568969Y-125026398D01*
X112606731Y-125022284D01*
X112627334Y-125011455D01*
X113292979Y-124345811D01*
X113299356Y-124334132D01*
X114029408Y-124334132D01*
X114029539Y-124335966D01*
X114033790Y-124342580D01*
X114703391Y-125012180D01*
X114715161Y-125018607D01*
X114727176Y-125009311D01*
X114755466Y-124968907D01*
X114760946Y-124959417D01*
X114820529Y-124831640D01*
X114867446Y-124778355D01*
X114935724Y-124758894D01*
X115003684Y-124779436D01*
X115048919Y-124831640D01*
X115108618Y-124959666D01*
X115108621Y-124959671D01*
X115110944Y-124964653D01*
X115114100Y-124969160D01*
X115114101Y-124969162D01*
X115165700Y-125042852D01*
X115237251Y-125145038D01*
X115392962Y-125300749D01*
X115397471Y-125303906D01*
X115397473Y-125303908D01*
X115472241Y-125356261D01*
X115573346Y-125427056D01*
X115772924Y-125520120D01*
X115985629Y-125577115D01*
X116205000Y-125596307D01*
X116424371Y-125577115D01*
X116637076Y-125520120D01*
X116836654Y-125427056D01*
X116937759Y-125356261D01*
X117012527Y-125303908D01*
X117012529Y-125303906D01*
X117017038Y-125300749D01*
X117172749Y-125145038D01*
X117244301Y-125042852D01*
X117295899Y-124969162D01*
X117295900Y-124969160D01*
X117299056Y-124964653D01*
X117301379Y-124959671D01*
X117301382Y-124959666D01*
X117368776Y-124815137D01*
X117392120Y-124765076D01*
X117449115Y-124552371D01*
X117468307Y-124333000D01*
X117449115Y-124113629D01*
X117392120Y-123900924D01*
X117307522Y-123719502D01*
X117301382Y-123706334D01*
X117301379Y-123706329D01*
X117299056Y-123701347D01*
X117294369Y-123694653D01*
X117175908Y-123525473D01*
X117175906Y-123525470D01*
X117172749Y-123520962D01*
X117017038Y-123365251D01*
X116836654Y-123238944D01*
X116637076Y-123145880D01*
X116424371Y-123088885D01*
X116205000Y-123069693D01*
X115985629Y-123088885D01*
X115772924Y-123145880D01*
X115679562Y-123189415D01*
X115578334Y-123236618D01*
X115578329Y-123236621D01*
X115573347Y-123238944D01*
X115568840Y-123242100D01*
X115568838Y-123242101D01*
X115397473Y-123362092D01*
X115397470Y-123362094D01*
X115392962Y-123365251D01*
X115237251Y-123520962D01*
X115234094Y-123525470D01*
X115234092Y-123525473D01*
X115115631Y-123694653D01*
X115110944Y-123701347D01*
X115108621Y-123706329D01*
X115108618Y-123706334D01*
X115048919Y-123834360D01*
X115002002Y-123887645D01*
X114933724Y-123907106D01*
X114865764Y-123886564D01*
X114820529Y-123834360D01*
X114760946Y-123706583D01*
X114755466Y-123697093D01*
X114726589Y-123655851D01*
X114716113Y-123647477D01*
X114702666Y-123654545D01*
X114037021Y-124320189D01*
X114029408Y-124334132D01*
X113299356Y-124334132D01*
X113300592Y-124331868D01*
X113300461Y-124330034D01*
X113296210Y-124323420D01*
X112626609Y-123653820D01*
X112608305Y-123643825D01*
X112548259Y-123630762D01*
X112498057Y-123580559D01*
X112483382Y-123533782D01*
X112482480Y-123525473D01*
X112479572Y-123498704D01*
X112477599Y-123480540D01*
X112477598Y-123480536D01*
X112476745Y-123472684D01*
X112425615Y-123336295D01*
X112384838Y-123281887D01*
X112979477Y-123281887D01*
X112986545Y-123295334D01*
X113652189Y-123960979D01*
X113666132Y-123968592D01*
X113667966Y-123968461D01*
X113674580Y-123964210D01*
X114344180Y-123294609D01*
X114350607Y-123282839D01*
X114341313Y-123270825D01*
X114300912Y-123242536D01*
X114291416Y-123237053D01*
X114101887Y-123148674D01*
X114091595Y-123144928D01*
X113889599Y-123090804D01*
X113878804Y-123088901D01*
X113670475Y-123070674D01*
X113659525Y-123070674D01*
X113451196Y-123088901D01*
X113440401Y-123090804D01*
X113238405Y-123144928D01*
X113228113Y-123148674D01*
X113038583Y-123237054D01*
X113029093Y-123242534D01*
X112987851Y-123271411D01*
X112979477Y-123281887D01*
X112384838Y-123281887D01*
X112338261Y-123219739D01*
X112221705Y-123132385D01*
X112085316Y-123081255D01*
X112023134Y-123074500D01*
X110226866Y-123074500D01*
X110164684Y-123081255D01*
X110028295Y-123132385D01*
X110027649Y-123132869D01*
X109962306Y-123147160D01*
X109895758Y-123122423D01*
X109853148Y-123065634D01*
X109845634Y-123032452D01*
X109841275Y-122982619D01*
X109829115Y-122843629D01*
X109772120Y-122630924D01*
X109728585Y-122537562D01*
X109681382Y-122436334D01*
X109681379Y-122436329D01*
X109679056Y-122431347D01*
X109642242Y-122378771D01*
X109555908Y-122255473D01*
X109555906Y-122255470D01*
X109552749Y-122250962D01*
X109397038Y-122095251D01*
X109216654Y-121968944D01*
X109211672Y-121966621D01*
X109211667Y-121966618D01*
X109084232Y-121907195D01*
X109030947Y-121860278D01*
X109011486Y-121792001D01*
X109032028Y-121724041D01*
X109084232Y-121678805D01*
X109211667Y-121619382D01*
X109211672Y-121619379D01*
X109216654Y-121617056D01*
X109317759Y-121546261D01*
X109392527Y-121493908D01*
X109392529Y-121493906D01*
X109397038Y-121490749D01*
X109552749Y-121335038D01*
X109555910Y-121330524D01*
X109578369Y-121298450D01*
X109633826Y-121254122D01*
X109704446Y-121246814D01*
X109767806Y-121278845D01*
X109799563Y-121326493D01*
X109804228Y-121338935D01*
X109824385Y-121392705D01*
X109911739Y-121509261D01*
X110028295Y-121596615D01*
X110164684Y-121647745D01*
X110226866Y-121654500D01*
X112023134Y-121654500D01*
X112085316Y-121647745D01*
X112221705Y-121596615D01*
X112338261Y-121509261D01*
X112385552Y-121446161D01*
X112979393Y-121446161D01*
X112988687Y-121458175D01*
X113029088Y-121486464D01*
X113038584Y-121491947D01*
X113228113Y-121580326D01*
X113238405Y-121584072D01*
X113440401Y-121638196D01*
X113451196Y-121640099D01*
X113659525Y-121658326D01*
X113670475Y-121658326D01*
X113878804Y-121640099D01*
X113889599Y-121638196D01*
X114091595Y-121584072D01*
X114101887Y-121580326D01*
X114291416Y-121491947D01*
X114300912Y-121486464D01*
X114342148Y-121457590D01*
X114350523Y-121447112D01*
X114343457Y-121433668D01*
X113677811Y-120768021D01*
X113663868Y-120760408D01*
X113662034Y-120760539D01*
X113655420Y-120764790D01*
X112985820Y-121434391D01*
X112979393Y-121446161D01*
X112385552Y-121446161D01*
X112425615Y-121392705D01*
X112476745Y-121256316D01*
X112483364Y-121195386D01*
X112510606Y-121129824D01*
X112568969Y-121089398D01*
X112606731Y-121085284D01*
X112627334Y-121074455D01*
X113292979Y-120408811D01*
X113299356Y-120397132D01*
X114029408Y-120397132D01*
X114029539Y-120398966D01*
X114033790Y-120405580D01*
X114703391Y-121075180D01*
X114715161Y-121081607D01*
X114727176Y-121072311D01*
X114755466Y-121031907D01*
X114760946Y-121022417D01*
X114820529Y-120894640D01*
X114867446Y-120841355D01*
X114935724Y-120821894D01*
X115003684Y-120842436D01*
X115048919Y-120894640D01*
X115108618Y-121022666D01*
X115108621Y-121022671D01*
X115110944Y-121027653D01*
X115114100Y-121032160D01*
X115114101Y-121032162D01*
X115151298Y-121085284D01*
X115237251Y-121208038D01*
X115392962Y-121363749D01*
X115397471Y-121366906D01*
X115397473Y-121366908D01*
X115422307Y-121384297D01*
X115573346Y-121490056D01*
X115772924Y-121583120D01*
X115985629Y-121640115D01*
X116205000Y-121659307D01*
X116424371Y-121640115D01*
X116637076Y-121583120D01*
X116836654Y-121490056D01*
X116987693Y-121384297D01*
X117012527Y-121366908D01*
X117012529Y-121366906D01*
X117017038Y-121363749D01*
X117172749Y-121208038D01*
X117258703Y-121085284D01*
X117295899Y-121032162D01*
X117295900Y-121032160D01*
X117299056Y-121027653D01*
X117301379Y-121022671D01*
X117301382Y-121022666D01*
X117361081Y-120894640D01*
X117392120Y-120828076D01*
X117449115Y-120615371D01*
X117468307Y-120396000D01*
X117449115Y-120176629D01*
X117392120Y-119963924D01*
X117334201Y-119839715D01*
X117301382Y-119769334D01*
X117301379Y-119769329D01*
X117299056Y-119764347D01*
X117295899Y-119759838D01*
X117175908Y-119588473D01*
X117175906Y-119588470D01*
X117172749Y-119583962D01*
X117017038Y-119428251D01*
X116971638Y-119396461D01*
X116934126Y-119370195D01*
X116836654Y-119301944D01*
X116637076Y-119208880D01*
X116424371Y-119151885D01*
X116205000Y-119132693D01*
X115985629Y-119151885D01*
X115772924Y-119208880D01*
X115692661Y-119246307D01*
X115578334Y-119299618D01*
X115578329Y-119299621D01*
X115573347Y-119301944D01*
X115568840Y-119305100D01*
X115568838Y-119305101D01*
X115397473Y-119425092D01*
X115397470Y-119425094D01*
X115392962Y-119428251D01*
X115237251Y-119583962D01*
X115234094Y-119588470D01*
X115234092Y-119588473D01*
X115114101Y-119759838D01*
X115110944Y-119764347D01*
X115108621Y-119769329D01*
X115108618Y-119769334D01*
X115048919Y-119897360D01*
X115002002Y-119950645D01*
X114933724Y-119970106D01*
X114865764Y-119949564D01*
X114820529Y-119897360D01*
X114760946Y-119769583D01*
X114755466Y-119760093D01*
X114726589Y-119718851D01*
X114716113Y-119710477D01*
X114702666Y-119717545D01*
X114037021Y-120383189D01*
X114029408Y-120397132D01*
X113299356Y-120397132D01*
X113300592Y-120394868D01*
X113300461Y-120393034D01*
X113296210Y-120386420D01*
X112626609Y-119716820D01*
X112608305Y-119706825D01*
X112548259Y-119693762D01*
X112498057Y-119643559D01*
X112483382Y-119596782D01*
X112482480Y-119588473D01*
X112478871Y-119555251D01*
X112477599Y-119543540D01*
X112477598Y-119543536D01*
X112476745Y-119535684D01*
X112425615Y-119399295D01*
X112384838Y-119344887D01*
X112979477Y-119344887D01*
X112986545Y-119358334D01*
X113652189Y-120023979D01*
X113666132Y-120031592D01*
X113667966Y-120031461D01*
X113674580Y-120027210D01*
X114344180Y-119357609D01*
X114350607Y-119345839D01*
X114341313Y-119333825D01*
X114300912Y-119305536D01*
X114291416Y-119300053D01*
X114101887Y-119211674D01*
X114091595Y-119207928D01*
X113889599Y-119153804D01*
X113878804Y-119151901D01*
X113670475Y-119133674D01*
X113659525Y-119133674D01*
X113451196Y-119151901D01*
X113440401Y-119153804D01*
X113238405Y-119207928D01*
X113228113Y-119211674D01*
X113038583Y-119300054D01*
X113029093Y-119305534D01*
X112987851Y-119334411D01*
X112979477Y-119344887D01*
X112384838Y-119344887D01*
X112338261Y-119282739D01*
X112221705Y-119195385D01*
X112085316Y-119144255D01*
X112023134Y-119137500D01*
X110226866Y-119137500D01*
X110164684Y-119144255D01*
X110028295Y-119195385D01*
X109911739Y-119282739D01*
X109824385Y-119399295D01*
X109773255Y-119535684D01*
X109766500Y-119597866D01*
X109766500Y-119620523D01*
X109746498Y-119688644D01*
X109692842Y-119735137D01*
X109622568Y-119745241D01*
X109557988Y-119715747D01*
X109551405Y-119709618D01*
X109397038Y-119555251D01*
X109385358Y-119547072D01*
X109270852Y-119466894D01*
X109216654Y-119428944D01*
X109211672Y-119426621D01*
X109211667Y-119426618D01*
X109084232Y-119367195D01*
X109030947Y-119320278D01*
X109011486Y-119252001D01*
X109032028Y-119184041D01*
X109084232Y-119138805D01*
X109211667Y-119079382D01*
X109211672Y-119079379D01*
X109216654Y-119077056D01*
X109355084Y-118980126D01*
X109392527Y-118953908D01*
X109392529Y-118953906D01*
X109397038Y-118950749D01*
X109552749Y-118795038D01*
X109557876Y-118787717D01*
X109675899Y-118619162D01*
X109675900Y-118619160D01*
X109679056Y-118614653D01*
X109681379Y-118609671D01*
X109681382Y-118609666D01*
X109728585Y-118508438D01*
X109772120Y-118415076D01*
X109829115Y-118202371D01*
X109848307Y-117983000D01*
X109829927Y-117772910D01*
X109843916Y-117703306D01*
X109893316Y-117652313D01*
X109962442Y-117636123D01*
X110015958Y-117651410D01*
X110021113Y-117654233D01*
X110028295Y-117659615D01*
X110036696Y-117662764D01*
X110036697Y-117662765D01*
X110064842Y-117673316D01*
X110164684Y-117710745D01*
X110226866Y-117717500D01*
X112023134Y-117717500D01*
X112085316Y-117710745D01*
X112221705Y-117659615D01*
X112338261Y-117572261D01*
X112385552Y-117509161D01*
X112979393Y-117509161D01*
X112988687Y-117521175D01*
X113029088Y-117549464D01*
X113038584Y-117554947D01*
X113228113Y-117643326D01*
X113238405Y-117647072D01*
X113440401Y-117701196D01*
X113451196Y-117703099D01*
X113659525Y-117721326D01*
X113670475Y-117721326D01*
X113878804Y-117703099D01*
X113889599Y-117701196D01*
X114091595Y-117647072D01*
X114101887Y-117643326D01*
X114291416Y-117554947D01*
X114300912Y-117549464D01*
X114342148Y-117520590D01*
X114350523Y-117510112D01*
X114343457Y-117496668D01*
X113677811Y-116831021D01*
X113663868Y-116823408D01*
X113662034Y-116823539D01*
X113655420Y-116827790D01*
X112985820Y-117497391D01*
X112979393Y-117509161D01*
X112385552Y-117509161D01*
X112425615Y-117455705D01*
X112476745Y-117319316D01*
X112483364Y-117258386D01*
X112510606Y-117192824D01*
X112568969Y-117152398D01*
X112606731Y-117148284D01*
X112627334Y-117137455D01*
X113292979Y-116471811D01*
X113299356Y-116460132D01*
X114029408Y-116460132D01*
X114029539Y-116461966D01*
X114033790Y-116468580D01*
X114703391Y-117138180D01*
X114715161Y-117144607D01*
X114727176Y-117135311D01*
X114755466Y-117094907D01*
X114760946Y-117085417D01*
X114820529Y-116957640D01*
X114867446Y-116904355D01*
X114935724Y-116884894D01*
X115003684Y-116905436D01*
X115048919Y-116957640D01*
X115108618Y-117085666D01*
X115108621Y-117085671D01*
X115110944Y-117090653D01*
X115114100Y-117095160D01*
X115114101Y-117095162D01*
X115184105Y-117195137D01*
X115237251Y-117271038D01*
X115392962Y-117426749D01*
X115397471Y-117429906D01*
X115397473Y-117429908D01*
X115422307Y-117447297D01*
X115573346Y-117553056D01*
X115772924Y-117646120D01*
X115985629Y-117703115D01*
X116205000Y-117722307D01*
X116424371Y-117703115D01*
X116637076Y-117646120D01*
X116836654Y-117553056D01*
X116987693Y-117447297D01*
X117012527Y-117429908D01*
X117012529Y-117429906D01*
X117017038Y-117426749D01*
X117172749Y-117271038D01*
X117225896Y-117195137D01*
X117295899Y-117095162D01*
X117295900Y-117095160D01*
X117299056Y-117090653D01*
X117301379Y-117085671D01*
X117301382Y-117085666D01*
X117361081Y-116957640D01*
X117392120Y-116891076D01*
X117449115Y-116678371D01*
X117468307Y-116459000D01*
X117457196Y-116332000D01*
X120148693Y-116332000D01*
X120167885Y-116551371D01*
X120224880Y-116764076D01*
X120252547Y-116823408D01*
X120315618Y-116958666D01*
X120315621Y-116958671D01*
X120317944Y-116963653D01*
X120321100Y-116968160D01*
X120321101Y-116968162D01*
X120439642Y-117137455D01*
X120444251Y-117144038D01*
X120599962Y-117299749D01*
X120603734Y-117302390D01*
X120642903Y-117361271D01*
X120644025Y-117432258D01*
X120606591Y-117492584D01*
X120554164Y-117519986D01*
X120551684Y-117520255D01*
X120544289Y-117523027D01*
X120544286Y-117523028D01*
X120447705Y-117559235D01*
X120415295Y-117571385D01*
X120298739Y-117658739D01*
X120211385Y-117775295D01*
X120160255Y-117911684D01*
X120153500Y-117973866D01*
X120153500Y-119770134D01*
X120160255Y-119832316D01*
X120211385Y-119968705D01*
X120298739Y-120085261D01*
X120415295Y-120172615D01*
X120551684Y-120223745D01*
X120613866Y-120230500D01*
X122210134Y-120230500D01*
X122272316Y-120223745D01*
X122408705Y-120172615D01*
X122525261Y-120085261D01*
X122612615Y-119968705D01*
X122663745Y-119832316D01*
X122670500Y-119770134D01*
X122670500Y-119730271D01*
X124683494Y-119730271D01*
X124697545Y-119944640D01*
X124750426Y-120152859D01*
X124840366Y-120347954D01*
X124964353Y-120523392D01*
X125118236Y-120673298D01*
X125123032Y-120676503D01*
X125123035Y-120676505D01*
X125292055Y-120789440D01*
X125292060Y-120789443D01*
X125296860Y-120792650D01*
X125302169Y-120794931D01*
X125302171Y-120794932D01*
X125488932Y-120875172D01*
X125488936Y-120875173D01*
X125494242Y-120877453D01*
X125499874Y-120878727D01*
X125499876Y-120878728D01*
X125698137Y-120923590D01*
X125698142Y-120923591D01*
X125703774Y-120924865D01*
X125709545Y-120925092D01*
X125709547Y-120925092D01*
X125775614Y-120927688D01*
X125918438Y-120933299D01*
X126043168Y-120915214D01*
X126125321Y-120903303D01*
X126125325Y-120903302D01*
X126131043Y-120902473D01*
X126136515Y-120900615D01*
X126136517Y-120900615D01*
X126329007Y-120835273D01*
X126329009Y-120835272D01*
X126334471Y-120833418D01*
X126521909Y-120728448D01*
X126584364Y-120676505D01*
X126682640Y-120594769D01*
X126687078Y-120591078D01*
X126812629Y-120440120D01*
X126820757Y-120430347D01*
X126824448Y-120425909D01*
X126929418Y-120238471D01*
X126935359Y-120220971D01*
X126996615Y-120040517D01*
X126996615Y-120040515D01*
X126998473Y-120035043D01*
X127002808Y-120005146D01*
X127032379Y-119940600D01*
X127092151Y-119902288D01*
X127163147Y-119902374D01*
X127222827Y-119940829D01*
X127249627Y-119992211D01*
X127290426Y-120152859D01*
X127380366Y-120347954D01*
X127504353Y-120523392D01*
X127658236Y-120673298D01*
X127663032Y-120676503D01*
X127663035Y-120676505D01*
X127832055Y-120789440D01*
X127832060Y-120789443D01*
X127836860Y-120792650D01*
X127842169Y-120794931D01*
X127842171Y-120794932D01*
X128028932Y-120875172D01*
X128028936Y-120875173D01*
X128034242Y-120877453D01*
X128039874Y-120878727D01*
X128039876Y-120878728D01*
X128238137Y-120923590D01*
X128238142Y-120923591D01*
X128243774Y-120924865D01*
X128249545Y-120925092D01*
X128249547Y-120925092D01*
X128315614Y-120927688D01*
X128458438Y-120933299D01*
X128583168Y-120915214D01*
X128665321Y-120903303D01*
X128665325Y-120903302D01*
X128671043Y-120902473D01*
X128676515Y-120900615D01*
X128676517Y-120900615D01*
X128869007Y-120835273D01*
X128869009Y-120835272D01*
X128874471Y-120833418D01*
X129061909Y-120728448D01*
X129124364Y-120676505D01*
X129222640Y-120594769D01*
X129227078Y-120591078D01*
X129352629Y-120440120D01*
X129360757Y-120430347D01*
X129364448Y-120425909D01*
X129469418Y-120238471D01*
X129475359Y-120220971D01*
X129536615Y-120040517D01*
X129536615Y-120040515D01*
X129538473Y-120035043D01*
X129542808Y-120005146D01*
X129572379Y-119940600D01*
X129632151Y-119902288D01*
X129703147Y-119902374D01*
X129762827Y-119940829D01*
X129789627Y-119992211D01*
X129830426Y-120152859D01*
X129920366Y-120347954D01*
X130044353Y-120523392D01*
X130198236Y-120673298D01*
X130203032Y-120676503D01*
X130203035Y-120676505D01*
X130372055Y-120789440D01*
X130372060Y-120789443D01*
X130376860Y-120792650D01*
X130382169Y-120794931D01*
X130382171Y-120794932D01*
X130568932Y-120875172D01*
X130568936Y-120875173D01*
X130574242Y-120877453D01*
X130579874Y-120878727D01*
X130579876Y-120878728D01*
X130778137Y-120923590D01*
X130778142Y-120923591D01*
X130783774Y-120924865D01*
X130789545Y-120925092D01*
X130789547Y-120925092D01*
X130855614Y-120927688D01*
X130998438Y-120933299D01*
X131123168Y-120915214D01*
X131205321Y-120903303D01*
X131205325Y-120903302D01*
X131211043Y-120902473D01*
X131216515Y-120900615D01*
X131216517Y-120900615D01*
X131409007Y-120835273D01*
X131409009Y-120835272D01*
X131414471Y-120833418D01*
X131570848Y-120745843D01*
X132856517Y-120745843D01*
X132866399Y-120758332D01*
X132912295Y-120788999D01*
X132922405Y-120794489D01*
X133109091Y-120874695D01*
X133120034Y-120878250D01*
X133318203Y-120923092D01*
X133329613Y-120924594D01*
X133532643Y-120932571D01*
X133544125Y-120931969D01*
X133745212Y-120902814D01*
X133756395Y-120900129D01*
X133948795Y-120834818D01*
X133959310Y-120830136D01*
X134089409Y-120757277D01*
X134099273Y-120747200D01*
X134096318Y-120739528D01*
X133489812Y-120133022D01*
X133475868Y-120125408D01*
X133474035Y-120125539D01*
X133467420Y-120129790D01*
X132862713Y-120734497D01*
X132856517Y-120745843D01*
X131570848Y-120745843D01*
X131601909Y-120728448D01*
X131664364Y-120676505D01*
X131762640Y-120594769D01*
X131767078Y-120591078D01*
X131892629Y-120440120D01*
X131900757Y-120430347D01*
X131904448Y-120425909D01*
X132009418Y-120238471D01*
X132015359Y-120220971D01*
X132076615Y-120040517D01*
X132076615Y-120040515D01*
X132078473Y-120035043D01*
X132079302Y-120029325D01*
X132079303Y-120029321D01*
X132082995Y-120003854D01*
X132112564Y-119939308D01*
X132172335Y-119900995D01*
X132243332Y-119901079D01*
X132303013Y-119939533D01*
X132329814Y-119990918D01*
X132369477Y-120147091D01*
X132373318Y-120157938D01*
X132458382Y-120342455D01*
X132464138Y-120352424D01*
X132479448Y-120374088D01*
X132490039Y-120382479D01*
X132503339Y-120375451D01*
X133104978Y-119773812D01*
X133111356Y-119762132D01*
X133841408Y-119762132D01*
X133841539Y-119763965D01*
X133845790Y-119770580D01*
X134451613Y-120376403D01*
X134463993Y-120383163D01*
X134470573Y-120378237D01*
X134546136Y-120243310D01*
X134550818Y-120232795D01*
X134616129Y-120040395D01*
X134618814Y-120029211D01*
X134622486Y-120003882D01*
X134652055Y-119939336D01*
X134711826Y-119901023D01*
X134782823Y-119901107D01*
X134842504Y-119939561D01*
X134869305Y-119990945D01*
X134910426Y-120152859D01*
X135000366Y-120347954D01*
X135124353Y-120523392D01*
X135278236Y-120673298D01*
X135283032Y-120676503D01*
X135283035Y-120676505D01*
X135452055Y-120789440D01*
X135452060Y-120789443D01*
X135456860Y-120792650D01*
X135462169Y-120794931D01*
X135462171Y-120794932D01*
X135648932Y-120875172D01*
X135648936Y-120875173D01*
X135654242Y-120877453D01*
X135659874Y-120878727D01*
X135659876Y-120878728D01*
X135858137Y-120923590D01*
X135858142Y-120923591D01*
X135863774Y-120924865D01*
X135869545Y-120925092D01*
X135869547Y-120925092D01*
X135935614Y-120927688D01*
X136078438Y-120933299D01*
X136203168Y-120915214D01*
X136285321Y-120903303D01*
X136285325Y-120903302D01*
X136291043Y-120902473D01*
X136296515Y-120900615D01*
X136296517Y-120900615D01*
X136489007Y-120835273D01*
X136489009Y-120835272D01*
X136494471Y-120833418D01*
X136681909Y-120728448D01*
X136744364Y-120676505D01*
X136842640Y-120594769D01*
X136847078Y-120591078D01*
X136972629Y-120440120D01*
X136980757Y-120430347D01*
X136984448Y-120425909D01*
X137089418Y-120238471D01*
X137095359Y-120220971D01*
X137156615Y-120040517D01*
X137156615Y-120040515D01*
X137158473Y-120035043D01*
X137162808Y-120005146D01*
X137192379Y-119940600D01*
X137252151Y-119902288D01*
X137323147Y-119902374D01*
X137382827Y-119940829D01*
X137409627Y-119992211D01*
X137450426Y-120152859D01*
X137540366Y-120347954D01*
X137664353Y-120523392D01*
X137818236Y-120673298D01*
X137823032Y-120676503D01*
X137823035Y-120676505D01*
X137992055Y-120789440D01*
X137992060Y-120789443D01*
X137996860Y-120792650D01*
X138002169Y-120794931D01*
X138002171Y-120794932D01*
X138188932Y-120875172D01*
X138188936Y-120875173D01*
X138194242Y-120877453D01*
X138199874Y-120878727D01*
X138199876Y-120878728D01*
X138398137Y-120923590D01*
X138398142Y-120923591D01*
X138403774Y-120924865D01*
X138409545Y-120925092D01*
X138409547Y-120925092D01*
X138475614Y-120927688D01*
X138618438Y-120933299D01*
X138743168Y-120915214D01*
X138825321Y-120903303D01*
X138825325Y-120903302D01*
X138831043Y-120902473D01*
X138836515Y-120900615D01*
X138836517Y-120900615D01*
X139029007Y-120835273D01*
X139029009Y-120835272D01*
X139034471Y-120833418D01*
X139221909Y-120728448D01*
X139284364Y-120676505D01*
X139382640Y-120594769D01*
X139387078Y-120591078D01*
X139512629Y-120440120D01*
X139520757Y-120430347D01*
X139524448Y-120425909D01*
X139629418Y-120238471D01*
X139635359Y-120220971D01*
X139696615Y-120040517D01*
X139696615Y-120040515D01*
X139698473Y-120035043D01*
X139702808Y-120005146D01*
X139732379Y-119940600D01*
X139792151Y-119902288D01*
X139863147Y-119902374D01*
X139922827Y-119940829D01*
X139949627Y-119992211D01*
X139990426Y-120152859D01*
X140080366Y-120347954D01*
X140204353Y-120523392D01*
X140358236Y-120673298D01*
X140363032Y-120676503D01*
X140363035Y-120676505D01*
X140532055Y-120789440D01*
X140532060Y-120789443D01*
X140536860Y-120792650D01*
X140542169Y-120794931D01*
X140542171Y-120794932D01*
X140728932Y-120875172D01*
X140728936Y-120875173D01*
X140734242Y-120877453D01*
X140739874Y-120878727D01*
X140739876Y-120878728D01*
X140938137Y-120923590D01*
X140938142Y-120923591D01*
X140943774Y-120924865D01*
X140949545Y-120925092D01*
X140949547Y-120925092D01*
X141015614Y-120927688D01*
X141158438Y-120933299D01*
X141283168Y-120915214D01*
X141365321Y-120903303D01*
X141365325Y-120903302D01*
X141371043Y-120902473D01*
X141376515Y-120900615D01*
X141376517Y-120900615D01*
X141569007Y-120835273D01*
X141569009Y-120835272D01*
X141574471Y-120833418D01*
X141761909Y-120728448D01*
X141824364Y-120676505D01*
X141922640Y-120594769D01*
X141927078Y-120591078D01*
X142052629Y-120440120D01*
X142060757Y-120430347D01*
X142064448Y-120425909D01*
X142169418Y-120238471D01*
X142175359Y-120220971D01*
X142236615Y-120040517D01*
X142236615Y-120040515D01*
X142238473Y-120035043D01*
X142239302Y-120029325D01*
X142239303Y-120029321D01*
X142258873Y-119894347D01*
X142269299Y-119822438D01*
X142270908Y-119761000D01*
X142251251Y-119547072D01*
X142244369Y-119522668D01*
X142230183Y-119472371D01*
X142192938Y-119340309D01*
X142190030Y-119334411D01*
X142149882Y-119253000D01*
X145167693Y-119253000D01*
X145186885Y-119472371D01*
X145243880Y-119685076D01*
X145280845Y-119764347D01*
X145334618Y-119879666D01*
X145334621Y-119879671D01*
X145336944Y-119884653D01*
X145340100Y-119889160D01*
X145340101Y-119889162D01*
X145445996Y-120040395D01*
X145463251Y-120065038D01*
X145618962Y-120220749D01*
X145623471Y-120223906D01*
X145623473Y-120223908D01*
X145636165Y-120232795D01*
X145799346Y-120347056D01*
X145998924Y-120440120D01*
X146211629Y-120497115D01*
X146431000Y-120516307D01*
X146650371Y-120497115D01*
X146863076Y-120440120D01*
X147062654Y-120347056D01*
X147225835Y-120232795D01*
X147238527Y-120223908D01*
X147238529Y-120223906D01*
X147243038Y-120220749D01*
X147398749Y-120065038D01*
X147416005Y-120040395D01*
X147521899Y-119889162D01*
X147521900Y-119889160D01*
X147525056Y-119884653D01*
X147527379Y-119879671D01*
X147527382Y-119879666D01*
X147581155Y-119764347D01*
X147618120Y-119685076D01*
X147675115Y-119472371D01*
X147694307Y-119253000D01*
X147675115Y-119033629D01*
X147618120Y-118820924D01*
X147533522Y-118639502D01*
X147527382Y-118626334D01*
X147527379Y-118626329D01*
X147525056Y-118621347D01*
X147520369Y-118614653D01*
X147401908Y-118445473D01*
X147401906Y-118445470D01*
X147398749Y-118440962D01*
X147243038Y-118285251D01*
X147239266Y-118282610D01*
X147200097Y-118223729D01*
X147198975Y-118152742D01*
X147236409Y-118092416D01*
X147288836Y-118065014D01*
X147291316Y-118064745D01*
X147298711Y-118061973D01*
X147298714Y-118061972D01*
X147419297Y-118016767D01*
X147427705Y-118013615D01*
X147544261Y-117926261D01*
X147631615Y-117809705D01*
X147682745Y-117673316D01*
X147689500Y-117611134D01*
X147689500Y-115814866D01*
X147682745Y-115752684D01*
X147631615Y-115616295D01*
X147544261Y-115499739D01*
X147427705Y-115412385D01*
X147291316Y-115361255D01*
X147229134Y-115354500D01*
X145632866Y-115354500D01*
X145570684Y-115361255D01*
X145434295Y-115412385D01*
X145317739Y-115499739D01*
X145230385Y-115616295D01*
X145179255Y-115752684D01*
X145172500Y-115814866D01*
X145172500Y-117611134D01*
X145179255Y-117673316D01*
X145230385Y-117809705D01*
X145317739Y-117926261D01*
X145434295Y-118013615D01*
X145442703Y-118016767D01*
X145563286Y-118061972D01*
X145563289Y-118061973D01*
X145570684Y-118064745D01*
X145572909Y-118064987D01*
X145632374Y-118098957D01*
X145665196Y-118161912D01*
X145658771Y-118232617D01*
X145622759Y-118282592D01*
X145618962Y-118285251D01*
X145463251Y-118440962D01*
X145460094Y-118445470D01*
X145460092Y-118445473D01*
X145341631Y-118614653D01*
X145336944Y-118621347D01*
X145334621Y-118626329D01*
X145334618Y-118626334D01*
X145328478Y-118639502D01*
X145243880Y-118820924D01*
X145186885Y-119033629D01*
X145167693Y-119253000D01*
X142149882Y-119253000D01*
X142100475Y-119152814D01*
X142097921Y-119147635D01*
X141969384Y-118975502D01*
X141944971Y-118952935D01*
X141815870Y-118833595D01*
X141815867Y-118833593D01*
X141811630Y-118829676D01*
X141629943Y-118715040D01*
X141430408Y-118635434D01*
X141424748Y-118634308D01*
X141424744Y-118634307D01*
X141225374Y-118594650D01*
X141225371Y-118594650D01*
X141219707Y-118593523D01*
X141213932Y-118593447D01*
X141213928Y-118593447D01*
X141106255Y-118592038D01*
X141004896Y-118590711D01*
X140999199Y-118591690D01*
X140999198Y-118591690D01*
X140865561Y-118614653D01*
X140793170Y-118627092D01*
X140591620Y-118701448D01*
X140406994Y-118811288D01*
X140402654Y-118815094D01*
X140402650Y-118815097D01*
X140252413Y-118946852D01*
X140245477Y-118952935D01*
X140112478Y-119121644D01*
X140109789Y-119126755D01*
X140109787Y-119126758D01*
X140086973Y-119170120D01*
X140012450Y-119311765D01*
X139948745Y-119516931D01*
X139948638Y-119517837D01*
X139915661Y-119578921D01*
X139853512Y-119613243D01*
X139782673Y-119608517D01*
X139725635Y-119566242D01*
X139704872Y-119524454D01*
X139701225Y-119511523D01*
X139652938Y-119340309D01*
X139650030Y-119334411D01*
X139560475Y-119152814D01*
X139557921Y-119147635D01*
X139429384Y-118975502D01*
X139404971Y-118952935D01*
X139275870Y-118833595D01*
X139275867Y-118833593D01*
X139271630Y-118829676D01*
X139089943Y-118715040D01*
X138890408Y-118635434D01*
X138884748Y-118634308D01*
X138884744Y-118634307D01*
X138685374Y-118594650D01*
X138685371Y-118594650D01*
X138679707Y-118593523D01*
X138673932Y-118593447D01*
X138673928Y-118593447D01*
X138566255Y-118592038D01*
X138464896Y-118590711D01*
X138459199Y-118591690D01*
X138459198Y-118591690D01*
X138325561Y-118614653D01*
X138253170Y-118627092D01*
X138051620Y-118701448D01*
X137866994Y-118811288D01*
X137862654Y-118815094D01*
X137862650Y-118815097D01*
X137712413Y-118946852D01*
X137705477Y-118952935D01*
X137572478Y-119121644D01*
X137569789Y-119126755D01*
X137569787Y-119126758D01*
X137546973Y-119170120D01*
X137472450Y-119311765D01*
X137408745Y-119516931D01*
X137408638Y-119517837D01*
X137375661Y-119578921D01*
X137313512Y-119613243D01*
X137242673Y-119608517D01*
X137185635Y-119566242D01*
X137164872Y-119524454D01*
X137161225Y-119511523D01*
X137112938Y-119340309D01*
X137110030Y-119334411D01*
X137020475Y-119152814D01*
X137017921Y-119147635D01*
X136889384Y-118975502D01*
X136864971Y-118952935D01*
X136735870Y-118833595D01*
X136735867Y-118833593D01*
X136731630Y-118829676D01*
X136549943Y-118715040D01*
X136350408Y-118635434D01*
X136344748Y-118634308D01*
X136344744Y-118634307D01*
X136145374Y-118594650D01*
X136145371Y-118594650D01*
X136139707Y-118593523D01*
X136133932Y-118593447D01*
X136133928Y-118593447D01*
X136026255Y-118592038D01*
X135924896Y-118590711D01*
X135919199Y-118591690D01*
X135919198Y-118591690D01*
X135785561Y-118614653D01*
X135713170Y-118627092D01*
X135511620Y-118701448D01*
X135326994Y-118811288D01*
X135322654Y-118815094D01*
X135322650Y-118815097D01*
X135172413Y-118946852D01*
X135165477Y-118952935D01*
X135032478Y-119121644D01*
X135029789Y-119126755D01*
X135029787Y-119126758D01*
X135006973Y-119170120D01*
X134932450Y-119311765D01*
X134868745Y-119516931D01*
X134868541Y-119518656D01*
X134835432Y-119579977D01*
X134773282Y-119614296D01*
X134702443Y-119609565D01*
X134645407Y-119567288D01*
X134624648Y-119525504D01*
X134574038Y-119346053D01*
X134569913Y-119335306D01*
X134480048Y-119153078D01*
X134475538Y-119145719D01*
X134465027Y-119137830D01*
X134452608Y-119144602D01*
X133849022Y-119748188D01*
X133841408Y-119762132D01*
X133111356Y-119762132D01*
X133112592Y-119759868D01*
X133112461Y-119758035D01*
X133108210Y-119751420D01*
X132500818Y-119144028D01*
X132488438Y-119137268D01*
X132482472Y-119141734D01*
X132395603Y-119306847D01*
X132391202Y-119317471D01*
X132330947Y-119511523D01*
X132329679Y-119517490D01*
X132295949Y-119579963D01*
X132233799Y-119614282D01*
X132162960Y-119609553D01*
X132105923Y-119567276D01*
X132085165Y-119525494D01*
X132032938Y-119340309D01*
X132030030Y-119334411D01*
X131940475Y-119152814D01*
X131937921Y-119147635D01*
X131809384Y-118975502D01*
X131784971Y-118952935D01*
X131655870Y-118833595D01*
X131655867Y-118833593D01*
X131651630Y-118829676D01*
X131565936Y-118775607D01*
X132855719Y-118775607D01*
X132859206Y-118783996D01*
X133464188Y-119388978D01*
X133478132Y-119396592D01*
X133479965Y-119396461D01*
X133486580Y-119392210D01*
X134091073Y-118787717D01*
X134097833Y-118775337D01*
X134091803Y-118767282D01*
X134014595Y-118718567D01*
X134004352Y-118713348D01*
X133815628Y-118638055D01*
X133804601Y-118634788D01*
X133605321Y-118595149D01*
X133593875Y-118593946D01*
X133390718Y-118591287D01*
X133379238Y-118592190D01*
X133178997Y-118626598D01*
X133167877Y-118629578D01*
X132977252Y-118699903D01*
X132966874Y-118704853D01*
X132865317Y-118765274D01*
X132855719Y-118775607D01*
X131565936Y-118775607D01*
X131469943Y-118715040D01*
X131270408Y-118635434D01*
X131264748Y-118634308D01*
X131264744Y-118634307D01*
X131065374Y-118594650D01*
X131065371Y-118594650D01*
X131059707Y-118593523D01*
X131053932Y-118593447D01*
X131053928Y-118593447D01*
X130946255Y-118592038D01*
X130844896Y-118590711D01*
X130839199Y-118591690D01*
X130839198Y-118591690D01*
X130705561Y-118614653D01*
X130633170Y-118627092D01*
X130431620Y-118701448D01*
X130246994Y-118811288D01*
X130242654Y-118815094D01*
X130242650Y-118815097D01*
X130092413Y-118946852D01*
X130085477Y-118952935D01*
X129952478Y-119121644D01*
X129949789Y-119126755D01*
X129949787Y-119126758D01*
X129926973Y-119170120D01*
X129852450Y-119311765D01*
X129788745Y-119516931D01*
X129788638Y-119517837D01*
X129755661Y-119578921D01*
X129693512Y-119613243D01*
X129622673Y-119608517D01*
X129565635Y-119566242D01*
X129544872Y-119524454D01*
X129541225Y-119511523D01*
X129492938Y-119340309D01*
X129490030Y-119334411D01*
X129400475Y-119152814D01*
X129397921Y-119147635D01*
X129269384Y-118975502D01*
X129244971Y-118952935D01*
X129115870Y-118833595D01*
X129115867Y-118833593D01*
X129111630Y-118829676D01*
X128929943Y-118715040D01*
X128730408Y-118635434D01*
X128724748Y-118634308D01*
X128724744Y-118634307D01*
X128525374Y-118594650D01*
X128525371Y-118594650D01*
X128519707Y-118593523D01*
X128513932Y-118593447D01*
X128513928Y-118593447D01*
X128406255Y-118592038D01*
X128304896Y-118590711D01*
X128299199Y-118591690D01*
X128299198Y-118591690D01*
X128165561Y-118614653D01*
X128093170Y-118627092D01*
X127891620Y-118701448D01*
X127706994Y-118811288D01*
X127702654Y-118815094D01*
X127702650Y-118815097D01*
X127552413Y-118946852D01*
X127545477Y-118952935D01*
X127412478Y-119121644D01*
X127409789Y-119126755D01*
X127409787Y-119126758D01*
X127386973Y-119170120D01*
X127312450Y-119311765D01*
X127248745Y-119516931D01*
X127248638Y-119517837D01*
X127215661Y-119578921D01*
X127153512Y-119613243D01*
X127082673Y-119608517D01*
X127025635Y-119566242D01*
X127004872Y-119524454D01*
X127001225Y-119511523D01*
X126952938Y-119340309D01*
X126950030Y-119334411D01*
X126860475Y-119152814D01*
X126857921Y-119147635D01*
X126729384Y-118975502D01*
X126704971Y-118952935D01*
X126575870Y-118833595D01*
X126575867Y-118833593D01*
X126571630Y-118829676D01*
X126389943Y-118715040D01*
X126190408Y-118635434D01*
X126184748Y-118634308D01*
X126184744Y-118634307D01*
X125985374Y-118594650D01*
X125985371Y-118594650D01*
X125979707Y-118593523D01*
X125973932Y-118593447D01*
X125973928Y-118593447D01*
X125866255Y-118592038D01*
X125764896Y-118590711D01*
X125759199Y-118591690D01*
X125759198Y-118591690D01*
X125625561Y-118614653D01*
X125553170Y-118627092D01*
X125351620Y-118701448D01*
X125166994Y-118811288D01*
X125162654Y-118815094D01*
X125162650Y-118815097D01*
X125012413Y-118946852D01*
X125005477Y-118952935D01*
X124872478Y-119121644D01*
X124869789Y-119126755D01*
X124869787Y-119126758D01*
X124846973Y-119170120D01*
X124772450Y-119311765D01*
X124708745Y-119516931D01*
X124683494Y-119730271D01*
X122670500Y-119730271D01*
X122670500Y-117973866D01*
X122663745Y-117911684D01*
X122612615Y-117775295D01*
X122525261Y-117658739D01*
X122408705Y-117571385D01*
X122376295Y-117559235D01*
X122279714Y-117523028D01*
X122279711Y-117523027D01*
X122272316Y-117520255D01*
X122270091Y-117520013D01*
X122210626Y-117486043D01*
X122177804Y-117423088D01*
X122184229Y-117352383D01*
X122220241Y-117302408D01*
X122224038Y-117299749D01*
X122379749Y-117144038D01*
X122384359Y-117137455D01*
X122502899Y-116968162D01*
X122502900Y-116968160D01*
X122506056Y-116963653D01*
X122508379Y-116958671D01*
X122508382Y-116958666D01*
X122571453Y-116823408D01*
X122599120Y-116764076D01*
X122656115Y-116551371D01*
X122675307Y-116332000D01*
X122657026Y-116123043D01*
X123966517Y-116123043D01*
X123976399Y-116135532D01*
X124022295Y-116166199D01*
X124032405Y-116171689D01*
X124219091Y-116251895D01*
X124230034Y-116255450D01*
X124428203Y-116300292D01*
X124439613Y-116301794D01*
X124642643Y-116309771D01*
X124654125Y-116309169D01*
X124855212Y-116280014D01*
X124866395Y-116277329D01*
X125058795Y-116212018D01*
X125069310Y-116207336D01*
X125199409Y-116134477D01*
X125209273Y-116124400D01*
X125206318Y-116116728D01*
X124599812Y-115510222D01*
X124585868Y-115502608D01*
X124584035Y-115502739D01*
X124577420Y-115506990D01*
X123972713Y-116111697D01*
X123966517Y-116123043D01*
X122657026Y-116123043D01*
X122656115Y-116112629D01*
X122599120Y-115899924D01*
X122538454Y-115769825D01*
X122508382Y-115705334D01*
X122508379Y-115705329D01*
X122506056Y-115700347D01*
X122485284Y-115670681D01*
X122382908Y-115524473D01*
X122382906Y-115524470D01*
X122379749Y-115519962D01*
X122224038Y-115364251D01*
X122218542Y-115360402D01*
X122103107Y-115279574D01*
X122043654Y-115237944D01*
X121844076Y-115144880D01*
X121726033Y-115113250D01*
X123414374Y-115113250D01*
X123427663Y-115315993D01*
X123429464Y-115327363D01*
X123479477Y-115524291D01*
X123483318Y-115535138D01*
X123568382Y-115719655D01*
X123574138Y-115729624D01*
X123589448Y-115751288D01*
X123600039Y-115759679D01*
X123613339Y-115752651D01*
X124214978Y-115151012D01*
X124221356Y-115139332D01*
X124951408Y-115139332D01*
X124951539Y-115141165D01*
X124955790Y-115147780D01*
X125561613Y-115753603D01*
X125573993Y-115760363D01*
X125580573Y-115755437D01*
X125656136Y-115620510D01*
X125660818Y-115609995D01*
X125726129Y-115417595D01*
X125728814Y-115406411D01*
X125732486Y-115381082D01*
X125762055Y-115316536D01*
X125821826Y-115278223D01*
X125892823Y-115278307D01*
X125952504Y-115316761D01*
X125979305Y-115368145D01*
X126020426Y-115530059D01*
X126110366Y-115725154D01*
X126234353Y-115900592D01*
X126238487Y-115904619D01*
X126370383Y-116033106D01*
X126388236Y-116050498D01*
X126393032Y-116053703D01*
X126393035Y-116053705D01*
X126562055Y-116166640D01*
X126562060Y-116166643D01*
X126566860Y-116169850D01*
X126572169Y-116172131D01*
X126572171Y-116172132D01*
X126758932Y-116252372D01*
X126758936Y-116252373D01*
X126764242Y-116254653D01*
X126769874Y-116255927D01*
X126769876Y-116255928D01*
X126968137Y-116300790D01*
X126968142Y-116300791D01*
X126973774Y-116302065D01*
X126979545Y-116302292D01*
X126979547Y-116302292D01*
X127045614Y-116304888D01*
X127188438Y-116310499D01*
X127313168Y-116292414D01*
X127395321Y-116280503D01*
X127395325Y-116280502D01*
X127401043Y-116279673D01*
X127406515Y-116277815D01*
X127406517Y-116277815D01*
X127599007Y-116212473D01*
X127599009Y-116212472D01*
X127604471Y-116210618D01*
X127791909Y-116105648D01*
X127823349Y-116079500D01*
X127952640Y-115971969D01*
X127957078Y-115968278D01*
X128094448Y-115803109D01*
X128199418Y-115615671D01*
X128205185Y-115598684D01*
X128266615Y-115417717D01*
X128266615Y-115417715D01*
X128268473Y-115412243D01*
X128272808Y-115382346D01*
X128302379Y-115317800D01*
X128362151Y-115279488D01*
X128433147Y-115279574D01*
X128492827Y-115318029D01*
X128519627Y-115369411D01*
X128560426Y-115530059D01*
X128650366Y-115725154D01*
X128774353Y-115900592D01*
X128778487Y-115904619D01*
X128910383Y-116033106D01*
X128928236Y-116050498D01*
X128933032Y-116053703D01*
X128933035Y-116053705D01*
X129102055Y-116166640D01*
X129102060Y-116166643D01*
X129106860Y-116169850D01*
X129112169Y-116172131D01*
X129112171Y-116172132D01*
X129298932Y-116252372D01*
X129298936Y-116252373D01*
X129304242Y-116254653D01*
X129309874Y-116255927D01*
X129309876Y-116255928D01*
X129508137Y-116300790D01*
X129508142Y-116300791D01*
X129513774Y-116302065D01*
X129519545Y-116302292D01*
X129519547Y-116302292D01*
X129585614Y-116304888D01*
X129728438Y-116310499D01*
X129853168Y-116292414D01*
X129935321Y-116280503D01*
X129935325Y-116280502D01*
X129941043Y-116279673D01*
X129946515Y-116277815D01*
X129946517Y-116277815D01*
X130139007Y-116212473D01*
X130139009Y-116212472D01*
X130144471Y-116210618D01*
X130331909Y-116105648D01*
X130363349Y-116079500D01*
X130492640Y-115971969D01*
X130497078Y-115968278D01*
X130634448Y-115803109D01*
X130739418Y-115615671D01*
X130745185Y-115598684D01*
X130806615Y-115417717D01*
X130806615Y-115417715D01*
X130808473Y-115412243D01*
X130812808Y-115382346D01*
X130842379Y-115317800D01*
X130902151Y-115279488D01*
X130973147Y-115279574D01*
X131032827Y-115318029D01*
X131059627Y-115369411D01*
X131100426Y-115530059D01*
X131190366Y-115725154D01*
X131314353Y-115900592D01*
X131318487Y-115904619D01*
X131450383Y-116033106D01*
X131468236Y-116050498D01*
X131473032Y-116053703D01*
X131473035Y-116053705D01*
X131642055Y-116166640D01*
X131642060Y-116166643D01*
X131646860Y-116169850D01*
X131652169Y-116172131D01*
X131652171Y-116172132D01*
X131838932Y-116252372D01*
X131838936Y-116252373D01*
X131844242Y-116254653D01*
X131849874Y-116255927D01*
X131849876Y-116255928D01*
X132048137Y-116300790D01*
X132048142Y-116300791D01*
X132053774Y-116302065D01*
X132059545Y-116302292D01*
X132059547Y-116302292D01*
X132125614Y-116304888D01*
X132268438Y-116310499D01*
X132393168Y-116292414D01*
X132475321Y-116280503D01*
X132475325Y-116280502D01*
X132481043Y-116279673D01*
X132486515Y-116277815D01*
X132486517Y-116277815D01*
X132679007Y-116212473D01*
X132679009Y-116212472D01*
X132684471Y-116210618D01*
X132871909Y-116105648D01*
X132903349Y-116079500D01*
X133032640Y-115971969D01*
X133037078Y-115968278D01*
X133174448Y-115803109D01*
X133279418Y-115615671D01*
X133285185Y-115598684D01*
X133346615Y-115417717D01*
X133346615Y-115417715D01*
X133348473Y-115412243D01*
X133352808Y-115382346D01*
X133382379Y-115317800D01*
X133442151Y-115279488D01*
X133513147Y-115279574D01*
X133572827Y-115318029D01*
X133599627Y-115369411D01*
X133640426Y-115530059D01*
X133730366Y-115725154D01*
X133854353Y-115900592D01*
X133858487Y-115904619D01*
X133990383Y-116033106D01*
X134008236Y-116050498D01*
X134013032Y-116053703D01*
X134013035Y-116053705D01*
X134182055Y-116166640D01*
X134182060Y-116166643D01*
X134186860Y-116169850D01*
X134192169Y-116172131D01*
X134192171Y-116172132D01*
X134378932Y-116252372D01*
X134378936Y-116252373D01*
X134384242Y-116254653D01*
X134389874Y-116255927D01*
X134389876Y-116255928D01*
X134588137Y-116300790D01*
X134588142Y-116300791D01*
X134593774Y-116302065D01*
X134599545Y-116302292D01*
X134599547Y-116302292D01*
X134665614Y-116304888D01*
X134808438Y-116310499D01*
X134933168Y-116292414D01*
X135015321Y-116280503D01*
X135015325Y-116280502D01*
X135021043Y-116279673D01*
X135026515Y-116277815D01*
X135026517Y-116277815D01*
X135219007Y-116212473D01*
X135219009Y-116212472D01*
X135224471Y-116210618D01*
X135411909Y-116105648D01*
X135443349Y-116079500D01*
X135572640Y-115971969D01*
X135577078Y-115968278D01*
X135714448Y-115803109D01*
X135819418Y-115615671D01*
X135825185Y-115598684D01*
X135886615Y-115417717D01*
X135886615Y-115417715D01*
X135888473Y-115412243D01*
X135892808Y-115382346D01*
X135922379Y-115317800D01*
X135982151Y-115279488D01*
X136053147Y-115279574D01*
X136112827Y-115318029D01*
X136139627Y-115369411D01*
X136180426Y-115530059D01*
X136270366Y-115725154D01*
X136394353Y-115900592D01*
X136398487Y-115904619D01*
X136530383Y-116033106D01*
X136548236Y-116050498D01*
X136553032Y-116053703D01*
X136553035Y-116053705D01*
X136722055Y-116166640D01*
X136722060Y-116166643D01*
X136726860Y-116169850D01*
X136732169Y-116172131D01*
X136732171Y-116172132D01*
X136918932Y-116252372D01*
X136918936Y-116252373D01*
X136924242Y-116254653D01*
X136929874Y-116255927D01*
X136929876Y-116255928D01*
X137128137Y-116300790D01*
X137128142Y-116300791D01*
X137133774Y-116302065D01*
X137139545Y-116302292D01*
X137139547Y-116302292D01*
X137205614Y-116304888D01*
X137348438Y-116310499D01*
X137473168Y-116292414D01*
X137555321Y-116280503D01*
X137555325Y-116280502D01*
X137561043Y-116279673D01*
X137566515Y-116277815D01*
X137566517Y-116277815D01*
X137759007Y-116212473D01*
X137759009Y-116212472D01*
X137764471Y-116210618D01*
X137951909Y-116105648D01*
X137983349Y-116079500D01*
X138112640Y-115971969D01*
X138117078Y-115968278D01*
X138254448Y-115803109D01*
X138359418Y-115615671D01*
X138365185Y-115598684D01*
X138426615Y-115417717D01*
X138426615Y-115417715D01*
X138428473Y-115412243D01*
X138432808Y-115382346D01*
X138462379Y-115317800D01*
X138522151Y-115279488D01*
X138593147Y-115279574D01*
X138652827Y-115318029D01*
X138679627Y-115369411D01*
X138720426Y-115530059D01*
X138810366Y-115725154D01*
X138934353Y-115900592D01*
X138938487Y-115904619D01*
X139070383Y-116033106D01*
X139088236Y-116050498D01*
X139093032Y-116053703D01*
X139093035Y-116053705D01*
X139262055Y-116166640D01*
X139262060Y-116166643D01*
X139266860Y-116169850D01*
X139272169Y-116172131D01*
X139272171Y-116172132D01*
X139458932Y-116252372D01*
X139458936Y-116252373D01*
X139464242Y-116254653D01*
X139469874Y-116255927D01*
X139469876Y-116255928D01*
X139668137Y-116300790D01*
X139668142Y-116300791D01*
X139673774Y-116302065D01*
X139679545Y-116302292D01*
X139679547Y-116302292D01*
X139745614Y-116304888D01*
X139888438Y-116310499D01*
X140013168Y-116292414D01*
X140095321Y-116280503D01*
X140095325Y-116280502D01*
X140101043Y-116279673D01*
X140106515Y-116277815D01*
X140106517Y-116277815D01*
X140299007Y-116212473D01*
X140299009Y-116212472D01*
X140304471Y-116210618D01*
X140491909Y-116105648D01*
X140523349Y-116079500D01*
X140652640Y-115971969D01*
X140657078Y-115968278D01*
X140794448Y-115803109D01*
X140899418Y-115615671D01*
X140902518Y-115606540D01*
X140953288Y-115456977D01*
X140994125Y-115398901D01*
X141059878Y-115372123D01*
X141129671Y-115385144D01*
X141181344Y-115433831D01*
X141198601Y-115497479D01*
X141198601Y-115843269D01*
X141198971Y-115850090D01*
X141204495Y-115900952D01*
X141208121Y-115916204D01*
X141253276Y-116036654D01*
X141261814Y-116052249D01*
X141338315Y-116154324D01*
X141350876Y-116166885D01*
X141452951Y-116243386D01*
X141468546Y-116251924D01*
X141588994Y-116297078D01*
X141604249Y-116300705D01*
X141655114Y-116306231D01*
X141661928Y-116306600D01*
X142094885Y-116306600D01*
X142110124Y-116302125D01*
X142111329Y-116300735D01*
X142113000Y-116293052D01*
X142113000Y-116288484D01*
X142621000Y-116288484D01*
X142625475Y-116303723D01*
X142626865Y-116304928D01*
X142634548Y-116306599D01*
X143072069Y-116306599D01*
X143078890Y-116306229D01*
X143129752Y-116300705D01*
X143145004Y-116297079D01*
X143265454Y-116251924D01*
X143281049Y-116243386D01*
X143383124Y-116166885D01*
X143395685Y-116154324D01*
X143472186Y-116052249D01*
X143480724Y-116036654D01*
X143525878Y-115916206D01*
X143529505Y-115900951D01*
X143535031Y-115850086D01*
X143535400Y-115843272D01*
X143535400Y-115410315D01*
X143530925Y-115395076D01*
X143529535Y-115393871D01*
X143521852Y-115392200D01*
X142639115Y-115392200D01*
X142623876Y-115396675D01*
X142622671Y-115398065D01*
X142621000Y-115405748D01*
X142621000Y-116288484D01*
X142113000Y-116288484D01*
X142113000Y-115010200D01*
X142133002Y-114942079D01*
X142186658Y-114895586D01*
X142239000Y-114884200D01*
X143517284Y-114884200D01*
X143532523Y-114879725D01*
X143533728Y-114878335D01*
X143535399Y-114870652D01*
X143535399Y-114433131D01*
X143535029Y-114426310D01*
X143529505Y-114375448D01*
X143525879Y-114360196D01*
X143480724Y-114239746D01*
X143472186Y-114224152D01*
X143393428Y-114119065D01*
X143368580Y-114052559D01*
X143383633Y-113983176D01*
X143433807Y-113932946D01*
X143494254Y-113917500D01*
X153693517Y-113917500D01*
X153765788Y-113940287D01*
X153851146Y-114000056D01*
X153856128Y-114002379D01*
X153856133Y-114002382D01*
X153983568Y-114061805D01*
X154036853Y-114108722D01*
X154056314Y-114176999D01*
X154035772Y-114244959D01*
X153983568Y-114290195D01*
X153856134Y-114349618D01*
X153856129Y-114349621D01*
X153851147Y-114351944D01*
X153846640Y-114355100D01*
X153846638Y-114355101D01*
X153675273Y-114475092D01*
X153675270Y-114475094D01*
X153670762Y-114478251D01*
X153515051Y-114633962D01*
X153511894Y-114638470D01*
X153511892Y-114638473D01*
X153427659Y-114758771D01*
X153372202Y-114803099D01*
X153324446Y-114812500D01*
X152671455Y-114812500D01*
X152603334Y-114792498D01*
X152568242Y-114758771D01*
X152481908Y-114635473D01*
X152481906Y-114635470D01*
X152478749Y-114630962D01*
X152323038Y-114475251D01*
X152262881Y-114433128D01*
X152243759Y-114419739D01*
X152142654Y-114348944D01*
X151943076Y-114255880D01*
X151730371Y-114198885D01*
X151511000Y-114179693D01*
X151291629Y-114198885D01*
X151078924Y-114255880D01*
X151046122Y-114271176D01*
X150884334Y-114346618D01*
X150884329Y-114346621D01*
X150879347Y-114348944D01*
X150874840Y-114352100D01*
X150874838Y-114352101D01*
X150703473Y-114472092D01*
X150703470Y-114472094D01*
X150698962Y-114475251D01*
X150543251Y-114630962D01*
X150540094Y-114635470D01*
X150540092Y-114635473D01*
X150443332Y-114773661D01*
X150416944Y-114811347D01*
X150414621Y-114816329D01*
X150414618Y-114816334D01*
X150380912Y-114888618D01*
X150323880Y-115010924D01*
X150266885Y-115223629D01*
X150247693Y-115443000D01*
X150266885Y-115662371D01*
X150323880Y-115875076D01*
X150365271Y-115963840D01*
X150414618Y-116069666D01*
X150414621Y-116069671D01*
X150416944Y-116074653D01*
X150420100Y-116079160D01*
X150420101Y-116079162D01*
X150536297Y-116245106D01*
X150543251Y-116255038D01*
X150698962Y-116410749D01*
X150703471Y-116413906D01*
X150703473Y-116413908D01*
X150760052Y-116453525D01*
X150879346Y-116537056D01*
X151078924Y-116630120D01*
X151291629Y-116687115D01*
X151511000Y-116706307D01*
X151730371Y-116687115D01*
X151943076Y-116630120D01*
X152142654Y-116537056D01*
X152261948Y-116453525D01*
X152318527Y-116413908D01*
X152318529Y-116413906D01*
X152323038Y-116410749D01*
X152478749Y-116255038D01*
X152481908Y-116250527D01*
X152564041Y-116133229D01*
X152619498Y-116088901D01*
X152667254Y-116079500D01*
X153324446Y-116079500D01*
X153392567Y-116099502D01*
X153427658Y-116133228D01*
X153451053Y-116166640D01*
X153511084Y-116252372D01*
X153515051Y-116258038D01*
X153670762Y-116413749D01*
X153851146Y-116540056D01*
X153856128Y-116542379D01*
X153856133Y-116542382D01*
X153983568Y-116601805D01*
X154036853Y-116648722D01*
X154056314Y-116716999D01*
X154035772Y-116784959D01*
X153983568Y-116830195D01*
X153856134Y-116889618D01*
X153856129Y-116889621D01*
X153851147Y-116891944D01*
X153846640Y-116895100D01*
X153846638Y-116895101D01*
X153675273Y-117015092D01*
X153675270Y-117015094D01*
X153670762Y-117018251D01*
X153515051Y-117173962D01*
X153511894Y-117178470D01*
X153511892Y-117178473D01*
X153426974Y-117299749D01*
X153388744Y-117354347D01*
X153386421Y-117359329D01*
X153386418Y-117359334D01*
X153345401Y-117447297D01*
X153295680Y-117553924D01*
X153238685Y-117766629D01*
X153219493Y-117986000D01*
X153238685Y-118205371D01*
X153240108Y-118210681D01*
X153240109Y-118210685D01*
X153247084Y-118236717D01*
X153245394Y-118307694D01*
X153214472Y-118358423D01*
X148164300Y-123408595D01*
X148101988Y-123442621D01*
X148075205Y-123445500D01*
X137937354Y-123445500D01*
X137869233Y-123425498D01*
X137834141Y-123391771D01*
X137818301Y-123369148D01*
X137787294Y-123324866D01*
X137749908Y-123271473D01*
X137749906Y-123271470D01*
X137746749Y-123266962D01*
X137591038Y-123111251D01*
X137561129Y-123090308D01*
X137478502Y-123032452D01*
X137410654Y-122984944D01*
X137211076Y-122891880D01*
X136998371Y-122834885D01*
X136779000Y-122815693D01*
X136559629Y-122834885D01*
X136346924Y-122891880D01*
X136253562Y-122935415D01*
X136152334Y-122982618D01*
X136152329Y-122982621D01*
X136147347Y-122984944D01*
X136142840Y-122988100D01*
X136142838Y-122988101D01*
X135971473Y-123108092D01*
X135971470Y-123108094D01*
X135966962Y-123111251D01*
X135811251Y-123266962D01*
X135808094Y-123271470D01*
X135808092Y-123271473D01*
X135712078Y-123408595D01*
X135684944Y-123447347D01*
X135682621Y-123452329D01*
X135682618Y-123452334D01*
X135660996Y-123498704D01*
X135591880Y-123646924D01*
X135534885Y-123859629D01*
X135515693Y-124079000D01*
X135534885Y-124298371D01*
X135591880Y-124511076D01*
X135594205Y-124516061D01*
X135682618Y-124705666D01*
X135682621Y-124705671D01*
X135684944Y-124710653D01*
X135688100Y-124715160D01*
X135688101Y-124715162D01*
X135787020Y-124856432D01*
X135811251Y-124891038D01*
X135966962Y-125046749D01*
X136147346Y-125173056D01*
X136346924Y-125266120D01*
X136559629Y-125323115D01*
X136779000Y-125342307D01*
X136998371Y-125323115D01*
X137211076Y-125266120D01*
X137410654Y-125173056D01*
X137591038Y-125046749D01*
X137746749Y-124891038D01*
X137770981Y-124856432D01*
X137792821Y-124825241D01*
X137834142Y-124766228D01*
X137889598Y-124721901D01*
X137937354Y-124712500D01*
X147576905Y-124712500D01*
X147645026Y-124732502D01*
X147691519Y-124786158D01*
X147701623Y-124856432D01*
X147672129Y-124921012D01*
X147666000Y-124927595D01*
X147184423Y-125409172D01*
X147122111Y-125443198D01*
X147062717Y-125441784D01*
X147036685Y-125434809D01*
X147036686Y-125434809D01*
X147031371Y-125433385D01*
X146812000Y-125414193D01*
X146592629Y-125433385D01*
X146379924Y-125490380D01*
X146303987Y-125525790D01*
X146185334Y-125581118D01*
X146185329Y-125581121D01*
X146180347Y-125583444D01*
X146175840Y-125586600D01*
X146175838Y-125586601D01*
X146004473Y-125706592D01*
X146004470Y-125706594D01*
X145999962Y-125709751D01*
X145844251Y-125865462D01*
X145841094Y-125869970D01*
X145841092Y-125869973D01*
X145727104Y-126032765D01*
X145717944Y-126045847D01*
X145715621Y-126050829D01*
X145715618Y-126050834D01*
X145668415Y-126152062D01*
X145624880Y-126245424D01*
X145567885Y-126458129D01*
X145548693Y-126677500D01*
X145567885Y-126896871D01*
X145624880Y-127109576D01*
X145650044Y-127163540D01*
X145715618Y-127304166D01*
X145715621Y-127304171D01*
X145717944Y-127309153D01*
X145721100Y-127313660D01*
X145721101Y-127313662D01*
X145822708Y-127458771D01*
X145844251Y-127489538D01*
X145999962Y-127645249D01*
X146004471Y-127648406D01*
X146004473Y-127648408D01*
X146076543Y-127698872D01*
X146180346Y-127771556D01*
X146379924Y-127864620D01*
X146592629Y-127921615D01*
X146812000Y-127940807D01*
X147031371Y-127921615D01*
X147244076Y-127864620D01*
X147443654Y-127771556D01*
X147547457Y-127698872D01*
X147619527Y-127648408D01*
X147619529Y-127648406D01*
X147624038Y-127645249D01*
X147779749Y-127489538D01*
X147801293Y-127458771D01*
X147902899Y-127313662D01*
X147902900Y-127313660D01*
X147906056Y-127309153D01*
X147908379Y-127304171D01*
X147908382Y-127304166D01*
X147973956Y-127163540D01*
X147999120Y-127109576D01*
X148056115Y-126896871D01*
X148075307Y-126677500D01*
X148056115Y-126458129D01*
X148054692Y-126452819D01*
X148054691Y-126452812D01*
X148047716Y-126426781D01*
X148049406Y-126355804D01*
X148080328Y-126305076D01*
X150648999Y-123736405D01*
X150711311Y-123702379D01*
X150738094Y-123699500D01*
X153324446Y-123699500D01*
X153392567Y-123719502D01*
X153427659Y-123753229D01*
X153509792Y-123870527D01*
X153515051Y-123878038D01*
X153670762Y-124033749D01*
X153851146Y-124160056D01*
X153856128Y-124162379D01*
X153856133Y-124162382D01*
X153983568Y-124221805D01*
X154036853Y-124268722D01*
X154056314Y-124336999D01*
X154035772Y-124404959D01*
X153983568Y-124450195D01*
X153856134Y-124509618D01*
X153856129Y-124509621D01*
X153851147Y-124511944D01*
X153846640Y-124515100D01*
X153846638Y-124515101D01*
X153675273Y-124635092D01*
X153675270Y-124635094D01*
X153670762Y-124638251D01*
X153515051Y-124793962D01*
X153511894Y-124798470D01*
X153511892Y-124798473D01*
X153474506Y-124851866D01*
X153447078Y-124891038D01*
X153427659Y-124918771D01*
X153372202Y-124963099D01*
X153324446Y-124972500D01*
X152671455Y-124972500D01*
X152603334Y-124952498D01*
X152568242Y-124918771D01*
X152481908Y-124795473D01*
X152481906Y-124795470D01*
X152478749Y-124790962D01*
X152323038Y-124635251D01*
X152142654Y-124508944D01*
X151943076Y-124415880D01*
X151730371Y-124358885D01*
X151511000Y-124339693D01*
X151291629Y-124358885D01*
X151078924Y-124415880D01*
X151011769Y-124447195D01*
X150884334Y-124506618D01*
X150884329Y-124506621D01*
X150879347Y-124508944D01*
X150874840Y-124512100D01*
X150874838Y-124512101D01*
X150703473Y-124632092D01*
X150703470Y-124632094D01*
X150698962Y-124635251D01*
X150543251Y-124790962D01*
X150540094Y-124795470D01*
X150540092Y-124795473D01*
X150473177Y-124891038D01*
X150416944Y-124971347D01*
X150414621Y-124976329D01*
X150414618Y-124976334D01*
X150372422Y-125066824D01*
X150323880Y-125170924D01*
X150266885Y-125383629D01*
X150247693Y-125603000D01*
X150266885Y-125822371D01*
X150323880Y-126035076D01*
X150328903Y-126045847D01*
X150414618Y-126229666D01*
X150414621Y-126229671D01*
X150416944Y-126234653D01*
X150420100Y-126239160D01*
X150420101Y-126239162D01*
X150466255Y-126305076D01*
X150543251Y-126415038D01*
X150698962Y-126570749D01*
X150703471Y-126573906D01*
X150703473Y-126573908D01*
X150778241Y-126626261D01*
X150879346Y-126697056D01*
X150884328Y-126699379D01*
X150884333Y-126699382D01*
X151011768Y-126758805D01*
X151065053Y-126805722D01*
X151084514Y-126873999D01*
X151063972Y-126941959D01*
X151011768Y-126987195D01*
X150884334Y-127046618D01*
X150884329Y-127046621D01*
X150879347Y-127048944D01*
X150874840Y-127052100D01*
X150874838Y-127052101D01*
X150703473Y-127172092D01*
X150703470Y-127172094D01*
X150698962Y-127175251D01*
X150543251Y-127330962D01*
X150540094Y-127335470D01*
X150540092Y-127335473D01*
X150508849Y-127380093D01*
X150416944Y-127511347D01*
X150414621Y-127516329D01*
X150414618Y-127516334D01*
X150389797Y-127569564D01*
X150323880Y-127710924D01*
X150266885Y-127923629D01*
X150247693Y-128143000D01*
X150266885Y-128362371D01*
X150323880Y-128575076D01*
X150329500Y-128587128D01*
X150414618Y-128769666D01*
X150414621Y-128769671D01*
X150416944Y-128774653D01*
X150420100Y-128779160D01*
X150420101Y-128779162D01*
X150537268Y-128946493D01*
X150543251Y-128955038D01*
X150698962Y-129110749D01*
X150703471Y-129113906D01*
X150703473Y-129113908D01*
X150749474Y-129146118D01*
X150879346Y-129237056D01*
X150884328Y-129239379D01*
X150884333Y-129239382D01*
X151011768Y-129298805D01*
X151065053Y-129345722D01*
X151084514Y-129413999D01*
X151063972Y-129481959D01*
X151011768Y-129527195D01*
X150884334Y-129586618D01*
X150884329Y-129586621D01*
X150879347Y-129588944D01*
X150874840Y-129592100D01*
X150874838Y-129592101D01*
X150703473Y-129712092D01*
X150703470Y-129712094D01*
X150698962Y-129715251D01*
X150543251Y-129870962D01*
X150540094Y-129875470D01*
X150540092Y-129875473D01*
X150453758Y-129998771D01*
X150416944Y-130051347D01*
X150414621Y-130056329D01*
X150414618Y-130056334D01*
X150401474Y-130084522D01*
X150323880Y-130250924D01*
X150266885Y-130463629D01*
X150247693Y-130683000D01*
X150266885Y-130902371D01*
X150323880Y-131115076D01*
X150354757Y-131181292D01*
X150414618Y-131309666D01*
X150414621Y-131309671D01*
X150416944Y-131314653D01*
X150420100Y-131319160D01*
X150420101Y-131319162D01*
X150526356Y-131470909D01*
X150543251Y-131495038D01*
X150698962Y-131650749D01*
X150703471Y-131653906D01*
X150703473Y-131653908D01*
X150743631Y-131682027D01*
X150879346Y-131777056D01*
X151078924Y-131870120D01*
X151291629Y-131927115D01*
X151511000Y-131946307D01*
X151730371Y-131927115D01*
X151943076Y-131870120D01*
X152142654Y-131777056D01*
X152278369Y-131682027D01*
X152318527Y-131653908D01*
X152318529Y-131653906D01*
X152323038Y-131650749D01*
X152478749Y-131495038D01*
X152494253Y-131472896D01*
X152564041Y-131373229D01*
X152619498Y-131328901D01*
X152667254Y-131319500D01*
X153324446Y-131319500D01*
X153392567Y-131339502D01*
X153427659Y-131373229D01*
X153509792Y-131490527D01*
X153515051Y-131498038D01*
X153670762Y-131653749D01*
X153675271Y-131656906D01*
X153675273Y-131656908D01*
X153742676Y-131704104D01*
X153851146Y-131780056D01*
X154050724Y-131873120D01*
X154263429Y-131930115D01*
X154482800Y-131949307D01*
X154702171Y-131930115D01*
X154914876Y-131873120D01*
X155114454Y-131780056D01*
X155222924Y-131704104D01*
X155290327Y-131656908D01*
X155290329Y-131656906D01*
X155294838Y-131653749D01*
X155450549Y-131498038D01*
X155455809Y-131490527D01*
X155573699Y-131322162D01*
X155573700Y-131322160D01*
X155576856Y-131317653D01*
X155579179Y-131312671D01*
X155579182Y-131312666D01*
X155667595Y-131123061D01*
X155669920Y-131118076D01*
X155726915Y-130905371D01*
X155746107Y-130686000D01*
X155726915Y-130466629D01*
X155669920Y-130253924D01*
X155590927Y-130084522D01*
X155579182Y-130059334D01*
X155579179Y-130059329D01*
X155576856Y-130054347D01*
X155571598Y-130046838D01*
X155453708Y-129878473D01*
X155453706Y-129878470D01*
X155450549Y-129873962D01*
X155294838Y-129718251D01*
X155286043Y-129712092D01*
X155160807Y-129624401D01*
X155114454Y-129591944D01*
X155109472Y-129589621D01*
X155109467Y-129589618D01*
X154982032Y-129530195D01*
X154928747Y-129483278D01*
X154909286Y-129415001D01*
X154929828Y-129347041D01*
X154982032Y-129301805D01*
X155109467Y-129242382D01*
X155109472Y-129242379D01*
X155114454Y-129240056D01*
X155222928Y-129164101D01*
X155290327Y-129116908D01*
X155290329Y-129116906D01*
X155294838Y-129113749D01*
X155450549Y-128958038D01*
X155455809Y-128950527D01*
X155573699Y-128782162D01*
X155573700Y-128782160D01*
X155576856Y-128777653D01*
X155579179Y-128772671D01*
X155579182Y-128772666D01*
X155667595Y-128583061D01*
X155669920Y-128578076D01*
X155726915Y-128365371D01*
X155746107Y-128146000D01*
X155726915Y-127926629D01*
X155669920Y-127713924D01*
X155602604Y-127569564D01*
X155579182Y-127519334D01*
X155579179Y-127519329D01*
X155576856Y-127514347D01*
X155568980Y-127503099D01*
X155453708Y-127338473D01*
X155453706Y-127338470D01*
X155450549Y-127333962D01*
X155294838Y-127178251D01*
X155286043Y-127172092D01*
X155203880Y-127114561D01*
X155114454Y-127051944D01*
X155109472Y-127049621D01*
X155109467Y-127049618D01*
X154982032Y-126990195D01*
X154928747Y-126943278D01*
X154909286Y-126875001D01*
X154929828Y-126807041D01*
X154982032Y-126761805D01*
X155109467Y-126702382D01*
X155109472Y-126702379D01*
X155114454Y-126700056D01*
X155294838Y-126573749D01*
X155450549Y-126418038D01*
X155455809Y-126410527D01*
X155573699Y-126242162D01*
X155573700Y-126242160D01*
X155576856Y-126237653D01*
X155579179Y-126232671D01*
X155579182Y-126232666D01*
X155626385Y-126131438D01*
X155669920Y-126038076D01*
X155726915Y-125825371D01*
X155746107Y-125606000D01*
X155726915Y-125386629D01*
X155669920Y-125173924D01*
X155610618Y-125046749D01*
X155579182Y-124979334D01*
X155579179Y-124979329D01*
X155576856Y-124974347D01*
X155573699Y-124969838D01*
X155453708Y-124798473D01*
X155453706Y-124798470D01*
X155450549Y-124793962D01*
X155294838Y-124638251D01*
X155286043Y-124632092D01*
X155164367Y-124546894D01*
X155114454Y-124511944D01*
X155109472Y-124509621D01*
X155109467Y-124509618D01*
X154982032Y-124450195D01*
X154928747Y-124403278D01*
X154909286Y-124335001D01*
X154929828Y-124267041D01*
X154982032Y-124221805D01*
X155109467Y-124162382D01*
X155109472Y-124162379D01*
X155114454Y-124160056D01*
X155294838Y-124033749D01*
X155450549Y-123878038D01*
X155455809Y-123870527D01*
X155573699Y-123702162D01*
X155573700Y-123702160D01*
X155576856Y-123697653D01*
X155579179Y-123692671D01*
X155579182Y-123692666D01*
X155631458Y-123580559D01*
X155669920Y-123498076D01*
X155726915Y-123285371D01*
X155746107Y-123066000D01*
X155726915Y-122846629D01*
X155669920Y-122633924D01*
X155626385Y-122540562D01*
X155579182Y-122439334D01*
X155579179Y-122439329D01*
X155576856Y-122434347D01*
X155561557Y-122412498D01*
X155453708Y-122258473D01*
X155453706Y-122258470D01*
X155450549Y-122253962D01*
X155294838Y-122098251D01*
X155286043Y-122092092D01*
X155215559Y-122042739D01*
X155114454Y-121971944D01*
X154914876Y-121878880D01*
X154702171Y-121821885D01*
X154482800Y-121802693D01*
X154263429Y-121821885D01*
X154050724Y-121878880D01*
X153990002Y-121907195D01*
X153856134Y-121969618D01*
X153856129Y-121969621D01*
X153851147Y-121971944D01*
X153846640Y-121975100D01*
X153846638Y-121975101D01*
X153675273Y-122095092D01*
X153675270Y-122095094D01*
X153670762Y-122098251D01*
X153515051Y-122253962D01*
X153511894Y-122258470D01*
X153511892Y-122258473D01*
X153427659Y-122378771D01*
X153372202Y-122423099D01*
X153324446Y-122432500D01*
X151236394Y-122432500D01*
X151168273Y-122412498D01*
X151121780Y-122358842D01*
X151111676Y-122288568D01*
X151141170Y-122223988D01*
X151147299Y-122217405D01*
X154110376Y-119254328D01*
X154172688Y-119220302D01*
X154232081Y-119221716D01*
X154258112Y-119228691D01*
X154258119Y-119228692D01*
X154263429Y-119230115D01*
X154482800Y-119249307D01*
X154702171Y-119230115D01*
X154914876Y-119173120D01*
X155114454Y-119080056D01*
X155263772Y-118975502D01*
X155290327Y-118956908D01*
X155290329Y-118956906D01*
X155294838Y-118953749D01*
X155450549Y-118798038D01*
X155455809Y-118790527D01*
X155573699Y-118622162D01*
X155573700Y-118622160D01*
X155576856Y-118617653D01*
X155579179Y-118612671D01*
X155579182Y-118612666D01*
X155626385Y-118511438D01*
X155669920Y-118418076D01*
X155726915Y-118205371D01*
X155746107Y-117986000D01*
X155726915Y-117766629D01*
X155669920Y-117553924D01*
X155620199Y-117447297D01*
X155579182Y-117359334D01*
X155579179Y-117359329D01*
X155576856Y-117354347D01*
X155538626Y-117299749D01*
X155453708Y-117178473D01*
X155453706Y-117178470D01*
X155450549Y-117173962D01*
X155294838Y-117018251D01*
X155286043Y-117012092D01*
X155133722Y-116905436D01*
X155114454Y-116891944D01*
X155109472Y-116889621D01*
X155109467Y-116889618D01*
X154982032Y-116830195D01*
X154928747Y-116783278D01*
X154909286Y-116715001D01*
X154929828Y-116647041D01*
X154982032Y-116601805D01*
X155109467Y-116542382D01*
X155109472Y-116542379D01*
X155114454Y-116540056D01*
X155294838Y-116413749D01*
X155450549Y-116258038D01*
X155454517Y-116252372D01*
X155573699Y-116082162D01*
X155573700Y-116082160D01*
X155576856Y-116077653D01*
X155579179Y-116072671D01*
X155579182Y-116072666D01*
X155631550Y-115960360D01*
X155669920Y-115878076D01*
X155726915Y-115665371D01*
X155746107Y-115446000D01*
X155726915Y-115226629D01*
X155669920Y-115013924D01*
X155620854Y-114908701D01*
X155579182Y-114819334D01*
X155579179Y-114819329D01*
X155576856Y-114814347D01*
X155548459Y-114773792D01*
X155453708Y-114638473D01*
X155453706Y-114638470D01*
X155450549Y-114633962D01*
X155294838Y-114478251D01*
X155286043Y-114472092D01*
X155148021Y-114375448D01*
X155114454Y-114351944D01*
X155109472Y-114349621D01*
X155109467Y-114349618D01*
X154982032Y-114290195D01*
X154928747Y-114243278D01*
X154909286Y-114175001D01*
X154929828Y-114107041D01*
X154982032Y-114061805D01*
X155109467Y-114002382D01*
X155109472Y-114002379D01*
X155114454Y-114000056D01*
X155228554Y-113920162D01*
X155290327Y-113876908D01*
X155290329Y-113876906D01*
X155294838Y-113873749D01*
X155450549Y-113718038D01*
X155456794Y-113709120D01*
X155573699Y-113542162D01*
X155573700Y-113542160D01*
X155576856Y-113537653D01*
X155579179Y-113532671D01*
X155579182Y-113532666D01*
X155645840Y-113389715D01*
X155669920Y-113338076D01*
X155726915Y-113125371D01*
X155746107Y-112906000D01*
X155726915Y-112686629D01*
X155669920Y-112473924D01*
X155611380Y-112348384D01*
X155579182Y-112279334D01*
X155579179Y-112279329D01*
X155576856Y-112274347D01*
X155538626Y-112219749D01*
X155453708Y-112098473D01*
X155453706Y-112098470D01*
X155450549Y-112093962D01*
X155294838Y-111938251D01*
X155266810Y-111918625D01*
X155169523Y-111850504D01*
X155114454Y-111811944D01*
X154914876Y-111718880D01*
X154702171Y-111661885D01*
X154482800Y-111642693D01*
X154263429Y-111661885D01*
X154050724Y-111718880D01*
X153957362Y-111762415D01*
X153856134Y-111809618D01*
X153856129Y-111809621D01*
X153851147Y-111811944D01*
X153846640Y-111815100D01*
X153846638Y-111815101D01*
X153675273Y-111935092D01*
X153675270Y-111935094D01*
X153670762Y-111938251D01*
X153515051Y-112093962D01*
X153511894Y-112098470D01*
X153511892Y-112098473D01*
X153426974Y-112219749D01*
X153388744Y-112274347D01*
X153386421Y-112279329D01*
X153386418Y-112279334D01*
X153354220Y-112348384D01*
X153295680Y-112473924D01*
X153294257Y-112479235D01*
X153294256Y-112479238D01*
X153273390Y-112557111D01*
X153236438Y-112617734D01*
X153172578Y-112648755D01*
X153151683Y-112650500D01*
X141265470Y-112650500D01*
X141197349Y-112630498D01*
X141150856Y-112576842D01*
X141140752Y-112506568D01*
X141170246Y-112441988D01*
X141176375Y-112435405D01*
X142601699Y-111010082D01*
X144095376Y-109516405D01*
X144157688Y-109482379D01*
X144184471Y-109479500D01*
X153324446Y-109479500D01*
X153392567Y-109499502D01*
X153427658Y-109533228D01*
X153474506Y-109600134D01*
X153484857Y-109614916D01*
X153515051Y-109658038D01*
X153670762Y-109813749D01*
X153851146Y-109940056D01*
X154050724Y-110033120D01*
X154263429Y-110090115D01*
X154482800Y-110109307D01*
X154702171Y-110090115D01*
X154914876Y-110033120D01*
X155114454Y-109940056D01*
X155294838Y-109813749D01*
X155450549Y-109658038D01*
X155480744Y-109614916D01*
X155573699Y-109482162D01*
X155573700Y-109482160D01*
X155576856Y-109477653D01*
X155579179Y-109472671D01*
X155579182Y-109472666D01*
X155652755Y-109314887D01*
X155669920Y-109278076D01*
X155726915Y-109065371D01*
X155746107Y-108846000D01*
X155726915Y-108626629D01*
X155669920Y-108413924D01*
X155609117Y-108283531D01*
X155579182Y-108219334D01*
X155579179Y-108219329D01*
X155576856Y-108214347D01*
X155568980Y-108203099D01*
X155453708Y-108038473D01*
X155453706Y-108038470D01*
X155450549Y-108033962D01*
X155294838Y-107878251D01*
X155114454Y-107751944D01*
X155109472Y-107749621D01*
X155109467Y-107749618D01*
X154982032Y-107690195D01*
X154928747Y-107643278D01*
X154909286Y-107575001D01*
X154929828Y-107507041D01*
X154982032Y-107461805D01*
X155109467Y-107402382D01*
X155109472Y-107402379D01*
X155114454Y-107400056D01*
X155294838Y-107273749D01*
X155450549Y-107118038D01*
X155537942Y-106993229D01*
X155573699Y-106942162D01*
X155573700Y-106942160D01*
X155576856Y-106937653D01*
X155579179Y-106932671D01*
X155579182Y-106932666D01*
X155652755Y-106774887D01*
X155669920Y-106738076D01*
X155726915Y-106525371D01*
X155746107Y-106306000D01*
X155726915Y-106086629D01*
X155669920Y-105873924D01*
X155609116Y-105743528D01*
X155579182Y-105679334D01*
X155579179Y-105679329D01*
X155576856Y-105674347D01*
X155573699Y-105669838D01*
X155453708Y-105498473D01*
X155453706Y-105498470D01*
X155450549Y-105493962D01*
X155294838Y-105338251D01*
X155114454Y-105211944D01*
X155109472Y-105209621D01*
X155109467Y-105209618D01*
X154982032Y-105150195D01*
X154928747Y-105103278D01*
X154909286Y-105035001D01*
X154929828Y-104967041D01*
X154982032Y-104921805D01*
X155109467Y-104862382D01*
X155109472Y-104862379D01*
X155114454Y-104860056D01*
X155294838Y-104733749D01*
X155450549Y-104578038D01*
X155455451Y-104571038D01*
X155573699Y-104402162D01*
X155573700Y-104402160D01*
X155576856Y-104397653D01*
X155579179Y-104392671D01*
X155579182Y-104392666D01*
X155667595Y-104203061D01*
X155669920Y-104198076D01*
X155726915Y-103985371D01*
X155746107Y-103766000D01*
X155726915Y-103546629D01*
X155669920Y-103333924D01*
X155598173Y-103180061D01*
X155579182Y-103139334D01*
X155579179Y-103139329D01*
X155576856Y-103134347D01*
X155568980Y-103123099D01*
X155453708Y-102958473D01*
X155453706Y-102958470D01*
X155450549Y-102953962D01*
X155294838Y-102798251D01*
X155114454Y-102671944D01*
X155109472Y-102669621D01*
X155109467Y-102669618D01*
X154982032Y-102610195D01*
X154928747Y-102563278D01*
X154909286Y-102495001D01*
X154929828Y-102427041D01*
X154982032Y-102381805D01*
X155109467Y-102322382D01*
X155109472Y-102322379D01*
X155114454Y-102320056D01*
X155294838Y-102193749D01*
X155450549Y-102038038D01*
X155455451Y-102031038D01*
X155573699Y-101862162D01*
X155573700Y-101862160D01*
X155576856Y-101857653D01*
X155579179Y-101852671D01*
X155579182Y-101852666D01*
X155667595Y-101663061D01*
X155669920Y-101658076D01*
X155726915Y-101445371D01*
X155746107Y-101226000D01*
X155726915Y-101006629D01*
X155669920Y-100793924D01*
X155595304Y-100633908D01*
X155579182Y-100599334D01*
X155579179Y-100599329D01*
X155576856Y-100594347D01*
X155568980Y-100583099D01*
X155453708Y-100418473D01*
X155453706Y-100418470D01*
X155450549Y-100413962D01*
X155294838Y-100258251D01*
X155114454Y-100131944D01*
X155109472Y-100129621D01*
X155109467Y-100129618D01*
X154982032Y-100070195D01*
X154928747Y-100023278D01*
X154909286Y-99955001D01*
X154929828Y-99887041D01*
X154982032Y-99841805D01*
X155109467Y-99782382D01*
X155109472Y-99782379D01*
X155114454Y-99780056D01*
X155237585Y-99693838D01*
X155290327Y-99656908D01*
X155290329Y-99656906D01*
X155294838Y-99653749D01*
X155450549Y-99498038D01*
X155455451Y-99491038D01*
X155573699Y-99322162D01*
X155573700Y-99322160D01*
X155576856Y-99317653D01*
X155579179Y-99312671D01*
X155579182Y-99312666D01*
X155626385Y-99211438D01*
X155669920Y-99118076D01*
X155726915Y-98905371D01*
X155746107Y-98686000D01*
X155726915Y-98466629D01*
X155669920Y-98253924D01*
X155595304Y-98093908D01*
X155579182Y-98059334D01*
X155579179Y-98059329D01*
X155576856Y-98054347D01*
X155568980Y-98043099D01*
X155453708Y-97878473D01*
X155453706Y-97878470D01*
X155450549Y-97873962D01*
X155294838Y-97718251D01*
X155114454Y-97591944D01*
X155109472Y-97589621D01*
X155109467Y-97589618D01*
X154982032Y-97530195D01*
X154928747Y-97483278D01*
X154909286Y-97415001D01*
X154929828Y-97347041D01*
X154982032Y-97301805D01*
X155109467Y-97242382D01*
X155109472Y-97242379D01*
X155114454Y-97240056D01*
X155215559Y-97169261D01*
X155290327Y-97116908D01*
X155290329Y-97116906D01*
X155294838Y-97113749D01*
X155450549Y-96958038D01*
X155455451Y-96951038D01*
X155573699Y-96782162D01*
X155573700Y-96782160D01*
X155576856Y-96777653D01*
X155579179Y-96772671D01*
X155579182Y-96772666D01*
X155667595Y-96583061D01*
X155669920Y-96578076D01*
X155726915Y-96365371D01*
X155746107Y-96146000D01*
X155726915Y-95926629D01*
X155669920Y-95713924D01*
X155595304Y-95553908D01*
X155579182Y-95519334D01*
X155579179Y-95519329D01*
X155576856Y-95514347D01*
X155568980Y-95503099D01*
X155453708Y-95338473D01*
X155453706Y-95338470D01*
X155450549Y-95333962D01*
X155294838Y-95178251D01*
X155114454Y-95051944D01*
X154914876Y-94958880D01*
X154702171Y-94901885D01*
X154482800Y-94882693D01*
X154263429Y-94901885D01*
X154050724Y-94958880D01*
X153957362Y-95002415D01*
X153856134Y-95049618D01*
X153856129Y-95049621D01*
X153851147Y-95051944D01*
X153846640Y-95055100D01*
X153846638Y-95055101D01*
X153675273Y-95175092D01*
X153675270Y-95175094D01*
X153670762Y-95178251D01*
X153515051Y-95333962D01*
X153511894Y-95338470D01*
X153511892Y-95338473D01*
X153427659Y-95458771D01*
X153372202Y-95503099D01*
X153324446Y-95512500D01*
X152674256Y-95512500D01*
X152606135Y-95492498D01*
X152571043Y-95458771D01*
X152481908Y-95331473D01*
X152481906Y-95331470D01*
X152478749Y-95326962D01*
X152323038Y-95171251D01*
X152142654Y-95044944D01*
X151943076Y-94951880D01*
X151730371Y-94894885D01*
X151511000Y-94875693D01*
X151291629Y-94894885D01*
X151078924Y-94951880D01*
X150985562Y-94995415D01*
X150884334Y-95042618D01*
X150884329Y-95042621D01*
X150879347Y-95044944D01*
X150874840Y-95048100D01*
X150874838Y-95048101D01*
X150703473Y-95168092D01*
X150703470Y-95168094D01*
X150698962Y-95171251D01*
X150543251Y-95326962D01*
X150540094Y-95331470D01*
X150540092Y-95331473D01*
X150492855Y-95398935D01*
X150416944Y-95507347D01*
X150414621Y-95512329D01*
X150414618Y-95512334D01*
X150396705Y-95550749D01*
X150323880Y-95706924D01*
X150266885Y-95919629D01*
X150247693Y-96139000D01*
X150266885Y-96358371D01*
X150323880Y-96571076D01*
X150329469Y-96583061D01*
X150414618Y-96765666D01*
X150414621Y-96765671D01*
X150416944Y-96770653D01*
X150420100Y-96775160D01*
X150420101Y-96775162D01*
X150506337Y-96898319D01*
X150543251Y-96951038D01*
X150698962Y-97106749D01*
X150703471Y-97109906D01*
X150703473Y-97109908D01*
X150778241Y-97162261D01*
X150879346Y-97233056D01*
X150884328Y-97235379D01*
X150884333Y-97235382D01*
X151011768Y-97294805D01*
X151065053Y-97341722D01*
X151084514Y-97409999D01*
X151063972Y-97477959D01*
X151011768Y-97523195D01*
X150884334Y-97582618D01*
X150884329Y-97582621D01*
X150879347Y-97584944D01*
X150874840Y-97588100D01*
X150874838Y-97588101D01*
X150703473Y-97708092D01*
X150703470Y-97708094D01*
X150698962Y-97711251D01*
X150543251Y-97866962D01*
X150540094Y-97871470D01*
X150540092Y-97871473D01*
X150492855Y-97938935D01*
X150416944Y-98047347D01*
X150414621Y-98052329D01*
X150414618Y-98052334D01*
X150396705Y-98090749D01*
X150323880Y-98246924D01*
X150266885Y-98459629D01*
X150247693Y-98679000D01*
X150266885Y-98898371D01*
X150323880Y-99111076D01*
X150339795Y-99145205D01*
X150414618Y-99305666D01*
X150414621Y-99305671D01*
X150416944Y-99310653D01*
X150420100Y-99315160D01*
X150420101Y-99315162D01*
X150529943Y-99472032D01*
X150543251Y-99491038D01*
X150698962Y-99646749D01*
X150703471Y-99649906D01*
X150703473Y-99649908D01*
X150766212Y-99693838D01*
X150879346Y-99773056D01*
X150884328Y-99775379D01*
X150884333Y-99775382D01*
X151011768Y-99834805D01*
X151065053Y-99881722D01*
X151084514Y-99949999D01*
X151063972Y-100017959D01*
X151011768Y-100063195D01*
X150884334Y-100122618D01*
X150884329Y-100122621D01*
X150879347Y-100124944D01*
X150874840Y-100128100D01*
X150874838Y-100128101D01*
X150703473Y-100248092D01*
X150703470Y-100248094D01*
X150698962Y-100251251D01*
X150543251Y-100406962D01*
X150540094Y-100411470D01*
X150540092Y-100411473D01*
X150492855Y-100478935D01*
X150416944Y-100587347D01*
X150414621Y-100592329D01*
X150414618Y-100592334D01*
X150396705Y-100630749D01*
X150323880Y-100786924D01*
X150266885Y-100999629D01*
X150247693Y-101219000D01*
X150266885Y-101438371D01*
X150323880Y-101651076D01*
X150367071Y-101743699D01*
X150414618Y-101845666D01*
X150414621Y-101845671D01*
X150416944Y-101850653D01*
X150420100Y-101855160D01*
X150420101Y-101855162D01*
X150476336Y-101935473D01*
X150543251Y-102031038D01*
X150698962Y-102186749D01*
X150879346Y-102313056D01*
X150884328Y-102315379D01*
X150884333Y-102315382D01*
X151011768Y-102374805D01*
X151065053Y-102421722D01*
X151084514Y-102489999D01*
X151063972Y-102557959D01*
X151011768Y-102603195D01*
X150884334Y-102662618D01*
X150884329Y-102662621D01*
X150879347Y-102664944D01*
X150874840Y-102668100D01*
X150874838Y-102668101D01*
X150703473Y-102788092D01*
X150703470Y-102788094D01*
X150698962Y-102791251D01*
X150543251Y-102946962D01*
X150540094Y-102951470D01*
X150540092Y-102951473D01*
X150535191Y-102958473D01*
X150416944Y-103127347D01*
X150414621Y-103132329D01*
X150414618Y-103132334D01*
X150392363Y-103180061D01*
X150323880Y-103326924D01*
X150266885Y-103539629D01*
X150247693Y-103759000D01*
X150266885Y-103978371D01*
X150323880Y-104191076D01*
X150329469Y-104203061D01*
X150414618Y-104385666D01*
X150414621Y-104385671D01*
X150416944Y-104390653D01*
X150420100Y-104395160D01*
X150420101Y-104395162D01*
X150476336Y-104475473D01*
X150543251Y-104571038D01*
X150698962Y-104726749D01*
X150879346Y-104853056D01*
X151078924Y-104946120D01*
X151291629Y-105003115D01*
X151511000Y-105022307D01*
X151730371Y-105003115D01*
X151943076Y-104946120D01*
X152142654Y-104853056D01*
X152323038Y-104726749D01*
X152478749Y-104571038D01*
X152540614Y-104482686D01*
X152561240Y-104453229D01*
X152616697Y-104408901D01*
X152664453Y-104399500D01*
X153324446Y-104399500D01*
X153392567Y-104419502D01*
X153427658Y-104453228D01*
X153442176Y-104473962D01*
X153510150Y-104571038D01*
X153515051Y-104578038D01*
X153670762Y-104733749D01*
X153851146Y-104860056D01*
X153856128Y-104862379D01*
X153856133Y-104862382D01*
X153983568Y-104921805D01*
X154036853Y-104968722D01*
X154056314Y-105036999D01*
X154035772Y-105104959D01*
X153983568Y-105150195D01*
X153856134Y-105209618D01*
X153856129Y-105209621D01*
X153851147Y-105211944D01*
X153846640Y-105215100D01*
X153846638Y-105215101D01*
X153675273Y-105335092D01*
X153675270Y-105335094D01*
X153670762Y-105338251D01*
X153515051Y-105493962D01*
X153511894Y-105498470D01*
X153511892Y-105498473D01*
X153427659Y-105618771D01*
X153372202Y-105663099D01*
X153324446Y-105672500D01*
X141676767Y-105672500D01*
X141665584Y-105671973D01*
X141658091Y-105670298D01*
X141650165Y-105670547D01*
X141650164Y-105670547D01*
X141590014Y-105672438D01*
X141586055Y-105672500D01*
X141558144Y-105672500D01*
X141554210Y-105672997D01*
X141554209Y-105672997D01*
X141554144Y-105673005D01*
X141542307Y-105673938D01*
X141510490Y-105674938D01*
X141506029Y-105675078D01*
X141498110Y-105675327D01*
X141484317Y-105679334D01*
X141478658Y-105680978D01*
X141459306Y-105684986D01*
X141452235Y-105685880D01*
X141439203Y-105687526D01*
X141431834Y-105690443D01*
X141431832Y-105690444D01*
X141398097Y-105703800D01*
X141386869Y-105707645D01*
X141344407Y-105719982D01*
X141337585Y-105724016D01*
X141337579Y-105724019D01*
X141326968Y-105730294D01*
X141309218Y-105738990D01*
X141297756Y-105743528D01*
X141297751Y-105743531D01*
X141290383Y-105746448D01*
X141283968Y-105751109D01*
X141254625Y-105772427D01*
X141244707Y-105778943D01*
X141226019Y-105789995D01*
X141206637Y-105801458D01*
X141192313Y-105815782D01*
X141177281Y-105828621D01*
X141160893Y-105840528D01*
X141133265Y-105873924D01*
X141132712Y-105874593D01*
X141124722Y-105883373D01*
X136426500Y-110581595D01*
X136364188Y-110615621D01*
X136337405Y-110618500D01*
X135905354Y-110618500D01*
X135837233Y-110598498D01*
X135802141Y-110564771D01*
X135717908Y-110444473D01*
X135717906Y-110444470D01*
X135714749Y-110439962D01*
X135559038Y-110284251D01*
X135550777Y-110278466D01*
X135479759Y-110228739D01*
X135378654Y-110157944D01*
X135179076Y-110064880D01*
X134966371Y-110007885D01*
X134747000Y-109988693D01*
X134527629Y-110007885D01*
X134314924Y-110064880D01*
X134259780Y-110090594D01*
X134120334Y-110155618D01*
X134120329Y-110155621D01*
X134115347Y-110157944D01*
X134110840Y-110161100D01*
X134110838Y-110161101D01*
X133939473Y-110281092D01*
X133939470Y-110281094D01*
X133934962Y-110284251D01*
X133779251Y-110439962D01*
X133776094Y-110444470D01*
X133776092Y-110444473D01*
X133680078Y-110581595D01*
X133652944Y-110620347D01*
X133650621Y-110625329D01*
X133650618Y-110625334D01*
X133603415Y-110726562D01*
X133559880Y-110819924D01*
X133502885Y-111032629D01*
X133483693Y-111252000D01*
X133502885Y-111471371D01*
X133559880Y-111684076D01*
X133580028Y-111727283D01*
X133650618Y-111878666D01*
X133650621Y-111878671D01*
X133652944Y-111883653D01*
X133656100Y-111888160D01*
X133656101Y-111888162D01*
X133761380Y-112038515D01*
X133779251Y-112064038D01*
X133934962Y-112219749D01*
X134115346Y-112346056D01*
X134120331Y-112348380D01*
X134120337Y-112348384D01*
X134253129Y-112410305D01*
X134306415Y-112457222D01*
X134325876Y-112525499D01*
X134305334Y-112593459D01*
X134251312Y-112639525D01*
X134199880Y-112650500D01*
X130825354Y-112650500D01*
X130757233Y-112630498D01*
X130722141Y-112596771D01*
X130637908Y-112476473D01*
X130637906Y-112476470D01*
X130634749Y-112471962D01*
X130479038Y-112316251D01*
X130452001Y-112297319D01*
X130345731Y-112222908D01*
X130298654Y-112189944D01*
X130099076Y-112096880D01*
X129886371Y-112039885D01*
X129667000Y-112020693D01*
X129447629Y-112039885D01*
X129234924Y-112096880D01*
X129141562Y-112140415D01*
X129040334Y-112187618D01*
X129040329Y-112187621D01*
X129035347Y-112189944D01*
X129030840Y-112193100D01*
X129030838Y-112193101D01*
X128859473Y-112313092D01*
X128859470Y-112313094D01*
X128854962Y-112316251D01*
X128699251Y-112471962D01*
X128696094Y-112476470D01*
X128696092Y-112476473D01*
X128588243Y-112630498D01*
X128572944Y-112652347D01*
X128570621Y-112657329D01*
X128570618Y-112657334D01*
X128528955Y-112746681D01*
X128479880Y-112851924D01*
X128422885Y-113064629D01*
X128403693Y-113284000D01*
X128422885Y-113503371D01*
X128479880Y-113716076D01*
X128512163Y-113785307D01*
X128570618Y-113910666D01*
X128570621Y-113910671D01*
X128572944Y-113915653D01*
X128576100Y-113920160D01*
X128576101Y-113920162D01*
X128695580Y-114090795D01*
X128699251Y-114096038D01*
X128788265Y-114185052D01*
X128822291Y-114247364D01*
X128817226Y-114318179D01*
X128798121Y-114352151D01*
X128682478Y-114498844D01*
X128679789Y-114503955D01*
X128679787Y-114503958D01*
X128628979Y-114600528D01*
X128582450Y-114688965D01*
X128518745Y-114894131D01*
X128518638Y-114895037D01*
X128485661Y-114956121D01*
X128423512Y-114990443D01*
X128352673Y-114985717D01*
X128295635Y-114943442D01*
X128274872Y-114901654D01*
X128271224Y-114888718D01*
X128222938Y-114717509D01*
X128211676Y-114694671D01*
X128130475Y-114530014D01*
X128127921Y-114524835D01*
X127999384Y-114352702D01*
X127995148Y-114348786D01*
X127845870Y-114210795D01*
X127845867Y-114210793D01*
X127841630Y-114206876D01*
X127659943Y-114092240D01*
X127460408Y-114012634D01*
X127454748Y-114011508D01*
X127454744Y-114011507D01*
X127255374Y-113971850D01*
X127255371Y-113971850D01*
X127249707Y-113970723D01*
X127243932Y-113970647D01*
X127243928Y-113970647D01*
X127136255Y-113969238D01*
X127034896Y-113967911D01*
X127029199Y-113968890D01*
X127029198Y-113968890D01*
X126828867Y-114003313D01*
X126823170Y-114004292D01*
X126621620Y-114078648D01*
X126436994Y-114188488D01*
X126432654Y-114192294D01*
X126432650Y-114192297D01*
X126289110Y-114318179D01*
X126275477Y-114330135D01*
X126142478Y-114498844D01*
X126139789Y-114503955D01*
X126139787Y-114503958D01*
X126088979Y-114600528D01*
X126042450Y-114688965D01*
X125978745Y-114894131D01*
X125978541Y-114895856D01*
X125945432Y-114957177D01*
X125883282Y-114991496D01*
X125812443Y-114986765D01*
X125755407Y-114944488D01*
X125734648Y-114902704D01*
X125684038Y-114723253D01*
X125679913Y-114712506D01*
X125590048Y-114530278D01*
X125585538Y-114522919D01*
X125575027Y-114515030D01*
X125562608Y-114521802D01*
X124959022Y-115125388D01*
X124951408Y-115139332D01*
X124221356Y-115139332D01*
X124222592Y-115137068D01*
X124222461Y-115135235D01*
X124218210Y-115128620D01*
X123610818Y-114521228D01*
X123598438Y-114514468D01*
X123592472Y-114518934D01*
X123505603Y-114684047D01*
X123501202Y-114694671D01*
X123440949Y-114888718D01*
X123438557Y-114899972D01*
X123414675Y-115101749D01*
X123414374Y-115113250D01*
X121726033Y-115113250D01*
X121631371Y-115087885D01*
X121412000Y-115068693D01*
X121192629Y-115087885D01*
X120979924Y-115144880D01*
X120886562Y-115188415D01*
X120785334Y-115235618D01*
X120785329Y-115235621D01*
X120780347Y-115237944D01*
X120775840Y-115241100D01*
X120775838Y-115241101D01*
X120604473Y-115361092D01*
X120604470Y-115361094D01*
X120599962Y-115364251D01*
X120444251Y-115519962D01*
X120441094Y-115524470D01*
X120441092Y-115524473D01*
X120338716Y-115670681D01*
X120317944Y-115700347D01*
X120315621Y-115705329D01*
X120315618Y-115705334D01*
X120285546Y-115769825D01*
X120224880Y-115899924D01*
X120167885Y-116112629D01*
X120148693Y-116332000D01*
X117457196Y-116332000D01*
X117449115Y-116239629D01*
X117392120Y-116026924D01*
X117335376Y-115905235D01*
X117301382Y-115832334D01*
X117301379Y-115832329D01*
X117299056Y-115827347D01*
X117295899Y-115822838D01*
X117175908Y-115651473D01*
X117175906Y-115651470D01*
X117172749Y-115646962D01*
X117017038Y-115491251D01*
X116836654Y-115364944D01*
X116637076Y-115271880D01*
X116424371Y-115214885D01*
X116205000Y-115195693D01*
X115985629Y-115214885D01*
X115772924Y-115271880D01*
X115679562Y-115315415D01*
X115578334Y-115362618D01*
X115578329Y-115362621D01*
X115573347Y-115364944D01*
X115568840Y-115368100D01*
X115568838Y-115368101D01*
X115397473Y-115488092D01*
X115397470Y-115488094D01*
X115392962Y-115491251D01*
X115237251Y-115646962D01*
X115234094Y-115651470D01*
X115234092Y-115651473D01*
X115114101Y-115822838D01*
X115110944Y-115827347D01*
X115108621Y-115832329D01*
X115108618Y-115832334D01*
X115048919Y-115960360D01*
X115002002Y-116013645D01*
X114933724Y-116033106D01*
X114865764Y-116012564D01*
X114820529Y-115960360D01*
X114760946Y-115832583D01*
X114755466Y-115823093D01*
X114726589Y-115781851D01*
X114716113Y-115773477D01*
X114702666Y-115780545D01*
X114037021Y-116446189D01*
X114029408Y-116460132D01*
X113299356Y-116460132D01*
X113300592Y-116457868D01*
X113300461Y-116456034D01*
X113296210Y-116449420D01*
X112626609Y-115779820D01*
X112608305Y-115769825D01*
X112548259Y-115756762D01*
X112498057Y-115706559D01*
X112483382Y-115659782D01*
X112483069Y-115656894D01*
X112479116Y-115620510D01*
X112477599Y-115606540D01*
X112477598Y-115606536D01*
X112476745Y-115598684D01*
X112425615Y-115462295D01*
X112384838Y-115407887D01*
X112979477Y-115407887D01*
X112986545Y-115421334D01*
X113652189Y-116086979D01*
X113666132Y-116094592D01*
X113667966Y-116094461D01*
X113674580Y-116090210D01*
X114344180Y-115420609D01*
X114350607Y-115408839D01*
X114341313Y-115396825D01*
X114300912Y-115368536D01*
X114291416Y-115363053D01*
X114101887Y-115274674D01*
X114091595Y-115270928D01*
X113889599Y-115216804D01*
X113878804Y-115214901D01*
X113670475Y-115196674D01*
X113659525Y-115196674D01*
X113451196Y-115214901D01*
X113440401Y-115216804D01*
X113238405Y-115270928D01*
X113228113Y-115274674D01*
X113038583Y-115363054D01*
X113029093Y-115368534D01*
X112987851Y-115397411D01*
X112979477Y-115407887D01*
X112384838Y-115407887D01*
X112338261Y-115345739D01*
X112221705Y-115258385D01*
X112085316Y-115207255D01*
X112023134Y-115200500D01*
X110226866Y-115200500D01*
X110164684Y-115207255D01*
X110028295Y-115258385D01*
X109911739Y-115345739D01*
X109824385Y-115462295D01*
X109773255Y-115598684D01*
X109766500Y-115660866D01*
X109766500Y-117080523D01*
X109746498Y-117148644D01*
X109692842Y-117195137D01*
X109622568Y-117205241D01*
X109557988Y-117175747D01*
X109551405Y-117169618D01*
X109397038Y-117015251D01*
X109216654Y-116888944D01*
X109017076Y-116795880D01*
X108804371Y-116738885D01*
X108585000Y-116719693D01*
X108365629Y-116738885D01*
X108152924Y-116795880D01*
X108093890Y-116823408D01*
X107958334Y-116886618D01*
X107958329Y-116886621D01*
X107953347Y-116888944D01*
X107948840Y-116892100D01*
X107948838Y-116892101D01*
X107777473Y-117012092D01*
X107777470Y-117012094D01*
X107772962Y-117015251D01*
X107617251Y-117170962D01*
X107614094Y-117175470D01*
X107614092Y-117175473D01*
X107527758Y-117298771D01*
X107472301Y-117343099D01*
X107424545Y-117352500D01*
X107381154Y-117352500D01*
X107313033Y-117332498D01*
X107277941Y-117298771D01*
X107275900Y-117295855D01*
X107205376Y-117195137D01*
X107193708Y-117178473D01*
X107193706Y-117178470D01*
X107190549Y-117173962D01*
X107034838Y-117018251D01*
X107026043Y-117012092D01*
X106873722Y-116905436D01*
X106854454Y-116891944D01*
X106654876Y-116798880D01*
X106442171Y-116741885D01*
X106222800Y-116722693D01*
X106003429Y-116741885D01*
X105790724Y-116798880D01*
X105728726Y-116827790D01*
X105596134Y-116889618D01*
X105596129Y-116889621D01*
X105591147Y-116891944D01*
X105586640Y-116895100D01*
X105586638Y-116895101D01*
X105415273Y-117015092D01*
X105415270Y-117015094D01*
X105410762Y-117018251D01*
X105255051Y-117173962D01*
X105251894Y-117178470D01*
X105251892Y-117178473D01*
X105166974Y-117299749D01*
X105128744Y-117354347D01*
X105126421Y-117359329D01*
X105126418Y-117359334D01*
X105085401Y-117447297D01*
X105035680Y-117553924D01*
X104978685Y-117766629D01*
X104959493Y-117986000D01*
X104978685Y-118205371D01*
X105035680Y-118418076D01*
X105079215Y-118511438D01*
X105126418Y-118612666D01*
X105126421Y-118612671D01*
X105128744Y-118617653D01*
X105131900Y-118622160D01*
X105131901Y-118622162D01*
X105249792Y-118790527D01*
X105255051Y-118798038D01*
X105410762Y-118953749D01*
X105415271Y-118956906D01*
X105415273Y-118956908D01*
X105441828Y-118975502D01*
X105591146Y-119080056D01*
X105596128Y-119082379D01*
X105596133Y-119082382D01*
X105723568Y-119141805D01*
X105776853Y-119188722D01*
X105796314Y-119256999D01*
X105775772Y-119324959D01*
X105723568Y-119370195D01*
X105596134Y-119429618D01*
X105596129Y-119429621D01*
X105591147Y-119431944D01*
X105586640Y-119435100D01*
X105586638Y-119435101D01*
X105415273Y-119555092D01*
X105415270Y-119555094D01*
X105410762Y-119558251D01*
X105255051Y-119713962D01*
X105251894Y-119718470D01*
X105251892Y-119718473D01*
X105131901Y-119889838D01*
X105128744Y-119894347D01*
X105126421Y-119899329D01*
X105126418Y-119899334D01*
X105083712Y-119990918D01*
X105035680Y-120093924D01*
X104978685Y-120306629D01*
X104959493Y-120526000D01*
X104978685Y-120745371D01*
X105035680Y-120958076D01*
X105038005Y-120963061D01*
X105126418Y-121152666D01*
X105126421Y-121152671D01*
X105128744Y-121157653D01*
X105131900Y-121162160D01*
X105131901Y-121162162D01*
X105249792Y-121330527D01*
X105255051Y-121338038D01*
X105410762Y-121493749D01*
X105591146Y-121620056D01*
X105596128Y-121622379D01*
X105596133Y-121622382D01*
X105723568Y-121681805D01*
X105776853Y-121728722D01*
X105796314Y-121796999D01*
X105775772Y-121864959D01*
X105723568Y-121910195D01*
X105596134Y-121969618D01*
X105596129Y-121969621D01*
X105591147Y-121971944D01*
X105586640Y-121975100D01*
X105586638Y-121975101D01*
X105415273Y-122095092D01*
X105415270Y-122095094D01*
X105410762Y-122098251D01*
X105255051Y-122253962D01*
X105251894Y-122258470D01*
X105251892Y-122258473D01*
X105144043Y-122412498D01*
X105128744Y-122434347D01*
X105126421Y-122439329D01*
X105126418Y-122439334D01*
X105079215Y-122540562D01*
X105035680Y-122633924D01*
X104978685Y-122846629D01*
X104959493Y-123066000D01*
X104978685Y-123285371D01*
X105035680Y-123498076D01*
X105074142Y-123580559D01*
X105126418Y-123692666D01*
X105126421Y-123692671D01*
X105128744Y-123697653D01*
X105131900Y-123702160D01*
X105131901Y-123702162D01*
X105249792Y-123870527D01*
X105255051Y-123878038D01*
X105410762Y-124033749D01*
X105591146Y-124160056D01*
X105596128Y-124162379D01*
X105596133Y-124162382D01*
X105723568Y-124221805D01*
X105776853Y-124268722D01*
X105796314Y-124336999D01*
X105775772Y-124404959D01*
X105723568Y-124450195D01*
X105596134Y-124509618D01*
X105596129Y-124509621D01*
X105591147Y-124511944D01*
X105586640Y-124515100D01*
X105586638Y-124515101D01*
X105415273Y-124635092D01*
X105415270Y-124635094D01*
X105410762Y-124638251D01*
X105255051Y-124793962D01*
X105251894Y-124798470D01*
X105251892Y-124798473D01*
X105131901Y-124969838D01*
X105128744Y-124974347D01*
X105126421Y-124979329D01*
X105126418Y-124979334D01*
X105094982Y-125046749D01*
X105035680Y-125173924D01*
X104978685Y-125386629D01*
X104959493Y-125606000D01*
X104978685Y-125825371D01*
X105035680Y-126038076D01*
X105079215Y-126131438D01*
X105126418Y-126232666D01*
X105126421Y-126232671D01*
X105128744Y-126237653D01*
X105131900Y-126242160D01*
X105131901Y-126242162D01*
X105249792Y-126410527D01*
X105255051Y-126418038D01*
X105410762Y-126573749D01*
X105591146Y-126700056D01*
X105596128Y-126702379D01*
X105596133Y-126702382D01*
X105723568Y-126761805D01*
X105776853Y-126808722D01*
X105796314Y-126876999D01*
X105775772Y-126944959D01*
X105723568Y-126990195D01*
X105596134Y-127049618D01*
X105596129Y-127049621D01*
X105591147Y-127051944D01*
X105586640Y-127055100D01*
X105586638Y-127055101D01*
X105415273Y-127175092D01*
X105415270Y-127175094D01*
X105410762Y-127178251D01*
X105255051Y-127333962D01*
X105251894Y-127338470D01*
X105251892Y-127338473D01*
X105136620Y-127503099D01*
X105128744Y-127514347D01*
X105126421Y-127519329D01*
X105126418Y-127519334D01*
X105102996Y-127569564D01*
X105035680Y-127713924D01*
X104978685Y-127926629D01*
X104959493Y-128146000D01*
X103505000Y-128146000D01*
X103505000Y-111918625D01*
X103525002Y-111850504D01*
X103578658Y-111804011D01*
X103648932Y-111793907D01*
X103713512Y-111823401D01*
X103720095Y-111829530D01*
X104943209Y-113052643D01*
X104978200Y-113119862D01*
X104978206Y-113119894D01*
X104978685Y-113125371D01*
X105035680Y-113338076D01*
X105059760Y-113389715D01*
X105126418Y-113532666D01*
X105126421Y-113532671D01*
X105128744Y-113537653D01*
X105131900Y-113542160D01*
X105131901Y-113542162D01*
X105248807Y-113709120D01*
X105255051Y-113718038D01*
X105410762Y-113873749D01*
X105415271Y-113876906D01*
X105415273Y-113876908D01*
X105477046Y-113920162D01*
X105591146Y-114000056D01*
X105790724Y-114093120D01*
X106003429Y-114150115D01*
X106222800Y-114169307D01*
X106411401Y-114152807D01*
X123965719Y-114152807D01*
X123969206Y-114161196D01*
X124574188Y-114766178D01*
X124588132Y-114773792D01*
X124589965Y-114773661D01*
X124596580Y-114769410D01*
X125201073Y-114164917D01*
X125207833Y-114152537D01*
X125201803Y-114144482D01*
X125124595Y-114095767D01*
X125114352Y-114090548D01*
X124925628Y-114015255D01*
X124914601Y-114011988D01*
X124715321Y-113972349D01*
X124703875Y-113971146D01*
X124500718Y-113968487D01*
X124489238Y-113969390D01*
X124288997Y-114003798D01*
X124277877Y-114006778D01*
X124087252Y-114077103D01*
X124076874Y-114082053D01*
X123975317Y-114142474D01*
X123965719Y-114152807D01*
X106411401Y-114152807D01*
X106442171Y-114150115D01*
X106654876Y-114093120D01*
X106854454Y-114000056D01*
X106968554Y-113920162D01*
X107030327Y-113876908D01*
X107030329Y-113876906D01*
X107034838Y-113873749D01*
X107190549Y-113718038D01*
X107196794Y-113709120D01*
X107313699Y-113542162D01*
X107313700Y-113542160D01*
X107316856Y-113537653D01*
X107319179Y-113532671D01*
X107319182Y-113532666D01*
X107385840Y-113389715D01*
X107409920Y-113338076D01*
X107414728Y-113320134D01*
X109766500Y-113320134D01*
X109773255Y-113382316D01*
X109824385Y-113518705D01*
X109911739Y-113635261D01*
X110028295Y-113722615D01*
X110164684Y-113773745D01*
X110226866Y-113780500D01*
X112023134Y-113780500D01*
X112085316Y-113773745D01*
X112221705Y-113722615D01*
X112338261Y-113635261D01*
X112385552Y-113572161D01*
X112979393Y-113572161D01*
X112988687Y-113584175D01*
X113029088Y-113612464D01*
X113038584Y-113617947D01*
X113228113Y-113706326D01*
X113238405Y-113710072D01*
X113440401Y-113764196D01*
X113451196Y-113766099D01*
X113659525Y-113784326D01*
X113670475Y-113784326D01*
X113878804Y-113766099D01*
X113889599Y-113764196D01*
X114091595Y-113710072D01*
X114101887Y-113706326D01*
X114291416Y-113617947D01*
X114300912Y-113612464D01*
X114342148Y-113583590D01*
X114350523Y-113573112D01*
X114343457Y-113559668D01*
X113677811Y-112894021D01*
X113663868Y-112886408D01*
X113662034Y-112886539D01*
X113655420Y-112890790D01*
X112985820Y-113560391D01*
X112979393Y-113572161D01*
X112385552Y-113572161D01*
X112425615Y-113518705D01*
X112476745Y-113382316D01*
X112483364Y-113321386D01*
X112510606Y-113255824D01*
X112568969Y-113215398D01*
X112606731Y-113211284D01*
X112627334Y-113200455D01*
X113292979Y-112534811D01*
X113299356Y-112523132D01*
X114029408Y-112523132D01*
X114029539Y-112524966D01*
X114033790Y-112531580D01*
X114703391Y-113201180D01*
X114715161Y-113207607D01*
X114727176Y-113198311D01*
X114755466Y-113157907D01*
X114760946Y-113148417D01*
X114820529Y-113020640D01*
X114867446Y-112967355D01*
X114935724Y-112947894D01*
X115003684Y-112968436D01*
X115048919Y-113020640D01*
X115108618Y-113148666D01*
X115108621Y-113148671D01*
X115110944Y-113153653D01*
X115114100Y-113158160D01*
X115114101Y-113158162D01*
X115225123Y-113316717D01*
X115237251Y-113334038D01*
X115392962Y-113489749D01*
X115397471Y-113492906D01*
X115397473Y-113492908D01*
X115422307Y-113510297D01*
X115573346Y-113616056D01*
X115772924Y-113709120D01*
X115985629Y-113766115D01*
X116205000Y-113785307D01*
X116424371Y-113766115D01*
X116637076Y-113709120D01*
X116836654Y-113616056D01*
X116987693Y-113510297D01*
X117012527Y-113492908D01*
X117012529Y-113492906D01*
X117017038Y-113489749D01*
X117172749Y-113334038D01*
X117184878Y-113316717D01*
X117295899Y-113158162D01*
X117295900Y-113158160D01*
X117299056Y-113153653D01*
X117301379Y-113148671D01*
X117301382Y-113148666D01*
X117361081Y-113020640D01*
X117392120Y-112954076D01*
X117449115Y-112741371D01*
X117468307Y-112522000D01*
X117449115Y-112302629D01*
X117392120Y-112089924D01*
X117339609Y-111977313D01*
X117301382Y-111895334D01*
X117301379Y-111895329D01*
X117299056Y-111890347D01*
X117271158Y-111850504D01*
X117175908Y-111714473D01*
X117175906Y-111714470D01*
X117172749Y-111709962D01*
X117017038Y-111554251D01*
X116970307Y-111521529D01*
X116898674Y-111471371D01*
X116836654Y-111427944D01*
X116637076Y-111334880D01*
X116424371Y-111277885D01*
X116205000Y-111258693D01*
X115985629Y-111277885D01*
X115772924Y-111334880D01*
X115679562Y-111378415D01*
X115578334Y-111425618D01*
X115578329Y-111425621D01*
X115573347Y-111427944D01*
X115568840Y-111431100D01*
X115568838Y-111431101D01*
X115397473Y-111551092D01*
X115397470Y-111551094D01*
X115392962Y-111554251D01*
X115237251Y-111709962D01*
X115234094Y-111714470D01*
X115234092Y-111714473D01*
X115138842Y-111850504D01*
X115110944Y-111890347D01*
X115108621Y-111895329D01*
X115108618Y-111895334D01*
X115048919Y-112023360D01*
X115002002Y-112076645D01*
X114933724Y-112096106D01*
X114865764Y-112075564D01*
X114820529Y-112023360D01*
X114760946Y-111895583D01*
X114755466Y-111886093D01*
X114726589Y-111844851D01*
X114716113Y-111836477D01*
X114702666Y-111843545D01*
X114037021Y-112509189D01*
X114029408Y-112523132D01*
X113299356Y-112523132D01*
X113300592Y-112520868D01*
X113300461Y-112519034D01*
X113296210Y-112512420D01*
X112626609Y-111842820D01*
X112608305Y-111832825D01*
X112548259Y-111819762D01*
X112498057Y-111769559D01*
X112483382Y-111722782D01*
X112482480Y-111714473D01*
X112481566Y-111706065D01*
X112477599Y-111669540D01*
X112477598Y-111669536D01*
X112476745Y-111661684D01*
X112425615Y-111525295D01*
X112384838Y-111470887D01*
X112979477Y-111470887D01*
X112986545Y-111484334D01*
X113652189Y-112149979D01*
X113666132Y-112157592D01*
X113667966Y-112157461D01*
X113674580Y-112153210D01*
X114344180Y-111483609D01*
X114350607Y-111471839D01*
X114341313Y-111459825D01*
X114300912Y-111431536D01*
X114291416Y-111426053D01*
X114101887Y-111337674D01*
X114091595Y-111333928D01*
X113889599Y-111279804D01*
X113878804Y-111277901D01*
X113670475Y-111259674D01*
X113659525Y-111259674D01*
X113451196Y-111277901D01*
X113440401Y-111279804D01*
X113238405Y-111333928D01*
X113228113Y-111337674D01*
X113038583Y-111426054D01*
X113029093Y-111431534D01*
X112987851Y-111460411D01*
X112979477Y-111470887D01*
X112384838Y-111470887D01*
X112338261Y-111408739D01*
X112221705Y-111321385D01*
X112085316Y-111270255D01*
X112023134Y-111263500D01*
X110226866Y-111263500D01*
X110164684Y-111270255D01*
X110028295Y-111321385D01*
X109911739Y-111408739D01*
X109824385Y-111525295D01*
X109773255Y-111661684D01*
X109766500Y-111723866D01*
X109766500Y-113320134D01*
X107414728Y-113320134D01*
X107466915Y-113125371D01*
X107486107Y-112906000D01*
X107466915Y-112686629D01*
X107409920Y-112473924D01*
X107351380Y-112348384D01*
X107319182Y-112279334D01*
X107319179Y-112279329D01*
X107316856Y-112274347D01*
X107278626Y-112219749D01*
X107193708Y-112098473D01*
X107193706Y-112098470D01*
X107190549Y-112093962D01*
X107034838Y-111938251D01*
X107006810Y-111918625D01*
X106909523Y-111850504D01*
X106854454Y-111811944D01*
X106849472Y-111809621D01*
X106849467Y-111809618D01*
X106721441Y-111749919D01*
X106668156Y-111703002D01*
X106648695Y-111634724D01*
X106669237Y-111566764D01*
X106721441Y-111521529D01*
X106849216Y-111461947D01*
X106858712Y-111456464D01*
X106899948Y-111427590D01*
X106908323Y-111417113D01*
X106901254Y-111403665D01*
X105864722Y-110367132D01*
X106587208Y-110367132D01*
X106587339Y-110368966D01*
X106591590Y-110375580D01*
X107261191Y-111045180D01*
X107272961Y-111051607D01*
X107284976Y-111042311D01*
X107313266Y-111001907D01*
X107318746Y-110992417D01*
X107407126Y-110802887D01*
X107410872Y-110792595D01*
X107464996Y-110590599D01*
X107466899Y-110579804D01*
X107485126Y-110371475D01*
X107485126Y-110360525D01*
X107466899Y-110152196D01*
X107464996Y-110141401D01*
X107410872Y-109939405D01*
X107407126Y-109929113D01*
X107318746Y-109739583D01*
X107313266Y-109730093D01*
X107284389Y-109688851D01*
X107273913Y-109680477D01*
X107260466Y-109687545D01*
X106594821Y-110353189D01*
X106587208Y-110367132D01*
X105864722Y-110367132D01*
X105863590Y-110366000D01*
X105184411Y-109686822D01*
X105170471Y-109679210D01*
X105156488Y-109680210D01*
X105087114Y-109665118D01*
X105036912Y-109614916D01*
X105021500Y-109554531D01*
X105021500Y-108876161D01*
X105537193Y-108876161D01*
X105546487Y-108888175D01*
X105586888Y-108916464D01*
X105596384Y-108921947D01*
X105724750Y-108981805D01*
X105778035Y-109028723D01*
X105797496Y-109097000D01*
X105776954Y-109164960D01*
X105724751Y-109210194D01*
X105596388Y-109270052D01*
X105586893Y-109275534D01*
X105545651Y-109304411D01*
X105537277Y-109314887D01*
X105544345Y-109328334D01*
X106209989Y-109993979D01*
X106223932Y-110001592D01*
X106225766Y-110001461D01*
X106232380Y-109997210D01*
X106901980Y-109327609D01*
X106908407Y-109315839D01*
X106899113Y-109303825D01*
X106858712Y-109275536D01*
X106849216Y-109270053D01*
X106720850Y-109210195D01*
X106667565Y-109163277D01*
X106648104Y-109095000D01*
X106668646Y-109027040D01*
X106720850Y-108981805D01*
X106849216Y-108921947D01*
X106858712Y-108916464D01*
X106899948Y-108887590D01*
X106908323Y-108877112D01*
X106901257Y-108863668D01*
X106235611Y-108198021D01*
X106221668Y-108190408D01*
X106219834Y-108190539D01*
X106213220Y-108194790D01*
X105543620Y-108864391D01*
X105537193Y-108876161D01*
X105021500Y-108876161D01*
X105021500Y-108637035D01*
X105041502Y-108568914D01*
X105095158Y-108522421D01*
X105160473Y-108511705D01*
X105169553Y-108512645D01*
X105185134Y-108504455D01*
X105850779Y-107838811D01*
X105857156Y-107827132D01*
X106587208Y-107827132D01*
X106587339Y-107828966D01*
X106591590Y-107835580D01*
X107261191Y-108505180D01*
X107272961Y-108511607D01*
X107284976Y-108502311D01*
X107313266Y-108461907D01*
X107318746Y-108452417D01*
X107407126Y-108262887D01*
X107410872Y-108252595D01*
X107464996Y-108050599D01*
X107466899Y-108039804D01*
X107485126Y-107831475D01*
X107485126Y-107820525D01*
X107466899Y-107612196D01*
X107464996Y-107601401D01*
X107410872Y-107399405D01*
X107407126Y-107389113D01*
X107318746Y-107199583D01*
X107313266Y-107190093D01*
X107284389Y-107148851D01*
X107273913Y-107140477D01*
X107260466Y-107147545D01*
X106594821Y-107813189D01*
X106587208Y-107827132D01*
X105857156Y-107827132D01*
X105858392Y-107824868D01*
X105858261Y-107823034D01*
X105854010Y-107816420D01*
X105184409Y-107146820D01*
X105170471Y-107139209D01*
X105156488Y-107140209D01*
X105087114Y-107125117D01*
X105036912Y-107074915D01*
X105021500Y-107014530D01*
X105021500Y-106164114D01*
X105041502Y-106095993D01*
X105095158Y-106049500D01*
X105165432Y-106039396D01*
X105230012Y-106068890D01*
X105250711Y-106091841D01*
X105250897Y-106092106D01*
X105255051Y-106098038D01*
X105410762Y-106253749D01*
X105591146Y-106380056D01*
X105596128Y-106382379D01*
X105596133Y-106382382D01*
X105724159Y-106442081D01*
X105777444Y-106488998D01*
X105796905Y-106557276D01*
X105776363Y-106625236D01*
X105724159Y-106670471D01*
X105596383Y-106730054D01*
X105586893Y-106735534D01*
X105545651Y-106764411D01*
X105537277Y-106774887D01*
X105544345Y-106788334D01*
X106209989Y-107453979D01*
X106223932Y-107461592D01*
X106225766Y-107461461D01*
X106232380Y-107457210D01*
X106901980Y-106787609D01*
X106908407Y-106775839D01*
X106899113Y-106763825D01*
X106858712Y-106735536D01*
X106849216Y-106730053D01*
X106721441Y-106670471D01*
X106668156Y-106623554D01*
X106648695Y-106555276D01*
X106669237Y-106487316D01*
X106721441Y-106442081D01*
X106849467Y-106382382D01*
X106849472Y-106382379D01*
X106854454Y-106380056D01*
X106944097Y-106317287D01*
X107016368Y-106294500D01*
X107795717Y-106294500D01*
X107867988Y-106317287D01*
X107953346Y-106377056D01*
X108152924Y-106470120D01*
X108365629Y-106527115D01*
X108585000Y-106546307D01*
X108804371Y-106527115D01*
X109017076Y-106470120D01*
X109216654Y-106377056D01*
X109325951Y-106300525D01*
X109392527Y-106253908D01*
X109392529Y-106253906D01*
X109397038Y-106250749D01*
X109552749Y-106095038D01*
X109562356Y-106081319D01*
X109675899Y-105919162D01*
X109675900Y-105919160D01*
X109679056Y-105914653D01*
X109681379Y-105909671D01*
X109681382Y-105909666D01*
X109729225Y-105807064D01*
X109772120Y-105715076D01*
X109829115Y-105502371D01*
X109848307Y-105283000D01*
X109829115Y-105063629D01*
X109772120Y-104850924D01*
X109717481Y-104733749D01*
X109681382Y-104656334D01*
X109681379Y-104656329D01*
X109679056Y-104651347D01*
X109630453Y-104581935D01*
X109555908Y-104475473D01*
X109555906Y-104475470D01*
X109552749Y-104470962D01*
X109397038Y-104315251D01*
X109216654Y-104188944D01*
X109211672Y-104186621D01*
X109211667Y-104186618D01*
X109084232Y-104127195D01*
X109030947Y-104080278D01*
X109011486Y-104012001D01*
X109032028Y-103944041D01*
X109084232Y-103898805D01*
X109211667Y-103839382D01*
X109211672Y-103839379D01*
X109216654Y-103837056D01*
X109333332Y-103755357D01*
X109392527Y-103713908D01*
X109392529Y-103713906D01*
X109397038Y-103710749D01*
X109552749Y-103555038D01*
X109559704Y-103545106D01*
X109675899Y-103379162D01*
X109675900Y-103379160D01*
X109679056Y-103374653D01*
X109681379Y-103369671D01*
X109681382Y-103369666D01*
X109769795Y-103180061D01*
X109772120Y-103175076D01*
X109829115Y-102962371D01*
X109848307Y-102743000D01*
X109829115Y-102523629D01*
X109772120Y-102310924D01*
X109717481Y-102193749D01*
X109681382Y-102116334D01*
X109681379Y-102116329D01*
X109679056Y-102111347D01*
X109630453Y-102041935D01*
X109555908Y-101935473D01*
X109555906Y-101935470D01*
X109552749Y-101930962D01*
X109397038Y-101775251D01*
X109351978Y-101743699D01*
X109236815Y-101663061D01*
X109216654Y-101648944D01*
X109017076Y-101555880D01*
X108804371Y-101498885D01*
X108585000Y-101479693D01*
X108365629Y-101498885D01*
X108152924Y-101555880D01*
X108059562Y-101599415D01*
X107958334Y-101646618D01*
X107958329Y-101646621D01*
X107953347Y-101648944D01*
X107948840Y-101652100D01*
X107948838Y-101652101D01*
X107859419Y-101714713D01*
X107787148Y-101737500D01*
X107103540Y-101737500D01*
X107031269Y-101714713D01*
X107022092Y-101708287D01*
X106879549Y-101608477D01*
X106874564Y-101606153D01*
X106874558Y-101606149D01*
X106873689Y-101605744D01*
X106873371Y-101605464D01*
X106869798Y-101603401D01*
X106870213Y-101602683D01*
X106820403Y-101558827D01*
X106800942Y-101490550D01*
X106821484Y-101422590D01*
X106854667Y-101388336D01*
X106979527Y-101300908D01*
X106979529Y-101300906D01*
X106984038Y-101297749D01*
X107139749Y-101142038D01*
X107230729Y-101012106D01*
X107262899Y-100966162D01*
X107262900Y-100966160D01*
X107266056Y-100961653D01*
X107268379Y-100956671D01*
X107268382Y-100956666D01*
X107322500Y-100840608D01*
X107359120Y-100762076D01*
X107416115Y-100549371D01*
X107435307Y-100330000D01*
X107416115Y-100110629D01*
X107359120Y-99897924D01*
X107305242Y-99782382D01*
X107268382Y-99703334D01*
X107268379Y-99703329D01*
X107266056Y-99698347D01*
X107248014Y-99672580D01*
X107241306Y-99663000D01*
X116433693Y-99663000D01*
X116452885Y-99882371D01*
X116509880Y-100095076D01*
X116522723Y-100122618D01*
X116600618Y-100289666D01*
X116600621Y-100289671D01*
X116602944Y-100294653D01*
X116606100Y-100299160D01*
X116606101Y-100299162D01*
X116689644Y-100418473D01*
X116729251Y-100475038D01*
X116884962Y-100630749D01*
X117065346Y-100757056D01*
X117264924Y-100850120D01*
X117477629Y-100907115D01*
X117697000Y-100926307D01*
X117916371Y-100907115D01*
X118129076Y-100850120D01*
X118328654Y-100757056D01*
X118391342Y-100713161D01*
X134791393Y-100713161D01*
X134800687Y-100725175D01*
X134841088Y-100753464D01*
X134850584Y-100758947D01*
X135040113Y-100847326D01*
X135050405Y-100851072D01*
X135252401Y-100905196D01*
X135263196Y-100907099D01*
X135471525Y-100925326D01*
X135482475Y-100925326D01*
X135690804Y-100907099D01*
X135701599Y-100905196D01*
X135903595Y-100851072D01*
X135913887Y-100847326D01*
X136103416Y-100758947D01*
X136112912Y-100753464D01*
X136154148Y-100724590D01*
X136162523Y-100714112D01*
X136155457Y-100700668D01*
X135489811Y-100035021D01*
X135475868Y-100027408D01*
X135474034Y-100027539D01*
X135467420Y-100031790D01*
X134797820Y-100701391D01*
X134791393Y-100713161D01*
X118391342Y-100713161D01*
X118509038Y-100630749D01*
X118664749Y-100475038D01*
X118704357Y-100418473D01*
X118787899Y-100299162D01*
X118787900Y-100299160D01*
X118791056Y-100294653D01*
X118793379Y-100289671D01*
X118793382Y-100289666D01*
X118871277Y-100122618D01*
X118884120Y-100095076D01*
X118941115Y-99882371D01*
X118959828Y-99668475D01*
X134214674Y-99668475D01*
X134232901Y-99876804D01*
X134234804Y-99887599D01*
X134288928Y-100089595D01*
X134292674Y-100099887D01*
X134381054Y-100289417D01*
X134386534Y-100298907D01*
X134415411Y-100340149D01*
X134425887Y-100348523D01*
X134439334Y-100341455D01*
X135104979Y-99675811D01*
X135111356Y-99664132D01*
X135841408Y-99664132D01*
X135841539Y-99665966D01*
X135845790Y-99672580D01*
X136515391Y-100342180D01*
X136527161Y-100348607D01*
X136539176Y-100339311D01*
X136567466Y-100298907D01*
X136572946Y-100289417D01*
X136661326Y-100099887D01*
X136665072Y-100089595D01*
X136719196Y-99887599D01*
X136721099Y-99876804D01*
X136739326Y-99668475D01*
X136739326Y-99657525D01*
X136721099Y-99449196D01*
X136719196Y-99438401D01*
X136665072Y-99236405D01*
X136661326Y-99226113D01*
X136572946Y-99036583D01*
X136567466Y-99027093D01*
X136538589Y-98985851D01*
X136528113Y-98977477D01*
X136514666Y-98984545D01*
X135849021Y-99650189D01*
X135841408Y-99664132D01*
X135111356Y-99664132D01*
X135112592Y-99661868D01*
X135112461Y-99660034D01*
X135108210Y-99653420D01*
X134438609Y-98983820D01*
X134426839Y-98977393D01*
X134414824Y-98986689D01*
X134386534Y-99027093D01*
X134381054Y-99036583D01*
X134292674Y-99226113D01*
X134288928Y-99236405D01*
X134234804Y-99438401D01*
X134232901Y-99449196D01*
X134214674Y-99657525D01*
X134214674Y-99668475D01*
X118959828Y-99668475D01*
X118960307Y-99663000D01*
X118941115Y-99443629D01*
X118884120Y-99230924D01*
X118817151Y-99087308D01*
X118793382Y-99036334D01*
X118793379Y-99036329D01*
X118791056Y-99031347D01*
X118759786Y-98986689D01*
X118667908Y-98855473D01*
X118667906Y-98855470D01*
X118664749Y-98850962D01*
X118509038Y-98695251D01*
X118503646Y-98691475D01*
X118391342Y-98612839D01*
X118328654Y-98568944D01*
X118323672Y-98566621D01*
X118323667Y-98566618D01*
X118196232Y-98507195D01*
X118142947Y-98460278D01*
X118123486Y-98392001D01*
X118144028Y-98324041D01*
X118196232Y-98278805D01*
X118323667Y-98219382D01*
X118323672Y-98219379D01*
X118328654Y-98217056D01*
X118509038Y-98090749D01*
X118664749Y-97935038D01*
X118704357Y-97878473D01*
X118787899Y-97759162D01*
X118787900Y-97759160D01*
X118791056Y-97754653D01*
X118793379Y-97749671D01*
X118793382Y-97749666D01*
X118881795Y-97560061D01*
X118884120Y-97555076D01*
X118941115Y-97342371D01*
X118960307Y-97123000D01*
X134213693Y-97123000D01*
X134232885Y-97342371D01*
X134289880Y-97555076D01*
X134292205Y-97560061D01*
X134380618Y-97749666D01*
X134380621Y-97749671D01*
X134382944Y-97754653D01*
X134386100Y-97759160D01*
X134386101Y-97759162D01*
X134469644Y-97878473D01*
X134509251Y-97935038D01*
X134664962Y-98090749D01*
X134845346Y-98217056D01*
X134850328Y-98219379D01*
X134850333Y-98219382D01*
X134978359Y-98279081D01*
X135031644Y-98325998D01*
X135051105Y-98394276D01*
X135030563Y-98462236D01*
X134978359Y-98507471D01*
X134850583Y-98567054D01*
X134841093Y-98572534D01*
X134799851Y-98601411D01*
X134791477Y-98611887D01*
X134798545Y-98625334D01*
X135464189Y-99290979D01*
X135478132Y-99298592D01*
X135479966Y-99298461D01*
X135486580Y-99294210D01*
X136156180Y-98624609D01*
X136162607Y-98612839D01*
X136153313Y-98600825D01*
X136112912Y-98572536D01*
X136103416Y-98567053D01*
X135975641Y-98507471D01*
X135922356Y-98460554D01*
X135902895Y-98392276D01*
X135923437Y-98324316D01*
X135975641Y-98279081D01*
X136103667Y-98219382D01*
X136103672Y-98219379D01*
X136108654Y-98217056D01*
X136289038Y-98090749D01*
X136444749Y-97935038D01*
X136484357Y-97878473D01*
X136567899Y-97759162D01*
X136567900Y-97759160D01*
X136571056Y-97754653D01*
X136573379Y-97749671D01*
X136573382Y-97749666D01*
X136661795Y-97560061D01*
X136664120Y-97555076D01*
X136721115Y-97342371D01*
X136740307Y-97123000D01*
X136721115Y-96903629D01*
X136664120Y-96690924D01*
X136605758Y-96565765D01*
X136573382Y-96496334D01*
X136573379Y-96496329D01*
X136571056Y-96491347D01*
X136482847Y-96365371D01*
X136447908Y-96315473D01*
X136447906Y-96315470D01*
X136444749Y-96310962D01*
X136289038Y-96155251D01*
X136283646Y-96151475D01*
X136209759Y-96099739D01*
X136108654Y-96028944D01*
X136103672Y-96026621D01*
X136103667Y-96026618D01*
X135976232Y-95967195D01*
X135922947Y-95920278D01*
X135903486Y-95852001D01*
X135924028Y-95784041D01*
X135976232Y-95738805D01*
X136103667Y-95679382D01*
X136103672Y-95679379D01*
X136108654Y-95677056D01*
X136289038Y-95550749D01*
X136444749Y-95395038D01*
X136484357Y-95338473D01*
X136567899Y-95219162D01*
X136567900Y-95219160D01*
X136571056Y-95214653D01*
X136573379Y-95209671D01*
X136573382Y-95209666D01*
X136650192Y-95044944D01*
X136664120Y-95015076D01*
X136721115Y-94802371D01*
X136740307Y-94583000D01*
X136721115Y-94363629D01*
X136664120Y-94150924D01*
X136620585Y-94057562D01*
X136573382Y-93956334D01*
X136573379Y-93956329D01*
X136571056Y-93951347D01*
X136460665Y-93793692D01*
X136447908Y-93775473D01*
X136447906Y-93775470D01*
X136444749Y-93770962D01*
X136289038Y-93615251D01*
X136268916Y-93601161D01*
X139871393Y-93601161D01*
X139880687Y-93613175D01*
X139921088Y-93641464D01*
X139930584Y-93646947D01*
X140120113Y-93735326D01*
X140130405Y-93739072D01*
X140332401Y-93793196D01*
X140343196Y-93795099D01*
X140551525Y-93813326D01*
X140562475Y-93813326D01*
X140770804Y-93795099D01*
X140781599Y-93793196D01*
X140983595Y-93739072D01*
X140993887Y-93735326D01*
X141183416Y-93646947D01*
X141192912Y-93641464D01*
X141234148Y-93612590D01*
X141242523Y-93602112D01*
X141242023Y-93601161D01*
X142919393Y-93601161D01*
X142928687Y-93613175D01*
X142969088Y-93641464D01*
X142978584Y-93646947D01*
X143168113Y-93735326D01*
X143178405Y-93739072D01*
X143380401Y-93793196D01*
X143391196Y-93795099D01*
X143599525Y-93813326D01*
X143610475Y-93813326D01*
X143818804Y-93795099D01*
X143829599Y-93793196D01*
X144031595Y-93739072D01*
X144041887Y-93735326D01*
X144231416Y-93646947D01*
X144240912Y-93641464D01*
X144282148Y-93612590D01*
X144290523Y-93602112D01*
X144283457Y-93588668D01*
X143617811Y-92923021D01*
X143603868Y-92915408D01*
X143602034Y-92915539D01*
X143595420Y-92919790D01*
X142925820Y-93589391D01*
X142919393Y-93601161D01*
X141242023Y-93601161D01*
X141235457Y-93588668D01*
X140569811Y-92923021D01*
X140555868Y-92915408D01*
X140554034Y-92915539D01*
X140547420Y-92919790D01*
X139877820Y-93589391D01*
X139871393Y-93601161D01*
X136268916Y-93601161D01*
X136252107Y-93589391D01*
X136145654Y-93514852D01*
X136108654Y-93488944D01*
X136104911Y-93487199D01*
X136056210Y-93436123D01*
X136042774Y-93366409D01*
X136069160Y-93300498D01*
X136126992Y-93259316D01*
X136135590Y-93256680D01*
X136163984Y-93249072D01*
X136163993Y-93249069D01*
X136170362Y-93247362D01*
X136335839Y-93163047D01*
X136340968Y-93158894D01*
X136340972Y-93158891D01*
X136475039Y-93050325D01*
X136480170Y-93046170D01*
X136506295Y-93013908D01*
X136592891Y-92906972D01*
X136592894Y-92906968D01*
X136597047Y-92901839D01*
X136681362Y-92736362D01*
X136699233Y-92669666D01*
X136727936Y-92562548D01*
X136727937Y-92562544D01*
X136729430Y-92556971D01*
X136729469Y-92556475D01*
X139294674Y-92556475D01*
X139312901Y-92764804D01*
X139314804Y-92775599D01*
X139368928Y-92977595D01*
X139372674Y-92987887D01*
X139461054Y-93177417D01*
X139466534Y-93186907D01*
X139495411Y-93228149D01*
X139505887Y-93236523D01*
X139519334Y-93229455D01*
X140184979Y-92563811D01*
X140191356Y-92552132D01*
X140921408Y-92552132D01*
X140921539Y-92553966D01*
X140925790Y-92560580D01*
X141595391Y-93230180D01*
X141607161Y-93236607D01*
X141619176Y-93227311D01*
X141647466Y-93186907D01*
X141652946Y-93177417D01*
X141741326Y-92987887D01*
X141745072Y-92977595D01*
X141799196Y-92775599D01*
X141801099Y-92764804D01*
X141819326Y-92556475D01*
X142342674Y-92556475D01*
X142360901Y-92764804D01*
X142362804Y-92775599D01*
X142416928Y-92977595D01*
X142420674Y-92987887D01*
X142509054Y-93177417D01*
X142514534Y-93186907D01*
X142543411Y-93228149D01*
X142553887Y-93236523D01*
X142567334Y-93229455D01*
X143232979Y-92563811D01*
X143239356Y-92552132D01*
X143969408Y-92552132D01*
X143969539Y-92553966D01*
X143973790Y-92560580D01*
X144643391Y-93230180D01*
X144655161Y-93236607D01*
X144667176Y-93227311D01*
X144695466Y-93186907D01*
X144700946Y-93177417D01*
X144789326Y-92987887D01*
X144793072Y-92977595D01*
X144847196Y-92775599D01*
X144849099Y-92764804D01*
X144867326Y-92556475D01*
X144867326Y-92551000D01*
X149707693Y-92551000D01*
X149726885Y-92770371D01*
X149783880Y-92983076D01*
X149786205Y-92988061D01*
X149874618Y-93177666D01*
X149874621Y-93177671D01*
X149876944Y-93182653D01*
X149880100Y-93187160D01*
X149880101Y-93187162D01*
X149999368Y-93357492D01*
X150003251Y-93363038D01*
X150158962Y-93518749D01*
X150339346Y-93645056D01*
X150538924Y-93738120D01*
X150751629Y-93795115D01*
X150971000Y-93814307D01*
X151190371Y-93795115D01*
X151403076Y-93738120D01*
X151602654Y-93645056D01*
X151783038Y-93518749D01*
X151938749Y-93363038D01*
X151942633Y-93357492D01*
X152061899Y-93187162D01*
X152061900Y-93187160D01*
X152065056Y-93182653D01*
X152067379Y-93177671D01*
X152067382Y-93177666D01*
X152155795Y-92988061D01*
X152158120Y-92983076D01*
X152215115Y-92770371D01*
X152234307Y-92551000D01*
X152755693Y-92551000D01*
X152774885Y-92770371D01*
X152831880Y-92983076D01*
X152834205Y-92988061D01*
X152922618Y-93177666D01*
X152922621Y-93177671D01*
X152924944Y-93182653D01*
X152928100Y-93187160D01*
X152928101Y-93187162D01*
X153047368Y-93357492D01*
X153051251Y-93363038D01*
X153206962Y-93518749D01*
X153387346Y-93645056D01*
X153586924Y-93738120D01*
X153799629Y-93795115D01*
X154019000Y-93814307D01*
X154238371Y-93795115D01*
X154451076Y-93738120D01*
X154650654Y-93645056D01*
X154831038Y-93518749D01*
X154986749Y-93363038D01*
X154990633Y-93357492D01*
X155109899Y-93187162D01*
X155109900Y-93187160D01*
X155113056Y-93182653D01*
X155115379Y-93177671D01*
X155115382Y-93177666D01*
X155203795Y-92988061D01*
X155206120Y-92983076D01*
X155263115Y-92770371D01*
X155282307Y-92551000D01*
X155263115Y-92331629D01*
X155206120Y-92118924D01*
X155115498Y-91924583D01*
X155115382Y-91924334D01*
X155115379Y-91924329D01*
X155113056Y-91919347D01*
X155081786Y-91874689D01*
X154989908Y-91743473D01*
X154989906Y-91743470D01*
X154986749Y-91738962D01*
X154831038Y-91583251D01*
X154650654Y-91456944D01*
X154451076Y-91363880D01*
X154238371Y-91306885D01*
X154019000Y-91287693D01*
X153799629Y-91306885D01*
X153586924Y-91363880D01*
X153494800Y-91406838D01*
X153392334Y-91454618D01*
X153392329Y-91454621D01*
X153387347Y-91456944D01*
X153382840Y-91460100D01*
X153382838Y-91460101D01*
X153211473Y-91580092D01*
X153211470Y-91580094D01*
X153206962Y-91583251D01*
X153051251Y-91738962D01*
X153048094Y-91743470D01*
X153048092Y-91743473D01*
X152956214Y-91874689D01*
X152924944Y-91919347D01*
X152922621Y-91924329D01*
X152922618Y-91924334D01*
X152922502Y-91924583D01*
X152831880Y-92118924D01*
X152774885Y-92331629D01*
X152755693Y-92551000D01*
X152234307Y-92551000D01*
X152215115Y-92331629D01*
X152158120Y-92118924D01*
X152067498Y-91924583D01*
X152067382Y-91924334D01*
X152067379Y-91924329D01*
X152065056Y-91919347D01*
X152033786Y-91874689D01*
X151941908Y-91743473D01*
X151941906Y-91743470D01*
X151938749Y-91738962D01*
X151783038Y-91583251D01*
X151602654Y-91456944D01*
X151403076Y-91363880D01*
X151190371Y-91306885D01*
X150971000Y-91287693D01*
X150751629Y-91306885D01*
X150538924Y-91363880D01*
X150446800Y-91406838D01*
X150344334Y-91454618D01*
X150344329Y-91454621D01*
X150339347Y-91456944D01*
X150334840Y-91460100D01*
X150334838Y-91460101D01*
X150163473Y-91580092D01*
X150163470Y-91580094D01*
X150158962Y-91583251D01*
X150003251Y-91738962D01*
X150000094Y-91743470D01*
X150000092Y-91743473D01*
X149908214Y-91874689D01*
X149876944Y-91919347D01*
X149874621Y-91924329D01*
X149874618Y-91924334D01*
X149874502Y-91924583D01*
X149783880Y-92118924D01*
X149726885Y-92331629D01*
X149707693Y-92551000D01*
X144867326Y-92551000D01*
X144867326Y-92545525D01*
X144849099Y-92337196D01*
X144847196Y-92326401D01*
X144793072Y-92124405D01*
X144789326Y-92114113D01*
X144700946Y-91924583D01*
X144695466Y-91915093D01*
X144666589Y-91873851D01*
X144656113Y-91865477D01*
X144642666Y-91872545D01*
X143977021Y-92538189D01*
X143969408Y-92552132D01*
X143239356Y-92552132D01*
X143240592Y-92549868D01*
X143240461Y-92548034D01*
X143236210Y-92541420D01*
X142566609Y-91871820D01*
X142554839Y-91865393D01*
X142542824Y-91874689D01*
X142514534Y-91915093D01*
X142509054Y-91924583D01*
X142420674Y-92114113D01*
X142416928Y-92124405D01*
X142362804Y-92326401D01*
X142360901Y-92337196D01*
X142342674Y-92545525D01*
X142342674Y-92556475D01*
X141819326Y-92556475D01*
X141819326Y-92545525D01*
X141801099Y-92337196D01*
X141799196Y-92326401D01*
X141745072Y-92124405D01*
X141741326Y-92114113D01*
X141652946Y-91924583D01*
X141647466Y-91915093D01*
X141618589Y-91873851D01*
X141608113Y-91865477D01*
X141594666Y-91872545D01*
X140929021Y-92538189D01*
X140921408Y-92552132D01*
X140191356Y-92552132D01*
X140192592Y-92549868D01*
X140192461Y-92548034D01*
X140188210Y-92541420D01*
X139518609Y-91871820D01*
X139506839Y-91865393D01*
X139494824Y-91874689D01*
X139466534Y-91915093D01*
X139461054Y-91924583D01*
X139372674Y-92114113D01*
X139368928Y-92124405D01*
X139314804Y-92326401D01*
X139312901Y-92337196D01*
X139294674Y-92545525D01*
X139294674Y-92556475D01*
X136729469Y-92556475D01*
X136730908Y-92538189D01*
X136735307Y-92482300D01*
X136735307Y-92482291D01*
X136735500Y-92479843D01*
X136735499Y-91606158D01*
X136729430Y-91529029D01*
X136721621Y-91499887D01*
X139871477Y-91499887D01*
X139878545Y-91513334D01*
X140544189Y-92178979D01*
X140558132Y-92186592D01*
X140559966Y-92186461D01*
X140566580Y-92182210D01*
X141236180Y-91512609D01*
X141242607Y-91500839D01*
X141241871Y-91499887D01*
X142919477Y-91499887D01*
X142926545Y-91513334D01*
X143592189Y-92178979D01*
X143606132Y-92186592D01*
X143607966Y-92186461D01*
X143614580Y-92182210D01*
X144284180Y-91512609D01*
X144290607Y-91500839D01*
X144281313Y-91488825D01*
X144240912Y-91460536D01*
X144231416Y-91455053D01*
X144041887Y-91366674D01*
X144031595Y-91362928D01*
X143829599Y-91308804D01*
X143818804Y-91306901D01*
X143610475Y-91288674D01*
X143599525Y-91288674D01*
X143391196Y-91306901D01*
X143380401Y-91308804D01*
X143178405Y-91362928D01*
X143168113Y-91366674D01*
X142978583Y-91455054D01*
X142969093Y-91460534D01*
X142927851Y-91489411D01*
X142919477Y-91499887D01*
X141241871Y-91499887D01*
X141233313Y-91488825D01*
X141192912Y-91460536D01*
X141183416Y-91455053D01*
X140993887Y-91366674D01*
X140983595Y-91362928D01*
X140781599Y-91308804D01*
X140770804Y-91306901D01*
X140562475Y-91288674D01*
X140551525Y-91288674D01*
X140343196Y-91306901D01*
X140332401Y-91308804D01*
X140130405Y-91362928D01*
X140120113Y-91366674D01*
X139930583Y-91455054D01*
X139921093Y-91460534D01*
X139879851Y-91489411D01*
X139871477Y-91499887D01*
X136721621Y-91499887D01*
X136681362Y-91349638D01*
X136597047Y-91184161D01*
X136592894Y-91179032D01*
X136592891Y-91179028D01*
X136484325Y-91044961D01*
X136480170Y-91039830D01*
X136371834Y-90952101D01*
X136340972Y-90927109D01*
X136340968Y-90927106D01*
X136335839Y-90922953D01*
X136170362Y-90838638D01*
X136163988Y-90836930D01*
X135996548Y-90792064D01*
X135996544Y-90792063D01*
X135990971Y-90790570D01*
X135985215Y-90790117D01*
X135916300Y-90784693D01*
X135916291Y-90784693D01*
X135913843Y-90784500D01*
X135477177Y-90784500D01*
X135040158Y-90784501D01*
X134993326Y-90788186D01*
X134968783Y-90790117D01*
X134968780Y-90790117D01*
X134963029Y-90790570D01*
X134783638Y-90838638D01*
X134618161Y-90922953D01*
X134613032Y-90927106D01*
X134613028Y-90927109D01*
X134582166Y-90952101D01*
X134473830Y-91039830D01*
X134469675Y-91044961D01*
X134361109Y-91179028D01*
X134361106Y-91179032D01*
X134356953Y-91184161D01*
X134272638Y-91349638D01*
X134270930Y-91356011D01*
X134270930Y-91356012D01*
X134228970Y-91512609D01*
X134224570Y-91529029D01*
X134224117Y-91534783D01*
X134224117Y-91534785D01*
X134218694Y-91603698D01*
X134218500Y-91606157D01*
X134218501Y-92479842D01*
X134224570Y-92556971D01*
X134272638Y-92736362D01*
X134356953Y-92901839D01*
X134361106Y-92906968D01*
X134361109Y-92906972D01*
X134447705Y-93013908D01*
X134473830Y-93046170D01*
X134478961Y-93050325D01*
X134613028Y-93158891D01*
X134613032Y-93158894D01*
X134618161Y-93163047D01*
X134783638Y-93247362D01*
X134818411Y-93256679D01*
X134879032Y-93293631D01*
X134910054Y-93357492D01*
X134901625Y-93427986D01*
X134856422Y-93482733D01*
X134849864Y-93486837D01*
X134845347Y-93488944D01*
X134808347Y-93514852D01*
X134669473Y-93612092D01*
X134669470Y-93612094D01*
X134664962Y-93615251D01*
X134509251Y-93770962D01*
X134506094Y-93775470D01*
X134506092Y-93775473D01*
X134493335Y-93793692D01*
X134382944Y-93951347D01*
X134380621Y-93956329D01*
X134380618Y-93956334D01*
X134333415Y-94057562D01*
X134289880Y-94150924D01*
X134232885Y-94363629D01*
X134213693Y-94583000D01*
X134232885Y-94802371D01*
X134289880Y-95015076D01*
X134303808Y-95044944D01*
X134380618Y-95209666D01*
X134380621Y-95209671D01*
X134382944Y-95214653D01*
X134386100Y-95219160D01*
X134386101Y-95219162D01*
X134469644Y-95338473D01*
X134509251Y-95395038D01*
X134664962Y-95550749D01*
X134845346Y-95677056D01*
X134850328Y-95679379D01*
X134850333Y-95679382D01*
X134977768Y-95738805D01*
X135031053Y-95785722D01*
X135050514Y-95853999D01*
X135029972Y-95921959D01*
X134977768Y-95967195D01*
X134850334Y-96026618D01*
X134850329Y-96026621D01*
X134845347Y-96028944D01*
X134840840Y-96032100D01*
X134840838Y-96032101D01*
X134669473Y-96152092D01*
X134669470Y-96152094D01*
X134664962Y-96155251D01*
X134509251Y-96310962D01*
X134506094Y-96315470D01*
X134506092Y-96315473D01*
X134471153Y-96365371D01*
X134382944Y-96491347D01*
X134380621Y-96496329D01*
X134380618Y-96496334D01*
X134348242Y-96565765D01*
X134289880Y-96690924D01*
X134232885Y-96903629D01*
X134213693Y-97123000D01*
X118960307Y-97123000D01*
X118941115Y-96903629D01*
X118884120Y-96690924D01*
X118825758Y-96565765D01*
X118793382Y-96496334D01*
X118793379Y-96496329D01*
X118791056Y-96491347D01*
X118702847Y-96365371D01*
X118667908Y-96315473D01*
X118667906Y-96315470D01*
X118664749Y-96310962D01*
X118509038Y-96155251D01*
X118503646Y-96151475D01*
X118429759Y-96099739D01*
X118328654Y-96028944D01*
X118323672Y-96026621D01*
X118323667Y-96026618D01*
X118196232Y-95967195D01*
X118142947Y-95920278D01*
X118123486Y-95852001D01*
X118144028Y-95784041D01*
X118196232Y-95738805D01*
X118323667Y-95679382D01*
X118323672Y-95679379D01*
X118328654Y-95677056D01*
X118509038Y-95550749D01*
X118664749Y-95395038D01*
X118704357Y-95338473D01*
X118787899Y-95219162D01*
X118787900Y-95219160D01*
X118791056Y-95214653D01*
X118793379Y-95209671D01*
X118793382Y-95209666D01*
X118870192Y-95044944D01*
X118884120Y-95015076D01*
X118941115Y-94802371D01*
X118960307Y-94583000D01*
X118941115Y-94363629D01*
X118884120Y-94150924D01*
X118840585Y-94057562D01*
X118793382Y-93956334D01*
X118793379Y-93956329D01*
X118791056Y-93951347D01*
X118680665Y-93793692D01*
X118667908Y-93775473D01*
X118667906Y-93775470D01*
X118664749Y-93770962D01*
X118509038Y-93615251D01*
X118472107Y-93589391D01*
X118375731Y-93521908D01*
X118328654Y-93488944D01*
X118323672Y-93486621D01*
X118323667Y-93486618D01*
X118196232Y-93427195D01*
X118142947Y-93380278D01*
X118123486Y-93312001D01*
X118144028Y-93244041D01*
X118196232Y-93198805D01*
X118323667Y-93139382D01*
X118323672Y-93139379D01*
X118328654Y-93137056D01*
X118509038Y-93010749D01*
X118664749Y-92855038D01*
X118720316Y-92775681D01*
X118787899Y-92679162D01*
X118787900Y-92679160D01*
X118791056Y-92674653D01*
X118793379Y-92669671D01*
X118793382Y-92669666D01*
X118881795Y-92480061D01*
X118884120Y-92475076D01*
X118941115Y-92262371D01*
X118960307Y-92043000D01*
X118941115Y-91823629D01*
X118884120Y-91610924D01*
X118827458Y-91489411D01*
X118793382Y-91416334D01*
X118793379Y-91416329D01*
X118791056Y-91411347D01*
X118759447Y-91366205D01*
X118667908Y-91235473D01*
X118667906Y-91235470D01*
X118664749Y-91230962D01*
X118509038Y-91075251D01*
X118328654Y-90948944D01*
X118129076Y-90855880D01*
X117916371Y-90798885D01*
X117697000Y-90779693D01*
X117477629Y-90798885D01*
X117264924Y-90855880D01*
X117171562Y-90899415D01*
X117070334Y-90946618D01*
X117070329Y-90946621D01*
X117065347Y-90948944D01*
X117060840Y-90952100D01*
X117060838Y-90952101D01*
X116889473Y-91072092D01*
X116889470Y-91072094D01*
X116884962Y-91075251D01*
X116729251Y-91230962D01*
X116726094Y-91235470D01*
X116726092Y-91235473D01*
X116634553Y-91366205D01*
X116602944Y-91411347D01*
X116600621Y-91416329D01*
X116600618Y-91416334D01*
X116566542Y-91489411D01*
X116509880Y-91610924D01*
X116452885Y-91823629D01*
X116433693Y-92043000D01*
X116452885Y-92262371D01*
X116509880Y-92475076D01*
X116512205Y-92480061D01*
X116600618Y-92669666D01*
X116600621Y-92669671D01*
X116602944Y-92674653D01*
X116606100Y-92679160D01*
X116606101Y-92679162D01*
X116673685Y-92775681D01*
X116729251Y-92855038D01*
X116884962Y-93010749D01*
X117065346Y-93137056D01*
X117070328Y-93139379D01*
X117070333Y-93139382D01*
X117197768Y-93198805D01*
X117251053Y-93245722D01*
X117270514Y-93313999D01*
X117249972Y-93381959D01*
X117197768Y-93427195D01*
X117070334Y-93486618D01*
X117070329Y-93486621D01*
X117065347Y-93488944D01*
X117060843Y-93492098D01*
X117060838Y-93492101D01*
X116889473Y-93612092D01*
X116889470Y-93612094D01*
X116884962Y-93615251D01*
X116729251Y-93770962D01*
X116726094Y-93775470D01*
X116726092Y-93775473D01*
X116713335Y-93793692D01*
X116602944Y-93951347D01*
X116600621Y-93956329D01*
X116600618Y-93956334D01*
X116553415Y-94057562D01*
X116509880Y-94150924D01*
X116452885Y-94363629D01*
X116433693Y-94583000D01*
X116452885Y-94802371D01*
X116509880Y-95015076D01*
X116523808Y-95044944D01*
X116600618Y-95209666D01*
X116600621Y-95209671D01*
X116602944Y-95214653D01*
X116606100Y-95219160D01*
X116606101Y-95219162D01*
X116689644Y-95338473D01*
X116729251Y-95395038D01*
X116884962Y-95550749D01*
X117065346Y-95677056D01*
X117070328Y-95679379D01*
X117070333Y-95679382D01*
X117197768Y-95738805D01*
X117251053Y-95785722D01*
X117270514Y-95853999D01*
X117249972Y-95921959D01*
X117197768Y-95967195D01*
X117070334Y-96026618D01*
X117070329Y-96026621D01*
X117065347Y-96028944D01*
X117060840Y-96032100D01*
X117060838Y-96032101D01*
X116889473Y-96152092D01*
X116889470Y-96152094D01*
X116884962Y-96155251D01*
X116729251Y-96310962D01*
X116726094Y-96315470D01*
X116726092Y-96315473D01*
X116691153Y-96365371D01*
X116602944Y-96491347D01*
X116600621Y-96496329D01*
X116600618Y-96496334D01*
X116568242Y-96565765D01*
X116509880Y-96690924D01*
X116452885Y-96903629D01*
X116433693Y-97123000D01*
X116452885Y-97342371D01*
X116509880Y-97555076D01*
X116512205Y-97560061D01*
X116600618Y-97749666D01*
X116600621Y-97749671D01*
X116602944Y-97754653D01*
X116606100Y-97759160D01*
X116606101Y-97759162D01*
X116689644Y-97878473D01*
X116729251Y-97935038D01*
X116884962Y-98090749D01*
X117065346Y-98217056D01*
X117070328Y-98219379D01*
X117070333Y-98219382D01*
X117197768Y-98278805D01*
X117251053Y-98325722D01*
X117270514Y-98393999D01*
X117249972Y-98461959D01*
X117197768Y-98507195D01*
X117070334Y-98566618D01*
X117070329Y-98566621D01*
X117065347Y-98568944D01*
X117060840Y-98572100D01*
X117060838Y-98572101D01*
X116889473Y-98692092D01*
X116889470Y-98692094D01*
X116884962Y-98695251D01*
X116729251Y-98850962D01*
X116726094Y-98855470D01*
X116726092Y-98855473D01*
X116634214Y-98986689D01*
X116602944Y-99031347D01*
X116600621Y-99036329D01*
X116600618Y-99036334D01*
X116576849Y-99087308D01*
X116509880Y-99230924D01*
X116452885Y-99443629D01*
X116433693Y-99663000D01*
X107241306Y-99663000D01*
X107142908Y-99522473D01*
X107142906Y-99522470D01*
X107139749Y-99517962D01*
X106984038Y-99362251D01*
X106951550Y-99339502D01*
X106882252Y-99290979D01*
X106803654Y-99235944D01*
X106604076Y-99142880D01*
X106391371Y-99085885D01*
X106172000Y-99066693D01*
X105952629Y-99085885D01*
X105739924Y-99142880D01*
X105646562Y-99186415D01*
X105545334Y-99233618D01*
X105545329Y-99233621D01*
X105540347Y-99235944D01*
X105535840Y-99239100D01*
X105535838Y-99239101D01*
X105364473Y-99359092D01*
X105364470Y-99359094D01*
X105359962Y-99362251D01*
X105236595Y-99485618D01*
X105174283Y-99519644D01*
X105103468Y-99514579D01*
X105046632Y-99472032D01*
X105021821Y-99405512D01*
X105021500Y-99396523D01*
X105021500Y-89369925D01*
X105041502Y-89301804D01*
X105058405Y-89280830D01*
X113684643Y-80654591D01*
X113751862Y-80619600D01*
X113751897Y-80619594D01*
X113757371Y-80619115D01*
X113970076Y-80562120D01*
X114169654Y-80469056D01*
X114350038Y-80342749D01*
X114505749Y-80187038D01*
X114565537Y-80101653D01*
X114628899Y-80011162D01*
X114628900Y-80011160D01*
X114632056Y-80006653D01*
X114634379Y-80001671D01*
X114634382Y-80001666D01*
X114722795Y-79812061D01*
X114725120Y-79807076D01*
X114782115Y-79594371D01*
X114792996Y-79470000D01*
X125387693Y-79470000D01*
X125406885Y-79689371D01*
X125463880Y-79902076D01*
X125466205Y-79907061D01*
X125554618Y-80096666D01*
X125554621Y-80096671D01*
X125556944Y-80101653D01*
X125560100Y-80106160D01*
X125560101Y-80106162D01*
X125613573Y-80182527D01*
X125683251Y-80282038D01*
X125838962Y-80437749D01*
X126019346Y-80564056D01*
X126218924Y-80657120D01*
X126431629Y-80714115D01*
X126651000Y-80733307D01*
X126870371Y-80714115D01*
X127083076Y-80657120D01*
X127282654Y-80564056D01*
X127463038Y-80437749D01*
X127618749Y-80282038D01*
X127688428Y-80182527D01*
X127741899Y-80106162D01*
X127741900Y-80106160D01*
X127745056Y-80101653D01*
X127747379Y-80096671D01*
X127747382Y-80096666D01*
X127835795Y-79907061D01*
X127838120Y-79902076D01*
X127895115Y-79689371D01*
X127914307Y-79470000D01*
X130086693Y-79470000D01*
X130105885Y-79689371D01*
X130162880Y-79902076D01*
X130165205Y-79907061D01*
X130253618Y-80096666D01*
X130253621Y-80096671D01*
X130255944Y-80101653D01*
X130259100Y-80106160D01*
X130259101Y-80106162D01*
X130312573Y-80182527D01*
X130382251Y-80282038D01*
X130537962Y-80437749D01*
X130718346Y-80564056D01*
X130917924Y-80657120D01*
X131130629Y-80714115D01*
X131350000Y-80733307D01*
X131569371Y-80714115D01*
X131782076Y-80657120D01*
X131981654Y-80564056D01*
X132162038Y-80437749D01*
X132317749Y-80282038D01*
X132387428Y-80182527D01*
X132440899Y-80106162D01*
X132440900Y-80106160D01*
X132444056Y-80101653D01*
X132446379Y-80096671D01*
X132446382Y-80096666D01*
X132534795Y-79907061D01*
X132537120Y-79902076D01*
X132594115Y-79689371D01*
X132613307Y-79470000D01*
X134785693Y-79470000D01*
X134804885Y-79689371D01*
X134861880Y-79902076D01*
X134864205Y-79907061D01*
X134952618Y-80096666D01*
X134952621Y-80096671D01*
X134954944Y-80101653D01*
X134958100Y-80106160D01*
X134958101Y-80106162D01*
X135011573Y-80182527D01*
X135081251Y-80282038D01*
X135236962Y-80437749D01*
X135417346Y-80564056D01*
X135616924Y-80657120D01*
X135829629Y-80714115D01*
X136049000Y-80733307D01*
X136268371Y-80714115D01*
X136481076Y-80657120D01*
X136680654Y-80564056D01*
X136861038Y-80437749D01*
X137016749Y-80282038D01*
X137086428Y-80182527D01*
X137139899Y-80106162D01*
X137139900Y-80106160D01*
X137143056Y-80101653D01*
X137145379Y-80096671D01*
X137145382Y-80096666D01*
X137233795Y-79907061D01*
X137236120Y-79902076D01*
X137293115Y-79689371D01*
X137312307Y-79470000D01*
X137293115Y-79250629D01*
X137236120Y-79037924D01*
X137189496Y-78937939D01*
X137145382Y-78843334D01*
X137145379Y-78843329D01*
X137143056Y-78838347D01*
X137080028Y-78748334D01*
X137019908Y-78662473D01*
X137019906Y-78662470D01*
X137016749Y-78657962D01*
X136861038Y-78502251D01*
X136680654Y-78375944D01*
X136481076Y-78282880D01*
X136268371Y-78225885D01*
X136049000Y-78206693D01*
X135829629Y-78225885D01*
X135616924Y-78282880D01*
X135523562Y-78326415D01*
X135422334Y-78373618D01*
X135422329Y-78373621D01*
X135417347Y-78375944D01*
X135412840Y-78379100D01*
X135412838Y-78379101D01*
X135241473Y-78499092D01*
X135241470Y-78499094D01*
X135236962Y-78502251D01*
X135081251Y-78657962D01*
X135078094Y-78662470D01*
X135078092Y-78662473D01*
X135017972Y-78748334D01*
X134954944Y-78838347D01*
X134952621Y-78843329D01*
X134952618Y-78843334D01*
X134908504Y-78937939D01*
X134861880Y-79037924D01*
X134804885Y-79250629D01*
X134785693Y-79470000D01*
X132613307Y-79470000D01*
X132594115Y-79250629D01*
X132537120Y-79037924D01*
X132490496Y-78937939D01*
X132446382Y-78843334D01*
X132446379Y-78843329D01*
X132444056Y-78838347D01*
X132381028Y-78748334D01*
X132320908Y-78662473D01*
X132320906Y-78662470D01*
X132317749Y-78657962D01*
X132162038Y-78502251D01*
X131981654Y-78375944D01*
X131782076Y-78282880D01*
X131569371Y-78225885D01*
X131350000Y-78206693D01*
X131130629Y-78225885D01*
X130917924Y-78282880D01*
X130824562Y-78326415D01*
X130723334Y-78373618D01*
X130723329Y-78373621D01*
X130718347Y-78375944D01*
X130713840Y-78379100D01*
X130713838Y-78379101D01*
X130542473Y-78499092D01*
X130542470Y-78499094D01*
X130537962Y-78502251D01*
X130382251Y-78657962D01*
X130379094Y-78662470D01*
X130379092Y-78662473D01*
X130318972Y-78748334D01*
X130255944Y-78838347D01*
X130253621Y-78843329D01*
X130253618Y-78843334D01*
X130209504Y-78937939D01*
X130162880Y-79037924D01*
X130105885Y-79250629D01*
X130086693Y-79470000D01*
X127914307Y-79470000D01*
X127895115Y-79250629D01*
X127838120Y-79037924D01*
X127791496Y-78937939D01*
X127747382Y-78843334D01*
X127747379Y-78843329D01*
X127745056Y-78838347D01*
X127682028Y-78748334D01*
X127621908Y-78662473D01*
X127621906Y-78662470D01*
X127618749Y-78657962D01*
X127463038Y-78502251D01*
X127282654Y-78375944D01*
X127083076Y-78282880D01*
X126870371Y-78225885D01*
X126651000Y-78206693D01*
X126431629Y-78225885D01*
X126218924Y-78282880D01*
X126125562Y-78326415D01*
X126024334Y-78373618D01*
X126024329Y-78373621D01*
X126019347Y-78375944D01*
X126014840Y-78379100D01*
X126014838Y-78379101D01*
X125843473Y-78499092D01*
X125843470Y-78499094D01*
X125838962Y-78502251D01*
X125683251Y-78657962D01*
X125680094Y-78662470D01*
X125680092Y-78662473D01*
X125619972Y-78748334D01*
X125556944Y-78838347D01*
X125554621Y-78843329D01*
X125554618Y-78843334D01*
X125510504Y-78937939D01*
X125463880Y-79037924D01*
X125406885Y-79250629D01*
X125387693Y-79470000D01*
X114792996Y-79470000D01*
X114801307Y-79375000D01*
X114782115Y-79155629D01*
X114725120Y-78942924D01*
X114674253Y-78833838D01*
X114634382Y-78748334D01*
X114634379Y-78748329D01*
X114632056Y-78743347D01*
X114628899Y-78738838D01*
X114508908Y-78567473D01*
X114508906Y-78567470D01*
X114505749Y-78562962D01*
X114350038Y-78407251D01*
X114302006Y-78373618D01*
X114175739Y-78285205D01*
X114169654Y-78280944D01*
X113970076Y-78187880D01*
X113757371Y-78130885D01*
X113538000Y-78111693D01*
X113318629Y-78130885D01*
X113105924Y-78187880D01*
X113025449Y-78225406D01*
X112911334Y-78278618D01*
X112911329Y-78278621D01*
X112906347Y-78280944D01*
X112901840Y-78284100D01*
X112901838Y-78284101D01*
X112730473Y-78404092D01*
X112730470Y-78404094D01*
X112725962Y-78407251D01*
X112570251Y-78562962D01*
X112567094Y-78567470D01*
X112567092Y-78567473D01*
X112447101Y-78738838D01*
X112443944Y-78743347D01*
X112441621Y-78748329D01*
X112441618Y-78748334D01*
X112401747Y-78833838D01*
X112350880Y-78942924D01*
X112293885Y-79155629D01*
X112293406Y-79161105D01*
X112293400Y-79161139D01*
X112258409Y-79228356D01*
X103720095Y-87766671D01*
X103657783Y-87800697D01*
X103586968Y-87795632D01*
X103530132Y-87753085D01*
X103505321Y-87686565D01*
X103505000Y-87677576D01*
X103505000Y-72339200D01*
X106162342Y-72339200D01*
X106181037Y-72576741D01*
X106182191Y-72581548D01*
X106182192Y-72581554D01*
X106213099Y-72710290D01*
X106236661Y-72808433D01*
X106238554Y-72813004D01*
X106238555Y-72813006D01*
X106312718Y-72992050D01*
X106327845Y-73028571D01*
X106452344Y-73231734D01*
X106607092Y-73412920D01*
X106610848Y-73416128D01*
X106629971Y-73432461D01*
X106788278Y-73567668D01*
X106991441Y-73692167D01*
X106996011Y-73694060D01*
X106996015Y-73694062D01*
X107207006Y-73781457D01*
X107211579Y-73783351D01*
X107291617Y-73802566D01*
X107438458Y-73837820D01*
X107438464Y-73837821D01*
X107443271Y-73838975D01*
X107680812Y-73857670D01*
X107918353Y-73838975D01*
X107923160Y-73837821D01*
X107923166Y-73837820D01*
X108070007Y-73802566D01*
X108150045Y-73783351D01*
X108154618Y-73781457D01*
X108365609Y-73694062D01*
X108365613Y-73694060D01*
X108370183Y-73692167D01*
X108573346Y-73567668D01*
X108731653Y-73432461D01*
X108750776Y-73416128D01*
X108754532Y-73412920D01*
X108909280Y-73231734D01*
X109033779Y-73028571D01*
X109048907Y-72992050D01*
X109104591Y-72857615D01*
X109149139Y-72802334D01*
X109216503Y-72779913D01*
X109285294Y-72797471D01*
X109333672Y-72849433D01*
X109347000Y-72905833D01*
X109347000Y-75480098D01*
X109346998Y-75480868D01*
X109346524Y-75558452D01*
X109348990Y-75567081D01*
X109348991Y-75567086D01*
X109354639Y-75586848D01*
X109358217Y-75603609D01*
X109361130Y-75623952D01*
X109361133Y-75623962D01*
X109362405Y-75632845D01*
X109373021Y-75656195D01*
X109379464Y-75673707D01*
X109386512Y-75698365D01*
X109402274Y-75723348D01*
X109410404Y-75738414D01*
X109422633Y-75765310D01*
X109439374Y-75784739D01*
X109450479Y-75799747D01*
X109464160Y-75821431D01*
X109470888Y-75827373D01*
X109486296Y-75840981D01*
X109498340Y-75853173D01*
X109517619Y-75875547D01*
X109525147Y-75880426D01*
X109525150Y-75880429D01*
X109539139Y-75889496D01*
X109554013Y-75900786D01*
X109573228Y-75917756D01*
X109581354Y-75921571D01*
X109581355Y-75921572D01*
X109587021Y-75924232D01*
X109599966Y-75930310D01*
X109614935Y-75938624D01*
X109639727Y-75954693D01*
X109656650Y-75959754D01*
X109664290Y-75962039D01*
X109681736Y-75968701D01*
X109704948Y-75979599D01*
X109734130Y-75984143D01*
X109750849Y-75987926D01*
X109770536Y-75993814D01*
X109770539Y-75993815D01*
X109779141Y-75996387D01*
X109788116Y-75996442D01*
X109788117Y-75996442D01*
X109794810Y-75996483D01*
X109813556Y-75996597D01*
X109814328Y-75996630D01*
X109815423Y-75996800D01*
X109846298Y-75996800D01*
X109847068Y-75996802D01*
X109920716Y-75997252D01*
X109920717Y-75997252D01*
X109924652Y-75997276D01*
X109925996Y-75996892D01*
X109927341Y-75996800D01*
X121123898Y-75996800D01*
X121124669Y-75996802D01*
X121202252Y-75997276D01*
X121210881Y-75994810D01*
X121210886Y-75994809D01*
X121230648Y-75989161D01*
X121247409Y-75985583D01*
X121267752Y-75982670D01*
X121267762Y-75982667D01*
X121276645Y-75981395D01*
X121299995Y-75970779D01*
X121317507Y-75964336D01*
X121333537Y-75959754D01*
X121342165Y-75957288D01*
X121367148Y-75941526D01*
X121382214Y-75933396D01*
X121409110Y-75921167D01*
X121428539Y-75904426D01*
X121443547Y-75893321D01*
X121457639Y-75884430D01*
X121465231Y-75879640D01*
X121484782Y-75857503D01*
X121496974Y-75845459D01*
X121512549Y-75832039D01*
X121512550Y-75832037D01*
X121519347Y-75826181D01*
X121524226Y-75818653D01*
X121524229Y-75818650D01*
X121533296Y-75804661D01*
X121544586Y-75789787D01*
X121555612Y-75777302D01*
X121561556Y-75770572D01*
X121574110Y-75743834D01*
X121582424Y-75728865D01*
X121598493Y-75704073D01*
X121605839Y-75679509D01*
X121612501Y-75662064D01*
X121619583Y-75646979D01*
X121623399Y-75638852D01*
X121627943Y-75609670D01*
X121631726Y-75592951D01*
X121637614Y-75573264D01*
X121637615Y-75573261D01*
X121640187Y-75564659D01*
X121640397Y-75530244D01*
X121640430Y-75529472D01*
X121640600Y-75528377D01*
X121640600Y-75497502D01*
X121640602Y-75496732D01*
X121641052Y-75423084D01*
X121641052Y-75423083D01*
X121641076Y-75419148D01*
X121640692Y-75417804D01*
X121640600Y-75416459D01*
X121640600Y-72992050D01*
X121660602Y-72923929D01*
X121714258Y-72877436D01*
X121784532Y-72867332D01*
X121849112Y-72896826D01*
X121883009Y-72943831D01*
X121918592Y-73029738D01*
X122043302Y-73233245D01*
X122198311Y-73414738D01*
X122379804Y-73569747D01*
X122583311Y-73694457D01*
X122587881Y-73696350D01*
X122587883Y-73696351D01*
X122799249Y-73783901D01*
X122803822Y-73785795D01*
X122883771Y-73804989D01*
X123031093Y-73840358D01*
X123031099Y-73840359D01*
X123035906Y-73841513D01*
X123273849Y-73860240D01*
X123511792Y-73841513D01*
X123516599Y-73840359D01*
X123516605Y-73840358D01*
X123663927Y-73804989D01*
X123743876Y-73785795D01*
X123748449Y-73783901D01*
X123959815Y-73696351D01*
X123959817Y-73696350D01*
X123964387Y-73694457D01*
X124167894Y-73569747D01*
X124349387Y-73414738D01*
X124504396Y-73233245D01*
X124629106Y-73029738D01*
X124710550Y-72833115D01*
X124718550Y-72813800D01*
X124718551Y-72813798D01*
X124720444Y-72809227D01*
X124743738Y-72712200D01*
X124775007Y-72581956D01*
X124775008Y-72581950D01*
X124776162Y-72577143D01*
X124794889Y-72339200D01*
X124776162Y-72101257D01*
X124768900Y-72071006D01*
X124724196Y-71884801D01*
X124720444Y-71869173D01*
X124696874Y-71812270D01*
X124631000Y-71653234D01*
X124630999Y-71653232D01*
X124629106Y-71648662D01*
X124504396Y-71445155D01*
X124349387Y-71263662D01*
X124167894Y-71108653D01*
X123964387Y-70983943D01*
X123959817Y-70982050D01*
X123959815Y-70982049D01*
X123748449Y-70894499D01*
X123748447Y-70894498D01*
X123743876Y-70892605D01*
X123663927Y-70873411D01*
X123516605Y-70838042D01*
X123516599Y-70838041D01*
X123511792Y-70836887D01*
X123273849Y-70818160D01*
X123035906Y-70836887D01*
X123031099Y-70838041D01*
X123031093Y-70838042D01*
X122883771Y-70873411D01*
X122803822Y-70892605D01*
X122799251Y-70894498D01*
X122799249Y-70894499D01*
X122587883Y-70982049D01*
X122587881Y-70982050D01*
X122583311Y-70983943D01*
X122379804Y-71108653D01*
X122198311Y-71263662D01*
X122043302Y-71445155D01*
X121918592Y-71648662D01*
X121916699Y-71653232D01*
X121916698Y-71653234D01*
X121883009Y-71734568D01*
X121838461Y-71789849D01*
X121771098Y-71812270D01*
X121702306Y-71794712D01*
X121653928Y-71742750D01*
X121640600Y-71686350D01*
X121640600Y-69469000D01*
X125355693Y-69469000D01*
X125374885Y-69688371D01*
X125431880Y-69901076D01*
X125434205Y-69906061D01*
X125522618Y-70095666D01*
X125522621Y-70095671D01*
X125524944Y-70100653D01*
X125528100Y-70105160D01*
X125528101Y-70105162D01*
X125632174Y-70253793D01*
X125651251Y-70281038D01*
X125806962Y-70436749D01*
X125811471Y-70439906D01*
X125811473Y-70439908D01*
X125886241Y-70492261D01*
X125987346Y-70563056D01*
X126186924Y-70656120D01*
X126399629Y-70713115D01*
X126619000Y-70732307D01*
X126838371Y-70713115D01*
X127051076Y-70656120D01*
X127250654Y-70563056D01*
X127351759Y-70492261D01*
X127426527Y-70439908D01*
X127426529Y-70439906D01*
X127431038Y-70436749D01*
X127586749Y-70281038D01*
X127605827Y-70253793D01*
X127709899Y-70105162D01*
X127709900Y-70105160D01*
X127713056Y-70100653D01*
X127715379Y-70095671D01*
X127715382Y-70095666D01*
X127803795Y-69906061D01*
X127806120Y-69901076D01*
X127863115Y-69688371D01*
X127882307Y-69469000D01*
X127863115Y-69249629D01*
X127845262Y-69183000D01*
X130150193Y-69183000D01*
X130169385Y-69402371D01*
X130226380Y-69615076D01*
X130269915Y-69708438D01*
X130317118Y-69809666D01*
X130317121Y-69809671D01*
X130319444Y-69814653D01*
X130322600Y-69819160D01*
X130322601Y-69819162D01*
X130438797Y-69985106D01*
X130445751Y-69995038D01*
X130601462Y-70150749D01*
X130605971Y-70153906D01*
X130605973Y-70153908D01*
X130619152Y-70163136D01*
X130781846Y-70277056D01*
X130981424Y-70370120D01*
X131194129Y-70427115D01*
X131413500Y-70446307D01*
X131632871Y-70427115D01*
X131845576Y-70370120D01*
X132045154Y-70277056D01*
X132207848Y-70163136D01*
X132221027Y-70153908D01*
X132221029Y-70153906D01*
X132225538Y-70150749D01*
X132381249Y-69995038D01*
X132388204Y-69985106D01*
X132504399Y-69819162D01*
X132504400Y-69819160D01*
X132507556Y-69814653D01*
X132509879Y-69809671D01*
X132509882Y-69809666D01*
X132562685Y-69696429D01*
X132609602Y-69643144D01*
X132677880Y-69623683D01*
X132745840Y-69644225D01*
X132791074Y-69696428D01*
X132791621Y-69697600D01*
X132846686Y-69815689D01*
X132846689Y-69815694D01*
X132849012Y-69820676D01*
X132852168Y-69825183D01*
X132852169Y-69825185D01*
X132967943Y-69990527D01*
X132976523Y-70002781D01*
X133133719Y-70159977D01*
X133138227Y-70163134D01*
X133138230Y-70163136D01*
X133213995Y-70216187D01*
X133315823Y-70287488D01*
X133320805Y-70289811D01*
X133320810Y-70289814D01*
X133511310Y-70378645D01*
X133517304Y-70381440D01*
X133522612Y-70382862D01*
X133522614Y-70382863D01*
X133588449Y-70400503D01*
X133732037Y-70438978D01*
X133953500Y-70458353D01*
X134174963Y-70438978D01*
X134318551Y-70400503D01*
X134384386Y-70382863D01*
X134384388Y-70382862D01*
X134389696Y-70381440D01*
X134395690Y-70378645D01*
X134586190Y-70289814D01*
X134586195Y-70289811D01*
X134591177Y-70287488D01*
X134656459Y-70241777D01*
X135799277Y-70241777D01*
X135808574Y-70253793D01*
X135851569Y-70283898D01*
X135861055Y-70289376D01*
X136052493Y-70378645D01*
X136062785Y-70382391D01*
X136266809Y-70437059D01*
X136277604Y-70438962D01*
X136488025Y-70457372D01*
X136498975Y-70457372D01*
X136709396Y-70438962D01*
X136720191Y-70437059D01*
X136924215Y-70382391D01*
X136934507Y-70378645D01*
X137125945Y-70289376D01*
X137135431Y-70283898D01*
X137179264Y-70253207D01*
X137187639Y-70242729D01*
X137180571Y-70229281D01*
X137150290Y-70199000D01*
X139293693Y-70199000D01*
X139312885Y-70418371D01*
X139369880Y-70631076D01*
X139382222Y-70657543D01*
X139460618Y-70825666D01*
X139460621Y-70825671D01*
X139462944Y-70830653D01*
X139466100Y-70835160D01*
X139466101Y-70835162D01*
X139568953Y-70982049D01*
X139589251Y-71011038D01*
X139744962Y-71166749D01*
X139925346Y-71293056D01*
X140124924Y-71386120D01*
X140337629Y-71443115D01*
X140557000Y-71462307D01*
X140776371Y-71443115D01*
X140989076Y-71386120D01*
X141188654Y-71293056D01*
X141369038Y-71166749D01*
X141524749Y-71011038D01*
X141545048Y-70982049D01*
X141647899Y-70835162D01*
X141647900Y-70835160D01*
X141651056Y-70830653D01*
X141653379Y-70825671D01*
X141653382Y-70825666D01*
X141731778Y-70657543D01*
X141744120Y-70631076D01*
X141801115Y-70418371D01*
X141820307Y-70199000D01*
X152755693Y-70199000D01*
X152774885Y-70418371D01*
X152831880Y-70631076D01*
X152844222Y-70657543D01*
X152922618Y-70825666D01*
X152922621Y-70825671D01*
X152924944Y-70830653D01*
X152928100Y-70835160D01*
X152928101Y-70835162D01*
X153030953Y-70982049D01*
X153051251Y-71011038D01*
X153206962Y-71166749D01*
X153387346Y-71293056D01*
X153586924Y-71386120D01*
X153799629Y-71443115D01*
X154019000Y-71462307D01*
X154238371Y-71443115D01*
X154451076Y-71386120D01*
X154650654Y-71293056D01*
X154831038Y-71166749D01*
X154986749Y-71011038D01*
X155007048Y-70982049D01*
X155109899Y-70835162D01*
X155109900Y-70835160D01*
X155113056Y-70830653D01*
X155115379Y-70825671D01*
X155115382Y-70825666D01*
X155193778Y-70657543D01*
X155206120Y-70631076D01*
X155263115Y-70418371D01*
X155282307Y-70199000D01*
X155263115Y-69979629D01*
X155206120Y-69766924D01*
X155148401Y-69643144D01*
X155115382Y-69572334D01*
X155115379Y-69572329D01*
X155113056Y-69567347D01*
X155102163Y-69551790D01*
X154989908Y-69391473D01*
X154989906Y-69391470D01*
X154986749Y-69386962D01*
X154831038Y-69231251D01*
X154775811Y-69192580D01*
X154748447Y-69173420D01*
X154650654Y-69104944D01*
X154451076Y-69011880D01*
X154238371Y-68954885D01*
X154019000Y-68935693D01*
X153799629Y-68954885D01*
X153586924Y-69011880D01*
X153495636Y-69054448D01*
X153392334Y-69102618D01*
X153392329Y-69102621D01*
X153387347Y-69104944D01*
X153382840Y-69108100D01*
X153382838Y-69108101D01*
X153211473Y-69228092D01*
X153211470Y-69228094D01*
X153206962Y-69231251D01*
X153051251Y-69386962D01*
X153048094Y-69391470D01*
X153048092Y-69391473D01*
X152935837Y-69551790D01*
X152924944Y-69567347D01*
X152922621Y-69572329D01*
X152922618Y-69572334D01*
X152889599Y-69643144D01*
X152831880Y-69766924D01*
X152774885Y-69979629D01*
X152755693Y-70199000D01*
X141820307Y-70199000D01*
X141801115Y-69979629D01*
X141744120Y-69766924D01*
X141686401Y-69643144D01*
X141653382Y-69572334D01*
X141653379Y-69572329D01*
X141651056Y-69567347D01*
X141640163Y-69551790D01*
X141527908Y-69391473D01*
X141527906Y-69391470D01*
X141524749Y-69386962D01*
X141369038Y-69231251D01*
X141313811Y-69192580D01*
X141286447Y-69173420D01*
X141188654Y-69104944D01*
X140989076Y-69011880D01*
X140776371Y-68954885D01*
X140557000Y-68935693D01*
X140337629Y-68954885D01*
X140124924Y-69011880D01*
X140033636Y-69054448D01*
X139930334Y-69102618D01*
X139930329Y-69102621D01*
X139925347Y-69104944D01*
X139920840Y-69108100D01*
X139920838Y-69108101D01*
X139749473Y-69228092D01*
X139749470Y-69228094D01*
X139744962Y-69231251D01*
X139589251Y-69386962D01*
X139586094Y-69391470D01*
X139586092Y-69391473D01*
X139473837Y-69551790D01*
X139462944Y-69567347D01*
X139460621Y-69572329D01*
X139460618Y-69572334D01*
X139427599Y-69643144D01*
X139369880Y-69766924D01*
X139312885Y-69979629D01*
X139293693Y-70199000D01*
X137150290Y-70199000D01*
X136506312Y-69555022D01*
X136492368Y-69547408D01*
X136490535Y-69547539D01*
X136483920Y-69551790D01*
X135805707Y-70230003D01*
X135799277Y-70241777D01*
X134656459Y-70241777D01*
X134693005Y-70216187D01*
X134768770Y-70163136D01*
X134768773Y-70163134D01*
X134773281Y-70159977D01*
X134930477Y-70002781D01*
X134939058Y-69990527D01*
X135054831Y-69825185D01*
X135054832Y-69825183D01*
X135057988Y-69820676D01*
X135060311Y-69815694D01*
X135060314Y-69815689D01*
X135109581Y-69710035D01*
X135156499Y-69656750D01*
X135224776Y-69637289D01*
X135292736Y-69657831D01*
X135337971Y-69710035D01*
X135387123Y-69815441D01*
X135392603Y-69824932D01*
X135423294Y-69868765D01*
X135433771Y-69877140D01*
X135447218Y-69870072D01*
X136121478Y-69195812D01*
X136127856Y-69184132D01*
X136857908Y-69184132D01*
X136858039Y-69185965D01*
X136862290Y-69192580D01*
X137540503Y-69870793D01*
X137552277Y-69877223D01*
X137564293Y-69867926D01*
X137594397Y-69824932D01*
X137599877Y-69815441D01*
X137689145Y-69624007D01*
X137692891Y-69613715D01*
X137747559Y-69409691D01*
X137749462Y-69398896D01*
X137767872Y-69188475D01*
X137767872Y-69177525D01*
X137749462Y-68967104D01*
X137747559Y-68956309D01*
X137692891Y-68752285D01*
X137689145Y-68741993D01*
X137599877Y-68550559D01*
X137594397Y-68541068D01*
X137563706Y-68497235D01*
X137553229Y-68488860D01*
X137539782Y-68495928D01*
X136865522Y-69170188D01*
X136857908Y-69184132D01*
X136127856Y-69184132D01*
X136129092Y-69181868D01*
X136128961Y-69180035D01*
X136124710Y-69173420D01*
X135446497Y-68495207D01*
X135434723Y-68488777D01*
X135422707Y-68498074D01*
X135392603Y-68541068D01*
X135387123Y-68550559D01*
X135337971Y-68655965D01*
X135291053Y-68709250D01*
X135222776Y-68728711D01*
X135154816Y-68708169D01*
X135109581Y-68655965D01*
X135060314Y-68550311D01*
X135060311Y-68550306D01*
X135057988Y-68545324D01*
X135024916Y-68498092D01*
X134933636Y-68367730D01*
X134933634Y-68367727D01*
X134930477Y-68363219D01*
X134773281Y-68206023D01*
X134768773Y-68202866D01*
X134768770Y-68202864D01*
X134693005Y-68149813D01*
X134655099Y-68123271D01*
X135799360Y-68123271D01*
X135806428Y-68136718D01*
X136480688Y-68810978D01*
X136494632Y-68818592D01*
X136496465Y-68818461D01*
X136503080Y-68814210D01*
X137181293Y-68135997D01*
X137187723Y-68124223D01*
X137178426Y-68112207D01*
X137135431Y-68082102D01*
X137125945Y-68076624D01*
X136934507Y-67987355D01*
X136924215Y-67983609D01*
X136720191Y-67928941D01*
X136709396Y-67927038D01*
X136498975Y-67908628D01*
X136488025Y-67908628D01*
X136277604Y-67927038D01*
X136266809Y-67928941D01*
X136062785Y-67983609D01*
X136052493Y-67987355D01*
X135861059Y-68076623D01*
X135851568Y-68082103D01*
X135807735Y-68112794D01*
X135799360Y-68123271D01*
X134655099Y-68123271D01*
X134591177Y-68078512D01*
X134586195Y-68076189D01*
X134586190Y-68076186D01*
X134394678Y-67986883D01*
X134394677Y-67986882D01*
X134389696Y-67984560D01*
X134384388Y-67983138D01*
X134384386Y-67983137D01*
X134318551Y-67965497D01*
X134174963Y-67927022D01*
X133953500Y-67907647D01*
X133732037Y-67927022D01*
X133588449Y-67965497D01*
X133522614Y-67983137D01*
X133522612Y-67983138D01*
X133517304Y-67984560D01*
X133512323Y-67986882D01*
X133512322Y-67986883D01*
X133320811Y-68076186D01*
X133320806Y-68076189D01*
X133315824Y-68078512D01*
X133311317Y-68081668D01*
X133311315Y-68081669D01*
X133138230Y-68202864D01*
X133138227Y-68202866D01*
X133133719Y-68206023D01*
X132976523Y-68363219D01*
X132973366Y-68367727D01*
X132973364Y-68367730D01*
X132882084Y-68498092D01*
X132849012Y-68545324D01*
X132846689Y-68550306D01*
X132846686Y-68550311D01*
X132819345Y-68608945D01*
X132791074Y-68669572D01*
X132744158Y-68722856D01*
X132675881Y-68742317D01*
X132607921Y-68721775D01*
X132562685Y-68669571D01*
X132509882Y-68556334D01*
X132509879Y-68556329D01*
X132507556Y-68551347D01*
X132500359Y-68541068D01*
X132384408Y-68375473D01*
X132384406Y-68375470D01*
X132381249Y-68370962D01*
X132225538Y-68215251D01*
X132212360Y-68206023D01*
X132095537Y-68124223D01*
X132045154Y-68088944D01*
X131845576Y-67995880D01*
X131632871Y-67938885D01*
X131413500Y-67919693D01*
X131194129Y-67938885D01*
X130981424Y-67995880D01*
X130888062Y-68039415D01*
X130786834Y-68086618D01*
X130786829Y-68086621D01*
X130781847Y-68088944D01*
X130777340Y-68092100D01*
X130777338Y-68092101D01*
X130605973Y-68212092D01*
X130605970Y-68212094D01*
X130601462Y-68215251D01*
X130445751Y-68370962D01*
X130442594Y-68375470D01*
X130442592Y-68375473D01*
X130326641Y-68541068D01*
X130319444Y-68551347D01*
X130317121Y-68556329D01*
X130317118Y-68556334D01*
X130272012Y-68653065D01*
X130226380Y-68750924D01*
X130169385Y-68963629D01*
X130150193Y-69183000D01*
X127845262Y-69183000D01*
X127806120Y-69036924D01*
X127752186Y-68921261D01*
X127715382Y-68842334D01*
X127715379Y-68842329D01*
X127713056Y-68837347D01*
X127699832Y-68818461D01*
X127589908Y-68661473D01*
X127589906Y-68661470D01*
X127586749Y-68656962D01*
X127431038Y-68501251D01*
X127422407Y-68495207D01*
X127351759Y-68445739D01*
X127250654Y-68374944D01*
X127051076Y-68281880D01*
X126838371Y-68224885D01*
X126619000Y-68205693D01*
X126399629Y-68224885D01*
X126186924Y-68281880D01*
X126093562Y-68325415D01*
X125992334Y-68372618D01*
X125992329Y-68372621D01*
X125987347Y-68374944D01*
X125982840Y-68378100D01*
X125982838Y-68378101D01*
X125811473Y-68498092D01*
X125811470Y-68498094D01*
X125806962Y-68501251D01*
X125651251Y-68656962D01*
X125648094Y-68661470D01*
X125648092Y-68661473D01*
X125538168Y-68818461D01*
X125524944Y-68837347D01*
X125522621Y-68842329D01*
X125522618Y-68842334D01*
X125485814Y-68921261D01*
X125431880Y-69036924D01*
X125374885Y-69249629D01*
X125355693Y-69469000D01*
X121640600Y-69469000D01*
X121640600Y-69198302D01*
X121640602Y-69197532D01*
X121641021Y-69128922D01*
X121641076Y-69119948D01*
X121638610Y-69111319D01*
X121638609Y-69111314D01*
X121632961Y-69091552D01*
X121629383Y-69074791D01*
X121626470Y-69054448D01*
X121626467Y-69054438D01*
X121625195Y-69045555D01*
X121614579Y-69022205D01*
X121608136Y-69004693D01*
X121603554Y-68988663D01*
X121601088Y-68980035D01*
X121585326Y-68955052D01*
X121577196Y-68939986D01*
X121564967Y-68913090D01*
X121548226Y-68893661D01*
X121537121Y-68878653D01*
X121528230Y-68864561D01*
X121523440Y-68856969D01*
X121501303Y-68837418D01*
X121489259Y-68825226D01*
X121475839Y-68809651D01*
X121475837Y-68809650D01*
X121469981Y-68802853D01*
X121462453Y-68797974D01*
X121462450Y-68797971D01*
X121448461Y-68788904D01*
X121433587Y-68777614D01*
X121421102Y-68766588D01*
X121414372Y-68760644D01*
X121406246Y-68756829D01*
X121406245Y-68756828D01*
X121400579Y-68754168D01*
X121387634Y-68748090D01*
X121372665Y-68739776D01*
X121347873Y-68723707D01*
X121323309Y-68716361D01*
X121305864Y-68709699D01*
X121301427Y-68707616D01*
X121282652Y-68698801D01*
X121253470Y-68694257D01*
X121236751Y-68690474D01*
X121217064Y-68684586D01*
X121217061Y-68684585D01*
X121208459Y-68682013D01*
X121199484Y-68681958D01*
X121199483Y-68681958D01*
X121192790Y-68681917D01*
X121174044Y-68681803D01*
X121173272Y-68681770D01*
X121172177Y-68681600D01*
X121141302Y-68681600D01*
X121140532Y-68681598D01*
X121066884Y-68681148D01*
X121066883Y-68681148D01*
X121062948Y-68681124D01*
X121061604Y-68681508D01*
X121060259Y-68681600D01*
X109863702Y-68681600D01*
X109862932Y-68681598D01*
X109862078Y-68681593D01*
X109785348Y-68681124D01*
X109776719Y-68683590D01*
X109776714Y-68683591D01*
X109756952Y-68689239D01*
X109740191Y-68692817D01*
X109719848Y-68695730D01*
X109719838Y-68695733D01*
X109710955Y-68697005D01*
X109687605Y-68707621D01*
X109670093Y-68714064D01*
X109662057Y-68716361D01*
X109645435Y-68721112D01*
X109620452Y-68736874D01*
X109605386Y-68745004D01*
X109578490Y-68757233D01*
X109559061Y-68773974D01*
X109544053Y-68785079D01*
X109522369Y-68798760D01*
X109504970Y-68818461D01*
X109502819Y-68820896D01*
X109490626Y-68832941D01*
X109485513Y-68837347D01*
X109468253Y-68852219D01*
X109463374Y-68859747D01*
X109463371Y-68859750D01*
X109454304Y-68873739D01*
X109443014Y-68888613D01*
X109426044Y-68907828D01*
X109413490Y-68934566D01*
X109405176Y-68949535D01*
X109389107Y-68974327D01*
X109386535Y-68982927D01*
X109381761Y-68998890D01*
X109375099Y-69016336D01*
X109364201Y-69039548D01*
X109359658Y-69068728D01*
X109355874Y-69085449D01*
X109349986Y-69105136D01*
X109349985Y-69105139D01*
X109347413Y-69113741D01*
X109347358Y-69122716D01*
X109347358Y-69122717D01*
X109347203Y-69148146D01*
X109347170Y-69148928D01*
X109347000Y-69150023D01*
X109347000Y-69180898D01*
X109346998Y-69181668D01*
X109346524Y-69259252D01*
X109346908Y-69260596D01*
X109347000Y-69261941D01*
X109347000Y-71772567D01*
X109326998Y-71840688D01*
X109273342Y-71887181D01*
X109203068Y-71897285D01*
X109138488Y-71867791D01*
X109104591Y-71820785D01*
X109035674Y-71654403D01*
X109035672Y-71654399D01*
X109033779Y-71649829D01*
X108909280Y-71446666D01*
X108754532Y-71265480D01*
X108748642Y-71260449D01*
X108634370Y-71162852D01*
X108573346Y-71110732D01*
X108370183Y-70986233D01*
X108365613Y-70984340D01*
X108365609Y-70984338D01*
X108154618Y-70896943D01*
X108154616Y-70896942D01*
X108150045Y-70895049D01*
X108070007Y-70875834D01*
X107923166Y-70840580D01*
X107923160Y-70840579D01*
X107918353Y-70839425D01*
X107680812Y-70820730D01*
X107443271Y-70839425D01*
X107438464Y-70840579D01*
X107438458Y-70840580D01*
X107291617Y-70875834D01*
X107211579Y-70895049D01*
X107207008Y-70896942D01*
X107207006Y-70896943D01*
X106996015Y-70984338D01*
X106996011Y-70984340D01*
X106991441Y-70986233D01*
X106788278Y-71110732D01*
X106727254Y-71162852D01*
X106612983Y-71260449D01*
X106607092Y-71265480D01*
X106452344Y-71446666D01*
X106327845Y-71649829D01*
X106325952Y-71654399D01*
X106325950Y-71654403D01*
X106260560Y-71812270D01*
X106236661Y-71869967D01*
X106230103Y-71897285D01*
X106188728Y-72069625D01*
X106181037Y-72101659D01*
X106162821Y-72333119D01*
X106162342Y-72339200D01*
X103505000Y-72339200D01*
X103505000Y-66547000D01*
X103525002Y-66478879D01*
X103578658Y-66432386D01*
X103631000Y-66421000D01*
X158370000Y-66421000D01*
X158438121Y-66441002D01*
G37*
%TD.AperFunction*%
%TD*%
M02*
