%TF.GenerationSoftware,KiCad,Pcbnew,(6.0.1)*%
%TF.CreationDate,2022-04-01T11:53:39+03:00*%
%TF.ProjectId,shield MCU V2_gnd_layer,73686965-6c64-4204-9d43-552056325f67,rev?*%
%TF.SameCoordinates,Original*%
%TF.FileFunction,Copper,L2,Bot*%
%TF.FilePolarity,Positive*%
%FSLAX46Y46*%
G04 Gerber Fmt 4.6, Leading zero omitted, Abs format (unit mm)*
G04 Created by KiCad (PCBNEW (6.0.1)) date 2022-04-01 11:53:39*
%MOMM*%
%LPD*%
G01*
G04 APERTURE LIST*
%TA.AperFunction,ComponentPad*%
%ADD10R,1.700000X1.500000*%
%TD*%
%TA.AperFunction,ComponentPad*%
%ADD11C,1.500000*%
%TD*%
%TA.AperFunction,ComponentPad*%
%ADD12R,1.700000X1.700000*%
%TD*%
%TA.AperFunction,ComponentPad*%
%ADD13O,1.700000X1.700000*%
%TD*%
%TA.AperFunction,ComponentPad*%
%ADD14C,1.524000*%
%TD*%
%TA.AperFunction,ComponentPad*%
%ADD15R,1.320800X1.320800*%
%TD*%
%TA.AperFunction,ComponentPad*%
%ADD16C,1.320800*%
%TD*%
%TA.AperFunction,ComponentPad*%
%ADD17C,1.600000*%
%TD*%
%TA.AperFunction,Conductor*%
%ADD18C,0.250000*%
%TD*%
G04 APERTURE END LIST*
D10*
%TO.P,J2,1,P1*%
%TO.N,Net-(J2-Pad1)*%
X147320000Y-122174000D03*
D11*
%TO.P,J2,2,P2*%
%TO.N,GND*%
X144780000Y-122174000D03*
%TO.P,J2,3,P3*%
%TO.N,/5V*%
X142240000Y-122174000D03*
%TD*%
D10*
%TO.P,PoL1,1,P1*%
%TO.N,Net-(H1-Pad14)*%
X113538000Y-136144000D03*
D11*
%TO.P,PoL1,2,P2*%
%TO.N,Net-(H1-Pad13)*%
X110998000Y-136144000D03*
%TD*%
%TO.P,U3,1,SDO*%
%TO.N,Net-(U3-Pad1)*%
X117697000Y-92043000D03*
%TO.P,U3,2,CS*%
%TO.N,Net-(U3-Pad2)*%
X117697000Y-94583000D03*
%TO.P,U3,3,DR*%
%TO.N,unconnected-(U3-Pad3)*%
X117697000Y-97123000D03*
%TO.P,U3,4,INT*%
%TO.N,Net-(U3-Pad4)*%
X117697000Y-99663000D03*
%TO.P,U3,5,VCC*%
%TO.N,/3.3V*%
X135477000Y-92043000D03*
%TO.P,U3,6,SCL*%
%TO.N,Net-(U3-Pad6)*%
X135477000Y-94583000D03*
%TO.P,U3,7,SDA*%
%TO.N,Net-(U3-Pad7)*%
X135477000Y-97123000D03*
%TO.P,U3,8,GND*%
%TO.N,GND*%
X135477000Y-99663000D03*
%TD*%
%TO.P,TP1,1,1*%
%TO.N,/Vin*%
X126619000Y-69469000D03*
%TD*%
D12*
%TO.P,Bt1,1,P1*%
%TO.N,/3.3V*%
X125730000Y-121539000D03*
D13*
%TO.P,Bt1,2,P2*%
%TO.N,GND*%
X123190000Y-121539000D03*
%TO.P,Bt1,3,P3*%
%TO.N,Net-(Bt1-Pad3)*%
X120650000Y-121539000D03*
%TO.P,Bt1,4,P4*%
%TO.N,Net-(Bt1-Pad4)*%
X118110000Y-121539000D03*
%TD*%
D11*
%TO.P,SW1,1,A*%
%TO.N,/Vin*%
X126651000Y-79470000D03*
%TO.P,SW1,2,B*%
%TO.N,/Batt+*%
X131350000Y-79470000D03*
%TO.P,SW1,3,C*%
%TO.N,/chrg+*%
X136049000Y-79470000D03*
%TD*%
D10*
%TO.P,J3,1,P1*%
%TO.N,Net-(J3-Pad1)*%
X147320000Y-118237000D03*
D11*
%TO.P,J3,2,P2*%
%TO.N,GND*%
X144780000Y-118237000D03*
%TO.P,J3,3,P3*%
%TO.N,/5V*%
X142240000Y-118237000D03*
%TD*%
D10*
%TO.P,J4,1,P1*%
%TO.N,Net-(J4-Pad1)*%
X147320000Y-114300000D03*
D11*
%TO.P,J4,2,P2*%
%TO.N,GND*%
X144780000Y-114300000D03*
%TO.P,J4,3,P3*%
%TO.N,/5V*%
X142240000Y-114300000D03*
%TD*%
D10*
%TO.P,J5,1,P1*%
%TO.N,Net-(J5-Pad1)*%
X147320000Y-110617000D03*
D11*
%TO.P,J5,2,P2*%
%TO.N,GND*%
X144780000Y-110617000D03*
%TO.P,J5,3,P3*%
%TO.N,/5V*%
X142240000Y-110617000D03*
%TD*%
%TO.P,U1,1,out-*%
%TO.N,GND*%
X140557000Y-92551000D03*
%TO.P,U1,2,bat-*%
X143605000Y-92551000D03*
%TO.P,U1,3,bat+*%
%TO.N,/chrg+*%
X150971000Y-92551000D03*
%TO.P,U1,4,out+*%
%TO.N,unconnected-(U1-Pad4)*%
X154019000Y-92551000D03*
%TO.P,U1,5,in-*%
%TO.N,unconnected-(U1-Pad5)*%
X140557000Y-70199000D03*
%TO.P,U1,6,in+*%
%TO.N,unconnected-(U1-Pad6)*%
X154019000Y-70199000D03*
%TD*%
%TO.P,TP2,1,1*%
%TO.N,/3.3V*%
X154432000Y-99822000D03*
%TD*%
D10*
%TO.P,PoR1,1,P1*%
%TO.N,Net-(H1-Pad3)*%
X150773050Y-131515000D03*
D11*
%TO.P,PoR1,2,P2*%
%TO.N,Net-(H1-Pad2)*%
X148233050Y-131515000D03*
%TD*%
D14*
%TO.P,J6,1,Pin_1*%
%TO.N,GND*%
X136493500Y-69183000D03*
%TO.P,J6,2,Pin_2*%
%TO.N,unconnected-(J6-Pad2)*%
X133953500Y-69183000D03*
D11*
%TO.P,J6,3,Pin_3*%
%TO.N,/Batt+*%
X131413500Y-69183000D03*
%TD*%
D15*
%TO.P,H1,1,Current_Sensing_A*%
%TO.N,GND*%
X138449050Y-131483100D03*
D16*
%TO.P,H1,2,OUT1*%
%TO.N,Net-(H1-Pad2)*%
X137179050Y-136105900D03*
%TO.P,H1,3,OUT2*%
%TO.N,Net-(H1-Pad3)*%
X135909050Y-131483100D03*
%TO.P,H1,4,VS*%
%TO.N,/5V*%
X134639050Y-136105900D03*
%TO.P,H1,5,IN1*%
%TO.N,Net-(H1-Pad5)*%
X133369050Y-131483100D03*
%TO.P,H1,6,ENA_A*%
%TO.N,Net-(H1-Pad6)*%
X132099050Y-136105900D03*
%TO.P,H1,7,IN2*%
%TO.N,Net-(H1-Pad7)*%
X130829050Y-131483100D03*
%TO.P,H1,8,GND*%
%TO.N,GND*%
X129559050Y-136105900D03*
%TO.P,H1,9,VSS*%
%TO.N,/5V*%
X128289050Y-131483100D03*
%TO.P,H1,10,IN3*%
%TO.N,Net-(H1-Pad10)*%
X127019050Y-136105900D03*
%TO.P,H1,11,ENA_B*%
%TO.N,Net-(H1-Pad11)*%
X125749050Y-131483100D03*
%TO.P,H1,12,IN4*%
%TO.N,Net-(H1-Pad12)*%
X124479050Y-136105900D03*
%TO.P,H1,13,OUT3*%
%TO.N,Net-(H1-Pad13)*%
X123209050Y-131483100D03*
%TO.P,H1,14,OUT4*%
%TO.N,Net-(H1-Pad14)*%
X121939050Y-136105900D03*
%TO.P,H1,15,Current_Sensing_B*%
%TO.N,GND*%
X120669050Y-131483100D03*
%TD*%
D17*
%TO.P,U4,16,+3V3*%
%TO.N,/3.3V*%
X154432000Y-102746000D03*
D11*
%TO.P,U4,18,+5V*%
%TO.N,/5V*%
X154432000Y-105286000D03*
%TO.P,U4,24,VIN*%
%TO.N,/Vin*%
X154432000Y-112906000D03*
%TO.P,U4,37,PC3*%
%TO.N,Net-(J3-Pad1)*%
X154432000Y-123066000D03*
%TO.P,U4,38,PC0*%
%TO.N,Net-(J4-Pad1)*%
X154432000Y-120526000D03*
%TO.P,U4,63,PG9*%
%TO.N,Net-(Bt1-Pad3)*%
X106172000Y-130686000D03*
%TO.P,U4,83,PA5*%
%TO.N,Net-(U3-Pad6)*%
X106172000Y-96146000D03*
%TO.P,U4,85,PA6*%
%TO.N,Net-(U3-Pad1)*%
X106172000Y-98686000D03*
%TO.P,U4,87,ETH_CRS_DV/PA7*%
%TO.N,Net-(U3-Pad7)*%
X106172000Y-101226000D03*
%TO.P,U4,108,PF5*%
%TO.N,Net-(J1-Pad1)*%
X154432000Y-128146000D03*
%TO.P,U4,114,PF10*%
%TO.N,Net-(J5-Pad1)*%
X154432000Y-117986000D03*
%TO.P,U4,118,PD14*%
%TO.N,Net-(U3-Pad2)*%
X106172000Y-103766000D03*
%TO.P,U4,120,PD15*%
%TO.N,Net-(H1-Pad7)*%
X106172000Y-106306000D03*
%TO.P,U4,124,PE9*%
%TO.N,Net-(U3-Pad4)*%
X106172000Y-115446000D03*
%TO.P,U4,127,PE13*%
%TO.N,Net-(H1-Pad12)*%
X106172000Y-123066000D03*
%TO.P,U4,128,PE11*%
%TO.N,Net-(H1-Pad10)*%
X106172000Y-117986000D03*
%TO.P,U4,129,PF13*%
%TO.N,Net-(H1-Pad11)*%
X106172000Y-112906000D03*
%TO.P,U4,130,PF3*%
%TO.N,Net-(J2-Pad1)*%
X154432000Y-125606000D03*
%TO.P,U4,131,PF12*%
%TO.N,Net-(H1-Pad5)*%
X106172000Y-108846000D03*
%TO.P,U4,132,PF15*%
%TO.N,Net-(H1-Pad6)*%
X106172000Y-125606000D03*
%TO.P,U4,133,PG14*%
%TO.N,Net-(Bt1-Pad4)*%
X106172000Y-128146000D03*
%TO.P,U4,143,GND*%
%TO.N,GND*%
X154432000Y-107826000D03*
%TO.P,U4,144,GND*%
X154432000Y-110366000D03*
%TD*%
D10*
%TO.P,J1,1,P1*%
%TO.N,Net-(J1-Pad1)*%
X147320000Y-126111000D03*
D11*
%TO.P,J1,2,P2*%
%TO.N,GND*%
X144780000Y-126111000D03*
%TO.P,J1,3,P3*%
%TO.N,/5V*%
X142240000Y-126111000D03*
%TD*%
D18*
%TO.N,Net-(H1-Pad2)*%
X143642150Y-136105900D02*
X137179050Y-136105900D01*
X148233050Y-131515000D02*
X143642150Y-136105900D01*
%TO.N,Net-(H1-Pad3)*%
X138487150Y-128905000D02*
X149225000Y-128905000D01*
X135909050Y-131483100D02*
X138487150Y-128905000D01*
X149225000Y-128905000D02*
X150773050Y-130453050D01*
X150773050Y-130453050D02*
X150773050Y-131515000D01*
%TO.N,Net-(H1-Pad13)*%
X123209050Y-131483100D02*
X123209050Y-130829050D01*
X110998000Y-134112000D02*
X110998000Y-136144000D01*
X121666000Y-129286000D02*
X115824000Y-129286000D01*
X115824000Y-129286000D02*
X110998000Y-134112000D01*
X123209050Y-130829050D02*
X121666000Y-129286000D01*
%TO.N,Net-(U3-Pad6)*%
X135477000Y-94583000D02*
X131612489Y-90718489D01*
X111599511Y-90718489D02*
X106172000Y-96146000D01*
X131612489Y-90718489D02*
X111599511Y-90718489D01*
%TO.N,Net-(U3-Pad7)*%
X135477000Y-97123000D02*
X131374000Y-101226000D01*
X131374000Y-101226000D02*
X106172000Y-101226000D01*
%TO.N,Net-(J3-Pad1)*%
X149603000Y-118237000D02*
X154432000Y-123066000D01*
X149603000Y-118237000D02*
X147320000Y-118237000D01*
%TO.N,Net-(J2-Pad1)*%
X151000000Y-122174000D02*
X154432000Y-125606000D01*
X151000000Y-122174000D02*
X147320000Y-122174000D01*
%TO.N,Net-(Bt1-Pad3)*%
X111503000Y-130686000D02*
X106172000Y-130686000D01*
X120650000Y-121539000D02*
X111503000Y-130686000D01*
%TO.N,Net-(J1-Pad1)*%
X152397000Y-126111000D02*
X154432000Y-128146000D01*
X152397000Y-126111000D02*
X147320000Y-126111000D01*
%TO.N,Net-(H1-Pad7)*%
X104648000Y-107188000D02*
X104648000Y-109982000D01*
X105918000Y-111252000D02*
X120269000Y-111252000D01*
X130829050Y-121812050D02*
X121539000Y-112522000D01*
X104648000Y-107188000D02*
X105530000Y-106306000D01*
X130829050Y-131483100D02*
X130829050Y-121812050D01*
X104648000Y-109982000D02*
X105918000Y-111252000D01*
X105530000Y-106306000D02*
X106172000Y-106306000D01*
X120269000Y-111252000D02*
X121539000Y-112522000D01*
%TO.N,Net-(H1-Pad11)*%
X128778000Y-121666000D02*
X128778000Y-128454150D01*
X128778000Y-128454150D02*
X125749050Y-131483100D01*
X120018000Y-112906000D02*
X128778000Y-121666000D01*
X106172000Y-112906000D02*
X120018000Y-112906000D01*
%TO.N,Net-(J4-Pad1)*%
X154432000Y-120526000D02*
X148206000Y-114300000D01*
X148206000Y-114300000D02*
X147320000Y-114300000D01*
%TO.N,Net-(H1-Pad5)*%
X133369050Y-131483100D02*
X133369050Y-122574050D01*
X133369050Y-122574050D02*
X119641000Y-108846000D01*
X119641000Y-108846000D02*
X106172000Y-108846000D01*
%TO.N,Net-(H1-Pad6)*%
X106172000Y-125606000D02*
X104775000Y-127003000D01*
X131064000Y-137140950D02*
X132099050Y-136105900D01*
X104775000Y-127003000D02*
X104775000Y-134620000D01*
X107569000Y-137414000D02*
X130810000Y-137414000D01*
X131064000Y-137160000D02*
X130810000Y-137414000D01*
X131064000Y-137140950D02*
X131064000Y-137160000D01*
X104775000Y-134620000D02*
X107569000Y-137414000D01*
%TO.N,Net-(Bt1-Pad4)*%
X106172000Y-128146000D02*
X109725000Y-128146000D01*
X109725000Y-128146000D02*
X116332000Y-121539000D01*
X116332000Y-121539000D02*
X118110000Y-121539000D01*
%TO.N,Net-(J5-Pad1)*%
X147320000Y-110874000D02*
X147320000Y-110617000D01*
X154432000Y-117986000D02*
X147320000Y-110874000D01*
%TD*%
%TA.AperFunction,Conductor*%
%TO.N,GND*%
G36*
X158438121Y-66441002D02*
G01*
X158484614Y-66494658D01*
X158496000Y-66547000D01*
X158496000Y-140463000D01*
X158475998Y-140531121D01*
X158422342Y-140577614D01*
X158370000Y-140589000D01*
X103631000Y-140589000D01*
X103562879Y-140568998D01*
X103516386Y-140515342D01*
X103505000Y-140463000D01*
X103505000Y-107167943D01*
X104009780Y-107167943D01*
X104010526Y-107175835D01*
X104013941Y-107211961D01*
X104014500Y-107223819D01*
X104014500Y-109903233D01*
X104013973Y-109914416D01*
X104012298Y-109921909D01*
X104012547Y-109929835D01*
X104012547Y-109929836D01*
X104014438Y-109989986D01*
X104014500Y-109993945D01*
X104014500Y-110021856D01*
X104014997Y-110025790D01*
X104014997Y-110025791D01*
X104015005Y-110025856D01*
X104015938Y-110037693D01*
X104017327Y-110081889D01*
X104022978Y-110101339D01*
X104026987Y-110120700D01*
X104029526Y-110140797D01*
X104032445Y-110148168D01*
X104032445Y-110148170D01*
X104045804Y-110181912D01*
X104049649Y-110193142D01*
X104061982Y-110235593D01*
X104066015Y-110242412D01*
X104066017Y-110242417D01*
X104072293Y-110253028D01*
X104080988Y-110270776D01*
X104088448Y-110289617D01*
X104093110Y-110296033D01*
X104093110Y-110296034D01*
X104114436Y-110325387D01*
X104120952Y-110335307D01*
X104138435Y-110364868D01*
X104143458Y-110373362D01*
X104157779Y-110387683D01*
X104170619Y-110402716D01*
X104182528Y-110419107D01*
X104188634Y-110424158D01*
X104216605Y-110447298D01*
X104225384Y-110455288D01*
X105414343Y-111644247D01*
X105421887Y-111652537D01*
X105426000Y-111659018D01*
X105455110Y-111686354D01*
X105491076Y-111747564D01*
X105488239Y-111818504D01*
X105447500Y-111876649D01*
X105441129Y-111881417D01*
X105364473Y-111935092D01*
X105364470Y-111935094D01*
X105359962Y-111938251D01*
X105204251Y-112093962D01*
X105201094Y-112098470D01*
X105201092Y-112098473D01*
X105096835Y-112247368D01*
X105077944Y-112274347D01*
X105075621Y-112279329D01*
X105075618Y-112279334D01*
X105072989Y-112284973D01*
X104984880Y-112473924D01*
X104927885Y-112686629D01*
X104908693Y-112906000D01*
X104927885Y-113125371D01*
X104984880Y-113338076D01*
X104987205Y-113343061D01*
X105075618Y-113532666D01*
X105075621Y-113532671D01*
X105077944Y-113537653D01*
X105081100Y-113542160D01*
X105081101Y-113542162D01*
X105166300Y-113663838D01*
X105204251Y-113718038D01*
X105359962Y-113873749D01*
X105540346Y-114000056D01*
X105545328Y-114002379D01*
X105545333Y-114002382D01*
X105672768Y-114061805D01*
X105726053Y-114108722D01*
X105745514Y-114176999D01*
X105724972Y-114244959D01*
X105672768Y-114290195D01*
X105545334Y-114349618D01*
X105545329Y-114349621D01*
X105540347Y-114351944D01*
X105535840Y-114355100D01*
X105535838Y-114355101D01*
X105364473Y-114475092D01*
X105364470Y-114475094D01*
X105359962Y-114478251D01*
X105204251Y-114633962D01*
X105201094Y-114638470D01*
X105201092Y-114638473D01*
X105125496Y-114746436D01*
X105077944Y-114814347D01*
X105075621Y-114819329D01*
X105075618Y-114819334D01*
X105028415Y-114920562D01*
X104984880Y-115013924D01*
X104927885Y-115226629D01*
X104908693Y-115446000D01*
X104927885Y-115665371D01*
X104984880Y-115878076D01*
X104987205Y-115883061D01*
X105075618Y-116072666D01*
X105075621Y-116072671D01*
X105077944Y-116077653D01*
X105204251Y-116258038D01*
X105359962Y-116413749D01*
X105540346Y-116540056D01*
X105545328Y-116542379D01*
X105545333Y-116542382D01*
X105672768Y-116601805D01*
X105726053Y-116648722D01*
X105745514Y-116716999D01*
X105724972Y-116784959D01*
X105672768Y-116830195D01*
X105545334Y-116889618D01*
X105545329Y-116889621D01*
X105540347Y-116891944D01*
X105535840Y-116895100D01*
X105535838Y-116895101D01*
X105364473Y-117015092D01*
X105364470Y-117015094D01*
X105359962Y-117018251D01*
X105204251Y-117173962D01*
X105201094Y-117178470D01*
X105201092Y-117178473D01*
X105139741Y-117266092D01*
X105077944Y-117354347D01*
X105075621Y-117359329D01*
X105075618Y-117359334D01*
X105046833Y-117421065D01*
X104984880Y-117553924D01*
X104927885Y-117766629D01*
X104908693Y-117986000D01*
X104927885Y-118205371D01*
X104984880Y-118418076D01*
X105006636Y-118464731D01*
X105075618Y-118612666D01*
X105075621Y-118612671D01*
X105077944Y-118617653D01*
X105081100Y-118622160D01*
X105081101Y-118622162D01*
X105124006Y-118683436D01*
X105204251Y-118798038D01*
X105359962Y-118953749D01*
X105540346Y-119080056D01*
X105739924Y-119173120D01*
X105952629Y-119230115D01*
X106172000Y-119249307D01*
X106391371Y-119230115D01*
X106604076Y-119173120D01*
X106803654Y-119080056D01*
X106984038Y-118953749D01*
X107139749Y-118798038D01*
X107219995Y-118683436D01*
X107262899Y-118622162D01*
X107262900Y-118622160D01*
X107266056Y-118617653D01*
X107268379Y-118612671D01*
X107268382Y-118612666D01*
X107337364Y-118464731D01*
X107359120Y-118418076D01*
X107416115Y-118205371D01*
X107435307Y-117986000D01*
X107416115Y-117766629D01*
X107359120Y-117553924D01*
X107297167Y-117421065D01*
X107268382Y-117359334D01*
X107268379Y-117359329D01*
X107266056Y-117354347D01*
X107204259Y-117266092D01*
X107142908Y-117178473D01*
X107142906Y-117178470D01*
X107139749Y-117173962D01*
X106984038Y-117018251D01*
X106950553Y-116994804D01*
X106904759Y-116962739D01*
X106803654Y-116891944D01*
X106798672Y-116889621D01*
X106798667Y-116889618D01*
X106671232Y-116830195D01*
X106617947Y-116783278D01*
X106598486Y-116715001D01*
X106619028Y-116647041D01*
X106671232Y-116601805D01*
X106798667Y-116542382D01*
X106798672Y-116542379D01*
X106803654Y-116540056D01*
X106984038Y-116413749D01*
X107139749Y-116258038D01*
X107266056Y-116077653D01*
X107268379Y-116072671D01*
X107268382Y-116072666D01*
X107356795Y-115883061D01*
X107359120Y-115878076D01*
X107416115Y-115665371D01*
X107435307Y-115446000D01*
X107416115Y-115226629D01*
X107359120Y-115013924D01*
X107315585Y-114920562D01*
X107268382Y-114819334D01*
X107268379Y-114819329D01*
X107266056Y-114814347D01*
X107218504Y-114746436D01*
X107142908Y-114638473D01*
X107142906Y-114638470D01*
X107139749Y-114633962D01*
X106984038Y-114478251D01*
X106803654Y-114351944D01*
X106798672Y-114349621D01*
X106798667Y-114349618D01*
X106671232Y-114290195D01*
X106617947Y-114243278D01*
X106598486Y-114175001D01*
X106619028Y-114107041D01*
X106671232Y-114061805D01*
X106798667Y-114002382D01*
X106798672Y-114002379D01*
X106803654Y-114000056D01*
X106984038Y-113873749D01*
X107139749Y-113718038D01*
X107227142Y-113593228D01*
X107282598Y-113548901D01*
X107330354Y-113539500D01*
X119703406Y-113539500D01*
X119771527Y-113559502D01*
X119792501Y-113576405D01*
X126181500Y-119965405D01*
X126215526Y-120027717D01*
X126210461Y-120098532D01*
X126167914Y-120155368D01*
X126101394Y-120180179D01*
X126092405Y-120180500D01*
X124831866Y-120180500D01*
X124769684Y-120187255D01*
X124633295Y-120238385D01*
X124516739Y-120325739D01*
X124429385Y-120442295D01*
X124426233Y-120450704D01*
X124426232Y-120450705D01*
X124384722Y-120561433D01*
X124342081Y-120618198D01*
X124275519Y-120642898D01*
X124206170Y-120627691D01*
X124173546Y-120602004D01*
X124122799Y-120546234D01*
X124115273Y-120539215D01*
X123948139Y-120407222D01*
X123939552Y-120401517D01*
X123753117Y-120298599D01*
X123743705Y-120294369D01*
X123542959Y-120223280D01*
X123532988Y-120220646D01*
X123461837Y-120207972D01*
X123448540Y-120209432D01*
X123444000Y-120223989D01*
X123444000Y-122857517D01*
X123448064Y-122871359D01*
X123461478Y-122873393D01*
X123468184Y-122872534D01*
X123478262Y-122870392D01*
X123682255Y-122809191D01*
X123691842Y-122805433D01*
X123883095Y-122711739D01*
X123891945Y-122706464D01*
X124065328Y-122582792D01*
X124073193Y-122576145D01*
X124177897Y-122471805D01*
X124240268Y-122437889D01*
X124311075Y-122443077D01*
X124367837Y-122485723D01*
X124384819Y-122516826D01*
X124389861Y-122530275D01*
X124429385Y-122635705D01*
X124516739Y-122752261D01*
X124633295Y-122839615D01*
X124769684Y-122890745D01*
X124831866Y-122897500D01*
X126628134Y-122897500D01*
X126690316Y-122890745D01*
X126826705Y-122839615D01*
X126943261Y-122752261D01*
X127030615Y-122635705D01*
X127081745Y-122499316D01*
X127088500Y-122437134D01*
X127088500Y-121176595D01*
X127108502Y-121108474D01*
X127162158Y-121061981D01*
X127232432Y-121051877D01*
X127297012Y-121081371D01*
X127303595Y-121087500D01*
X128107595Y-121891500D01*
X128141621Y-121953812D01*
X128144500Y-121980595D01*
X128144500Y-128139555D01*
X128124498Y-128207676D01*
X128107595Y-128228650D01*
X126043547Y-130292698D01*
X125981235Y-130326724D01*
X125929872Y-130327182D01*
X125889265Y-130319106D01*
X125871757Y-130315623D01*
X125865982Y-130315547D01*
X125865978Y-130315547D01*
X125758305Y-130314138D01*
X125656946Y-130312811D01*
X125651249Y-130313790D01*
X125651248Y-130313790D01*
X125555718Y-130330205D01*
X125445220Y-130349192D01*
X125243670Y-130423548D01*
X125059044Y-130533388D01*
X125054708Y-130537191D01*
X125054700Y-130537197D01*
X124920733Y-130654684D01*
X124897527Y-130675035D01*
X124764528Y-130843744D01*
X124761839Y-130848855D01*
X124761837Y-130848858D01*
X124746064Y-130878838D01*
X124664500Y-131033865D01*
X124626536Y-131156131D01*
X124607924Y-131216073D01*
X124600795Y-131239031D01*
X124600688Y-131239937D01*
X124567711Y-131301021D01*
X124505562Y-131335343D01*
X124434723Y-131330617D01*
X124377685Y-131288342D01*
X124356922Y-131246554D01*
X124354664Y-131238547D01*
X124304988Y-131062409D01*
X124293726Y-131039571D01*
X124212525Y-130874914D01*
X124209971Y-130869735D01*
X124119961Y-130749196D01*
X124084887Y-130702226D01*
X124084886Y-130702225D01*
X124081434Y-130697602D01*
X124035053Y-130654728D01*
X123927920Y-130555695D01*
X123927917Y-130555693D01*
X123923680Y-130551776D01*
X123741993Y-130437140D01*
X123725790Y-130430676D01*
X123680630Y-130399899D01*
X123679182Y-130398357D01*
X123674522Y-130391943D01*
X123640456Y-130363761D01*
X123631677Y-130355772D01*
X122169652Y-128893747D01*
X122162112Y-128885461D01*
X122158000Y-128878982D01*
X122108348Y-128832356D01*
X122105507Y-128829602D01*
X122085770Y-128809865D01*
X122082573Y-128807385D01*
X122073551Y-128799680D01*
X122068775Y-128795195D01*
X122041321Y-128769414D01*
X122034375Y-128765595D01*
X122034372Y-128765593D01*
X122023566Y-128759652D01*
X122007047Y-128748801D01*
X122006267Y-128748196D01*
X121991041Y-128736386D01*
X121983772Y-128733241D01*
X121983768Y-128733238D01*
X121950463Y-128718826D01*
X121939813Y-128713609D01*
X121901060Y-128692305D01*
X121881437Y-128687267D01*
X121862734Y-128680863D01*
X121851420Y-128675967D01*
X121851419Y-128675967D01*
X121844145Y-128672819D01*
X121836322Y-128671580D01*
X121836312Y-128671577D01*
X121800476Y-128665901D01*
X121788856Y-128663495D01*
X121753711Y-128654472D01*
X121753710Y-128654472D01*
X121746030Y-128652500D01*
X121725776Y-128652500D01*
X121706065Y-128650949D01*
X121705630Y-128650880D01*
X121686057Y-128647780D01*
X121656786Y-128650547D01*
X121642039Y-128651941D01*
X121630181Y-128652500D01*
X115902768Y-128652500D01*
X115891585Y-128651973D01*
X115884092Y-128650298D01*
X115876166Y-128650547D01*
X115876165Y-128650547D01*
X115816002Y-128652438D01*
X115812044Y-128652500D01*
X115784144Y-128652500D01*
X115780154Y-128653004D01*
X115768320Y-128653936D01*
X115724111Y-128655326D01*
X115716495Y-128657539D01*
X115716493Y-128657539D01*
X115704652Y-128660979D01*
X115685293Y-128664988D01*
X115683983Y-128665154D01*
X115665203Y-128667526D01*
X115657837Y-128670442D01*
X115657831Y-128670444D01*
X115624098Y-128683800D01*
X115612868Y-128687645D01*
X115596828Y-128692305D01*
X115570407Y-128699981D01*
X115563584Y-128704016D01*
X115552966Y-128710295D01*
X115535213Y-128718992D01*
X115528357Y-128721707D01*
X115516383Y-128726448D01*
X115502705Y-128736386D01*
X115480612Y-128752437D01*
X115470695Y-128758951D01*
X115432638Y-128781458D01*
X115418317Y-128795779D01*
X115403284Y-128808619D01*
X115386893Y-128820528D01*
X115378217Y-128831016D01*
X115358702Y-128854605D01*
X115350712Y-128863384D01*
X110605747Y-133608348D01*
X110597461Y-133615888D01*
X110590982Y-133620000D01*
X110585557Y-133625777D01*
X110544357Y-133669651D01*
X110541602Y-133672493D01*
X110521865Y-133692230D01*
X110519385Y-133695427D01*
X110511682Y-133704447D01*
X110481414Y-133736679D01*
X110477595Y-133743625D01*
X110477593Y-133743628D01*
X110471652Y-133754434D01*
X110460801Y-133770953D01*
X110448386Y-133786959D01*
X110445241Y-133794228D01*
X110445238Y-133794232D01*
X110430826Y-133827537D01*
X110425609Y-133838187D01*
X110404305Y-133876940D01*
X110402334Y-133884615D01*
X110402334Y-133884616D01*
X110399267Y-133896562D01*
X110392863Y-133915266D01*
X110384819Y-133933855D01*
X110383580Y-133941678D01*
X110383577Y-133941688D01*
X110377901Y-133977524D01*
X110375495Y-133989144D01*
X110364500Y-134031970D01*
X110364500Y-134052224D01*
X110362949Y-134071934D01*
X110359780Y-134091943D01*
X110360526Y-134099835D01*
X110363941Y-134135961D01*
X110364500Y-134147819D01*
X110364500Y-134985646D01*
X110344498Y-135053767D01*
X110310772Y-135088858D01*
X110253592Y-135128896D01*
X110190473Y-135173092D01*
X110190470Y-135173094D01*
X110185962Y-135176251D01*
X110030251Y-135331962D01*
X110027094Y-135336470D01*
X110027092Y-135336473D01*
X109914190Y-135497714D01*
X109903944Y-135512347D01*
X109901621Y-135517329D01*
X109901618Y-135517334D01*
X109854415Y-135618562D01*
X109810880Y-135711924D01*
X109753885Y-135924629D01*
X109734693Y-136144000D01*
X109753885Y-136363371D01*
X109810880Y-136576076D01*
X109813203Y-136581058D01*
X109813206Y-136581066D01*
X109822618Y-136601249D01*
X109833280Y-136671441D01*
X109804300Y-136736254D01*
X109744881Y-136775110D01*
X109708424Y-136780500D01*
X107883594Y-136780500D01*
X107815473Y-136760498D01*
X107794499Y-136743595D01*
X105445405Y-134394500D01*
X105411379Y-134332188D01*
X105408500Y-134305405D01*
X105408500Y-131916356D01*
X105428502Y-131848235D01*
X105482158Y-131801742D01*
X105552432Y-131791638D01*
X105587749Y-131802161D01*
X105734934Y-131870794D01*
X105734942Y-131870797D01*
X105739924Y-131873120D01*
X105952629Y-131930115D01*
X106172000Y-131949307D01*
X106391371Y-131930115D01*
X106604076Y-131873120D01*
X106803654Y-131780056D01*
X106935500Y-131687736D01*
X106979527Y-131656908D01*
X106979529Y-131656906D01*
X106984038Y-131653749D01*
X107139749Y-131498038D01*
X107151002Y-131481968D01*
X107227141Y-131373229D01*
X107282598Y-131328901D01*
X107330354Y-131319500D01*
X111424233Y-131319500D01*
X111435416Y-131320027D01*
X111442909Y-131321702D01*
X111450835Y-131321453D01*
X111450836Y-131321453D01*
X111510986Y-131319562D01*
X111514945Y-131319500D01*
X111542856Y-131319500D01*
X111546791Y-131319003D01*
X111546856Y-131318995D01*
X111558693Y-131318062D01*
X111590951Y-131317048D01*
X111594970Y-131316922D01*
X111602889Y-131316673D01*
X111622343Y-131311021D01*
X111641700Y-131307013D01*
X111653930Y-131305468D01*
X111653931Y-131305468D01*
X111661797Y-131304474D01*
X111669168Y-131301555D01*
X111669170Y-131301555D01*
X111702912Y-131288196D01*
X111714142Y-131284351D01*
X111748983Y-131274229D01*
X111748984Y-131274229D01*
X111756593Y-131272018D01*
X111763412Y-131267985D01*
X111763417Y-131267983D01*
X111774028Y-131261707D01*
X111791776Y-131253012D01*
X111810617Y-131245552D01*
X111846387Y-131219564D01*
X111856307Y-131213048D01*
X111887535Y-131194580D01*
X111887538Y-131194578D01*
X111894362Y-131190542D01*
X111908683Y-131176221D01*
X111923717Y-131163380D01*
X111933694Y-131156131D01*
X111940107Y-131151472D01*
X111968298Y-131117395D01*
X111976288Y-131108616D01*
X120194549Y-122890355D01*
X120256861Y-122856329D01*
X120308762Y-122855979D01*
X120488597Y-122892567D01*
X120493772Y-122892757D01*
X120493774Y-122892757D01*
X120706673Y-122900564D01*
X120706677Y-122900564D01*
X120711837Y-122900753D01*
X120716957Y-122900097D01*
X120716959Y-122900097D01*
X120928288Y-122873025D01*
X120928289Y-122873025D01*
X120933416Y-122872368D01*
X120938366Y-122870883D01*
X121142429Y-122809661D01*
X121142434Y-122809659D01*
X121147384Y-122808174D01*
X121347994Y-122709896D01*
X121529860Y-122580173D01*
X121544000Y-122566083D01*
X121655764Y-122454708D01*
X121688096Y-122422489D01*
X121698592Y-122407883D01*
X121818453Y-122241077D01*
X121819640Y-122241930D01*
X121866960Y-122198362D01*
X121936897Y-122186145D01*
X122002338Y-122213678D01*
X122030166Y-122245511D01*
X122087694Y-122339388D01*
X122093777Y-122347699D01*
X122233213Y-122508667D01*
X122240580Y-122515883D01*
X122404434Y-122651916D01*
X122412881Y-122657831D01*
X122596756Y-122765279D01*
X122606042Y-122769729D01*
X122805001Y-122845703D01*
X122814899Y-122848579D01*
X122918250Y-122869606D01*
X122932299Y-122868410D01*
X122936000Y-122858065D01*
X122936000Y-120222102D01*
X122932082Y-120208758D01*
X122917806Y-120206771D01*
X122879324Y-120212660D01*
X122869288Y-120215051D01*
X122666868Y-120281212D01*
X122657359Y-120285209D01*
X122468463Y-120383542D01*
X122459738Y-120389036D01*
X122289433Y-120516905D01*
X122281726Y-120523748D01*
X122134590Y-120677717D01*
X122128109Y-120685722D01*
X122023498Y-120839074D01*
X121968587Y-120884076D01*
X121898062Y-120892247D01*
X121834315Y-120860993D01*
X121813618Y-120836509D01*
X121732822Y-120711617D01*
X121732820Y-120711614D01*
X121730014Y-120707277D01*
X121579670Y-120542051D01*
X121575619Y-120538852D01*
X121575615Y-120538848D01*
X121408414Y-120406800D01*
X121408410Y-120406798D01*
X121404359Y-120403598D01*
X121368028Y-120383542D01*
X121352136Y-120374769D01*
X121208789Y-120295638D01*
X121203920Y-120293914D01*
X121203916Y-120293912D01*
X121003087Y-120222795D01*
X121003083Y-120222794D01*
X120998212Y-120221069D01*
X120993119Y-120220162D01*
X120993116Y-120220161D01*
X120783373Y-120182800D01*
X120783367Y-120182799D01*
X120778284Y-120181894D01*
X120704452Y-120180992D01*
X120560081Y-120179228D01*
X120560079Y-120179228D01*
X120554911Y-120179165D01*
X120334091Y-120212955D01*
X120121756Y-120282357D01*
X119923607Y-120385507D01*
X119919474Y-120388610D01*
X119919471Y-120388612D01*
X119895247Y-120406800D01*
X119744965Y-120519635D01*
X119726605Y-120538848D01*
X119603149Y-120668037D01*
X119590629Y-120681138D01*
X119483201Y-120838621D01*
X119428293Y-120883621D01*
X119357768Y-120891792D01*
X119294021Y-120860538D01*
X119273324Y-120836054D01*
X119192822Y-120711617D01*
X119192820Y-120711614D01*
X119190014Y-120707277D01*
X119039670Y-120542051D01*
X119035619Y-120538852D01*
X119035615Y-120538848D01*
X118868414Y-120406800D01*
X118868410Y-120406798D01*
X118864359Y-120403598D01*
X118828028Y-120383542D01*
X118812136Y-120374769D01*
X118668789Y-120295638D01*
X118663920Y-120293914D01*
X118663916Y-120293912D01*
X118463087Y-120222795D01*
X118463083Y-120222794D01*
X118458212Y-120221069D01*
X118453119Y-120220162D01*
X118453116Y-120220161D01*
X118243373Y-120182800D01*
X118243367Y-120182799D01*
X118238284Y-120181894D01*
X118164452Y-120180992D01*
X118020081Y-120179228D01*
X118020079Y-120179228D01*
X118014911Y-120179165D01*
X117794091Y-120212955D01*
X117581756Y-120282357D01*
X117383607Y-120385507D01*
X117379474Y-120388610D01*
X117379471Y-120388612D01*
X117355247Y-120406800D01*
X117204965Y-120519635D01*
X117186605Y-120538848D01*
X117063149Y-120668037D01*
X117050629Y-120681138D01*
X117047720Y-120685403D01*
X117047714Y-120685411D01*
X116935095Y-120850504D01*
X116880184Y-120895507D01*
X116831007Y-120905500D01*
X116410767Y-120905500D01*
X116399584Y-120904973D01*
X116392091Y-120903298D01*
X116384165Y-120903547D01*
X116384164Y-120903547D01*
X116324014Y-120905438D01*
X116320055Y-120905500D01*
X116292144Y-120905500D01*
X116288210Y-120905997D01*
X116288209Y-120905997D01*
X116288144Y-120906005D01*
X116276307Y-120906938D01*
X116244049Y-120907952D01*
X116240030Y-120908078D01*
X116232111Y-120908327D01*
X116212657Y-120913979D01*
X116193300Y-120917987D01*
X116181070Y-120919532D01*
X116181069Y-120919532D01*
X116173203Y-120920526D01*
X116165832Y-120923445D01*
X116165830Y-120923445D01*
X116132088Y-120936804D01*
X116120858Y-120940649D01*
X116086017Y-120950771D01*
X116086016Y-120950771D01*
X116078407Y-120952982D01*
X116071588Y-120957015D01*
X116071583Y-120957017D01*
X116060972Y-120963293D01*
X116043224Y-120971988D01*
X116024383Y-120979448D01*
X116017967Y-120984110D01*
X116017966Y-120984110D01*
X115988613Y-121005436D01*
X115978693Y-121011952D01*
X115947465Y-121030420D01*
X115947462Y-121030422D01*
X115940638Y-121034458D01*
X115926317Y-121048779D01*
X115911284Y-121061619D01*
X115894893Y-121073528D01*
X115873240Y-121099702D01*
X115866702Y-121107605D01*
X115858712Y-121116384D01*
X109499500Y-127475595D01*
X109437188Y-127509621D01*
X109410405Y-127512500D01*
X107330354Y-127512500D01*
X107262233Y-127492498D01*
X107227141Y-127458771D01*
X107142908Y-127338473D01*
X107142906Y-127338470D01*
X107139749Y-127333962D01*
X106984038Y-127178251D01*
X106975954Y-127172590D01*
X106883288Y-127107705D01*
X106803654Y-127051944D01*
X106798672Y-127049621D01*
X106798667Y-127049618D01*
X106671232Y-126990195D01*
X106617947Y-126943278D01*
X106598486Y-126875001D01*
X106619028Y-126807041D01*
X106671232Y-126761805D01*
X106798667Y-126702382D01*
X106798672Y-126702379D01*
X106803654Y-126700056D01*
X106932781Y-126609640D01*
X106979527Y-126576908D01*
X106979529Y-126576906D01*
X106984038Y-126573749D01*
X107139749Y-126418038D01*
X107266056Y-126237653D01*
X107268379Y-126232671D01*
X107268382Y-126232666D01*
X107356795Y-126043061D01*
X107359120Y-126038076D01*
X107416115Y-125825371D01*
X107435307Y-125606000D01*
X107416115Y-125386629D01*
X107359120Y-125173924D01*
X107300786Y-125048825D01*
X107268382Y-124979334D01*
X107268379Y-124979329D01*
X107266056Y-124974347D01*
X107225041Y-124915771D01*
X107142908Y-124798473D01*
X107142906Y-124798470D01*
X107139749Y-124793962D01*
X106984038Y-124638251D01*
X106803654Y-124511944D01*
X106798672Y-124509621D01*
X106798667Y-124509618D01*
X106671232Y-124450195D01*
X106617947Y-124403278D01*
X106598486Y-124335001D01*
X106619028Y-124267041D01*
X106671232Y-124221805D01*
X106798667Y-124162382D01*
X106798672Y-124162379D01*
X106803654Y-124160056D01*
X106984038Y-124033749D01*
X107139749Y-123878038D01*
X107266056Y-123697653D01*
X107268379Y-123692671D01*
X107268382Y-123692666D01*
X107356795Y-123503061D01*
X107359120Y-123498076D01*
X107416115Y-123285371D01*
X107435307Y-123066000D01*
X107416115Y-122846629D01*
X107359120Y-122633924D01*
X107307996Y-122524287D01*
X107268382Y-122439334D01*
X107268379Y-122439329D01*
X107266056Y-122434347D01*
X107262899Y-122429838D01*
X107142908Y-122258473D01*
X107142906Y-122258470D01*
X107139749Y-122253962D01*
X106984038Y-122098251D01*
X106803654Y-121971944D01*
X106604076Y-121878880D01*
X106391371Y-121821885D01*
X106172000Y-121802693D01*
X105952629Y-121821885D01*
X105739924Y-121878880D01*
X105672769Y-121910195D01*
X105545334Y-121969618D01*
X105545329Y-121969621D01*
X105540347Y-121971944D01*
X105535840Y-121975100D01*
X105535838Y-121975101D01*
X105364473Y-122095092D01*
X105364470Y-122095094D01*
X105359962Y-122098251D01*
X105204251Y-122253962D01*
X105201094Y-122258470D01*
X105201092Y-122258473D01*
X105081101Y-122429838D01*
X105077944Y-122434347D01*
X105075621Y-122439329D01*
X105075618Y-122439334D01*
X105036004Y-122524287D01*
X104984880Y-122633924D01*
X104927885Y-122846629D01*
X104908693Y-123066000D01*
X104927885Y-123285371D01*
X104984880Y-123498076D01*
X104987205Y-123503061D01*
X105075618Y-123692666D01*
X105075621Y-123692671D01*
X105077944Y-123697653D01*
X105204251Y-123878038D01*
X105359962Y-124033749D01*
X105540346Y-124160056D01*
X105545328Y-124162379D01*
X105545333Y-124162382D01*
X105672768Y-124221805D01*
X105726053Y-124268722D01*
X105745514Y-124336999D01*
X105724972Y-124404959D01*
X105672768Y-124450195D01*
X105545334Y-124509618D01*
X105545329Y-124509621D01*
X105540347Y-124511944D01*
X105535840Y-124515100D01*
X105535838Y-124515101D01*
X105364473Y-124635092D01*
X105364470Y-124635094D01*
X105359962Y-124638251D01*
X105204251Y-124793962D01*
X105201094Y-124798470D01*
X105201092Y-124798473D01*
X105118959Y-124915771D01*
X105077944Y-124974347D01*
X105075621Y-124979329D01*
X105075618Y-124979334D01*
X105043214Y-125048825D01*
X104984880Y-125173924D01*
X104927885Y-125386629D01*
X104908693Y-125606000D01*
X104927885Y-125825371D01*
X104929308Y-125830681D01*
X104929309Y-125830685D01*
X104936284Y-125856717D01*
X104934594Y-125927694D01*
X104903672Y-125978423D01*
X104382747Y-126499348D01*
X104374461Y-126506888D01*
X104367982Y-126511000D01*
X104362557Y-126516777D01*
X104321357Y-126560651D01*
X104318602Y-126563493D01*
X104298865Y-126583230D01*
X104296385Y-126586427D01*
X104288682Y-126595447D01*
X104258414Y-126627679D01*
X104254595Y-126634625D01*
X104254593Y-126634628D01*
X104248652Y-126645434D01*
X104237801Y-126661953D01*
X104225386Y-126677959D01*
X104222241Y-126685228D01*
X104222238Y-126685232D01*
X104207826Y-126718537D01*
X104202609Y-126729187D01*
X104181305Y-126767940D01*
X104179334Y-126775615D01*
X104179334Y-126775616D01*
X104176267Y-126787562D01*
X104169863Y-126806266D01*
X104161819Y-126824855D01*
X104160580Y-126832678D01*
X104160577Y-126832688D01*
X104154901Y-126868524D01*
X104152495Y-126880144D01*
X104145052Y-126909134D01*
X104141500Y-126922970D01*
X104141500Y-126943224D01*
X104139949Y-126962934D01*
X104136780Y-126982943D01*
X104137526Y-126990835D01*
X104140941Y-127026961D01*
X104141500Y-127038819D01*
X104141500Y-134541233D01*
X104140973Y-134552416D01*
X104139298Y-134559909D01*
X104139547Y-134567835D01*
X104139547Y-134567836D01*
X104141438Y-134627986D01*
X104141500Y-134631945D01*
X104141500Y-134659856D01*
X104141997Y-134663790D01*
X104141997Y-134663791D01*
X104142005Y-134663856D01*
X104142938Y-134675693D01*
X104144327Y-134719889D01*
X104149978Y-134739339D01*
X104153987Y-134758700D01*
X104156526Y-134778797D01*
X104159445Y-134786168D01*
X104159445Y-134786170D01*
X104172804Y-134819912D01*
X104176649Y-134831142D01*
X104188982Y-134873593D01*
X104193015Y-134880412D01*
X104193017Y-134880417D01*
X104199293Y-134891028D01*
X104207988Y-134908776D01*
X104215448Y-134927617D01*
X104220110Y-134934033D01*
X104220110Y-134934034D01*
X104241436Y-134963387D01*
X104247952Y-134973307D01*
X104270458Y-135011362D01*
X104284779Y-135025683D01*
X104297619Y-135040716D01*
X104309528Y-135057107D01*
X104315634Y-135062158D01*
X104343605Y-135085298D01*
X104352384Y-135093288D01*
X107065343Y-137806247D01*
X107072887Y-137814537D01*
X107077000Y-137821018D01*
X107082777Y-137826443D01*
X107126667Y-137867658D01*
X107129509Y-137870413D01*
X107149231Y-137890135D01*
X107152373Y-137892572D01*
X107152433Y-137892619D01*
X107161445Y-137900317D01*
X107174878Y-137912931D01*
X107193679Y-137930586D01*
X107200622Y-137934403D01*
X107211431Y-137940345D01*
X107227953Y-137951198D01*
X107243959Y-137963614D01*
X107251237Y-137966764D01*
X107251238Y-137966764D01*
X107284537Y-137981174D01*
X107295187Y-137986391D01*
X107333940Y-138007695D01*
X107341615Y-138009666D01*
X107341616Y-138009666D01*
X107353562Y-138012733D01*
X107372267Y-138019137D01*
X107390855Y-138027181D01*
X107398678Y-138028420D01*
X107398688Y-138028423D01*
X107434524Y-138034099D01*
X107446144Y-138036505D01*
X107477959Y-138044673D01*
X107488970Y-138047500D01*
X107509224Y-138047500D01*
X107528934Y-138049051D01*
X107548943Y-138052220D01*
X107556835Y-138051474D01*
X107575580Y-138049702D01*
X107592962Y-138048059D01*
X107604819Y-138047500D01*
X130731233Y-138047500D01*
X130742416Y-138048027D01*
X130749909Y-138049702D01*
X130757835Y-138049453D01*
X130757836Y-138049453D01*
X130817986Y-138047562D01*
X130821945Y-138047500D01*
X130849856Y-138047500D01*
X130853791Y-138047003D01*
X130853856Y-138046995D01*
X130865693Y-138046062D01*
X130897951Y-138045048D01*
X130901970Y-138044922D01*
X130909889Y-138044673D01*
X130929343Y-138039021D01*
X130948700Y-138035013D01*
X130960930Y-138033468D01*
X130960931Y-138033468D01*
X130968797Y-138032474D01*
X130976168Y-138029555D01*
X130976170Y-138029555D01*
X131009912Y-138016196D01*
X131021142Y-138012351D01*
X131055983Y-138002229D01*
X131055984Y-138002229D01*
X131063593Y-138000018D01*
X131070412Y-137995985D01*
X131070417Y-137995983D01*
X131081028Y-137989707D01*
X131098776Y-137981012D01*
X131117617Y-137973552D01*
X131153387Y-137947564D01*
X131163307Y-137941048D01*
X131194535Y-137922580D01*
X131194538Y-137922578D01*
X131201362Y-137918542D01*
X131215683Y-137904221D01*
X131230717Y-137891380D01*
X131232431Y-137890135D01*
X131247107Y-137879472D01*
X131275298Y-137845395D01*
X131283288Y-137836616D01*
X131456247Y-137663657D01*
X131464537Y-137656113D01*
X131471018Y-137652000D01*
X131517659Y-137602332D01*
X131520413Y-137599491D01*
X131540134Y-137579770D01*
X131542612Y-137576575D01*
X131550318Y-137567553D01*
X131575158Y-137541101D01*
X131580586Y-137535321D01*
X131590328Y-137517601D01*
X131611646Y-137489208D01*
X131803129Y-137297726D01*
X131865441Y-137263701D01*
X131920031Y-137263929D01*
X131938283Y-137268059D01*
X131945824Y-137269765D01*
X131951595Y-137269992D01*
X131951597Y-137269992D01*
X132017664Y-137272588D01*
X132160488Y-137278199D01*
X132285218Y-137260114D01*
X132367371Y-137248203D01*
X132367375Y-137248202D01*
X132373093Y-137247373D01*
X132378565Y-137245515D01*
X132378567Y-137245515D01*
X132571057Y-137180173D01*
X132571059Y-137180172D01*
X132576521Y-137178318D01*
X132763959Y-137073348D01*
X132826414Y-137021405D01*
X132924690Y-136939669D01*
X132929128Y-136935978D01*
X133062789Y-136775269D01*
X133062807Y-136775247D01*
X133066498Y-136770809D01*
X133171468Y-136583371D01*
X133173945Y-136576076D01*
X133238665Y-136385417D01*
X133238665Y-136385415D01*
X133240523Y-136379943D01*
X133244858Y-136350046D01*
X133274429Y-136285500D01*
X133334201Y-136247188D01*
X133405197Y-136247274D01*
X133464877Y-136285729D01*
X133491677Y-136337111D01*
X133532476Y-136497759D01*
X133622416Y-136692854D01*
X133746403Y-136868292D01*
X133900286Y-137018198D01*
X133905082Y-137021403D01*
X133905085Y-137021405D01*
X134074105Y-137134340D01*
X134074110Y-137134343D01*
X134078910Y-137137550D01*
X134084219Y-137139831D01*
X134084221Y-137139832D01*
X134270982Y-137220072D01*
X134270986Y-137220073D01*
X134276292Y-137222353D01*
X134281924Y-137223627D01*
X134281926Y-137223628D01*
X134480187Y-137268490D01*
X134480192Y-137268491D01*
X134485824Y-137269765D01*
X134491595Y-137269992D01*
X134491597Y-137269992D01*
X134557664Y-137272588D01*
X134700488Y-137278199D01*
X134825218Y-137260114D01*
X134907371Y-137248203D01*
X134907375Y-137248202D01*
X134913093Y-137247373D01*
X134918565Y-137245515D01*
X134918567Y-137245515D01*
X135111057Y-137180173D01*
X135111059Y-137180172D01*
X135116521Y-137178318D01*
X135303959Y-137073348D01*
X135366414Y-137021405D01*
X135464690Y-136939669D01*
X135469128Y-136935978D01*
X135602789Y-136775269D01*
X135602807Y-136775247D01*
X135606498Y-136770809D01*
X135711468Y-136583371D01*
X135713945Y-136576076D01*
X135778665Y-136385417D01*
X135778665Y-136385415D01*
X135780523Y-136379943D01*
X135784858Y-136350046D01*
X135814429Y-136285500D01*
X135874201Y-136247188D01*
X135945197Y-136247274D01*
X136004877Y-136285729D01*
X136031677Y-136337111D01*
X136072476Y-136497759D01*
X136162416Y-136692854D01*
X136286403Y-136868292D01*
X136440286Y-137018198D01*
X136445082Y-137021403D01*
X136445085Y-137021405D01*
X136614105Y-137134340D01*
X136614110Y-137134343D01*
X136618910Y-137137550D01*
X136624219Y-137139831D01*
X136624221Y-137139832D01*
X136810982Y-137220072D01*
X136810986Y-137220073D01*
X136816292Y-137222353D01*
X136821924Y-137223627D01*
X136821926Y-137223628D01*
X137020187Y-137268490D01*
X137020192Y-137268491D01*
X137025824Y-137269765D01*
X137031595Y-137269992D01*
X137031597Y-137269992D01*
X137097664Y-137272588D01*
X137240488Y-137278199D01*
X137365218Y-137260114D01*
X137447371Y-137248203D01*
X137447375Y-137248202D01*
X137453093Y-137247373D01*
X137458565Y-137245515D01*
X137458567Y-137245515D01*
X137651057Y-137180173D01*
X137651059Y-137180172D01*
X137656521Y-137178318D01*
X137843959Y-137073348D01*
X137906414Y-137021405D01*
X138004690Y-136939669D01*
X138009128Y-136935978D01*
X138134836Y-136784831D01*
X138193774Y-136745247D01*
X138231710Y-136739400D01*
X143563383Y-136739400D01*
X143574566Y-136739927D01*
X143582059Y-136741602D01*
X143589985Y-136741353D01*
X143589986Y-136741353D01*
X143650136Y-136739462D01*
X143654095Y-136739400D01*
X143682006Y-136739400D01*
X143685941Y-136738903D01*
X143686006Y-136738895D01*
X143697843Y-136737962D01*
X143730101Y-136736948D01*
X143734120Y-136736822D01*
X143742039Y-136736573D01*
X143761493Y-136730921D01*
X143780850Y-136726913D01*
X143793080Y-136725368D01*
X143793081Y-136725368D01*
X143800947Y-136724374D01*
X143808318Y-136721455D01*
X143808320Y-136721455D01*
X143842062Y-136708096D01*
X143853292Y-136704251D01*
X143888133Y-136694129D01*
X143888134Y-136694129D01*
X143895743Y-136691918D01*
X143902562Y-136687885D01*
X143902567Y-136687883D01*
X143913178Y-136681607D01*
X143930926Y-136672912D01*
X143949767Y-136665452D01*
X143964842Y-136654500D01*
X143985537Y-136639464D01*
X143995457Y-136632948D01*
X144026685Y-136614480D01*
X144026688Y-136614478D01*
X144033512Y-136610442D01*
X144047833Y-136596121D01*
X144062867Y-136583280D01*
X144070262Y-136577907D01*
X144079257Y-136571372D01*
X144107448Y-136537295D01*
X144115438Y-136528516D01*
X147860627Y-132783328D01*
X147922939Y-132749302D01*
X147982333Y-132750716D01*
X147998494Y-132755046D01*
X148013679Y-132759115D01*
X148233050Y-132778307D01*
X148452421Y-132759115D01*
X148665126Y-132702120D01*
X148864704Y-132609056D01*
X149003735Y-132511705D01*
X149040577Y-132485908D01*
X149040579Y-132485906D01*
X149045088Y-132482749D01*
X149200799Y-132327038D01*
X149203440Y-132323266D01*
X149262321Y-132284097D01*
X149333308Y-132282975D01*
X149393634Y-132320409D01*
X149421036Y-132372836D01*
X149421305Y-132375316D01*
X149424077Y-132382711D01*
X149424078Y-132382714D01*
X149449508Y-132450548D01*
X149472435Y-132511705D01*
X149559789Y-132628261D01*
X149676345Y-132715615D01*
X149812734Y-132766745D01*
X149874916Y-132773500D01*
X151671184Y-132773500D01*
X151733366Y-132766745D01*
X151869755Y-132715615D01*
X151986311Y-132628261D01*
X152073665Y-132511705D01*
X152124795Y-132375316D01*
X152131550Y-132313134D01*
X152131550Y-130716866D01*
X152124795Y-130654684D01*
X152073665Y-130518295D01*
X151986311Y-130401739D01*
X151869755Y-130314385D01*
X151733366Y-130263255D01*
X151671184Y-130256500D01*
X151464673Y-130256500D01*
X151396552Y-130236498D01*
X151356219Y-130194638D01*
X151348757Y-130182020D01*
X151340060Y-130164268D01*
X151335522Y-130152806D01*
X151335519Y-130152801D01*
X151332602Y-130145433D01*
X151306623Y-130109675D01*
X151300107Y-130099757D01*
X151281625Y-130068507D01*
X151277592Y-130061687D01*
X151263268Y-130047363D01*
X151250426Y-130032328D01*
X151238522Y-130015943D01*
X151204456Y-129987761D01*
X151195677Y-129979772D01*
X149728652Y-128512747D01*
X149721112Y-128504461D01*
X149717000Y-128497982D01*
X149667348Y-128451356D01*
X149664507Y-128448602D01*
X149644770Y-128428865D01*
X149641573Y-128426385D01*
X149632551Y-128418680D01*
X149600321Y-128388414D01*
X149593375Y-128384595D01*
X149593372Y-128384593D01*
X149582566Y-128378652D01*
X149566047Y-128367801D01*
X149562914Y-128365371D01*
X149550041Y-128355386D01*
X149542772Y-128352241D01*
X149542768Y-128352238D01*
X149509463Y-128337826D01*
X149498813Y-128332609D01*
X149460060Y-128311305D01*
X149440437Y-128306267D01*
X149421734Y-128299863D01*
X149410420Y-128294967D01*
X149410419Y-128294967D01*
X149403145Y-128291819D01*
X149395322Y-128290580D01*
X149395312Y-128290577D01*
X149359476Y-128284901D01*
X149347856Y-128282495D01*
X149312711Y-128273472D01*
X149312710Y-128273472D01*
X149305030Y-128271500D01*
X149284776Y-128271500D01*
X149265065Y-128269949D01*
X149252886Y-128268020D01*
X149245057Y-128266780D01*
X149215786Y-128269547D01*
X149201039Y-128270941D01*
X149189181Y-128271500D01*
X138565917Y-128271500D01*
X138554734Y-128270973D01*
X138547241Y-128269298D01*
X138539315Y-128269547D01*
X138539314Y-128269547D01*
X138479164Y-128271438D01*
X138475205Y-128271500D01*
X138447294Y-128271500D01*
X138443360Y-128271997D01*
X138443359Y-128271997D01*
X138443294Y-128272005D01*
X138431457Y-128272938D01*
X138399199Y-128273952D01*
X138395180Y-128274078D01*
X138387261Y-128274327D01*
X138367807Y-128279979D01*
X138348450Y-128283987D01*
X138336220Y-128285532D01*
X138336219Y-128285532D01*
X138328353Y-128286526D01*
X138320982Y-128289445D01*
X138320980Y-128289445D01*
X138287238Y-128302804D01*
X138276008Y-128306649D01*
X138241167Y-128316771D01*
X138241166Y-128316771D01*
X138233557Y-128318982D01*
X138226738Y-128323015D01*
X138226733Y-128323017D01*
X138216122Y-128329293D01*
X138198374Y-128337988D01*
X138179533Y-128345448D01*
X138173117Y-128350110D01*
X138173116Y-128350110D01*
X138143763Y-128371436D01*
X138133843Y-128377952D01*
X138102615Y-128396420D01*
X138102612Y-128396422D01*
X138095788Y-128400458D01*
X138081467Y-128414779D01*
X138066434Y-128427619D01*
X138050043Y-128439528D01*
X138041367Y-128450016D01*
X138021852Y-128473605D01*
X138013862Y-128482384D01*
X136203547Y-130292698D01*
X136141235Y-130326724D01*
X136089872Y-130327182D01*
X136049265Y-130319106D01*
X136031757Y-130315623D01*
X136025982Y-130315547D01*
X136025978Y-130315547D01*
X135918305Y-130314138D01*
X135816946Y-130312811D01*
X135811249Y-130313790D01*
X135811248Y-130313790D01*
X135715718Y-130330205D01*
X135605220Y-130349192D01*
X135403670Y-130423548D01*
X135219044Y-130533388D01*
X135214708Y-130537191D01*
X135214700Y-130537197D01*
X135080733Y-130654684D01*
X135057527Y-130675035D01*
X134924528Y-130843744D01*
X134921839Y-130848855D01*
X134921837Y-130848858D01*
X134906064Y-130878838D01*
X134824500Y-131033865D01*
X134786536Y-131156131D01*
X134767924Y-131216073D01*
X134760795Y-131239031D01*
X134760688Y-131239937D01*
X134727711Y-131301021D01*
X134665562Y-131335343D01*
X134594723Y-131330617D01*
X134537685Y-131288342D01*
X134516922Y-131246554D01*
X134514664Y-131238547D01*
X134464988Y-131062409D01*
X134453726Y-131039571D01*
X134372525Y-130874914D01*
X134369971Y-130869735D01*
X134279961Y-130749196D01*
X134244887Y-130702226D01*
X134244886Y-130702225D01*
X134241434Y-130697602D01*
X134195053Y-130654728D01*
X134087920Y-130555695D01*
X134087917Y-130555693D01*
X134083680Y-130551776D01*
X134078799Y-130548696D01*
X134078796Y-130548694D01*
X134061315Y-130537665D01*
X134014377Y-130484399D01*
X134002550Y-130431103D01*
X134002550Y-126111000D01*
X140976693Y-126111000D01*
X140995885Y-126330371D01*
X141052880Y-126543076D01*
X141062401Y-126563493D01*
X141143618Y-126737666D01*
X141143621Y-126737671D01*
X141145944Y-126742653D01*
X141149100Y-126747160D01*
X141149101Y-126747162D01*
X141260123Y-126905717D01*
X141272251Y-126923038D01*
X141427962Y-127078749D01*
X141608346Y-127205056D01*
X141807924Y-127298120D01*
X142020629Y-127355115D01*
X142240000Y-127374307D01*
X142459371Y-127355115D01*
X142672076Y-127298120D01*
X142871654Y-127205056D01*
X142934342Y-127161161D01*
X144094393Y-127161161D01*
X144103687Y-127173175D01*
X144144088Y-127201464D01*
X144153584Y-127206947D01*
X144343113Y-127295326D01*
X144353405Y-127299072D01*
X144555401Y-127353196D01*
X144566196Y-127355099D01*
X144774525Y-127373326D01*
X144785475Y-127373326D01*
X144993804Y-127355099D01*
X145004599Y-127353196D01*
X145206595Y-127299072D01*
X145216887Y-127295326D01*
X145406416Y-127206947D01*
X145415912Y-127201464D01*
X145457148Y-127172590D01*
X145465523Y-127162112D01*
X145458457Y-127148668D01*
X144792811Y-126483021D01*
X144778868Y-126475408D01*
X144777034Y-126475539D01*
X144770420Y-126479790D01*
X144100820Y-127149391D01*
X144094393Y-127161161D01*
X142934342Y-127161161D01*
X143052038Y-127078749D01*
X143207749Y-126923038D01*
X143219878Y-126905717D01*
X143330899Y-126747162D01*
X143330900Y-126747160D01*
X143334056Y-126742653D01*
X143336379Y-126737671D01*
X143336382Y-126737666D01*
X143396081Y-126609640D01*
X143442998Y-126556355D01*
X143511276Y-126536894D01*
X143579236Y-126557436D01*
X143624471Y-126609640D01*
X143684054Y-126737417D01*
X143689534Y-126746907D01*
X143718411Y-126788149D01*
X143728887Y-126796523D01*
X143742334Y-126789455D01*
X144407979Y-126123811D01*
X144414356Y-126112132D01*
X145144408Y-126112132D01*
X145144539Y-126113966D01*
X145148790Y-126120580D01*
X145818391Y-126790180D01*
X145836695Y-126800175D01*
X145896741Y-126813238D01*
X145946943Y-126863441D01*
X145961618Y-126910217D01*
X145963003Y-126922970D01*
X145967401Y-126963460D01*
X145967402Y-126963464D01*
X145968255Y-126971316D01*
X146019385Y-127107705D01*
X146106739Y-127224261D01*
X146223295Y-127311615D01*
X146359684Y-127362745D01*
X146421866Y-127369500D01*
X148218134Y-127369500D01*
X148280316Y-127362745D01*
X148416705Y-127311615D01*
X148533261Y-127224261D01*
X148620615Y-127107705D01*
X148671745Y-126971316D01*
X148678500Y-126909134D01*
X148678500Y-126870500D01*
X148698502Y-126802379D01*
X148752158Y-126755886D01*
X148804500Y-126744500D01*
X152082406Y-126744500D01*
X152150527Y-126764502D01*
X152171501Y-126781405D01*
X153163672Y-127773576D01*
X153197698Y-127835888D01*
X153196284Y-127895281D01*
X153189309Y-127921312D01*
X153189308Y-127921319D01*
X153187885Y-127926629D01*
X153168693Y-128146000D01*
X153187885Y-128365371D01*
X153244880Y-128578076D01*
X153280504Y-128654472D01*
X153335618Y-128772666D01*
X153335621Y-128772671D01*
X153337944Y-128777653D01*
X153341100Y-128782160D01*
X153341101Y-128782162D01*
X153451882Y-128940373D01*
X153464251Y-128958038D01*
X153619962Y-129113749D01*
X153800346Y-129240056D01*
X153999924Y-129333120D01*
X154212629Y-129390115D01*
X154432000Y-129409307D01*
X154651371Y-129390115D01*
X154864076Y-129333120D01*
X155063654Y-129240056D01*
X155244038Y-129113749D01*
X155399749Y-128958038D01*
X155412119Y-128940373D01*
X155522899Y-128782162D01*
X155522900Y-128782160D01*
X155526056Y-128777653D01*
X155528379Y-128772671D01*
X155528382Y-128772666D01*
X155583496Y-128654472D01*
X155619120Y-128578076D01*
X155676115Y-128365371D01*
X155695307Y-128146000D01*
X155676115Y-127926629D01*
X155619120Y-127713924D01*
X155575585Y-127620562D01*
X155528382Y-127519334D01*
X155528379Y-127519329D01*
X155526056Y-127514347D01*
X155498922Y-127475595D01*
X155402908Y-127338473D01*
X155402906Y-127338470D01*
X155399749Y-127333962D01*
X155244038Y-127178251D01*
X155235954Y-127172590D01*
X155143288Y-127107705D01*
X155063654Y-127051944D01*
X155058672Y-127049621D01*
X155058667Y-127049618D01*
X154931232Y-126990195D01*
X154877947Y-126943278D01*
X154858486Y-126875001D01*
X154879028Y-126807041D01*
X154931232Y-126761805D01*
X155058667Y-126702382D01*
X155058672Y-126702379D01*
X155063654Y-126700056D01*
X155192781Y-126609640D01*
X155239527Y-126576908D01*
X155239529Y-126576906D01*
X155244038Y-126573749D01*
X155399749Y-126418038D01*
X155526056Y-126237653D01*
X155528379Y-126232671D01*
X155528382Y-126232666D01*
X155616795Y-126043061D01*
X155619120Y-126038076D01*
X155676115Y-125825371D01*
X155695307Y-125606000D01*
X155676115Y-125386629D01*
X155619120Y-125173924D01*
X155560786Y-125048825D01*
X155528382Y-124979334D01*
X155528379Y-124979329D01*
X155526056Y-124974347D01*
X155485041Y-124915771D01*
X155402908Y-124798473D01*
X155402906Y-124798470D01*
X155399749Y-124793962D01*
X155244038Y-124638251D01*
X155063654Y-124511944D01*
X155058672Y-124509621D01*
X155058667Y-124509618D01*
X154931232Y-124450195D01*
X154877947Y-124403278D01*
X154858486Y-124335001D01*
X154879028Y-124267041D01*
X154931232Y-124221805D01*
X155058667Y-124162382D01*
X155058672Y-124162379D01*
X155063654Y-124160056D01*
X155244038Y-124033749D01*
X155399749Y-123878038D01*
X155526056Y-123697653D01*
X155528379Y-123692671D01*
X155528382Y-123692666D01*
X155616795Y-123503061D01*
X155619120Y-123498076D01*
X155676115Y-123285371D01*
X155695307Y-123066000D01*
X155676115Y-122846629D01*
X155619120Y-122633924D01*
X155567996Y-122524287D01*
X155528382Y-122439334D01*
X155528379Y-122439329D01*
X155526056Y-122434347D01*
X155522899Y-122429838D01*
X155402908Y-122258473D01*
X155402906Y-122258470D01*
X155399749Y-122253962D01*
X155244038Y-122098251D01*
X155063654Y-121971944D01*
X155058672Y-121969621D01*
X155058667Y-121969618D01*
X154931232Y-121910195D01*
X154877947Y-121863278D01*
X154858486Y-121795001D01*
X154879028Y-121727041D01*
X154931232Y-121681805D01*
X155058667Y-121622382D01*
X155058672Y-121622379D01*
X155063654Y-121620056D01*
X155182241Y-121537020D01*
X155239527Y-121496908D01*
X155239529Y-121496906D01*
X155244038Y-121493749D01*
X155399749Y-121338038D01*
X155413915Y-121317808D01*
X155522899Y-121162162D01*
X155522900Y-121162160D01*
X155526056Y-121157653D01*
X155528379Y-121152671D01*
X155528382Y-121152666D01*
X155583503Y-121034458D01*
X155619120Y-120958076D01*
X155676115Y-120745371D01*
X155695307Y-120526000D01*
X155676115Y-120306629D01*
X155619120Y-120093924D01*
X155559191Y-119965405D01*
X155528382Y-119899334D01*
X155528379Y-119899329D01*
X155526056Y-119894347D01*
X155399749Y-119713962D01*
X155244038Y-119558251D01*
X155063654Y-119431944D01*
X155058672Y-119429621D01*
X155058667Y-119429618D01*
X154931232Y-119370195D01*
X154877947Y-119323278D01*
X154858486Y-119255001D01*
X154879028Y-119187041D01*
X154931232Y-119141805D01*
X155058667Y-119082382D01*
X155058672Y-119082379D01*
X155063654Y-119080056D01*
X155244038Y-118953749D01*
X155399749Y-118798038D01*
X155479995Y-118683436D01*
X155522899Y-118622162D01*
X155522900Y-118622160D01*
X155526056Y-118617653D01*
X155528379Y-118612671D01*
X155528382Y-118612666D01*
X155597364Y-118464731D01*
X155619120Y-118418076D01*
X155676115Y-118205371D01*
X155695307Y-117986000D01*
X155676115Y-117766629D01*
X155619120Y-117553924D01*
X155557167Y-117421065D01*
X155528382Y-117359334D01*
X155528379Y-117359329D01*
X155526056Y-117354347D01*
X155464259Y-117266092D01*
X155402908Y-117178473D01*
X155402906Y-117178470D01*
X155399749Y-117173962D01*
X155244038Y-117018251D01*
X155210553Y-116994804D01*
X155164759Y-116962739D01*
X155063654Y-116891944D01*
X154864076Y-116798880D01*
X154651371Y-116741885D01*
X154432000Y-116722693D01*
X154212629Y-116741885D01*
X154207314Y-116743309D01*
X154207315Y-116743309D01*
X154181283Y-116750284D01*
X154110306Y-116748594D01*
X154059577Y-116717672D01*
X150247905Y-112906000D01*
X153168693Y-112906000D01*
X153187885Y-113125371D01*
X153244880Y-113338076D01*
X153247205Y-113343061D01*
X153335618Y-113532666D01*
X153335621Y-113532671D01*
X153337944Y-113537653D01*
X153341100Y-113542160D01*
X153341101Y-113542162D01*
X153426300Y-113663838D01*
X153464251Y-113718038D01*
X153619962Y-113873749D01*
X153800346Y-114000056D01*
X153999924Y-114093120D01*
X154212629Y-114150115D01*
X154432000Y-114169307D01*
X154651371Y-114150115D01*
X154864076Y-114093120D01*
X155063654Y-114000056D01*
X155244038Y-113873749D01*
X155399749Y-113718038D01*
X155437701Y-113663838D01*
X155522899Y-113542162D01*
X155522900Y-113542160D01*
X155526056Y-113537653D01*
X155528379Y-113532671D01*
X155528382Y-113532666D01*
X155616795Y-113343061D01*
X155619120Y-113338076D01*
X155676115Y-113125371D01*
X155695307Y-112906000D01*
X155676115Y-112686629D01*
X155619120Y-112473924D01*
X155531011Y-112284973D01*
X155528382Y-112279334D01*
X155528379Y-112279329D01*
X155526056Y-112274347D01*
X155507165Y-112247368D01*
X155402908Y-112098473D01*
X155402906Y-112098470D01*
X155399749Y-112093962D01*
X155244038Y-111938251D01*
X155207127Y-111912405D01*
X155076254Y-111820767D01*
X155063654Y-111811944D01*
X155058672Y-111809621D01*
X155058667Y-111809618D01*
X154930641Y-111749919D01*
X154877356Y-111703002D01*
X154857895Y-111634724D01*
X154878437Y-111566764D01*
X154930641Y-111521529D01*
X155058416Y-111461947D01*
X155067912Y-111456464D01*
X155109148Y-111427590D01*
X155117523Y-111417112D01*
X155110457Y-111403668D01*
X154444811Y-110738021D01*
X154430868Y-110730408D01*
X154429034Y-110730539D01*
X154422420Y-110734790D01*
X153752820Y-111404391D01*
X153746393Y-111416161D01*
X153755687Y-111428175D01*
X153796088Y-111456464D01*
X153805584Y-111461947D01*
X153933359Y-111521529D01*
X153986644Y-111568446D01*
X154006105Y-111636724D01*
X153985563Y-111704684D01*
X153933359Y-111749919D01*
X153805334Y-111809618D01*
X153805329Y-111809621D01*
X153800347Y-111811944D01*
X153795840Y-111815100D01*
X153795838Y-111815101D01*
X153624473Y-111935092D01*
X153624470Y-111935094D01*
X153619962Y-111938251D01*
X153464251Y-112093962D01*
X153461094Y-112098470D01*
X153461092Y-112098473D01*
X153356835Y-112247368D01*
X153337944Y-112274347D01*
X153335621Y-112279329D01*
X153335618Y-112279334D01*
X153332989Y-112284973D01*
X153244880Y-112473924D01*
X153187885Y-112686629D01*
X153168693Y-112906000D01*
X150247905Y-112906000D01*
X148715405Y-111373500D01*
X148681379Y-111311188D01*
X148678500Y-111284405D01*
X148678500Y-110371475D01*
X153169674Y-110371475D01*
X153187901Y-110579804D01*
X153189804Y-110590599D01*
X153243928Y-110792595D01*
X153247674Y-110802887D01*
X153336054Y-110992417D01*
X153341534Y-111001907D01*
X153370411Y-111043149D01*
X153380887Y-111051523D01*
X153394334Y-111044455D01*
X154059979Y-110378811D01*
X154066356Y-110367132D01*
X154796408Y-110367132D01*
X154796539Y-110368966D01*
X154800790Y-110375580D01*
X155470391Y-111045180D01*
X155482161Y-111051607D01*
X155494176Y-111042311D01*
X155522466Y-111001907D01*
X155527946Y-110992417D01*
X155616326Y-110802887D01*
X155620072Y-110792595D01*
X155674196Y-110590599D01*
X155676099Y-110579804D01*
X155694326Y-110371475D01*
X155694326Y-110360525D01*
X155676099Y-110152196D01*
X155674196Y-110141401D01*
X155620072Y-109939405D01*
X155616326Y-109929113D01*
X155527946Y-109739583D01*
X155522466Y-109730093D01*
X155493589Y-109688851D01*
X155483113Y-109680477D01*
X155469666Y-109687545D01*
X154804021Y-110353189D01*
X154796408Y-110367132D01*
X154066356Y-110367132D01*
X154067592Y-110364868D01*
X154067461Y-110363034D01*
X154063210Y-110356420D01*
X153393609Y-109686820D01*
X153381839Y-109680393D01*
X153369824Y-109689689D01*
X153341534Y-109730093D01*
X153336054Y-109739583D01*
X153247674Y-109929113D01*
X153243928Y-109939405D01*
X153189804Y-110141401D01*
X153187901Y-110152196D01*
X153169674Y-110360525D01*
X153169674Y-110371475D01*
X148678500Y-110371475D01*
X148678500Y-109818866D01*
X148671745Y-109756684D01*
X148620615Y-109620295D01*
X148533261Y-109503739D01*
X148416705Y-109416385D01*
X148280316Y-109365255D01*
X148218134Y-109358500D01*
X146421866Y-109358500D01*
X146359684Y-109365255D01*
X146223295Y-109416385D01*
X146106739Y-109503739D01*
X146019385Y-109620295D01*
X145968255Y-109756684D01*
X145962520Y-109809473D01*
X145961636Y-109817614D01*
X145934394Y-109883176D01*
X145876031Y-109923602D01*
X145838269Y-109927716D01*
X145817666Y-109938545D01*
X145152021Y-110604189D01*
X145144408Y-110618132D01*
X145144539Y-110619966D01*
X145148790Y-110626580D01*
X145818391Y-111296180D01*
X145836695Y-111306175D01*
X145896741Y-111319238D01*
X145946943Y-111369441D01*
X145961618Y-111416217D01*
X145962853Y-111427590D01*
X145967401Y-111469460D01*
X145967402Y-111469464D01*
X145968255Y-111477316D01*
X146019385Y-111613705D01*
X146106739Y-111730261D01*
X146223295Y-111817615D01*
X146359684Y-111868745D01*
X146421866Y-111875500D01*
X147373406Y-111875500D01*
X147441527Y-111895502D01*
X147462501Y-111912405D01*
X148384297Y-112834201D01*
X148418323Y-112896513D01*
X148413258Y-112967328D01*
X148370711Y-113024164D01*
X148304191Y-113048975D01*
X148280447Y-113047046D01*
X148280316Y-113048255D01*
X148221531Y-113041869D01*
X148218134Y-113041500D01*
X146421866Y-113041500D01*
X146359684Y-113048255D01*
X146223295Y-113099385D01*
X146106739Y-113186739D01*
X146019385Y-113303295D01*
X145968255Y-113439684D01*
X145962520Y-113492473D01*
X145961636Y-113500614D01*
X145934394Y-113566176D01*
X145876031Y-113606602D01*
X145838269Y-113610716D01*
X145817666Y-113621545D01*
X145152021Y-114287189D01*
X145144408Y-114301132D01*
X145144539Y-114302966D01*
X145148790Y-114309580D01*
X145818391Y-114979180D01*
X145836695Y-114989175D01*
X145896741Y-115002238D01*
X145946943Y-115052441D01*
X145961618Y-115099217D01*
X145963010Y-115112038D01*
X145967401Y-115152460D01*
X145967402Y-115152464D01*
X145968255Y-115160316D01*
X146019385Y-115296705D01*
X146106739Y-115413261D01*
X146223295Y-115500615D01*
X146359684Y-115551745D01*
X146421866Y-115558500D01*
X148218134Y-115558500D01*
X148280316Y-115551745D01*
X148409119Y-115503459D01*
X148479924Y-115498276D01*
X148542442Y-115532346D01*
X153163672Y-120153576D01*
X153197698Y-120215888D01*
X153196284Y-120275281D01*
X153189309Y-120301312D01*
X153189308Y-120301319D01*
X153187885Y-120306629D01*
X153168693Y-120526000D01*
X153169172Y-120531474D01*
X153175030Y-120598432D01*
X153161041Y-120668037D01*
X153111641Y-120719030D01*
X153042515Y-120735220D01*
X152975610Y-120711467D01*
X152960414Y-120698509D01*
X150106652Y-117844747D01*
X150099112Y-117836461D01*
X150095000Y-117829982D01*
X150045348Y-117783356D01*
X150042507Y-117780602D01*
X150022770Y-117760865D01*
X150019573Y-117758385D01*
X150010551Y-117750680D01*
X149978321Y-117720414D01*
X149971375Y-117716595D01*
X149971372Y-117716593D01*
X149960566Y-117710652D01*
X149944047Y-117699801D01*
X149943583Y-117699441D01*
X149928041Y-117687386D01*
X149920772Y-117684241D01*
X149920768Y-117684238D01*
X149887463Y-117669826D01*
X149876813Y-117664609D01*
X149838060Y-117643305D01*
X149818437Y-117638267D01*
X149799734Y-117631863D01*
X149788420Y-117626967D01*
X149788419Y-117626967D01*
X149781145Y-117623819D01*
X149773322Y-117622580D01*
X149773312Y-117622577D01*
X149737476Y-117616901D01*
X149725856Y-117614495D01*
X149690711Y-117605472D01*
X149690710Y-117605472D01*
X149683030Y-117603500D01*
X149662776Y-117603500D01*
X149643065Y-117601949D01*
X149630886Y-117600020D01*
X149623057Y-117598780D01*
X149615165Y-117599526D01*
X149579039Y-117602941D01*
X149567181Y-117603500D01*
X148804500Y-117603500D01*
X148736379Y-117583498D01*
X148689886Y-117529842D01*
X148678500Y-117477500D01*
X148678500Y-117438866D01*
X148671745Y-117376684D01*
X148620615Y-117240295D01*
X148533261Y-117123739D01*
X148416705Y-117036385D01*
X148280316Y-116985255D01*
X148218134Y-116978500D01*
X146421866Y-116978500D01*
X146359684Y-116985255D01*
X146223295Y-117036385D01*
X146106739Y-117123739D01*
X146019385Y-117240295D01*
X145968255Y-117376684D01*
X145962520Y-117429473D01*
X145961636Y-117437614D01*
X145934394Y-117503176D01*
X145876031Y-117543602D01*
X145838269Y-117547716D01*
X145817666Y-117558545D01*
X145152021Y-118224189D01*
X145144408Y-118238132D01*
X145144539Y-118239966D01*
X145148790Y-118246580D01*
X145818391Y-118916180D01*
X145836695Y-118926175D01*
X145896741Y-118939238D01*
X145946943Y-118989441D01*
X145961618Y-119036217D01*
X145963010Y-119049038D01*
X145967401Y-119089460D01*
X145967402Y-119089464D01*
X145968255Y-119097316D01*
X146019385Y-119233705D01*
X146106739Y-119350261D01*
X146223295Y-119437615D01*
X146359684Y-119488745D01*
X146421866Y-119495500D01*
X148218134Y-119495500D01*
X148280316Y-119488745D01*
X148416705Y-119437615D01*
X148533261Y-119350261D01*
X148620615Y-119233705D01*
X148671745Y-119097316D01*
X148678500Y-119035134D01*
X148678500Y-118996500D01*
X148698502Y-118928379D01*
X148752158Y-118881886D01*
X148804500Y-118870500D01*
X149288406Y-118870500D01*
X149356527Y-118890502D01*
X149377501Y-118907405D01*
X153163672Y-122693576D01*
X153197698Y-122755888D01*
X153196284Y-122815281D01*
X153189309Y-122841312D01*
X153189308Y-122841319D01*
X153187885Y-122846629D01*
X153168693Y-123066000D01*
X153169172Y-123071474D01*
X153175030Y-123138432D01*
X153161041Y-123208037D01*
X153111641Y-123259030D01*
X153042515Y-123275220D01*
X152975610Y-123251467D01*
X152960414Y-123238509D01*
X151503652Y-121781747D01*
X151496112Y-121773461D01*
X151492000Y-121766982D01*
X151458946Y-121735942D01*
X151442349Y-121720357D01*
X151439507Y-121717602D01*
X151419770Y-121697865D01*
X151416573Y-121695385D01*
X151407551Y-121687680D01*
X151401295Y-121681805D01*
X151375321Y-121657414D01*
X151368375Y-121653595D01*
X151368372Y-121653593D01*
X151357566Y-121647652D01*
X151341047Y-121636801D01*
X151340583Y-121636441D01*
X151325041Y-121624386D01*
X151317772Y-121621241D01*
X151317768Y-121621238D01*
X151284463Y-121606826D01*
X151273813Y-121601609D01*
X151235060Y-121580305D01*
X151215437Y-121575267D01*
X151196734Y-121568863D01*
X151185420Y-121563967D01*
X151185419Y-121563967D01*
X151178145Y-121560819D01*
X151170322Y-121559580D01*
X151170312Y-121559577D01*
X151134476Y-121553901D01*
X151122856Y-121551495D01*
X151087711Y-121542472D01*
X151087710Y-121542472D01*
X151080030Y-121540500D01*
X151059776Y-121540500D01*
X151040065Y-121538949D01*
X151027886Y-121537020D01*
X151020057Y-121535780D01*
X151012165Y-121536526D01*
X150976039Y-121539941D01*
X150964181Y-121540500D01*
X148804500Y-121540500D01*
X148736379Y-121520498D01*
X148689886Y-121466842D01*
X148678500Y-121414500D01*
X148678500Y-121375866D01*
X148671745Y-121313684D01*
X148620615Y-121177295D01*
X148533261Y-121060739D01*
X148416705Y-120973385D01*
X148280316Y-120922255D01*
X148218134Y-120915500D01*
X146421866Y-120915500D01*
X146359684Y-120922255D01*
X146223295Y-120973385D01*
X146106739Y-121060739D01*
X146019385Y-121177295D01*
X145968255Y-121313684D01*
X145962520Y-121366473D01*
X145961636Y-121374614D01*
X145934394Y-121440176D01*
X145876031Y-121480602D01*
X145838269Y-121484716D01*
X145817666Y-121495545D01*
X145152021Y-122161189D01*
X145144408Y-122175132D01*
X145144539Y-122176966D01*
X145148790Y-122183580D01*
X145818391Y-122853180D01*
X145836695Y-122863175D01*
X145896741Y-122876238D01*
X145946943Y-122926441D01*
X145961618Y-122973217D01*
X145963010Y-122986038D01*
X145967401Y-123026460D01*
X145967402Y-123026464D01*
X145968255Y-123034316D01*
X146019385Y-123170705D01*
X146106739Y-123287261D01*
X146223295Y-123374615D01*
X146359684Y-123425745D01*
X146421866Y-123432500D01*
X148218134Y-123432500D01*
X148280316Y-123425745D01*
X148416705Y-123374615D01*
X148533261Y-123287261D01*
X148620615Y-123170705D01*
X148671745Y-123034316D01*
X148678500Y-122972134D01*
X148678500Y-122933500D01*
X148698502Y-122865379D01*
X148752158Y-122818886D01*
X148804500Y-122807500D01*
X150685406Y-122807500D01*
X150753527Y-122827502D01*
X150774501Y-122844405D01*
X153163672Y-125233577D01*
X153197698Y-125295889D01*
X153196284Y-125355283D01*
X153187885Y-125386629D01*
X153168693Y-125606000D01*
X153169250Y-125612360D01*
X153175030Y-125678432D01*
X153161041Y-125748037D01*
X153111641Y-125799030D01*
X153042515Y-125815220D01*
X152975610Y-125791467D01*
X152960414Y-125778509D01*
X152900652Y-125718747D01*
X152893112Y-125710461D01*
X152889000Y-125703982D01*
X152839348Y-125657356D01*
X152836507Y-125654602D01*
X152816770Y-125634865D01*
X152813573Y-125632385D01*
X152804551Y-125624680D01*
X152772321Y-125594414D01*
X152765375Y-125590595D01*
X152765372Y-125590593D01*
X152754566Y-125584652D01*
X152738047Y-125573801D01*
X152737583Y-125573441D01*
X152722041Y-125561386D01*
X152714772Y-125558241D01*
X152714768Y-125558238D01*
X152681463Y-125543826D01*
X152670813Y-125538609D01*
X152632060Y-125517305D01*
X152612437Y-125512267D01*
X152593734Y-125505863D01*
X152582420Y-125500967D01*
X152582419Y-125500967D01*
X152575145Y-125497819D01*
X152567322Y-125496580D01*
X152567312Y-125496577D01*
X152531476Y-125490901D01*
X152519856Y-125488495D01*
X152484711Y-125479472D01*
X152484710Y-125479472D01*
X152477030Y-125477500D01*
X152456776Y-125477500D01*
X152437065Y-125475949D01*
X152424886Y-125474020D01*
X152417057Y-125472780D01*
X152409165Y-125473526D01*
X152373039Y-125476941D01*
X152361181Y-125477500D01*
X148804500Y-125477500D01*
X148736379Y-125457498D01*
X148689886Y-125403842D01*
X148678500Y-125351500D01*
X148678500Y-125312866D01*
X148671745Y-125250684D01*
X148620615Y-125114295D01*
X148533261Y-124997739D01*
X148416705Y-124910385D01*
X148280316Y-124859255D01*
X148218134Y-124852500D01*
X146421866Y-124852500D01*
X146359684Y-124859255D01*
X146223295Y-124910385D01*
X146106739Y-124997739D01*
X146019385Y-125114295D01*
X145968255Y-125250684D01*
X145962520Y-125303473D01*
X145961636Y-125311614D01*
X145934394Y-125377176D01*
X145876031Y-125417602D01*
X145838269Y-125421716D01*
X145817666Y-125432545D01*
X145152021Y-126098189D01*
X145144408Y-126112132D01*
X144414356Y-126112132D01*
X144415592Y-126109868D01*
X144415461Y-126108034D01*
X144411210Y-126101420D01*
X143741609Y-125431820D01*
X143729839Y-125425393D01*
X143717824Y-125434689D01*
X143689534Y-125475093D01*
X143684054Y-125484583D01*
X143624471Y-125612360D01*
X143577554Y-125665645D01*
X143509276Y-125685106D01*
X143441316Y-125664564D01*
X143396081Y-125612360D01*
X143336382Y-125484334D01*
X143336379Y-125484329D01*
X143334056Y-125479347D01*
X143296277Y-125425393D01*
X143210908Y-125303473D01*
X143210906Y-125303470D01*
X143207749Y-125298962D01*
X143052038Y-125143251D01*
X142932983Y-125059887D01*
X144094477Y-125059887D01*
X144101545Y-125073334D01*
X144767189Y-125738979D01*
X144781132Y-125746592D01*
X144782966Y-125746461D01*
X144789580Y-125742210D01*
X145459180Y-125072609D01*
X145465607Y-125060839D01*
X145456313Y-125048825D01*
X145415912Y-125020536D01*
X145406416Y-125015053D01*
X145216887Y-124926674D01*
X145206595Y-124922928D01*
X145004599Y-124868804D01*
X144993804Y-124866901D01*
X144785475Y-124848674D01*
X144774525Y-124848674D01*
X144566196Y-124866901D01*
X144555401Y-124868804D01*
X144353405Y-124922928D01*
X144343113Y-124926674D01*
X144153583Y-125015054D01*
X144144093Y-125020534D01*
X144102851Y-125049411D01*
X144094477Y-125059887D01*
X142932983Y-125059887D01*
X142871654Y-125016944D01*
X142672076Y-124923880D01*
X142459371Y-124866885D01*
X142240000Y-124847693D01*
X142020629Y-124866885D01*
X141807924Y-124923880D01*
X141714562Y-124967415D01*
X141613334Y-125014618D01*
X141613329Y-125014621D01*
X141608347Y-125016944D01*
X141603840Y-125020100D01*
X141603838Y-125020101D01*
X141432473Y-125140092D01*
X141432470Y-125140094D01*
X141427962Y-125143251D01*
X141272251Y-125298962D01*
X141269094Y-125303470D01*
X141269092Y-125303473D01*
X141183723Y-125425393D01*
X141145944Y-125479347D01*
X141143621Y-125484329D01*
X141143618Y-125484334D01*
X141099065Y-125579879D01*
X141052880Y-125678924D01*
X140995885Y-125891629D01*
X140976693Y-126111000D01*
X134002550Y-126111000D01*
X134002550Y-122652813D01*
X134003077Y-122641629D01*
X134004751Y-122634141D01*
X134002612Y-122566082D01*
X134002550Y-122562125D01*
X134002550Y-122534194D01*
X134002044Y-122530188D01*
X134001111Y-122518342D01*
X134001064Y-122516826D01*
X133999723Y-122474160D01*
X133994072Y-122454708D01*
X133990064Y-122435356D01*
X133988518Y-122423118D01*
X133988517Y-122423116D01*
X133987524Y-122415253D01*
X133971244Y-122374136D01*
X133967409Y-122362935D01*
X133955068Y-122320456D01*
X133951035Y-122313637D01*
X133951033Y-122313632D01*
X133944757Y-122303021D01*
X133936060Y-122285271D01*
X133928602Y-122266433D01*
X133902621Y-122230673D01*
X133896103Y-122220751D01*
X133877628Y-122189510D01*
X133877624Y-122189505D01*
X133873592Y-122182687D01*
X133864905Y-122174000D01*
X140976693Y-122174000D01*
X140995885Y-122393371D01*
X141052880Y-122606076D01*
X141083919Y-122672640D01*
X141143618Y-122800666D01*
X141143621Y-122800671D01*
X141145944Y-122805653D01*
X141149100Y-122810160D01*
X141149101Y-122810162D01*
X141260123Y-122968717D01*
X141272251Y-122986038D01*
X141427962Y-123141749D01*
X141608346Y-123268056D01*
X141807924Y-123361120D01*
X142020629Y-123418115D01*
X142240000Y-123437307D01*
X142459371Y-123418115D01*
X142672076Y-123361120D01*
X142871654Y-123268056D01*
X142934342Y-123224161D01*
X144094393Y-123224161D01*
X144103687Y-123236175D01*
X144144088Y-123264464D01*
X144153584Y-123269947D01*
X144343113Y-123358326D01*
X144353405Y-123362072D01*
X144555401Y-123416196D01*
X144566196Y-123418099D01*
X144774525Y-123436326D01*
X144785475Y-123436326D01*
X144993804Y-123418099D01*
X145004599Y-123416196D01*
X145206595Y-123362072D01*
X145216887Y-123358326D01*
X145406416Y-123269947D01*
X145415912Y-123264464D01*
X145457148Y-123235590D01*
X145465523Y-123225112D01*
X145458457Y-123211668D01*
X144792811Y-122546021D01*
X144778868Y-122538408D01*
X144777034Y-122538539D01*
X144770420Y-122542790D01*
X144100820Y-123212391D01*
X144094393Y-123224161D01*
X142934342Y-123224161D01*
X143052038Y-123141749D01*
X143207749Y-122986038D01*
X143219878Y-122968717D01*
X143330899Y-122810162D01*
X143330900Y-122810160D01*
X143334056Y-122805653D01*
X143336379Y-122800671D01*
X143336382Y-122800666D01*
X143396081Y-122672640D01*
X143442998Y-122619355D01*
X143511276Y-122599894D01*
X143579236Y-122620436D01*
X143624471Y-122672640D01*
X143684054Y-122800417D01*
X143689534Y-122809907D01*
X143718411Y-122851149D01*
X143728887Y-122859523D01*
X143742334Y-122852455D01*
X144407979Y-122186811D01*
X144415592Y-122172868D01*
X144415461Y-122171034D01*
X144411210Y-122164420D01*
X143741609Y-121494820D01*
X143729839Y-121488393D01*
X143717824Y-121497689D01*
X143689534Y-121538093D01*
X143684054Y-121547583D01*
X143624471Y-121675360D01*
X143577554Y-121728645D01*
X143509276Y-121748106D01*
X143441316Y-121727564D01*
X143396081Y-121675360D01*
X143336382Y-121547334D01*
X143336379Y-121547329D01*
X143334056Y-121542347D01*
X143327152Y-121532487D01*
X143210908Y-121366473D01*
X143210906Y-121366470D01*
X143207749Y-121361962D01*
X143052038Y-121206251D01*
X143038717Y-121196923D01*
X142934342Y-121123839D01*
X142932982Y-121122887D01*
X144094477Y-121122887D01*
X144101545Y-121136334D01*
X144767189Y-121801979D01*
X144781132Y-121809592D01*
X144782966Y-121809461D01*
X144789580Y-121805210D01*
X145459180Y-121135609D01*
X145465607Y-121123839D01*
X145456313Y-121111825D01*
X145415912Y-121083536D01*
X145406416Y-121078053D01*
X145216887Y-120989674D01*
X145206595Y-120985928D01*
X145004599Y-120931804D01*
X144993804Y-120929901D01*
X144785475Y-120911674D01*
X144774525Y-120911674D01*
X144566196Y-120929901D01*
X144555401Y-120931804D01*
X144353405Y-120985928D01*
X144343113Y-120989674D01*
X144153583Y-121078054D01*
X144144093Y-121083534D01*
X144102851Y-121112411D01*
X144094477Y-121122887D01*
X142932982Y-121122887D01*
X142871654Y-121079944D01*
X142672076Y-120986880D01*
X142459371Y-120929885D01*
X142240000Y-120910693D01*
X142020629Y-120929885D01*
X141807924Y-120986880D01*
X141760644Y-121008927D01*
X141613334Y-121077618D01*
X141613329Y-121077621D01*
X141608347Y-121079944D01*
X141603840Y-121083100D01*
X141603838Y-121083101D01*
X141432473Y-121203092D01*
X141432470Y-121203094D01*
X141427962Y-121206251D01*
X141272251Y-121361962D01*
X141269094Y-121366470D01*
X141269092Y-121366473D01*
X141152848Y-121532487D01*
X141145944Y-121542347D01*
X141143621Y-121547329D01*
X141143618Y-121547334D01*
X141099065Y-121642879D01*
X141052880Y-121741924D01*
X140995885Y-121954629D01*
X140976693Y-122174000D01*
X133864905Y-122174000D01*
X133859268Y-122168363D01*
X133846426Y-122153328D01*
X133834522Y-122136943D01*
X133800456Y-122108761D01*
X133791677Y-122100772D01*
X129927905Y-118237000D01*
X140976693Y-118237000D01*
X140995885Y-118456371D01*
X141052880Y-118669076D01*
X141083919Y-118735640D01*
X141143618Y-118863666D01*
X141143621Y-118863671D01*
X141145944Y-118868653D01*
X141149100Y-118873160D01*
X141149101Y-118873162D01*
X141260123Y-119031717D01*
X141272251Y-119049038D01*
X141427962Y-119204749D01*
X141608346Y-119331056D01*
X141807924Y-119424120D01*
X142020629Y-119481115D01*
X142240000Y-119500307D01*
X142459371Y-119481115D01*
X142672076Y-119424120D01*
X142871654Y-119331056D01*
X142934342Y-119287161D01*
X144094393Y-119287161D01*
X144103687Y-119299175D01*
X144144088Y-119327464D01*
X144153584Y-119332947D01*
X144343113Y-119421326D01*
X144353405Y-119425072D01*
X144555401Y-119479196D01*
X144566196Y-119481099D01*
X144774525Y-119499326D01*
X144785475Y-119499326D01*
X144993804Y-119481099D01*
X145004599Y-119479196D01*
X145206595Y-119425072D01*
X145216887Y-119421326D01*
X145406416Y-119332947D01*
X145415912Y-119327464D01*
X145457148Y-119298590D01*
X145465523Y-119288112D01*
X145458457Y-119274668D01*
X144792811Y-118609021D01*
X144778868Y-118601408D01*
X144777034Y-118601539D01*
X144770420Y-118605790D01*
X144100820Y-119275391D01*
X144094393Y-119287161D01*
X142934342Y-119287161D01*
X143052038Y-119204749D01*
X143207749Y-119049038D01*
X143219878Y-119031717D01*
X143330899Y-118873162D01*
X143330900Y-118873160D01*
X143334056Y-118868653D01*
X143336379Y-118863671D01*
X143336382Y-118863666D01*
X143396081Y-118735640D01*
X143442998Y-118682355D01*
X143511276Y-118662894D01*
X143579236Y-118683436D01*
X143624471Y-118735640D01*
X143684054Y-118863417D01*
X143689534Y-118872907D01*
X143718411Y-118914149D01*
X143728887Y-118922523D01*
X143742334Y-118915455D01*
X144407979Y-118249811D01*
X144415592Y-118235868D01*
X144415461Y-118234034D01*
X144411210Y-118227420D01*
X143741609Y-117557820D01*
X143729839Y-117551393D01*
X143717824Y-117560689D01*
X143689534Y-117601093D01*
X143684054Y-117610583D01*
X143624471Y-117738360D01*
X143577554Y-117791645D01*
X143509276Y-117811106D01*
X143441316Y-117790564D01*
X143396081Y-117738360D01*
X143336382Y-117610334D01*
X143336379Y-117610329D01*
X143334056Y-117605347D01*
X143294559Y-117548939D01*
X143210908Y-117429473D01*
X143210906Y-117429470D01*
X143207749Y-117424962D01*
X143052038Y-117269251D01*
X142932983Y-117185887D01*
X144094477Y-117185887D01*
X144101545Y-117199334D01*
X144767189Y-117864979D01*
X144781132Y-117872592D01*
X144782966Y-117872461D01*
X144789580Y-117868210D01*
X145459180Y-117198609D01*
X145465607Y-117186839D01*
X145456313Y-117174825D01*
X145415912Y-117146536D01*
X145406416Y-117141053D01*
X145216887Y-117052674D01*
X145206595Y-117048928D01*
X145004599Y-116994804D01*
X144993804Y-116992901D01*
X144785475Y-116974674D01*
X144774525Y-116974674D01*
X144566196Y-116992901D01*
X144555401Y-116994804D01*
X144353405Y-117048928D01*
X144343113Y-117052674D01*
X144153583Y-117141054D01*
X144144093Y-117146534D01*
X144102851Y-117175411D01*
X144094477Y-117185887D01*
X142932983Y-117185887D01*
X142871654Y-117142944D01*
X142672076Y-117049880D01*
X142459371Y-116992885D01*
X142240000Y-116973693D01*
X142020629Y-116992885D01*
X141807924Y-117049880D01*
X141714562Y-117093415D01*
X141613334Y-117140618D01*
X141613329Y-117140621D01*
X141608347Y-117142944D01*
X141603840Y-117146100D01*
X141603838Y-117146101D01*
X141432473Y-117266092D01*
X141432470Y-117266094D01*
X141427962Y-117269251D01*
X141272251Y-117424962D01*
X141269094Y-117429470D01*
X141269092Y-117429473D01*
X141185441Y-117548939D01*
X141145944Y-117605347D01*
X141143621Y-117610329D01*
X141143618Y-117610334D01*
X141099065Y-117705879D01*
X141052880Y-117804924D01*
X140995885Y-118017629D01*
X140976693Y-118237000D01*
X129927905Y-118237000D01*
X125990905Y-114300000D01*
X140976693Y-114300000D01*
X140995885Y-114519371D01*
X141052880Y-114732076D01*
X141093569Y-114819334D01*
X141143618Y-114926666D01*
X141143621Y-114926671D01*
X141145944Y-114931653D01*
X141149100Y-114936160D01*
X141149101Y-114936162D01*
X141230521Y-115052441D01*
X141272251Y-115112038D01*
X141427962Y-115267749D01*
X141608346Y-115394056D01*
X141807924Y-115487120D01*
X142020629Y-115544115D01*
X142240000Y-115563307D01*
X142459371Y-115544115D01*
X142672076Y-115487120D01*
X142871654Y-115394056D01*
X142934342Y-115350161D01*
X144094393Y-115350161D01*
X144103687Y-115362175D01*
X144144088Y-115390464D01*
X144153584Y-115395947D01*
X144343113Y-115484326D01*
X144353405Y-115488072D01*
X144555401Y-115542196D01*
X144566196Y-115544099D01*
X144774525Y-115562326D01*
X144785475Y-115562326D01*
X144993804Y-115544099D01*
X145004599Y-115542196D01*
X145206595Y-115488072D01*
X145216887Y-115484326D01*
X145406416Y-115395947D01*
X145415912Y-115390464D01*
X145457148Y-115361590D01*
X145465523Y-115351112D01*
X145458457Y-115337668D01*
X144792811Y-114672021D01*
X144778868Y-114664408D01*
X144777034Y-114664539D01*
X144770420Y-114668790D01*
X144100820Y-115338391D01*
X144094393Y-115350161D01*
X142934342Y-115350161D01*
X143052038Y-115267749D01*
X143207749Y-115112038D01*
X143249480Y-115052441D01*
X143330899Y-114936162D01*
X143330900Y-114936160D01*
X143334056Y-114931653D01*
X143336379Y-114926671D01*
X143336382Y-114926666D01*
X143396081Y-114798640D01*
X143442998Y-114745355D01*
X143511276Y-114725894D01*
X143579236Y-114746436D01*
X143624471Y-114798640D01*
X143684054Y-114926417D01*
X143689534Y-114935907D01*
X143718411Y-114977149D01*
X143728887Y-114985523D01*
X143742334Y-114978455D01*
X144407979Y-114312811D01*
X144415592Y-114298868D01*
X144415461Y-114297034D01*
X144411210Y-114290420D01*
X143741609Y-113620820D01*
X143729839Y-113614393D01*
X143717824Y-113623689D01*
X143689534Y-113664093D01*
X143684054Y-113673583D01*
X143624471Y-113801360D01*
X143577554Y-113854645D01*
X143509276Y-113874106D01*
X143441316Y-113853564D01*
X143396081Y-113801360D01*
X143336382Y-113673334D01*
X143336379Y-113673329D01*
X143334056Y-113668347D01*
X143296277Y-113614393D01*
X143210908Y-113492473D01*
X143210906Y-113492470D01*
X143207749Y-113487962D01*
X143052038Y-113332251D01*
X143024624Y-113313055D01*
X142934342Y-113249839D01*
X142932982Y-113248887D01*
X144094477Y-113248887D01*
X144101545Y-113262334D01*
X144767189Y-113927979D01*
X144781132Y-113935592D01*
X144782966Y-113935461D01*
X144789580Y-113931210D01*
X145459180Y-113261609D01*
X145465607Y-113249839D01*
X145456313Y-113237825D01*
X145415912Y-113209536D01*
X145406416Y-113204053D01*
X145216887Y-113115674D01*
X145206595Y-113111928D01*
X145004599Y-113057804D01*
X144993804Y-113055901D01*
X144785475Y-113037674D01*
X144774525Y-113037674D01*
X144566196Y-113055901D01*
X144555401Y-113057804D01*
X144353405Y-113111928D01*
X144343113Y-113115674D01*
X144153583Y-113204054D01*
X144144093Y-113209534D01*
X144102851Y-113238411D01*
X144094477Y-113248887D01*
X142932982Y-113248887D01*
X142871654Y-113205944D01*
X142672076Y-113112880D01*
X142459371Y-113055885D01*
X142240000Y-113036693D01*
X142020629Y-113055885D01*
X141807924Y-113112880D01*
X141769750Y-113130681D01*
X141613334Y-113203618D01*
X141613329Y-113203621D01*
X141608347Y-113205944D01*
X141603840Y-113209100D01*
X141603838Y-113209101D01*
X141432473Y-113329092D01*
X141432470Y-113329094D01*
X141427962Y-113332251D01*
X141272251Y-113487962D01*
X141269094Y-113492470D01*
X141269092Y-113492473D01*
X141183723Y-113614393D01*
X141145944Y-113668347D01*
X141143621Y-113673329D01*
X141143618Y-113673334D01*
X141096415Y-113774562D01*
X141052880Y-113867924D01*
X140995885Y-114080629D01*
X140976693Y-114300000D01*
X125990905Y-114300000D01*
X122307905Y-110617000D01*
X140976693Y-110617000D01*
X140995885Y-110836371D01*
X141052880Y-111049076D01*
X141083919Y-111115640D01*
X141143618Y-111243666D01*
X141143621Y-111243671D01*
X141145944Y-111248653D01*
X141149100Y-111253160D01*
X141149101Y-111253162D01*
X141254487Y-111403668D01*
X141272251Y-111429038D01*
X141427962Y-111584749D01*
X141608346Y-111711056D01*
X141807924Y-111804120D01*
X142020629Y-111861115D01*
X142240000Y-111880307D01*
X142459371Y-111861115D01*
X142672076Y-111804120D01*
X142871654Y-111711056D01*
X142934342Y-111667161D01*
X144094393Y-111667161D01*
X144103687Y-111679175D01*
X144144088Y-111707464D01*
X144153584Y-111712947D01*
X144343113Y-111801326D01*
X144353405Y-111805072D01*
X144555401Y-111859196D01*
X144566196Y-111861099D01*
X144774525Y-111879326D01*
X144785475Y-111879326D01*
X144993804Y-111861099D01*
X145004599Y-111859196D01*
X145206595Y-111805072D01*
X145216887Y-111801326D01*
X145406416Y-111712947D01*
X145415912Y-111707464D01*
X145457148Y-111678590D01*
X145465523Y-111668112D01*
X145458457Y-111654668D01*
X144792811Y-110989021D01*
X144778868Y-110981408D01*
X144777034Y-110981539D01*
X144770420Y-110985790D01*
X144100820Y-111655391D01*
X144094393Y-111667161D01*
X142934342Y-111667161D01*
X143052038Y-111584749D01*
X143207749Y-111429038D01*
X143225514Y-111403668D01*
X143330899Y-111253162D01*
X143330900Y-111253160D01*
X143334056Y-111248653D01*
X143336379Y-111243671D01*
X143336382Y-111243666D01*
X143396081Y-111115640D01*
X143442998Y-111062355D01*
X143511276Y-111042894D01*
X143579236Y-111063436D01*
X143624471Y-111115640D01*
X143684054Y-111243417D01*
X143689534Y-111252907D01*
X143718411Y-111294149D01*
X143728887Y-111302523D01*
X143742334Y-111295455D01*
X144407979Y-110629811D01*
X144415592Y-110615868D01*
X144415461Y-110614034D01*
X144411210Y-110607420D01*
X143741609Y-109937820D01*
X143729839Y-109931393D01*
X143717824Y-109940689D01*
X143689534Y-109981093D01*
X143684054Y-109990583D01*
X143624471Y-110118360D01*
X143577554Y-110171645D01*
X143509276Y-110191106D01*
X143441316Y-110170564D01*
X143396081Y-110118360D01*
X143336382Y-109990334D01*
X143336379Y-109990329D01*
X143334056Y-109985347D01*
X143300777Y-109937820D01*
X143210908Y-109809473D01*
X143210906Y-109809470D01*
X143207749Y-109804962D01*
X143052038Y-109649251D01*
X142932983Y-109565887D01*
X144094477Y-109565887D01*
X144101545Y-109579334D01*
X144767189Y-110244979D01*
X144781132Y-110252592D01*
X144782966Y-110252461D01*
X144789580Y-110248210D01*
X145459180Y-109578609D01*
X145465607Y-109566839D01*
X145456313Y-109554825D01*
X145415912Y-109526536D01*
X145406416Y-109521053D01*
X145216887Y-109432674D01*
X145206595Y-109428928D01*
X145004599Y-109374804D01*
X144993804Y-109372901D01*
X144785475Y-109354674D01*
X144774525Y-109354674D01*
X144566196Y-109372901D01*
X144555401Y-109374804D01*
X144353405Y-109428928D01*
X144343113Y-109432674D01*
X144153583Y-109521054D01*
X144144093Y-109526534D01*
X144102851Y-109555411D01*
X144094477Y-109565887D01*
X142932983Y-109565887D01*
X142871654Y-109522944D01*
X142672076Y-109429880D01*
X142459371Y-109372885D01*
X142240000Y-109353693D01*
X142020629Y-109372885D01*
X141807924Y-109429880D01*
X141714562Y-109473415D01*
X141613334Y-109520618D01*
X141613329Y-109520621D01*
X141608347Y-109522944D01*
X141603840Y-109526100D01*
X141603838Y-109526101D01*
X141432473Y-109646092D01*
X141432470Y-109646094D01*
X141427962Y-109649251D01*
X141272251Y-109804962D01*
X141269094Y-109809470D01*
X141269092Y-109809473D01*
X141179223Y-109937820D01*
X141145944Y-109985347D01*
X141143621Y-109990329D01*
X141143618Y-109990334D01*
X141100926Y-110081889D01*
X141052880Y-110184924D01*
X140995885Y-110397629D01*
X140976693Y-110617000D01*
X122307905Y-110617000D01*
X120567066Y-108876161D01*
X153746393Y-108876161D01*
X153755687Y-108888175D01*
X153796088Y-108916464D01*
X153805584Y-108921947D01*
X153933950Y-108981805D01*
X153987235Y-109028723D01*
X154006696Y-109097000D01*
X153986154Y-109164960D01*
X153933951Y-109210194D01*
X153805588Y-109270052D01*
X153796093Y-109275534D01*
X153754851Y-109304411D01*
X153746477Y-109314887D01*
X153753545Y-109328334D01*
X154419189Y-109993979D01*
X154433132Y-110001592D01*
X154434966Y-110001461D01*
X154441580Y-109997210D01*
X155111180Y-109327609D01*
X155117607Y-109315839D01*
X155108313Y-109303825D01*
X155067912Y-109275536D01*
X155058416Y-109270053D01*
X154930050Y-109210195D01*
X154876765Y-109163277D01*
X154857304Y-109095000D01*
X154877846Y-109027040D01*
X154930050Y-108981805D01*
X155058416Y-108921947D01*
X155067912Y-108916464D01*
X155109148Y-108887590D01*
X155117523Y-108877112D01*
X155110457Y-108863668D01*
X154444811Y-108198021D01*
X154430868Y-108190408D01*
X154429034Y-108190539D01*
X154422420Y-108194790D01*
X153752820Y-108864391D01*
X153746393Y-108876161D01*
X120567066Y-108876161D01*
X120144652Y-108453747D01*
X120137112Y-108445461D01*
X120133000Y-108438982D01*
X120083348Y-108392356D01*
X120080507Y-108389602D01*
X120060770Y-108369865D01*
X120057573Y-108367385D01*
X120048551Y-108359680D01*
X120022100Y-108334841D01*
X120016321Y-108329414D01*
X120009375Y-108325595D01*
X120009372Y-108325593D01*
X119998566Y-108319652D01*
X119982047Y-108308801D01*
X119981583Y-108308441D01*
X119966041Y-108296386D01*
X119958772Y-108293241D01*
X119958768Y-108293238D01*
X119925463Y-108278826D01*
X119914813Y-108273609D01*
X119876060Y-108252305D01*
X119856437Y-108247267D01*
X119837734Y-108240863D01*
X119826420Y-108235967D01*
X119826419Y-108235967D01*
X119819145Y-108232819D01*
X119811322Y-108231580D01*
X119811312Y-108231577D01*
X119775476Y-108225901D01*
X119763856Y-108223495D01*
X119728711Y-108214472D01*
X119728710Y-108214472D01*
X119721030Y-108212500D01*
X119700776Y-108212500D01*
X119681065Y-108210949D01*
X119668886Y-108209020D01*
X119661057Y-108207780D01*
X119653165Y-108208526D01*
X119617039Y-108211941D01*
X119605181Y-108212500D01*
X107330354Y-108212500D01*
X107262233Y-108192498D01*
X107227141Y-108158771D01*
X107142908Y-108038473D01*
X107142906Y-108038470D01*
X107139749Y-108033962D01*
X106984038Y-107878251D01*
X106917235Y-107831475D01*
X153169674Y-107831475D01*
X153187901Y-108039804D01*
X153189804Y-108050599D01*
X153243928Y-108252595D01*
X153247674Y-108262887D01*
X153336054Y-108452417D01*
X153341534Y-108461907D01*
X153370411Y-108503149D01*
X153380887Y-108511523D01*
X153394334Y-108504455D01*
X154059979Y-107838811D01*
X154066356Y-107827132D01*
X154796408Y-107827132D01*
X154796539Y-107828966D01*
X154800790Y-107835580D01*
X155470391Y-108505180D01*
X155482161Y-108511607D01*
X155494176Y-108502311D01*
X155522466Y-108461907D01*
X155527946Y-108452417D01*
X155616326Y-108262887D01*
X155620072Y-108252595D01*
X155674196Y-108050599D01*
X155676099Y-108039804D01*
X155694326Y-107831475D01*
X155694326Y-107820525D01*
X155676099Y-107612196D01*
X155674196Y-107601401D01*
X155620072Y-107399405D01*
X155616326Y-107389113D01*
X155527946Y-107199583D01*
X155522466Y-107190093D01*
X155493589Y-107148851D01*
X155483113Y-107140477D01*
X155469666Y-107147545D01*
X154804021Y-107813189D01*
X154796408Y-107827132D01*
X154066356Y-107827132D01*
X154067592Y-107824868D01*
X154067461Y-107823034D01*
X154063210Y-107816420D01*
X153393609Y-107146820D01*
X153381839Y-107140393D01*
X153369824Y-107149689D01*
X153341534Y-107190093D01*
X153336054Y-107199583D01*
X153247674Y-107389113D01*
X153243928Y-107399405D01*
X153189804Y-107601401D01*
X153187901Y-107612196D01*
X153169674Y-107820525D01*
X153169674Y-107831475D01*
X106917235Y-107831475D01*
X106803654Y-107751944D01*
X106798672Y-107749621D01*
X106798667Y-107749618D01*
X106671232Y-107690195D01*
X106617947Y-107643278D01*
X106598486Y-107575001D01*
X106619028Y-107507041D01*
X106671232Y-107461805D01*
X106798667Y-107402382D01*
X106798672Y-107402379D01*
X106803654Y-107400056D01*
X106984038Y-107273749D01*
X107139749Y-107118038D01*
X107180816Y-107059389D01*
X107262899Y-106942162D01*
X107262900Y-106942160D01*
X107266056Y-106937653D01*
X107268379Y-106932671D01*
X107268382Y-106932666D01*
X107345059Y-106768230D01*
X107359120Y-106738076D01*
X107416115Y-106525371D01*
X107435307Y-106306000D01*
X107416115Y-106086629D01*
X107359120Y-105873924D01*
X107283971Y-105712765D01*
X107268382Y-105679334D01*
X107268379Y-105679329D01*
X107266056Y-105674347D01*
X107139749Y-105493962D01*
X106984038Y-105338251D01*
X106803654Y-105211944D01*
X106798672Y-105209621D01*
X106798667Y-105209618D01*
X106671232Y-105150195D01*
X106617947Y-105103278D01*
X106598486Y-105035001D01*
X106619028Y-104967041D01*
X106671232Y-104921805D01*
X106798667Y-104862382D01*
X106798672Y-104862379D01*
X106803654Y-104860056D01*
X106984038Y-104733749D01*
X107139749Y-104578038D01*
X107266056Y-104397653D01*
X107268379Y-104392671D01*
X107268382Y-104392666D01*
X107356795Y-104203061D01*
X107359120Y-104198076D01*
X107416115Y-103985371D01*
X107435307Y-103766000D01*
X107416115Y-103546629D01*
X107359120Y-103333924D01*
X107315585Y-103240562D01*
X107268382Y-103139334D01*
X107268379Y-103139329D01*
X107266056Y-103134347D01*
X107262899Y-103129838D01*
X107142908Y-102958473D01*
X107142906Y-102958470D01*
X107139749Y-102953962D01*
X106984038Y-102798251D01*
X106909416Y-102746000D01*
X153118502Y-102746000D01*
X153138457Y-102974087D01*
X153139881Y-102979400D01*
X153139881Y-102979402D01*
X153180191Y-103129838D01*
X153197716Y-103195243D01*
X153200039Y-103200224D01*
X153200039Y-103200225D01*
X153292151Y-103397762D01*
X153292154Y-103397767D01*
X153294477Y-103402749D01*
X153425802Y-103590300D01*
X153587700Y-103752198D01*
X153592208Y-103755355D01*
X153592211Y-103755357D01*
X153599592Y-103760525D01*
X153775251Y-103883523D01*
X153780233Y-103885846D01*
X153780238Y-103885849D01*
X153873613Y-103929390D01*
X153926898Y-103976307D01*
X153946359Y-104044585D01*
X153925817Y-104112545D01*
X153873612Y-104157780D01*
X153805338Y-104189616D01*
X153805335Y-104189618D01*
X153800347Y-104191944D01*
X153795840Y-104195100D01*
X153795838Y-104195101D01*
X153624473Y-104315092D01*
X153624470Y-104315094D01*
X153619962Y-104318251D01*
X153464251Y-104473962D01*
X153337944Y-104654347D01*
X153335621Y-104659329D01*
X153335618Y-104659334D01*
X153300918Y-104733749D01*
X153244880Y-104853924D01*
X153187885Y-105066629D01*
X153168693Y-105286000D01*
X153187885Y-105505371D01*
X153244880Y-105718076D01*
X153247205Y-105723061D01*
X153335618Y-105912666D01*
X153335621Y-105912671D01*
X153337944Y-105917653D01*
X153341100Y-105922160D01*
X153341101Y-105922162D01*
X153401797Y-106008844D01*
X153464251Y-106098038D01*
X153619962Y-106253749D01*
X153800346Y-106380056D01*
X153805328Y-106382379D01*
X153805333Y-106382382D01*
X153933359Y-106442081D01*
X153986644Y-106488998D01*
X154006105Y-106557276D01*
X153985563Y-106625236D01*
X153933359Y-106670471D01*
X153805583Y-106730054D01*
X153796093Y-106735534D01*
X153754851Y-106764411D01*
X153746477Y-106774887D01*
X153753545Y-106788334D01*
X154419189Y-107453979D01*
X154433132Y-107461592D01*
X154434966Y-107461461D01*
X154441580Y-107457210D01*
X155111180Y-106787609D01*
X155117607Y-106775839D01*
X155108313Y-106763825D01*
X155067912Y-106735536D01*
X155058416Y-106730053D01*
X154930641Y-106670471D01*
X154877356Y-106623554D01*
X154857895Y-106555276D01*
X154878437Y-106487316D01*
X154930641Y-106442081D01*
X155058667Y-106382382D01*
X155058672Y-106382379D01*
X155063654Y-106380056D01*
X155244038Y-106253749D01*
X155399749Y-106098038D01*
X155462204Y-106008844D01*
X155522899Y-105922162D01*
X155522900Y-105922160D01*
X155526056Y-105917653D01*
X155528379Y-105912671D01*
X155528382Y-105912666D01*
X155616795Y-105723061D01*
X155619120Y-105718076D01*
X155676115Y-105505371D01*
X155695307Y-105286000D01*
X155676115Y-105066629D01*
X155619120Y-104853924D01*
X155563082Y-104733749D01*
X155528382Y-104659334D01*
X155528379Y-104659329D01*
X155526056Y-104654347D01*
X155399749Y-104473962D01*
X155244038Y-104318251D01*
X155063654Y-104191944D01*
X155058672Y-104189621D01*
X155058667Y-104189618D01*
X154990387Y-104157779D01*
X154937102Y-104110862D01*
X154917641Y-104042584D01*
X154938183Y-103974624D01*
X154990388Y-103929389D01*
X155083758Y-103885851D01*
X155083764Y-103885847D01*
X155088749Y-103883523D01*
X155264408Y-103760525D01*
X155271789Y-103755357D01*
X155271792Y-103755355D01*
X155276300Y-103752198D01*
X155438198Y-103590300D01*
X155569523Y-103402749D01*
X155571846Y-103397767D01*
X155571849Y-103397762D01*
X155663961Y-103200225D01*
X155663961Y-103200224D01*
X155666284Y-103195243D01*
X155683810Y-103129838D01*
X155724119Y-102979402D01*
X155724119Y-102979400D01*
X155725543Y-102974087D01*
X155745498Y-102746000D01*
X155725543Y-102517913D01*
X155717878Y-102489307D01*
X155667707Y-102302067D01*
X155667706Y-102302065D01*
X155666284Y-102296757D01*
X155616434Y-102189852D01*
X155571849Y-102094238D01*
X155571846Y-102094233D01*
X155569523Y-102089251D01*
X155438198Y-101901700D01*
X155276300Y-101739802D01*
X155271792Y-101736645D01*
X155271789Y-101736643D01*
X155166703Y-101663061D01*
X155088749Y-101608477D01*
X155083767Y-101606154D01*
X155083762Y-101606151D01*
X154886225Y-101514039D01*
X154886224Y-101514039D01*
X154881243Y-101511716D01*
X154875935Y-101510294D01*
X154875933Y-101510293D01*
X154665402Y-101453881D01*
X154665400Y-101453881D01*
X154660087Y-101452457D01*
X154432000Y-101432502D01*
X154203913Y-101452457D01*
X154198600Y-101453881D01*
X154198598Y-101453881D01*
X153988067Y-101510293D01*
X153988065Y-101510294D01*
X153982757Y-101511716D01*
X153977776Y-101514039D01*
X153977775Y-101514039D01*
X153780238Y-101606151D01*
X153780233Y-101606154D01*
X153775251Y-101608477D01*
X153697297Y-101663061D01*
X153592211Y-101736643D01*
X153592208Y-101736645D01*
X153587700Y-101739802D01*
X153425802Y-101901700D01*
X153294477Y-102089251D01*
X153292154Y-102094233D01*
X153292151Y-102094238D01*
X153247566Y-102189852D01*
X153197716Y-102296757D01*
X153196294Y-102302065D01*
X153196293Y-102302067D01*
X153146122Y-102489307D01*
X153138457Y-102517913D01*
X153118502Y-102746000D01*
X106909416Y-102746000D01*
X106803654Y-102671944D01*
X106798672Y-102669621D01*
X106798667Y-102669618D01*
X106671232Y-102610195D01*
X106617947Y-102563278D01*
X106598486Y-102495001D01*
X106619028Y-102427041D01*
X106671232Y-102381805D01*
X106798667Y-102322382D01*
X106798672Y-102322379D01*
X106803654Y-102320056D01*
X106984038Y-102193749D01*
X107139749Y-102038038D01*
X107227142Y-101913228D01*
X107282598Y-101868901D01*
X107330354Y-101859500D01*
X131295233Y-101859500D01*
X131306416Y-101860027D01*
X131313909Y-101861702D01*
X131321835Y-101861453D01*
X131321836Y-101861453D01*
X131381986Y-101859562D01*
X131385945Y-101859500D01*
X131413856Y-101859500D01*
X131417791Y-101859003D01*
X131417856Y-101858995D01*
X131429693Y-101858062D01*
X131461951Y-101857048D01*
X131465970Y-101856922D01*
X131473889Y-101856673D01*
X131493343Y-101851021D01*
X131512700Y-101847013D01*
X131524930Y-101845468D01*
X131524931Y-101845468D01*
X131532797Y-101844474D01*
X131540168Y-101841555D01*
X131540170Y-101841555D01*
X131573912Y-101828196D01*
X131585142Y-101824351D01*
X131619983Y-101814229D01*
X131619984Y-101814229D01*
X131627593Y-101812018D01*
X131634412Y-101807985D01*
X131634417Y-101807983D01*
X131645028Y-101801707D01*
X131662776Y-101793012D01*
X131681617Y-101785552D01*
X131717387Y-101759564D01*
X131727307Y-101753048D01*
X131758535Y-101734580D01*
X131758538Y-101734578D01*
X131765362Y-101730542D01*
X131779683Y-101716221D01*
X131794717Y-101703380D01*
X131804694Y-101696131D01*
X131811107Y-101691472D01*
X131839298Y-101657395D01*
X131847288Y-101648616D01*
X132782743Y-100713161D01*
X134791393Y-100713161D01*
X134800687Y-100725175D01*
X134841088Y-100753464D01*
X134850584Y-100758947D01*
X135040113Y-100847326D01*
X135050405Y-100851072D01*
X135252401Y-100905196D01*
X135263196Y-100907099D01*
X135471525Y-100925326D01*
X135482475Y-100925326D01*
X135690804Y-100907099D01*
X135701599Y-100905196D01*
X135903595Y-100851072D01*
X135913887Y-100847326D01*
X136103416Y-100758947D01*
X136112912Y-100753464D01*
X136154148Y-100724590D01*
X136162523Y-100714112D01*
X136155457Y-100700668D01*
X135489811Y-100035021D01*
X135475868Y-100027408D01*
X135474034Y-100027539D01*
X135467420Y-100031790D01*
X134797820Y-100701391D01*
X134791393Y-100713161D01*
X132782743Y-100713161D01*
X134005964Y-99489940D01*
X134068276Y-99455914D01*
X134139091Y-99460979D01*
X134195927Y-99503526D01*
X134220738Y-99570046D01*
X134220580Y-99590016D01*
X134214674Y-99657524D01*
X134214674Y-99668475D01*
X134232901Y-99876804D01*
X134234804Y-99887599D01*
X134288928Y-100089595D01*
X134292674Y-100099887D01*
X134381054Y-100289417D01*
X134386534Y-100298907D01*
X134415411Y-100340149D01*
X134425886Y-100348523D01*
X134439335Y-100341454D01*
X135116658Y-99664132D01*
X135841408Y-99664132D01*
X135841539Y-99665966D01*
X135845790Y-99672580D01*
X136515391Y-100342180D01*
X136527161Y-100348607D01*
X136539176Y-100339311D01*
X136567466Y-100298907D01*
X136572946Y-100289417D01*
X136661326Y-100099887D01*
X136665072Y-100089595D01*
X136719196Y-99887599D01*
X136721099Y-99876804D01*
X136725894Y-99822000D01*
X153168693Y-99822000D01*
X153187885Y-100041371D01*
X153244880Y-100254076D01*
X153284626Y-100339311D01*
X153335618Y-100448666D01*
X153335621Y-100448671D01*
X153337944Y-100453653D01*
X153341100Y-100458160D01*
X153341101Y-100458162D01*
X153435166Y-100592500D01*
X153464251Y-100634038D01*
X153619962Y-100789749D01*
X153800346Y-100916056D01*
X153999924Y-101009120D01*
X154212629Y-101066115D01*
X154432000Y-101085307D01*
X154651371Y-101066115D01*
X154864076Y-101009120D01*
X155063654Y-100916056D01*
X155244038Y-100789749D01*
X155399749Y-100634038D01*
X155428835Y-100592500D01*
X155522899Y-100458162D01*
X155522900Y-100458160D01*
X155526056Y-100453653D01*
X155528379Y-100448671D01*
X155528382Y-100448666D01*
X155579374Y-100339311D01*
X155619120Y-100254076D01*
X155676115Y-100041371D01*
X155695307Y-99822000D01*
X155676115Y-99602629D01*
X155619120Y-99389924D01*
X155547454Y-99236235D01*
X155528382Y-99195334D01*
X155528379Y-99195329D01*
X155526056Y-99190347D01*
X155478942Y-99123061D01*
X155402908Y-99014473D01*
X155402906Y-99014470D01*
X155399749Y-99009962D01*
X155244038Y-98854251D01*
X155233776Y-98847065D01*
X155164759Y-98798739D01*
X155063654Y-98727944D01*
X154864076Y-98634880D01*
X154651371Y-98577885D01*
X154432000Y-98558693D01*
X154212629Y-98577885D01*
X153999924Y-98634880D01*
X153906562Y-98678415D01*
X153805334Y-98725618D01*
X153805329Y-98725621D01*
X153800347Y-98727944D01*
X153795840Y-98731100D01*
X153795838Y-98731101D01*
X153624473Y-98851092D01*
X153624470Y-98851094D01*
X153619962Y-98854251D01*
X153464251Y-99009962D01*
X153461094Y-99014470D01*
X153461092Y-99014473D01*
X153385058Y-99123061D01*
X153337944Y-99190347D01*
X153335621Y-99195329D01*
X153335618Y-99195334D01*
X153316546Y-99236235D01*
X153244880Y-99389924D01*
X153187885Y-99602629D01*
X153168693Y-99822000D01*
X136725894Y-99822000D01*
X136739326Y-99668475D01*
X136739326Y-99657525D01*
X136721099Y-99449196D01*
X136719196Y-99438401D01*
X136665072Y-99236405D01*
X136661326Y-99226113D01*
X136572946Y-99036583D01*
X136567466Y-99027093D01*
X136538589Y-98985851D01*
X136528113Y-98977477D01*
X136514666Y-98984545D01*
X135849021Y-99650189D01*
X135841408Y-99664132D01*
X135116658Y-99664132D01*
X135477000Y-99303790D01*
X136156178Y-98624611D01*
X136162606Y-98612839D01*
X136153310Y-98600824D01*
X136112912Y-98572536D01*
X136103416Y-98567053D01*
X135975641Y-98507471D01*
X135922356Y-98460554D01*
X135902895Y-98392276D01*
X135923437Y-98324316D01*
X135975641Y-98279081D01*
X136103667Y-98219382D01*
X136103672Y-98219379D01*
X136108654Y-98217056D01*
X136289038Y-98090749D01*
X136444749Y-97935038D01*
X136484357Y-97878473D01*
X136567899Y-97759162D01*
X136567900Y-97759160D01*
X136571056Y-97754653D01*
X136573379Y-97749671D01*
X136573382Y-97749666D01*
X136661795Y-97560061D01*
X136664120Y-97555076D01*
X136721115Y-97342371D01*
X136740307Y-97123000D01*
X136721115Y-96903629D01*
X136664120Y-96690924D01*
X136609022Y-96572765D01*
X136573382Y-96496334D01*
X136573379Y-96496329D01*
X136571056Y-96491347D01*
X136444749Y-96310962D01*
X136289038Y-96155251D01*
X136283646Y-96151475D01*
X136209759Y-96099739D01*
X136108654Y-96028944D01*
X136103672Y-96026621D01*
X136103667Y-96026618D01*
X135976232Y-95967195D01*
X135922947Y-95920278D01*
X135903486Y-95852001D01*
X135924028Y-95784041D01*
X135976232Y-95738805D01*
X136103667Y-95679382D01*
X136103672Y-95679379D01*
X136108654Y-95677056D01*
X136289038Y-95550749D01*
X136444749Y-95395038D01*
X136484357Y-95338473D01*
X136567899Y-95219162D01*
X136567900Y-95219160D01*
X136571056Y-95214653D01*
X136573379Y-95209671D01*
X136573382Y-95209666D01*
X136661795Y-95020061D01*
X136664120Y-95015076D01*
X136721115Y-94802371D01*
X136740307Y-94583000D01*
X136721115Y-94363629D01*
X136664120Y-94150924D01*
X136620585Y-94057562D01*
X136573382Y-93956334D01*
X136573379Y-93956329D01*
X136571056Y-93951347D01*
X136460665Y-93793692D01*
X136447908Y-93775473D01*
X136447906Y-93775470D01*
X136444749Y-93770962D01*
X136289038Y-93615251D01*
X136268916Y-93601161D01*
X139871393Y-93601161D01*
X139880687Y-93613175D01*
X139921088Y-93641464D01*
X139930584Y-93646947D01*
X140120113Y-93735326D01*
X140130405Y-93739072D01*
X140332401Y-93793196D01*
X140343196Y-93795099D01*
X140551525Y-93813326D01*
X140562475Y-93813326D01*
X140770804Y-93795099D01*
X140781599Y-93793196D01*
X140983595Y-93739072D01*
X140993887Y-93735326D01*
X141183416Y-93646947D01*
X141192912Y-93641464D01*
X141234148Y-93612590D01*
X141242523Y-93602112D01*
X141242023Y-93601161D01*
X142919393Y-93601161D01*
X142928687Y-93613175D01*
X142969088Y-93641464D01*
X142978584Y-93646947D01*
X143168113Y-93735326D01*
X143178405Y-93739072D01*
X143380401Y-93793196D01*
X143391196Y-93795099D01*
X143599525Y-93813326D01*
X143610475Y-93813326D01*
X143818804Y-93795099D01*
X143829599Y-93793196D01*
X144031595Y-93739072D01*
X144041887Y-93735326D01*
X144231416Y-93646947D01*
X144240912Y-93641464D01*
X144282148Y-93612590D01*
X144290523Y-93602112D01*
X144283457Y-93588668D01*
X143617811Y-92923021D01*
X143603868Y-92915408D01*
X143602034Y-92915539D01*
X143595420Y-92919790D01*
X142925820Y-93589391D01*
X142919393Y-93601161D01*
X141242023Y-93601161D01*
X141235457Y-93588668D01*
X140569811Y-92923021D01*
X140555868Y-92915408D01*
X140554034Y-92915539D01*
X140547420Y-92919790D01*
X139877820Y-93589391D01*
X139871393Y-93601161D01*
X136268916Y-93601161D01*
X136252107Y-93589391D01*
X136155731Y-93521908D01*
X136108654Y-93488944D01*
X136103672Y-93486621D01*
X136103667Y-93486618D01*
X135976232Y-93427195D01*
X135922947Y-93380278D01*
X135903486Y-93312001D01*
X135924028Y-93244041D01*
X135976232Y-93198805D01*
X136103667Y-93139382D01*
X136103672Y-93139379D01*
X136108654Y-93137056D01*
X136289038Y-93010749D01*
X136444749Y-92855038D01*
X136500316Y-92775681D01*
X136567899Y-92679162D01*
X136567900Y-92679160D01*
X136571056Y-92674653D01*
X136573379Y-92669671D01*
X136573382Y-92669666D01*
X136626163Y-92556475D01*
X139294674Y-92556475D01*
X139312901Y-92764804D01*
X139314804Y-92775599D01*
X139368928Y-92977595D01*
X139372674Y-92987887D01*
X139461054Y-93177417D01*
X139466534Y-93186907D01*
X139495411Y-93228149D01*
X139505887Y-93236523D01*
X139519334Y-93229455D01*
X140184979Y-92563811D01*
X140191356Y-92552132D01*
X140921408Y-92552132D01*
X140921539Y-92553966D01*
X140925790Y-92560580D01*
X141595391Y-93230180D01*
X141607161Y-93236607D01*
X141619176Y-93227311D01*
X141647466Y-93186907D01*
X141652946Y-93177417D01*
X141741326Y-92987887D01*
X141745072Y-92977595D01*
X141799196Y-92775599D01*
X141801099Y-92764804D01*
X141819326Y-92556475D01*
X142342674Y-92556475D01*
X142360901Y-92764804D01*
X142362804Y-92775599D01*
X142416928Y-92977595D01*
X142420674Y-92987887D01*
X142509054Y-93177417D01*
X142514534Y-93186907D01*
X142543411Y-93228149D01*
X142553887Y-93236523D01*
X142567334Y-93229455D01*
X143232979Y-92563811D01*
X143239356Y-92552132D01*
X143969408Y-92552132D01*
X143969539Y-92553966D01*
X143973790Y-92560580D01*
X144643391Y-93230180D01*
X144655161Y-93236607D01*
X144667176Y-93227311D01*
X144695466Y-93186907D01*
X144700946Y-93177417D01*
X144789326Y-92987887D01*
X144793072Y-92977595D01*
X144847196Y-92775599D01*
X144849099Y-92764804D01*
X144867326Y-92556475D01*
X144867326Y-92551000D01*
X149707693Y-92551000D01*
X149726885Y-92770371D01*
X149783880Y-92983076D01*
X149786205Y-92988061D01*
X149874618Y-93177666D01*
X149874621Y-93177671D01*
X149876944Y-93182653D01*
X149880100Y-93187160D01*
X149880101Y-93187162D01*
X149968914Y-93313999D01*
X150003251Y-93363038D01*
X150158962Y-93518749D01*
X150339346Y-93645056D01*
X150538924Y-93738120D01*
X150751629Y-93795115D01*
X150971000Y-93814307D01*
X151190371Y-93795115D01*
X151403076Y-93738120D01*
X151602654Y-93645056D01*
X151783038Y-93518749D01*
X151938749Y-93363038D01*
X151973087Y-93313999D01*
X152061899Y-93187162D01*
X152061900Y-93187160D01*
X152065056Y-93182653D01*
X152067379Y-93177671D01*
X152067382Y-93177666D01*
X152155795Y-92988061D01*
X152158120Y-92983076D01*
X152215115Y-92770371D01*
X152234307Y-92551000D01*
X152755693Y-92551000D01*
X152774885Y-92770371D01*
X152831880Y-92983076D01*
X152834205Y-92988061D01*
X152922618Y-93177666D01*
X152922621Y-93177671D01*
X152924944Y-93182653D01*
X152928100Y-93187160D01*
X152928101Y-93187162D01*
X153016914Y-93313999D01*
X153051251Y-93363038D01*
X153206962Y-93518749D01*
X153387346Y-93645056D01*
X153586924Y-93738120D01*
X153799629Y-93795115D01*
X154019000Y-93814307D01*
X154238371Y-93795115D01*
X154451076Y-93738120D01*
X154650654Y-93645056D01*
X154831038Y-93518749D01*
X154986749Y-93363038D01*
X155021087Y-93313999D01*
X155109899Y-93187162D01*
X155109900Y-93187160D01*
X155113056Y-93182653D01*
X155115379Y-93177671D01*
X155115382Y-93177666D01*
X155203795Y-92988061D01*
X155206120Y-92983076D01*
X155263115Y-92770371D01*
X155282307Y-92551000D01*
X155263115Y-92331629D01*
X155206120Y-92118924D01*
X155115498Y-91924583D01*
X155115382Y-91924334D01*
X155115379Y-91924329D01*
X155113056Y-91919347D01*
X155081786Y-91874689D01*
X154989908Y-91743473D01*
X154989906Y-91743470D01*
X154986749Y-91738962D01*
X154831038Y-91583251D01*
X154650654Y-91456944D01*
X154451076Y-91363880D01*
X154238371Y-91306885D01*
X154019000Y-91287693D01*
X153799629Y-91306885D01*
X153586924Y-91363880D01*
X153494800Y-91406838D01*
X153392334Y-91454618D01*
X153392329Y-91454621D01*
X153387347Y-91456944D01*
X153382840Y-91460100D01*
X153382838Y-91460101D01*
X153211473Y-91580092D01*
X153211470Y-91580094D01*
X153206962Y-91583251D01*
X153051251Y-91738962D01*
X153048094Y-91743470D01*
X153048092Y-91743473D01*
X152956214Y-91874689D01*
X152924944Y-91919347D01*
X152922621Y-91924329D01*
X152922618Y-91924334D01*
X152922502Y-91924583D01*
X152831880Y-92118924D01*
X152774885Y-92331629D01*
X152755693Y-92551000D01*
X152234307Y-92551000D01*
X152215115Y-92331629D01*
X152158120Y-92118924D01*
X152067498Y-91924583D01*
X152067382Y-91924334D01*
X152067379Y-91924329D01*
X152065056Y-91919347D01*
X152033786Y-91874689D01*
X151941908Y-91743473D01*
X151941906Y-91743470D01*
X151938749Y-91738962D01*
X151783038Y-91583251D01*
X151602654Y-91456944D01*
X151403076Y-91363880D01*
X151190371Y-91306885D01*
X150971000Y-91287693D01*
X150751629Y-91306885D01*
X150538924Y-91363880D01*
X150446800Y-91406838D01*
X150344334Y-91454618D01*
X150344329Y-91454621D01*
X150339347Y-91456944D01*
X150334840Y-91460100D01*
X150334838Y-91460101D01*
X150163473Y-91580092D01*
X150163470Y-91580094D01*
X150158962Y-91583251D01*
X150003251Y-91738962D01*
X150000094Y-91743470D01*
X150000092Y-91743473D01*
X149908214Y-91874689D01*
X149876944Y-91919347D01*
X149874621Y-91924329D01*
X149874618Y-91924334D01*
X149874502Y-91924583D01*
X149783880Y-92118924D01*
X149726885Y-92331629D01*
X149707693Y-92551000D01*
X144867326Y-92551000D01*
X144867326Y-92545525D01*
X144849099Y-92337196D01*
X144847196Y-92326401D01*
X144793072Y-92124405D01*
X144789326Y-92114113D01*
X144700946Y-91924583D01*
X144695466Y-91915093D01*
X144666589Y-91873851D01*
X144656113Y-91865477D01*
X144642666Y-91872545D01*
X143977021Y-92538189D01*
X143969408Y-92552132D01*
X143239356Y-92552132D01*
X143240592Y-92549868D01*
X143240461Y-92548034D01*
X143236210Y-92541420D01*
X142566609Y-91871820D01*
X142554839Y-91865393D01*
X142542824Y-91874689D01*
X142514534Y-91915093D01*
X142509054Y-91924583D01*
X142420674Y-92114113D01*
X142416928Y-92124405D01*
X142362804Y-92326401D01*
X142360901Y-92337196D01*
X142342674Y-92545525D01*
X142342674Y-92556475D01*
X141819326Y-92556475D01*
X141819326Y-92545525D01*
X141801099Y-92337196D01*
X141799196Y-92326401D01*
X141745072Y-92124405D01*
X141741326Y-92114113D01*
X141652946Y-91924583D01*
X141647466Y-91915093D01*
X141618589Y-91873851D01*
X141608113Y-91865477D01*
X141594666Y-91872545D01*
X140929021Y-92538189D01*
X140921408Y-92552132D01*
X140191356Y-92552132D01*
X140192592Y-92549868D01*
X140192461Y-92548034D01*
X140188210Y-92541420D01*
X139518609Y-91871820D01*
X139506839Y-91865393D01*
X139494824Y-91874689D01*
X139466534Y-91915093D01*
X139461054Y-91924583D01*
X139372674Y-92114113D01*
X139368928Y-92124405D01*
X139314804Y-92326401D01*
X139312901Y-92337196D01*
X139294674Y-92545525D01*
X139294674Y-92556475D01*
X136626163Y-92556475D01*
X136661795Y-92480061D01*
X136664120Y-92475076D01*
X136721115Y-92262371D01*
X136740307Y-92043000D01*
X136721115Y-91823629D01*
X136664120Y-91610924D01*
X136612343Y-91499887D01*
X139871477Y-91499887D01*
X139878545Y-91513334D01*
X140544189Y-92178979D01*
X140558132Y-92186592D01*
X140559966Y-92186461D01*
X140566580Y-92182210D01*
X141236180Y-91512609D01*
X141242607Y-91500839D01*
X141241871Y-91499887D01*
X142919477Y-91499887D01*
X142926545Y-91513334D01*
X143592189Y-92178979D01*
X143606132Y-92186592D01*
X143607966Y-92186461D01*
X143614580Y-92182210D01*
X144284180Y-91512609D01*
X144290607Y-91500839D01*
X144281313Y-91488825D01*
X144240912Y-91460536D01*
X144231416Y-91455053D01*
X144041887Y-91366674D01*
X144031595Y-91362928D01*
X143829599Y-91308804D01*
X143818804Y-91306901D01*
X143610475Y-91288674D01*
X143599525Y-91288674D01*
X143391196Y-91306901D01*
X143380401Y-91308804D01*
X143178405Y-91362928D01*
X143168113Y-91366674D01*
X142978583Y-91455054D01*
X142969093Y-91460534D01*
X142927851Y-91489411D01*
X142919477Y-91499887D01*
X141241871Y-91499887D01*
X141233313Y-91488825D01*
X141192912Y-91460536D01*
X141183416Y-91455053D01*
X140993887Y-91366674D01*
X140983595Y-91362928D01*
X140781599Y-91308804D01*
X140770804Y-91306901D01*
X140562475Y-91288674D01*
X140551525Y-91288674D01*
X140343196Y-91306901D01*
X140332401Y-91308804D01*
X140130405Y-91362928D01*
X140120113Y-91366674D01*
X139930583Y-91455054D01*
X139921093Y-91460534D01*
X139879851Y-91489411D01*
X139871477Y-91499887D01*
X136612343Y-91499887D01*
X136607458Y-91489411D01*
X136573382Y-91416334D01*
X136573379Y-91416329D01*
X136571056Y-91411347D01*
X136567899Y-91406838D01*
X136447908Y-91235473D01*
X136447906Y-91235470D01*
X136444749Y-91230962D01*
X136289038Y-91075251D01*
X136108654Y-90948944D01*
X135909076Y-90855880D01*
X135696371Y-90798885D01*
X135477000Y-90779693D01*
X135257629Y-90798885D01*
X135044924Y-90855880D01*
X134951562Y-90899415D01*
X134850334Y-90946618D01*
X134850329Y-90946621D01*
X134845347Y-90948944D01*
X134840840Y-90952100D01*
X134840838Y-90952101D01*
X134669473Y-91072092D01*
X134669470Y-91072094D01*
X134664962Y-91075251D01*
X134509251Y-91230962D01*
X134506094Y-91235470D01*
X134506092Y-91235473D01*
X134386101Y-91406838D01*
X134382944Y-91411347D01*
X134380621Y-91416329D01*
X134380618Y-91416334D01*
X134346542Y-91489411D01*
X134289880Y-91610924D01*
X134232885Y-91823629D01*
X134213693Y-92043000D01*
X134219915Y-92114113D01*
X134220030Y-92115432D01*
X134206041Y-92185037D01*
X134156641Y-92236030D01*
X134087515Y-92252220D01*
X134020610Y-92228467D01*
X134005414Y-92215509D01*
X132116141Y-90326236D01*
X132108601Y-90317950D01*
X132104489Y-90311471D01*
X132054837Y-90264845D01*
X132051996Y-90262091D01*
X132032259Y-90242354D01*
X132029062Y-90239874D01*
X132020040Y-90232169D01*
X132015886Y-90228268D01*
X131987810Y-90201903D01*
X131980864Y-90198084D01*
X131980861Y-90198082D01*
X131970055Y-90192141D01*
X131953536Y-90181290D01*
X131953072Y-90180930D01*
X131937530Y-90168875D01*
X131930261Y-90165730D01*
X131930257Y-90165727D01*
X131896952Y-90151315D01*
X131886302Y-90146098D01*
X131847549Y-90124794D01*
X131827926Y-90119756D01*
X131809223Y-90113352D01*
X131797909Y-90108456D01*
X131797908Y-90108456D01*
X131790634Y-90105308D01*
X131782811Y-90104069D01*
X131782801Y-90104066D01*
X131746965Y-90098390D01*
X131735345Y-90095984D01*
X131700200Y-90086961D01*
X131700199Y-90086961D01*
X131692519Y-90084989D01*
X131672265Y-90084989D01*
X131652554Y-90083438D01*
X131640375Y-90081509D01*
X131632546Y-90080269D01*
X131603275Y-90083036D01*
X131588528Y-90084430D01*
X131576670Y-90084989D01*
X111678279Y-90084989D01*
X111667096Y-90084462D01*
X111659603Y-90082787D01*
X111651677Y-90083036D01*
X111651676Y-90083036D01*
X111591513Y-90084927D01*
X111587555Y-90084989D01*
X111559655Y-90084989D01*
X111555665Y-90085493D01*
X111543831Y-90086425D01*
X111499622Y-90087815D01*
X111492006Y-90090028D01*
X111492004Y-90090028D01*
X111480163Y-90093468D01*
X111460804Y-90097477D01*
X111459494Y-90097643D01*
X111440714Y-90100015D01*
X111433348Y-90102931D01*
X111433342Y-90102933D01*
X111399609Y-90116289D01*
X111388379Y-90120134D01*
X111372339Y-90124794D01*
X111345918Y-90132470D01*
X111339095Y-90136505D01*
X111328477Y-90142784D01*
X111310724Y-90151481D01*
X111303079Y-90154508D01*
X111291894Y-90158937D01*
X111278216Y-90168875D01*
X111256123Y-90184926D01*
X111246206Y-90191440D01*
X111208149Y-90213947D01*
X111193828Y-90228268D01*
X111178795Y-90241108D01*
X111162404Y-90253017D01*
X111153728Y-90263505D01*
X111134213Y-90287094D01*
X111126223Y-90295873D01*
X106544423Y-94877672D01*
X106482111Y-94911698D01*
X106422717Y-94910284D01*
X106396685Y-94903309D01*
X106396686Y-94903309D01*
X106391371Y-94901885D01*
X106172000Y-94882693D01*
X105952629Y-94901885D01*
X105739924Y-94958880D01*
X105646562Y-95002415D01*
X105545334Y-95049618D01*
X105545329Y-95049621D01*
X105540347Y-95051944D01*
X105535840Y-95055100D01*
X105535838Y-95055101D01*
X105364473Y-95175092D01*
X105364470Y-95175094D01*
X105359962Y-95178251D01*
X105204251Y-95333962D01*
X105201094Y-95338470D01*
X105201092Y-95338473D01*
X105161485Y-95395038D01*
X105077944Y-95514347D01*
X105075621Y-95519329D01*
X105075618Y-95519334D01*
X105059496Y-95553908D01*
X104984880Y-95713924D01*
X104927885Y-95926629D01*
X104908693Y-96146000D01*
X104927885Y-96365371D01*
X104984880Y-96578076D01*
X104987205Y-96583061D01*
X105075618Y-96772666D01*
X105075621Y-96772671D01*
X105077944Y-96777653D01*
X105204251Y-96958038D01*
X105359962Y-97113749D01*
X105364471Y-97116906D01*
X105364473Y-97116908D01*
X105439241Y-97169261D01*
X105540346Y-97240056D01*
X105545328Y-97242379D01*
X105545333Y-97242382D01*
X105672768Y-97301805D01*
X105726053Y-97348722D01*
X105745514Y-97416999D01*
X105724972Y-97484959D01*
X105672768Y-97530195D01*
X105545334Y-97589618D01*
X105545329Y-97589621D01*
X105540347Y-97591944D01*
X105535840Y-97595100D01*
X105535838Y-97595101D01*
X105364473Y-97715092D01*
X105364470Y-97715094D01*
X105359962Y-97718251D01*
X105204251Y-97873962D01*
X105201094Y-97878470D01*
X105201092Y-97878473D01*
X105161485Y-97935038D01*
X105077944Y-98054347D01*
X105075621Y-98059329D01*
X105075618Y-98059334D01*
X105059496Y-98093908D01*
X104984880Y-98253924D01*
X104927885Y-98466629D01*
X104908693Y-98686000D01*
X104927885Y-98905371D01*
X104984880Y-99118076D01*
X105020906Y-99195334D01*
X105075618Y-99312666D01*
X105075621Y-99312671D01*
X105077944Y-99317653D01*
X105081100Y-99322160D01*
X105081101Y-99322162D01*
X105198581Y-99489940D01*
X105204251Y-99498038D01*
X105359962Y-99653749D01*
X105364471Y-99656906D01*
X105364473Y-99656908D01*
X105386855Y-99672580D01*
X105540346Y-99780056D01*
X105545328Y-99782379D01*
X105545333Y-99782382D01*
X105672768Y-99841805D01*
X105726053Y-99888722D01*
X105745514Y-99956999D01*
X105724972Y-100024959D01*
X105672768Y-100070195D01*
X105545334Y-100129618D01*
X105545329Y-100129621D01*
X105540347Y-100131944D01*
X105535840Y-100135100D01*
X105535838Y-100135101D01*
X105364473Y-100255092D01*
X105364470Y-100255094D01*
X105359962Y-100258251D01*
X105204251Y-100413962D01*
X105201094Y-100418470D01*
X105201092Y-100418473D01*
X105081253Y-100589621D01*
X105077944Y-100594347D01*
X105075621Y-100599329D01*
X105075618Y-100599334D01*
X105028415Y-100700562D01*
X104984880Y-100793924D01*
X104927885Y-101006629D01*
X104908693Y-101226000D01*
X104927885Y-101445371D01*
X104984880Y-101658076D01*
X105016055Y-101724931D01*
X105075618Y-101852666D01*
X105075621Y-101852671D01*
X105077944Y-101857653D01*
X105081100Y-101862160D01*
X105081101Y-101862162D01*
X105116859Y-101913229D01*
X105204251Y-102038038D01*
X105359962Y-102193749D01*
X105540346Y-102320056D01*
X105545328Y-102322379D01*
X105545333Y-102322382D01*
X105672768Y-102381805D01*
X105726053Y-102428722D01*
X105745514Y-102496999D01*
X105724972Y-102564959D01*
X105672768Y-102610195D01*
X105545334Y-102669618D01*
X105545329Y-102669621D01*
X105540347Y-102671944D01*
X105535840Y-102675100D01*
X105535838Y-102675101D01*
X105364473Y-102795092D01*
X105364470Y-102795094D01*
X105359962Y-102798251D01*
X105204251Y-102953962D01*
X105201094Y-102958470D01*
X105201092Y-102958473D01*
X105081101Y-103129838D01*
X105077944Y-103134347D01*
X105075621Y-103139329D01*
X105075618Y-103139334D01*
X105028415Y-103240562D01*
X104984880Y-103333924D01*
X104927885Y-103546629D01*
X104908693Y-103766000D01*
X104927885Y-103985371D01*
X104984880Y-104198076D01*
X104987205Y-104203061D01*
X105075618Y-104392666D01*
X105075621Y-104392671D01*
X105077944Y-104397653D01*
X105204251Y-104578038D01*
X105359962Y-104733749D01*
X105540346Y-104860056D01*
X105545328Y-104862379D01*
X105545333Y-104862382D01*
X105672768Y-104921805D01*
X105726053Y-104968722D01*
X105745514Y-105036999D01*
X105724972Y-105104959D01*
X105672768Y-105150195D01*
X105545334Y-105209618D01*
X105545329Y-105209621D01*
X105540347Y-105211944D01*
X105535840Y-105215100D01*
X105535838Y-105215101D01*
X105364473Y-105335092D01*
X105364470Y-105335094D01*
X105359962Y-105338251D01*
X105204251Y-105493962D01*
X105077944Y-105674347D01*
X105075621Y-105679329D01*
X105075618Y-105679334D01*
X105060029Y-105712765D01*
X104984880Y-105873924D01*
X104983457Y-105879235D01*
X104983456Y-105879238D01*
X104963863Y-105952360D01*
X104931251Y-106008844D01*
X104255747Y-106684348D01*
X104247461Y-106691888D01*
X104240982Y-106696000D01*
X104235557Y-106701777D01*
X104194357Y-106745651D01*
X104191602Y-106748493D01*
X104171865Y-106768230D01*
X104169385Y-106771427D01*
X104161682Y-106780447D01*
X104131414Y-106812679D01*
X104127595Y-106819625D01*
X104127593Y-106819628D01*
X104121652Y-106830434D01*
X104110801Y-106846953D01*
X104098386Y-106862959D01*
X104095241Y-106870228D01*
X104095238Y-106870232D01*
X104080826Y-106903537D01*
X104075609Y-106914187D01*
X104054305Y-106952940D01*
X104052334Y-106960615D01*
X104052334Y-106960616D01*
X104049267Y-106972562D01*
X104042863Y-106991266D01*
X104034819Y-107009855D01*
X104033580Y-107017678D01*
X104033577Y-107017688D01*
X104027901Y-107053524D01*
X104025495Y-107065144D01*
X104014500Y-107107970D01*
X104014500Y-107128224D01*
X104012949Y-107147934D01*
X104009780Y-107167943D01*
X103505000Y-107167943D01*
X103505000Y-79470000D01*
X125387693Y-79470000D01*
X125406885Y-79689371D01*
X125463880Y-79902076D01*
X125466205Y-79907061D01*
X125554618Y-80096666D01*
X125554621Y-80096671D01*
X125556944Y-80101653D01*
X125683251Y-80282038D01*
X125838962Y-80437749D01*
X126019346Y-80564056D01*
X126218924Y-80657120D01*
X126431629Y-80714115D01*
X126651000Y-80733307D01*
X126870371Y-80714115D01*
X127083076Y-80657120D01*
X127282654Y-80564056D01*
X127463038Y-80437749D01*
X127618749Y-80282038D01*
X127745056Y-80101653D01*
X127747379Y-80096671D01*
X127747382Y-80096666D01*
X127835795Y-79907061D01*
X127838120Y-79902076D01*
X127895115Y-79689371D01*
X127914307Y-79470000D01*
X130086693Y-79470000D01*
X130105885Y-79689371D01*
X130162880Y-79902076D01*
X130165205Y-79907061D01*
X130253618Y-80096666D01*
X130253621Y-80096671D01*
X130255944Y-80101653D01*
X130382251Y-80282038D01*
X130537962Y-80437749D01*
X130718346Y-80564056D01*
X130917924Y-80657120D01*
X131130629Y-80714115D01*
X131350000Y-80733307D01*
X131569371Y-80714115D01*
X131782076Y-80657120D01*
X131981654Y-80564056D01*
X132162038Y-80437749D01*
X132317749Y-80282038D01*
X132444056Y-80101653D01*
X132446379Y-80096671D01*
X132446382Y-80096666D01*
X132534795Y-79907061D01*
X132537120Y-79902076D01*
X132594115Y-79689371D01*
X132613307Y-79470000D01*
X134785693Y-79470000D01*
X134804885Y-79689371D01*
X134861880Y-79902076D01*
X134864205Y-79907061D01*
X134952618Y-80096666D01*
X134952621Y-80096671D01*
X134954944Y-80101653D01*
X135081251Y-80282038D01*
X135236962Y-80437749D01*
X135417346Y-80564056D01*
X135616924Y-80657120D01*
X135829629Y-80714115D01*
X136049000Y-80733307D01*
X136268371Y-80714115D01*
X136481076Y-80657120D01*
X136680654Y-80564056D01*
X136861038Y-80437749D01*
X137016749Y-80282038D01*
X137143056Y-80101653D01*
X137145379Y-80096671D01*
X137145382Y-80096666D01*
X137233795Y-79907061D01*
X137236120Y-79902076D01*
X137293115Y-79689371D01*
X137312307Y-79470000D01*
X137293115Y-79250629D01*
X137236120Y-79037924D01*
X137192585Y-78944562D01*
X137145382Y-78843334D01*
X137145379Y-78843329D01*
X137143056Y-78838347D01*
X137016749Y-78657962D01*
X136861038Y-78502251D01*
X136680654Y-78375944D01*
X136481076Y-78282880D01*
X136268371Y-78225885D01*
X136049000Y-78206693D01*
X135829629Y-78225885D01*
X135616924Y-78282880D01*
X135523562Y-78326415D01*
X135422334Y-78373618D01*
X135422329Y-78373621D01*
X135417347Y-78375944D01*
X135412840Y-78379100D01*
X135412838Y-78379101D01*
X135241473Y-78499092D01*
X135241470Y-78499094D01*
X135236962Y-78502251D01*
X135081251Y-78657962D01*
X134954944Y-78838347D01*
X134952621Y-78843329D01*
X134952618Y-78843334D01*
X134905415Y-78944562D01*
X134861880Y-79037924D01*
X134804885Y-79250629D01*
X134785693Y-79470000D01*
X132613307Y-79470000D01*
X132594115Y-79250629D01*
X132537120Y-79037924D01*
X132493585Y-78944562D01*
X132446382Y-78843334D01*
X132446379Y-78843329D01*
X132444056Y-78838347D01*
X132317749Y-78657962D01*
X132162038Y-78502251D01*
X131981654Y-78375944D01*
X131782076Y-78282880D01*
X131569371Y-78225885D01*
X131350000Y-78206693D01*
X131130629Y-78225885D01*
X130917924Y-78282880D01*
X130824562Y-78326415D01*
X130723334Y-78373618D01*
X130723329Y-78373621D01*
X130718347Y-78375944D01*
X130713840Y-78379100D01*
X130713838Y-78379101D01*
X130542473Y-78499092D01*
X130542470Y-78499094D01*
X130537962Y-78502251D01*
X130382251Y-78657962D01*
X130255944Y-78838347D01*
X130253621Y-78843329D01*
X130253618Y-78843334D01*
X130206415Y-78944562D01*
X130162880Y-79037924D01*
X130105885Y-79250629D01*
X130086693Y-79470000D01*
X127914307Y-79470000D01*
X127895115Y-79250629D01*
X127838120Y-79037924D01*
X127794585Y-78944562D01*
X127747382Y-78843334D01*
X127747379Y-78843329D01*
X127745056Y-78838347D01*
X127618749Y-78657962D01*
X127463038Y-78502251D01*
X127282654Y-78375944D01*
X127083076Y-78282880D01*
X126870371Y-78225885D01*
X126651000Y-78206693D01*
X126431629Y-78225885D01*
X126218924Y-78282880D01*
X126125562Y-78326415D01*
X126024334Y-78373618D01*
X126024329Y-78373621D01*
X126019347Y-78375944D01*
X126014840Y-78379100D01*
X126014838Y-78379101D01*
X125843473Y-78499092D01*
X125843470Y-78499094D01*
X125838962Y-78502251D01*
X125683251Y-78657962D01*
X125556944Y-78838347D01*
X125554621Y-78843329D01*
X125554618Y-78843334D01*
X125507415Y-78944562D01*
X125463880Y-79037924D01*
X125406885Y-79250629D01*
X125387693Y-79470000D01*
X103505000Y-79470000D01*
X103505000Y-75558452D01*
X109346524Y-75558452D01*
X109348990Y-75567081D01*
X109348991Y-75567086D01*
X109354639Y-75586848D01*
X109358217Y-75603609D01*
X109361130Y-75623952D01*
X109361133Y-75623962D01*
X109362405Y-75632845D01*
X109373021Y-75656195D01*
X109379464Y-75673707D01*
X109386512Y-75698365D01*
X109402274Y-75723348D01*
X109410404Y-75738414D01*
X109422633Y-75765310D01*
X109439374Y-75784739D01*
X109450479Y-75799747D01*
X109464160Y-75821431D01*
X109470888Y-75827373D01*
X109486296Y-75840981D01*
X109498340Y-75853173D01*
X109517619Y-75875547D01*
X109525147Y-75880426D01*
X109525150Y-75880429D01*
X109539139Y-75889496D01*
X109554013Y-75900786D01*
X109573228Y-75917756D01*
X109581354Y-75921571D01*
X109581355Y-75921572D01*
X109587021Y-75924232D01*
X109599966Y-75930310D01*
X109614935Y-75938624D01*
X109639727Y-75954693D01*
X109656650Y-75959754D01*
X109664290Y-75962039D01*
X109681736Y-75968701D01*
X109704948Y-75979599D01*
X109734130Y-75984143D01*
X109750849Y-75987926D01*
X109770536Y-75993814D01*
X109770539Y-75993815D01*
X109779141Y-75996387D01*
X109788116Y-75996442D01*
X109788117Y-75996442D01*
X109794810Y-75996483D01*
X109813556Y-75996597D01*
X109814328Y-75996630D01*
X109815423Y-75996800D01*
X109846298Y-75996800D01*
X109847068Y-75996802D01*
X109920716Y-75997252D01*
X109920717Y-75997252D01*
X109924652Y-75997276D01*
X109925996Y-75996892D01*
X109927341Y-75996800D01*
X120819098Y-75996800D01*
X120819869Y-75996802D01*
X120897452Y-75997276D01*
X120906081Y-75994810D01*
X120906086Y-75994809D01*
X120925848Y-75989161D01*
X120942609Y-75985583D01*
X120962952Y-75982670D01*
X120962962Y-75982667D01*
X120971845Y-75981395D01*
X120995195Y-75970779D01*
X121012707Y-75964336D01*
X121028737Y-75959754D01*
X121037365Y-75957288D01*
X121062348Y-75941526D01*
X121077414Y-75933396D01*
X121104310Y-75921167D01*
X121123739Y-75904426D01*
X121138747Y-75893321D01*
X121152839Y-75884430D01*
X121160431Y-75879640D01*
X121179982Y-75857503D01*
X121192174Y-75845459D01*
X121207749Y-75832039D01*
X121207750Y-75832037D01*
X121214547Y-75826181D01*
X121219426Y-75818653D01*
X121219429Y-75818650D01*
X121228496Y-75804661D01*
X121239786Y-75789787D01*
X121250812Y-75777302D01*
X121256756Y-75770572D01*
X121269310Y-75743834D01*
X121277624Y-75728865D01*
X121293693Y-75704073D01*
X121301039Y-75679509D01*
X121307701Y-75662064D01*
X121314783Y-75646979D01*
X121318599Y-75638852D01*
X121323143Y-75609670D01*
X121326926Y-75592951D01*
X121332814Y-75573264D01*
X121332815Y-75573261D01*
X121335387Y-75564659D01*
X121335597Y-75530244D01*
X121335630Y-75529472D01*
X121335800Y-75528377D01*
X121335800Y-75497502D01*
X121335802Y-75496732D01*
X121336252Y-75423084D01*
X121336252Y-75423083D01*
X121336276Y-75419148D01*
X121335892Y-75417804D01*
X121335800Y-75416459D01*
X121335800Y-72483951D01*
X122303960Y-72483951D01*
X122322687Y-72721894D01*
X122323841Y-72726701D01*
X122323842Y-72726707D01*
X122332734Y-72763744D01*
X122378405Y-72953978D01*
X122380298Y-72958549D01*
X122380299Y-72958551D01*
X122388300Y-72977866D01*
X122469743Y-73174489D01*
X122594453Y-73377996D01*
X122749462Y-73559489D01*
X122930955Y-73714498D01*
X123134462Y-73839208D01*
X123139032Y-73841101D01*
X123139034Y-73841102D01*
X123345673Y-73926694D01*
X123354973Y-73930546D01*
X123434922Y-73949740D01*
X123582244Y-73985109D01*
X123582250Y-73985110D01*
X123587057Y-73986264D01*
X123825000Y-74004991D01*
X124062943Y-73986264D01*
X124067750Y-73985110D01*
X124067756Y-73985109D01*
X124215078Y-73949740D01*
X124295027Y-73930546D01*
X124304327Y-73926694D01*
X124510966Y-73841102D01*
X124510968Y-73841101D01*
X124515538Y-73839208D01*
X124719045Y-73714498D01*
X124900538Y-73559489D01*
X125055547Y-73377996D01*
X125180257Y-73174489D01*
X125261701Y-72977866D01*
X125269701Y-72958551D01*
X125269702Y-72958549D01*
X125271595Y-72953978D01*
X125317266Y-72763744D01*
X125326158Y-72726707D01*
X125326159Y-72726701D01*
X125327313Y-72721894D01*
X125346040Y-72483951D01*
X125327313Y-72246008D01*
X125319436Y-72213194D01*
X125275336Y-72029506D01*
X125271595Y-72013924D01*
X125180257Y-71793413D01*
X125055547Y-71589906D01*
X124900538Y-71408413D01*
X124719045Y-71253404D01*
X124515538Y-71128694D01*
X124510968Y-71126801D01*
X124510966Y-71126800D01*
X124299600Y-71039250D01*
X124299598Y-71039249D01*
X124295027Y-71037356D01*
X124185404Y-71011038D01*
X124067756Y-70982793D01*
X124067750Y-70982792D01*
X124062943Y-70981638D01*
X123825000Y-70962911D01*
X123587057Y-70981638D01*
X123582250Y-70982792D01*
X123582244Y-70982793D01*
X123464596Y-71011038D01*
X123354973Y-71037356D01*
X123350402Y-71039249D01*
X123350400Y-71039250D01*
X123139034Y-71126800D01*
X123139032Y-71126801D01*
X123134462Y-71128694D01*
X122930955Y-71253404D01*
X122749462Y-71408413D01*
X122594453Y-71589906D01*
X122469743Y-71793413D01*
X122378405Y-72013924D01*
X122374664Y-72029506D01*
X122330565Y-72213194D01*
X122322687Y-72246008D01*
X122304441Y-72477838D01*
X122303960Y-72483951D01*
X121335800Y-72483951D01*
X121335800Y-69469000D01*
X125355693Y-69469000D01*
X125374885Y-69688371D01*
X125431880Y-69901076D01*
X125434205Y-69906061D01*
X125522618Y-70095666D01*
X125522621Y-70095671D01*
X125524944Y-70100653D01*
X125528100Y-70105160D01*
X125528101Y-70105162D01*
X125632174Y-70253793D01*
X125651251Y-70281038D01*
X125806962Y-70436749D01*
X125811471Y-70439906D01*
X125811473Y-70439908D01*
X125886241Y-70492261D01*
X125987346Y-70563056D01*
X126186924Y-70656120D01*
X126399629Y-70713115D01*
X126619000Y-70732307D01*
X126838371Y-70713115D01*
X127051076Y-70656120D01*
X127250654Y-70563056D01*
X127351759Y-70492261D01*
X127426527Y-70439908D01*
X127426529Y-70439906D01*
X127431038Y-70436749D01*
X127586749Y-70281038D01*
X127605827Y-70253793D01*
X127709899Y-70105162D01*
X127709900Y-70105160D01*
X127713056Y-70100653D01*
X127715379Y-70095671D01*
X127715382Y-70095666D01*
X127803795Y-69906061D01*
X127806120Y-69901076D01*
X127863115Y-69688371D01*
X127882307Y-69469000D01*
X127863115Y-69249629D01*
X127845262Y-69183000D01*
X130150193Y-69183000D01*
X130169385Y-69402371D01*
X130226380Y-69615076D01*
X130245813Y-69656750D01*
X130317118Y-69809666D01*
X130317121Y-69809671D01*
X130319444Y-69814653D01*
X130322600Y-69819160D01*
X130322601Y-69819162D01*
X130438797Y-69985106D01*
X130445751Y-69995038D01*
X130601462Y-70150749D01*
X130605971Y-70153906D01*
X130605973Y-70153908D01*
X130619152Y-70163136D01*
X130781846Y-70277056D01*
X130981424Y-70370120D01*
X131194129Y-70427115D01*
X131413500Y-70446307D01*
X131632871Y-70427115D01*
X131845576Y-70370120D01*
X132045154Y-70277056D01*
X132207848Y-70163136D01*
X132221027Y-70153908D01*
X132221029Y-70153906D01*
X132225538Y-70150749D01*
X132381249Y-69995038D01*
X132388204Y-69985106D01*
X132504399Y-69819162D01*
X132504400Y-69819160D01*
X132507556Y-69814653D01*
X132509879Y-69809671D01*
X132509882Y-69809666D01*
X132562685Y-69696429D01*
X132609602Y-69643144D01*
X132677880Y-69623683D01*
X132745840Y-69644225D01*
X132791074Y-69696428D01*
X132797419Y-69710035D01*
X132846686Y-69815689D01*
X132846689Y-69815694D01*
X132849012Y-69820676D01*
X132852168Y-69825183D01*
X132852169Y-69825185D01*
X132967943Y-69990527D01*
X132976523Y-70002781D01*
X133133719Y-70159977D01*
X133138227Y-70163134D01*
X133138230Y-70163136D01*
X133213995Y-70216187D01*
X133315823Y-70287488D01*
X133320805Y-70289811D01*
X133320810Y-70289814D01*
X133511310Y-70378645D01*
X133517304Y-70381440D01*
X133522612Y-70382862D01*
X133522614Y-70382863D01*
X133588449Y-70400503D01*
X133732037Y-70438978D01*
X133953500Y-70458353D01*
X134174963Y-70438978D01*
X134318551Y-70400503D01*
X134384386Y-70382863D01*
X134384388Y-70382862D01*
X134389696Y-70381440D01*
X134395690Y-70378645D01*
X134586190Y-70289814D01*
X134586195Y-70289811D01*
X134591177Y-70287488D01*
X134656459Y-70241777D01*
X135799277Y-70241777D01*
X135808574Y-70253793D01*
X135851569Y-70283898D01*
X135861055Y-70289376D01*
X136052493Y-70378645D01*
X136062785Y-70382391D01*
X136266809Y-70437059D01*
X136277604Y-70438962D01*
X136488025Y-70457372D01*
X136498975Y-70457372D01*
X136709396Y-70438962D01*
X136720191Y-70437059D01*
X136924215Y-70382391D01*
X136934507Y-70378645D01*
X137125945Y-70289376D01*
X137135431Y-70283898D01*
X137179264Y-70253207D01*
X137187639Y-70242729D01*
X137180571Y-70229281D01*
X137150290Y-70199000D01*
X139293693Y-70199000D01*
X139312885Y-70418371D01*
X139369880Y-70631076D01*
X139382222Y-70657543D01*
X139460618Y-70825666D01*
X139460621Y-70825671D01*
X139462944Y-70830653D01*
X139466100Y-70835160D01*
X139466101Y-70835162D01*
X139569474Y-70982793D01*
X139589251Y-71011038D01*
X139744962Y-71166749D01*
X139925346Y-71293056D01*
X140124924Y-71386120D01*
X140337629Y-71443115D01*
X140557000Y-71462307D01*
X140776371Y-71443115D01*
X140989076Y-71386120D01*
X141188654Y-71293056D01*
X141369038Y-71166749D01*
X141524749Y-71011038D01*
X141544527Y-70982793D01*
X141647899Y-70835162D01*
X141647900Y-70835160D01*
X141651056Y-70830653D01*
X141653379Y-70825671D01*
X141653382Y-70825666D01*
X141731778Y-70657543D01*
X141744120Y-70631076D01*
X141801115Y-70418371D01*
X141820307Y-70199000D01*
X152755693Y-70199000D01*
X152774885Y-70418371D01*
X152831880Y-70631076D01*
X152844222Y-70657543D01*
X152922618Y-70825666D01*
X152922621Y-70825671D01*
X152924944Y-70830653D01*
X152928100Y-70835160D01*
X152928101Y-70835162D01*
X153031474Y-70982793D01*
X153051251Y-71011038D01*
X153206962Y-71166749D01*
X153387346Y-71293056D01*
X153586924Y-71386120D01*
X153799629Y-71443115D01*
X154019000Y-71462307D01*
X154238371Y-71443115D01*
X154451076Y-71386120D01*
X154650654Y-71293056D01*
X154831038Y-71166749D01*
X154986749Y-71011038D01*
X155006527Y-70982793D01*
X155109899Y-70835162D01*
X155109900Y-70835160D01*
X155113056Y-70830653D01*
X155115379Y-70825671D01*
X155115382Y-70825666D01*
X155193778Y-70657543D01*
X155206120Y-70631076D01*
X155263115Y-70418371D01*
X155282307Y-70199000D01*
X155263115Y-69979629D01*
X155206120Y-69766924D01*
X155148401Y-69643144D01*
X155115382Y-69572334D01*
X155115379Y-69572329D01*
X155113056Y-69567347D01*
X155102163Y-69551790D01*
X154989908Y-69391473D01*
X154989906Y-69391470D01*
X154986749Y-69386962D01*
X154831038Y-69231251D01*
X154824181Y-69226449D01*
X154748447Y-69173420D01*
X154650654Y-69104944D01*
X154451076Y-69011880D01*
X154238371Y-68954885D01*
X154019000Y-68935693D01*
X153799629Y-68954885D01*
X153586924Y-69011880D01*
X153520393Y-69042904D01*
X153392334Y-69102618D01*
X153392329Y-69102621D01*
X153387347Y-69104944D01*
X153382840Y-69108100D01*
X153382838Y-69108101D01*
X153211473Y-69228092D01*
X153211470Y-69228094D01*
X153206962Y-69231251D01*
X153051251Y-69386962D01*
X153048094Y-69391470D01*
X153048092Y-69391473D01*
X152935837Y-69551790D01*
X152924944Y-69567347D01*
X152922621Y-69572329D01*
X152922618Y-69572334D01*
X152889599Y-69643144D01*
X152831880Y-69766924D01*
X152774885Y-69979629D01*
X152755693Y-70199000D01*
X141820307Y-70199000D01*
X141801115Y-69979629D01*
X141744120Y-69766924D01*
X141686401Y-69643144D01*
X141653382Y-69572334D01*
X141653379Y-69572329D01*
X141651056Y-69567347D01*
X141640163Y-69551790D01*
X141527908Y-69391473D01*
X141527906Y-69391470D01*
X141524749Y-69386962D01*
X141369038Y-69231251D01*
X141362181Y-69226449D01*
X141286447Y-69173420D01*
X141188654Y-69104944D01*
X140989076Y-69011880D01*
X140776371Y-68954885D01*
X140557000Y-68935693D01*
X140337629Y-68954885D01*
X140124924Y-69011880D01*
X140058393Y-69042904D01*
X139930334Y-69102618D01*
X139930329Y-69102621D01*
X139925347Y-69104944D01*
X139920840Y-69108100D01*
X139920838Y-69108101D01*
X139749473Y-69228092D01*
X139749470Y-69228094D01*
X139744962Y-69231251D01*
X139589251Y-69386962D01*
X139586094Y-69391470D01*
X139586092Y-69391473D01*
X139473837Y-69551790D01*
X139462944Y-69567347D01*
X139460621Y-69572329D01*
X139460618Y-69572334D01*
X139427599Y-69643144D01*
X139369880Y-69766924D01*
X139312885Y-69979629D01*
X139293693Y-70199000D01*
X137150290Y-70199000D01*
X136506312Y-69555022D01*
X136492368Y-69547408D01*
X136490535Y-69547539D01*
X136483920Y-69551790D01*
X135805707Y-70230003D01*
X135799277Y-70241777D01*
X134656459Y-70241777D01*
X134693005Y-70216187D01*
X134768770Y-70163136D01*
X134768773Y-70163134D01*
X134773281Y-70159977D01*
X134930477Y-70002781D01*
X134939058Y-69990527D01*
X135054831Y-69825185D01*
X135054832Y-69825183D01*
X135057988Y-69820676D01*
X135060311Y-69815694D01*
X135060314Y-69815689D01*
X135109581Y-69710035D01*
X135156499Y-69656750D01*
X135224776Y-69637289D01*
X135292736Y-69657831D01*
X135337971Y-69710035D01*
X135387123Y-69815441D01*
X135392603Y-69824932D01*
X135423294Y-69868765D01*
X135433771Y-69877140D01*
X135447218Y-69870072D01*
X136121478Y-69195812D01*
X136127856Y-69184132D01*
X136857908Y-69184132D01*
X136858039Y-69185965D01*
X136862290Y-69192580D01*
X137540503Y-69870793D01*
X137552277Y-69877223D01*
X137564293Y-69867926D01*
X137594397Y-69824932D01*
X137599877Y-69815441D01*
X137689145Y-69624007D01*
X137692891Y-69613715D01*
X137747559Y-69409691D01*
X137749462Y-69398896D01*
X137767872Y-69188475D01*
X137767872Y-69177525D01*
X137749462Y-68967104D01*
X137747559Y-68956309D01*
X137692891Y-68752285D01*
X137689145Y-68741993D01*
X137599877Y-68550559D01*
X137594397Y-68541068D01*
X137563706Y-68497235D01*
X137553229Y-68488860D01*
X137539782Y-68495928D01*
X136865522Y-69170188D01*
X136857908Y-69184132D01*
X136127856Y-69184132D01*
X136129092Y-69181868D01*
X136128961Y-69180035D01*
X136124710Y-69173420D01*
X135446497Y-68495207D01*
X135434723Y-68488777D01*
X135422707Y-68498074D01*
X135392603Y-68541068D01*
X135387123Y-68550559D01*
X135337971Y-68655965D01*
X135291053Y-68709250D01*
X135222776Y-68728711D01*
X135154816Y-68708169D01*
X135109581Y-68655965D01*
X135060314Y-68550311D01*
X135060311Y-68550306D01*
X135057988Y-68545324D01*
X135024916Y-68498092D01*
X134933636Y-68367730D01*
X134933634Y-68367727D01*
X134930477Y-68363219D01*
X134773281Y-68206023D01*
X134768773Y-68202866D01*
X134768770Y-68202864D01*
X134693005Y-68149813D01*
X134655099Y-68123271D01*
X135799360Y-68123271D01*
X135806428Y-68136718D01*
X136480688Y-68810978D01*
X136494632Y-68818592D01*
X136496465Y-68818461D01*
X136503080Y-68814210D01*
X137181293Y-68135997D01*
X137187723Y-68124223D01*
X137178426Y-68112207D01*
X137135431Y-68082102D01*
X137125945Y-68076624D01*
X136934507Y-67987355D01*
X136924215Y-67983609D01*
X136720191Y-67928941D01*
X136709396Y-67927038D01*
X136498975Y-67908628D01*
X136488025Y-67908628D01*
X136277604Y-67927038D01*
X136266809Y-67928941D01*
X136062785Y-67983609D01*
X136052493Y-67987355D01*
X135861059Y-68076623D01*
X135851568Y-68082103D01*
X135807735Y-68112794D01*
X135799360Y-68123271D01*
X134655099Y-68123271D01*
X134591177Y-68078512D01*
X134586195Y-68076189D01*
X134586190Y-68076186D01*
X134394678Y-67986883D01*
X134394677Y-67986882D01*
X134389696Y-67984560D01*
X134384388Y-67983138D01*
X134384386Y-67983137D01*
X134318551Y-67965497D01*
X134174963Y-67927022D01*
X133953500Y-67907647D01*
X133732037Y-67927022D01*
X133588449Y-67965497D01*
X133522614Y-67983137D01*
X133522612Y-67983138D01*
X133517304Y-67984560D01*
X133512323Y-67986882D01*
X133512322Y-67986883D01*
X133320811Y-68076186D01*
X133320806Y-68076189D01*
X133315824Y-68078512D01*
X133311317Y-68081668D01*
X133311315Y-68081669D01*
X133138230Y-68202864D01*
X133138227Y-68202866D01*
X133133719Y-68206023D01*
X132976523Y-68363219D01*
X132973366Y-68367727D01*
X132973364Y-68367730D01*
X132882084Y-68498092D01*
X132849012Y-68545324D01*
X132846689Y-68550306D01*
X132846686Y-68550311D01*
X132819345Y-68608945D01*
X132791074Y-68669572D01*
X132744158Y-68722856D01*
X132675881Y-68742317D01*
X132607921Y-68721775D01*
X132562685Y-68669571D01*
X132509882Y-68556334D01*
X132509879Y-68556329D01*
X132507556Y-68551347D01*
X132500359Y-68541068D01*
X132384408Y-68375473D01*
X132384406Y-68375470D01*
X132381249Y-68370962D01*
X132225538Y-68215251D01*
X132212360Y-68206023D01*
X132095537Y-68124223D01*
X132045154Y-68088944D01*
X131845576Y-67995880D01*
X131632871Y-67938885D01*
X131413500Y-67919693D01*
X131194129Y-67938885D01*
X130981424Y-67995880D01*
X130888062Y-68039415D01*
X130786834Y-68086618D01*
X130786829Y-68086621D01*
X130781847Y-68088944D01*
X130777340Y-68092100D01*
X130777338Y-68092101D01*
X130605973Y-68212092D01*
X130605970Y-68212094D01*
X130601462Y-68215251D01*
X130445751Y-68370962D01*
X130442594Y-68375470D01*
X130442592Y-68375473D01*
X130326641Y-68541068D01*
X130319444Y-68551347D01*
X130317121Y-68556329D01*
X130317118Y-68556334D01*
X130272012Y-68653065D01*
X130226380Y-68750924D01*
X130169385Y-68963629D01*
X130150193Y-69183000D01*
X127845262Y-69183000D01*
X127806120Y-69036924D01*
X127758650Y-68935124D01*
X127715382Y-68842334D01*
X127715379Y-68842329D01*
X127713056Y-68837347D01*
X127699832Y-68818461D01*
X127589908Y-68661473D01*
X127589906Y-68661470D01*
X127586749Y-68656962D01*
X127431038Y-68501251D01*
X127422407Y-68495207D01*
X127351759Y-68445739D01*
X127250654Y-68374944D01*
X127051076Y-68281880D01*
X126838371Y-68224885D01*
X126619000Y-68205693D01*
X126399629Y-68224885D01*
X126186924Y-68281880D01*
X126093562Y-68325415D01*
X125992334Y-68372618D01*
X125992329Y-68372621D01*
X125987347Y-68374944D01*
X125982840Y-68378100D01*
X125982838Y-68378101D01*
X125811473Y-68498092D01*
X125811470Y-68498094D01*
X125806962Y-68501251D01*
X125651251Y-68656962D01*
X125648094Y-68661470D01*
X125648092Y-68661473D01*
X125538168Y-68818461D01*
X125524944Y-68837347D01*
X125522621Y-68842329D01*
X125522618Y-68842334D01*
X125479350Y-68935124D01*
X125431880Y-69036924D01*
X125374885Y-69249629D01*
X125355693Y-69469000D01*
X121335800Y-69469000D01*
X121335800Y-69452302D01*
X121335802Y-69451532D01*
X121336074Y-69407011D01*
X121336276Y-69373948D01*
X121333810Y-69365319D01*
X121333809Y-69365314D01*
X121328161Y-69345552D01*
X121324583Y-69328791D01*
X121321670Y-69308448D01*
X121321667Y-69308438D01*
X121320395Y-69299555D01*
X121309779Y-69276205D01*
X121303336Y-69258693D01*
X121298754Y-69242663D01*
X121296288Y-69234035D01*
X121280526Y-69209052D01*
X121272396Y-69193986D01*
X121260167Y-69167090D01*
X121243426Y-69147661D01*
X121232321Y-69132653D01*
X121223430Y-69118561D01*
X121218640Y-69110969D01*
X121196503Y-69091418D01*
X121184459Y-69079226D01*
X121171039Y-69063651D01*
X121171037Y-69063650D01*
X121165181Y-69056853D01*
X121157653Y-69051974D01*
X121157650Y-69051971D01*
X121143661Y-69042904D01*
X121128787Y-69031614D01*
X121116302Y-69020588D01*
X121109572Y-69014644D01*
X121101446Y-69010829D01*
X121101445Y-69010828D01*
X121095779Y-69008168D01*
X121082834Y-69002090D01*
X121067865Y-68993776D01*
X121043073Y-68977707D01*
X121018509Y-68970361D01*
X121001064Y-68963699D01*
X120996459Y-68961537D01*
X120977852Y-68952801D01*
X120948670Y-68948257D01*
X120931951Y-68944474D01*
X120912264Y-68938586D01*
X120912261Y-68938585D01*
X120903659Y-68936013D01*
X120894684Y-68935958D01*
X120894683Y-68935958D01*
X120887990Y-68935917D01*
X120869244Y-68935803D01*
X120868472Y-68935770D01*
X120867377Y-68935600D01*
X120836502Y-68935600D01*
X120835732Y-68935598D01*
X120762084Y-68935148D01*
X120762083Y-68935148D01*
X120758148Y-68935124D01*
X120756804Y-68935508D01*
X120755459Y-68935600D01*
X109863702Y-68935600D01*
X109862932Y-68935598D01*
X109862078Y-68935593D01*
X109785348Y-68935124D01*
X109776719Y-68937590D01*
X109776714Y-68937591D01*
X109756952Y-68943239D01*
X109740191Y-68946817D01*
X109719848Y-68949730D01*
X109719838Y-68949733D01*
X109710955Y-68951005D01*
X109687605Y-68961621D01*
X109670093Y-68968064D01*
X109666448Y-68969106D01*
X109645435Y-68975112D01*
X109620452Y-68990874D01*
X109605386Y-68999004D01*
X109578490Y-69011233D01*
X109559061Y-69027974D01*
X109544053Y-69039079D01*
X109522369Y-69052760D01*
X109516427Y-69059488D01*
X109502819Y-69074896D01*
X109490627Y-69086940D01*
X109468253Y-69106219D01*
X109463374Y-69113747D01*
X109463371Y-69113750D01*
X109454304Y-69127739D01*
X109443014Y-69142613D01*
X109426044Y-69161828D01*
X109413490Y-69188566D01*
X109405176Y-69203535D01*
X109389107Y-69228327D01*
X109386535Y-69236927D01*
X109381761Y-69252890D01*
X109375099Y-69270336D01*
X109364201Y-69293548D01*
X109359658Y-69322728D01*
X109355874Y-69339449D01*
X109349986Y-69359136D01*
X109349985Y-69359139D01*
X109347413Y-69367741D01*
X109347296Y-69386962D01*
X109347203Y-69402146D01*
X109347170Y-69402928D01*
X109347000Y-69404023D01*
X109347000Y-69434898D01*
X109346998Y-69435668D01*
X109346524Y-69513252D01*
X109346908Y-69514596D01*
X109347000Y-69515941D01*
X109347000Y-75480098D01*
X109346998Y-75480868D01*
X109346524Y-75558452D01*
X103505000Y-75558452D01*
X103505000Y-72481388D01*
X105339330Y-72481388D01*
X105339718Y-72486318D01*
X105339718Y-72486321D01*
X105340287Y-72493550D01*
X105358025Y-72718929D01*
X105359179Y-72723736D01*
X105359180Y-72723742D01*
X105368784Y-72763744D01*
X105413649Y-72950621D01*
X105504833Y-73170759D01*
X105629332Y-73373922D01*
X105784080Y-73555108D01*
X105965266Y-73709856D01*
X106168429Y-73834355D01*
X106172999Y-73836248D01*
X106173003Y-73836250D01*
X106383994Y-73923645D01*
X106388567Y-73925539D01*
X106414234Y-73931701D01*
X106615446Y-73980008D01*
X106615452Y-73980009D01*
X106620259Y-73981163D01*
X106857800Y-73999858D01*
X107095341Y-73981163D01*
X107100148Y-73980009D01*
X107100154Y-73980008D01*
X107301366Y-73931701D01*
X107327033Y-73925539D01*
X107331606Y-73923645D01*
X107542597Y-73836250D01*
X107542601Y-73836248D01*
X107547171Y-73834355D01*
X107750334Y-73709856D01*
X107931520Y-73555108D01*
X108086268Y-73373922D01*
X108210767Y-73170759D01*
X108301951Y-72950621D01*
X108346816Y-72763744D01*
X108356420Y-72723742D01*
X108356421Y-72723736D01*
X108357575Y-72718929D01*
X108376270Y-72481388D01*
X108357575Y-72243847D01*
X108349269Y-72209247D01*
X108306174Y-72029744D01*
X108301951Y-72012155D01*
X108210767Y-71792017D01*
X108086268Y-71588854D01*
X107931520Y-71407668D01*
X107750334Y-71252920D01*
X107547171Y-71128421D01*
X107542601Y-71126528D01*
X107542597Y-71126526D01*
X107331606Y-71039131D01*
X107331604Y-71039130D01*
X107327033Y-71037237D01*
X107217906Y-71011038D01*
X107100154Y-70982768D01*
X107100148Y-70982767D01*
X107095341Y-70981613D01*
X106857800Y-70962918D01*
X106620259Y-70981613D01*
X106615452Y-70982767D01*
X106615446Y-70982768D01*
X106497694Y-71011038D01*
X106388567Y-71037237D01*
X106383996Y-71039130D01*
X106383994Y-71039131D01*
X106173003Y-71126526D01*
X106172999Y-71126528D01*
X106168429Y-71128421D01*
X105965266Y-71252920D01*
X105784080Y-71407668D01*
X105629332Y-71588854D01*
X105504833Y-71792017D01*
X105413649Y-72012155D01*
X105409426Y-72029744D01*
X105366332Y-72209247D01*
X105358025Y-72243847D01*
X105339809Y-72475307D01*
X105339330Y-72481388D01*
X103505000Y-72481388D01*
X103505000Y-66547000D01*
X103525002Y-66478879D01*
X103578658Y-66432386D01*
X103631000Y-66421000D01*
X158370000Y-66421000D01*
X158438121Y-66441002D01*
G37*
%TD.AperFunction*%
%TA.AperFunction,Conductor*%
G36*
X148978527Y-129558502D02*
G01*
X148999501Y-129575405D01*
X149609099Y-130185003D01*
X149643125Y-130247315D01*
X149638060Y-130318130D01*
X149595570Y-130374923D01*
X149559789Y-130401739D01*
X149472435Y-130518295D01*
X149469283Y-130526703D01*
X149424079Y-130647285D01*
X149421305Y-130654684D01*
X149421063Y-130656909D01*
X149387093Y-130716374D01*
X149324138Y-130749196D01*
X149253433Y-130742771D01*
X149203458Y-130706759D01*
X149200799Y-130702962D01*
X149045088Y-130547251D01*
X149030730Y-130537197D01*
X148887834Y-130437140D01*
X148864704Y-130420944D01*
X148665126Y-130327880D01*
X148452421Y-130270885D01*
X148233050Y-130251693D01*
X148013679Y-130270885D01*
X147800974Y-130327880D01*
X147731760Y-130360155D01*
X147606384Y-130418618D01*
X147606379Y-130418621D01*
X147601397Y-130420944D01*
X147596890Y-130424100D01*
X147596888Y-130424101D01*
X147425523Y-130544092D01*
X147425520Y-130544094D01*
X147421012Y-130547251D01*
X147265301Y-130702962D01*
X147262144Y-130707470D01*
X147262142Y-130707473D01*
X147166724Y-130843744D01*
X147138994Y-130883347D01*
X147136671Y-130888329D01*
X147136668Y-130888334D01*
X147089465Y-130989562D01*
X147045930Y-131082924D01*
X146988935Y-131295629D01*
X146969743Y-131515000D01*
X146988935Y-131734371D01*
X146990359Y-131739685D01*
X146997334Y-131765717D01*
X146995644Y-131836694D01*
X146964722Y-131887423D01*
X143416650Y-135435495D01*
X143354338Y-135469521D01*
X143327555Y-135472400D01*
X138228101Y-135472400D01*
X138159980Y-135452398D01*
X138127143Y-135421789D01*
X138054887Y-135325026D01*
X138054886Y-135325025D01*
X138051434Y-135320402D01*
X138022903Y-135294028D01*
X137897920Y-135178495D01*
X137897917Y-135178493D01*
X137893680Y-135174576D01*
X137711993Y-135059940D01*
X137512458Y-134980334D01*
X137506798Y-134979208D01*
X137506794Y-134979207D01*
X137307424Y-134939550D01*
X137307421Y-134939550D01*
X137301757Y-134938423D01*
X137295982Y-134938347D01*
X137295978Y-134938347D01*
X137188305Y-134936938D01*
X137086946Y-134935611D01*
X137081249Y-134936590D01*
X137081248Y-134936590D01*
X136880917Y-134971013D01*
X136875220Y-134971992D01*
X136673670Y-135046348D01*
X136489044Y-135156188D01*
X136484704Y-135159994D01*
X136484700Y-135159997D01*
X136352100Y-135276285D01*
X136327527Y-135297835D01*
X136323952Y-135302370D01*
X136323951Y-135302371D01*
X136297771Y-135335580D01*
X136194528Y-135466544D01*
X136191839Y-135471655D01*
X136191837Y-135471658D01*
X136172802Y-135507838D01*
X136094500Y-135656665D01*
X136030795Y-135861831D01*
X136030688Y-135862737D01*
X135997711Y-135923821D01*
X135935562Y-135958143D01*
X135864723Y-135953417D01*
X135807685Y-135911142D01*
X135786922Y-135869354D01*
X135783275Y-135856423D01*
X135734988Y-135685209D01*
X135723726Y-135662371D01*
X135642525Y-135497714D01*
X135639971Y-135492535D01*
X135520066Y-135331962D01*
X135514887Y-135325026D01*
X135514886Y-135325025D01*
X135511434Y-135320402D01*
X135482903Y-135294028D01*
X135357920Y-135178495D01*
X135357917Y-135178493D01*
X135353680Y-135174576D01*
X135171993Y-135059940D01*
X134972458Y-134980334D01*
X134966798Y-134979208D01*
X134966794Y-134979207D01*
X134767424Y-134939550D01*
X134767421Y-134939550D01*
X134761757Y-134938423D01*
X134755982Y-134938347D01*
X134755978Y-134938347D01*
X134648305Y-134936938D01*
X134546946Y-134935611D01*
X134541249Y-134936590D01*
X134541248Y-134936590D01*
X134340917Y-134971013D01*
X134335220Y-134971992D01*
X134133670Y-135046348D01*
X133949044Y-135156188D01*
X133944704Y-135159994D01*
X133944700Y-135159997D01*
X133812100Y-135276285D01*
X133787527Y-135297835D01*
X133783952Y-135302370D01*
X133783951Y-135302371D01*
X133757771Y-135335580D01*
X133654528Y-135466544D01*
X133651839Y-135471655D01*
X133651837Y-135471658D01*
X133632802Y-135507838D01*
X133554500Y-135656665D01*
X133490795Y-135861831D01*
X133490688Y-135862737D01*
X133457711Y-135923821D01*
X133395562Y-135958143D01*
X133324723Y-135953417D01*
X133267685Y-135911142D01*
X133246922Y-135869354D01*
X133243275Y-135856423D01*
X133194988Y-135685209D01*
X133183726Y-135662371D01*
X133102525Y-135497714D01*
X133099971Y-135492535D01*
X132980066Y-135331962D01*
X132974887Y-135325026D01*
X132974886Y-135325025D01*
X132971434Y-135320402D01*
X132942903Y-135294028D01*
X132817920Y-135178495D01*
X132817917Y-135178493D01*
X132813680Y-135174576D01*
X132631993Y-135059940D01*
X132432458Y-134980334D01*
X132426798Y-134979208D01*
X132426794Y-134979207D01*
X132227424Y-134939550D01*
X132227421Y-134939550D01*
X132221757Y-134938423D01*
X132215982Y-134938347D01*
X132215978Y-134938347D01*
X132108305Y-134936938D01*
X132006946Y-134935611D01*
X132001249Y-134936590D01*
X132001248Y-134936590D01*
X131800917Y-134971013D01*
X131795220Y-134971992D01*
X131593670Y-135046348D01*
X131409044Y-135156188D01*
X131404704Y-135159994D01*
X131404700Y-135159997D01*
X131272100Y-135276285D01*
X131247527Y-135297835D01*
X131243952Y-135302370D01*
X131243951Y-135302371D01*
X131217771Y-135335580D01*
X131114528Y-135466544D01*
X131111839Y-135471655D01*
X131111837Y-135471658D01*
X131092802Y-135507838D01*
X131014500Y-135656665D01*
X130950795Y-135861831D01*
X130950591Y-135863556D01*
X130917482Y-135924877D01*
X130855332Y-135959196D01*
X130784493Y-135954465D01*
X130727457Y-135912188D01*
X130706698Y-135870404D01*
X130656088Y-135690953D01*
X130651963Y-135680206D01*
X130562098Y-135497978D01*
X130557588Y-135490619D01*
X130547077Y-135482730D01*
X130534658Y-135489502D01*
X129648145Y-136376015D01*
X129585833Y-136410041D01*
X129515018Y-136404976D01*
X129469955Y-136376015D01*
X128582868Y-135488928D01*
X128570488Y-135482168D01*
X128564522Y-135486634D01*
X128477653Y-135651747D01*
X128473252Y-135662371D01*
X128412997Y-135856423D01*
X128411729Y-135862390D01*
X128377999Y-135924863D01*
X128315849Y-135959182D01*
X128245010Y-135954453D01*
X128187973Y-135912176D01*
X128167215Y-135870394D01*
X128114988Y-135685209D01*
X128103726Y-135662371D01*
X128022525Y-135497714D01*
X128019971Y-135492535D01*
X127900066Y-135331962D01*
X127894887Y-135325026D01*
X127894886Y-135325025D01*
X127891434Y-135320402D01*
X127862903Y-135294028D01*
X127737920Y-135178495D01*
X127737917Y-135178493D01*
X127733680Y-135174576D01*
X127647986Y-135120507D01*
X128937769Y-135120507D01*
X128941256Y-135128896D01*
X129546238Y-135733878D01*
X129560182Y-135741492D01*
X129562015Y-135741361D01*
X129568630Y-135737110D01*
X130173123Y-135132617D01*
X130179883Y-135120237D01*
X130173853Y-135112182D01*
X130096645Y-135063467D01*
X130086402Y-135058248D01*
X129897678Y-134982955D01*
X129886651Y-134979688D01*
X129687371Y-134940049D01*
X129675925Y-134938846D01*
X129472768Y-134936187D01*
X129461288Y-134937090D01*
X129261047Y-134971498D01*
X129249927Y-134974478D01*
X129059302Y-135044803D01*
X129048924Y-135049753D01*
X128947367Y-135110174D01*
X128937769Y-135120507D01*
X127647986Y-135120507D01*
X127551993Y-135059940D01*
X127352458Y-134980334D01*
X127346798Y-134979208D01*
X127346794Y-134979207D01*
X127147424Y-134939550D01*
X127147421Y-134939550D01*
X127141757Y-134938423D01*
X127135982Y-134938347D01*
X127135978Y-134938347D01*
X127028305Y-134936938D01*
X126926946Y-134935611D01*
X126921249Y-134936590D01*
X126921248Y-134936590D01*
X126720917Y-134971013D01*
X126715220Y-134971992D01*
X126513670Y-135046348D01*
X126329044Y-135156188D01*
X126324704Y-135159994D01*
X126324700Y-135159997D01*
X126192100Y-135276285D01*
X126167527Y-135297835D01*
X126163952Y-135302370D01*
X126163951Y-135302371D01*
X126137771Y-135335580D01*
X126034528Y-135466544D01*
X126031839Y-135471655D01*
X126031837Y-135471658D01*
X126012802Y-135507838D01*
X125934500Y-135656665D01*
X125870795Y-135861831D01*
X125870688Y-135862737D01*
X125837711Y-135923821D01*
X125775562Y-135958143D01*
X125704723Y-135953417D01*
X125647685Y-135911142D01*
X125626922Y-135869354D01*
X125623275Y-135856423D01*
X125574988Y-135685209D01*
X125563726Y-135662371D01*
X125482525Y-135497714D01*
X125479971Y-135492535D01*
X125360066Y-135331962D01*
X125354887Y-135325026D01*
X125354886Y-135325025D01*
X125351434Y-135320402D01*
X125322903Y-135294028D01*
X125197920Y-135178495D01*
X125197917Y-135178493D01*
X125193680Y-135174576D01*
X125011993Y-135059940D01*
X124812458Y-134980334D01*
X124806798Y-134979208D01*
X124806794Y-134979207D01*
X124607424Y-134939550D01*
X124607421Y-134939550D01*
X124601757Y-134938423D01*
X124595982Y-134938347D01*
X124595978Y-134938347D01*
X124488305Y-134936938D01*
X124386946Y-134935611D01*
X124381249Y-134936590D01*
X124381248Y-134936590D01*
X124180917Y-134971013D01*
X124175220Y-134971992D01*
X123973670Y-135046348D01*
X123789044Y-135156188D01*
X123784704Y-135159994D01*
X123784700Y-135159997D01*
X123652100Y-135276285D01*
X123627527Y-135297835D01*
X123623952Y-135302370D01*
X123623951Y-135302371D01*
X123597771Y-135335580D01*
X123494528Y-135466544D01*
X123491839Y-135471655D01*
X123491837Y-135471658D01*
X123472802Y-135507838D01*
X123394500Y-135656665D01*
X123330795Y-135861831D01*
X123330688Y-135862737D01*
X123297711Y-135923821D01*
X123235562Y-135958143D01*
X123164723Y-135953417D01*
X123107685Y-135911142D01*
X123086922Y-135869354D01*
X123083275Y-135856423D01*
X123034988Y-135685209D01*
X123023726Y-135662371D01*
X122942525Y-135497714D01*
X122939971Y-135492535D01*
X122820066Y-135331962D01*
X122814887Y-135325026D01*
X122814886Y-135325025D01*
X122811434Y-135320402D01*
X122782903Y-135294028D01*
X122657920Y-135178495D01*
X122657917Y-135178493D01*
X122653680Y-135174576D01*
X122471993Y-135059940D01*
X122272458Y-134980334D01*
X122266798Y-134979208D01*
X122266794Y-134979207D01*
X122067424Y-134939550D01*
X122067421Y-134939550D01*
X122061757Y-134938423D01*
X122055982Y-134938347D01*
X122055978Y-134938347D01*
X121948305Y-134936938D01*
X121846946Y-134935611D01*
X121841249Y-134936590D01*
X121841248Y-134936590D01*
X121640917Y-134971013D01*
X121635220Y-134971992D01*
X121433670Y-135046348D01*
X121249044Y-135156188D01*
X121244704Y-135159994D01*
X121244700Y-135159997D01*
X121112100Y-135276285D01*
X121087527Y-135297835D01*
X121083952Y-135302370D01*
X121083951Y-135302371D01*
X121057771Y-135335580D01*
X120954528Y-135466544D01*
X120951839Y-135471655D01*
X120951837Y-135471658D01*
X120932802Y-135507838D01*
X120854500Y-135656665D01*
X120790795Y-135861831D01*
X120765544Y-136075171D01*
X120779595Y-136289540D01*
X120832476Y-136497759D01*
X120850702Y-136537295D01*
X120880416Y-136601749D01*
X120890771Y-136671986D01*
X120861508Y-136736672D01*
X120801920Y-136775269D01*
X120765990Y-136780500D01*
X115022500Y-136780500D01*
X114954379Y-136760498D01*
X114907886Y-136706842D01*
X114896500Y-136654500D01*
X114896500Y-135345866D01*
X114889745Y-135283684D01*
X114838615Y-135147295D01*
X114751261Y-135030739D01*
X114634705Y-134943385D01*
X114498316Y-134892255D01*
X114436134Y-134885500D01*
X112639866Y-134885500D01*
X112577684Y-134892255D01*
X112441295Y-134943385D01*
X112324739Y-135030739D01*
X112237385Y-135147295D01*
X112234233Y-135155703D01*
X112189029Y-135276285D01*
X112186255Y-135283684D01*
X112186013Y-135285909D01*
X112152043Y-135345374D01*
X112089088Y-135378196D01*
X112018383Y-135371771D01*
X111968408Y-135335759D01*
X111965749Y-135331962D01*
X111810038Y-135176251D01*
X111805530Y-135173094D01*
X111805527Y-135173092D01*
X111742408Y-135128896D01*
X111685228Y-135088858D01*
X111640901Y-135033402D01*
X111631500Y-134985646D01*
X111631500Y-134426594D01*
X111651502Y-134358473D01*
X111668405Y-134337499D01*
X113537961Y-132467943D01*
X120048567Y-132467943D01*
X120058449Y-132480432D01*
X120104345Y-132511099D01*
X120114455Y-132516589D01*
X120301141Y-132596795D01*
X120312084Y-132600350D01*
X120510253Y-132645192D01*
X120521663Y-132646694D01*
X120724693Y-132654671D01*
X120736175Y-132654069D01*
X120937262Y-132624914D01*
X120948445Y-132622229D01*
X121140845Y-132556918D01*
X121151360Y-132552236D01*
X121281459Y-132479377D01*
X121291323Y-132469300D01*
X121288368Y-132461628D01*
X120681862Y-131855122D01*
X120667918Y-131847508D01*
X120666085Y-131847639D01*
X120659470Y-131851890D01*
X120054763Y-132456597D01*
X120048567Y-132467943D01*
X113537961Y-132467943D01*
X114547754Y-131458150D01*
X119496424Y-131458150D01*
X119509713Y-131660893D01*
X119511514Y-131672263D01*
X119561527Y-131869191D01*
X119565368Y-131880038D01*
X119650432Y-132064555D01*
X119656188Y-132074524D01*
X119671498Y-132096188D01*
X119682089Y-132104579D01*
X119695389Y-132097551D01*
X120297028Y-131495912D01*
X120304642Y-131481968D01*
X120304511Y-131480135D01*
X120300260Y-131473520D01*
X119692868Y-130866128D01*
X119680488Y-130859368D01*
X119674522Y-130863834D01*
X119587653Y-131028947D01*
X119583252Y-131039571D01*
X119522999Y-131233618D01*
X119520607Y-131244872D01*
X119496725Y-131446649D01*
X119496424Y-131458150D01*
X114547754Y-131458150D01*
X115508197Y-130497707D01*
X120047769Y-130497707D01*
X120051256Y-130506096D01*
X120656238Y-131111078D01*
X120670182Y-131118692D01*
X120672015Y-131118561D01*
X120678630Y-131114310D01*
X121283123Y-130509817D01*
X121289883Y-130497437D01*
X121283853Y-130489382D01*
X121206645Y-130440667D01*
X121196402Y-130435448D01*
X121007678Y-130360155D01*
X120996651Y-130356888D01*
X120797371Y-130317249D01*
X120785925Y-130316046D01*
X120582768Y-130313387D01*
X120571288Y-130314290D01*
X120371047Y-130348698D01*
X120359927Y-130351678D01*
X120169302Y-130422003D01*
X120158924Y-130426953D01*
X120057367Y-130487374D01*
X120047769Y-130497707D01*
X115508197Y-130497707D01*
X116049499Y-129956405D01*
X116111811Y-129922379D01*
X116138594Y-129919500D01*
X121351406Y-129919500D01*
X121419527Y-129939502D01*
X121440501Y-129956405D01*
X122194517Y-130710421D01*
X122228543Y-130772733D01*
X122223478Y-130843548D01*
X122216931Y-130858183D01*
X122207990Y-130875178D01*
X122124500Y-131033865D01*
X122060795Y-131239031D01*
X122060591Y-131240756D01*
X122027482Y-131302077D01*
X121965332Y-131336396D01*
X121894493Y-131331665D01*
X121837457Y-131289388D01*
X121816698Y-131247604D01*
X121766088Y-131068153D01*
X121761963Y-131057406D01*
X121672098Y-130875178D01*
X121667588Y-130867819D01*
X121657077Y-130859930D01*
X121644658Y-130866702D01*
X121041072Y-131470288D01*
X121033458Y-131484232D01*
X121033589Y-131486065D01*
X121037840Y-131492680D01*
X121643663Y-132098503D01*
X121656043Y-132105263D01*
X121662623Y-132100337D01*
X121738186Y-131965410D01*
X121742868Y-131954895D01*
X121808179Y-131762495D01*
X121810864Y-131751311D01*
X121814536Y-131725982D01*
X121844105Y-131661436D01*
X121903876Y-131623123D01*
X121974873Y-131623207D01*
X122034554Y-131661661D01*
X122061355Y-131713045D01*
X122102476Y-131874959D01*
X122192416Y-132070054D01*
X122316403Y-132245492D01*
X122356032Y-132284097D01*
X122457267Y-132382715D01*
X122470286Y-132395398D01*
X122475082Y-132398603D01*
X122475085Y-132398605D01*
X122644105Y-132511540D01*
X122644110Y-132511543D01*
X122648910Y-132514750D01*
X122654219Y-132517031D01*
X122654221Y-132517032D01*
X122840982Y-132597272D01*
X122840986Y-132597273D01*
X122846292Y-132599553D01*
X122851924Y-132600827D01*
X122851926Y-132600828D01*
X123050187Y-132645690D01*
X123050192Y-132645691D01*
X123055824Y-132646965D01*
X123061595Y-132647192D01*
X123061597Y-132647192D01*
X123127664Y-132649788D01*
X123270488Y-132655399D01*
X123420545Y-132633642D01*
X123477371Y-132625403D01*
X123477375Y-132625402D01*
X123483093Y-132624573D01*
X123488565Y-132622715D01*
X123488567Y-132622715D01*
X123681057Y-132557373D01*
X123681059Y-132557372D01*
X123686521Y-132555518D01*
X123873959Y-132450548D01*
X123936414Y-132398605D01*
X124034690Y-132316869D01*
X124039128Y-132313178D01*
X124176498Y-132148009D01*
X124281468Y-131960571D01*
X124291807Y-131930115D01*
X124348665Y-131762617D01*
X124348665Y-131762615D01*
X124350523Y-131757143D01*
X124354858Y-131727246D01*
X124384429Y-131662700D01*
X124444201Y-131624388D01*
X124515197Y-131624474D01*
X124574877Y-131662929D01*
X124601677Y-131714311D01*
X124642476Y-131874959D01*
X124732416Y-132070054D01*
X124856403Y-132245492D01*
X124896032Y-132284097D01*
X124997267Y-132382715D01*
X125010286Y-132395398D01*
X125015082Y-132398603D01*
X125015085Y-132398605D01*
X125184105Y-132511540D01*
X125184110Y-132511543D01*
X125188910Y-132514750D01*
X125194219Y-132517031D01*
X125194221Y-132517032D01*
X125380982Y-132597272D01*
X125380986Y-132597273D01*
X125386292Y-132599553D01*
X125391924Y-132600827D01*
X125391926Y-132600828D01*
X125590187Y-132645690D01*
X125590192Y-132645691D01*
X125595824Y-132646965D01*
X125601595Y-132647192D01*
X125601597Y-132647192D01*
X125667664Y-132649788D01*
X125810488Y-132655399D01*
X125960545Y-132633642D01*
X126017371Y-132625403D01*
X126017375Y-132625402D01*
X126023093Y-132624573D01*
X126028565Y-132622715D01*
X126028567Y-132622715D01*
X126221057Y-132557373D01*
X126221059Y-132557372D01*
X126226521Y-132555518D01*
X126413959Y-132450548D01*
X126476414Y-132398605D01*
X126574690Y-132316869D01*
X126579128Y-132313178D01*
X126716498Y-132148009D01*
X126821468Y-131960571D01*
X126831807Y-131930115D01*
X126888665Y-131762617D01*
X126888665Y-131762615D01*
X126890523Y-131757143D01*
X126894858Y-131727246D01*
X126924429Y-131662700D01*
X126984201Y-131624388D01*
X127055197Y-131624474D01*
X127114877Y-131662929D01*
X127141677Y-131714311D01*
X127182476Y-131874959D01*
X127272416Y-132070054D01*
X127396403Y-132245492D01*
X127436032Y-132284097D01*
X127537267Y-132382715D01*
X127550286Y-132395398D01*
X127555082Y-132398603D01*
X127555085Y-132398605D01*
X127724105Y-132511540D01*
X127724110Y-132511543D01*
X127728910Y-132514750D01*
X127734219Y-132517031D01*
X127734221Y-132517032D01*
X127920982Y-132597272D01*
X127920986Y-132597273D01*
X127926292Y-132599553D01*
X127931924Y-132600827D01*
X127931926Y-132600828D01*
X128130187Y-132645690D01*
X128130192Y-132645691D01*
X128135824Y-132646965D01*
X128141595Y-132647192D01*
X128141597Y-132647192D01*
X128207664Y-132649788D01*
X128350488Y-132655399D01*
X128500545Y-132633642D01*
X128557371Y-132625403D01*
X128557375Y-132625402D01*
X128563093Y-132624573D01*
X128568565Y-132622715D01*
X128568567Y-132622715D01*
X128761057Y-132557373D01*
X128761059Y-132557372D01*
X128766521Y-132555518D01*
X128953959Y-132450548D01*
X129016414Y-132398605D01*
X129114690Y-132316869D01*
X129119128Y-132313178D01*
X129256498Y-132148009D01*
X129361468Y-131960571D01*
X129371807Y-131930115D01*
X129428665Y-131762617D01*
X129428665Y-131762615D01*
X129430523Y-131757143D01*
X129434858Y-131727246D01*
X129464429Y-131662700D01*
X129524201Y-131624388D01*
X129595197Y-131624474D01*
X129654877Y-131662929D01*
X129681677Y-131714311D01*
X129722476Y-131874959D01*
X129812416Y-132070054D01*
X129936403Y-132245492D01*
X129976032Y-132284097D01*
X130077267Y-132382715D01*
X130090286Y-132395398D01*
X130095082Y-132398603D01*
X130095085Y-132398605D01*
X130264105Y-132511540D01*
X130264110Y-132511543D01*
X130268910Y-132514750D01*
X130274219Y-132517031D01*
X130274221Y-132517032D01*
X130460982Y-132597272D01*
X130460986Y-132597273D01*
X130466292Y-132599553D01*
X130471924Y-132600827D01*
X130471926Y-132600828D01*
X130670187Y-132645690D01*
X130670192Y-132645691D01*
X130675824Y-132646965D01*
X130681595Y-132647192D01*
X130681597Y-132647192D01*
X130747664Y-132649788D01*
X130890488Y-132655399D01*
X131040545Y-132633642D01*
X131097371Y-132625403D01*
X131097375Y-132625402D01*
X131103093Y-132624573D01*
X131108565Y-132622715D01*
X131108567Y-132622715D01*
X131301057Y-132557373D01*
X131301059Y-132557372D01*
X131306521Y-132555518D01*
X131493959Y-132450548D01*
X131556414Y-132398605D01*
X131654690Y-132316869D01*
X131659128Y-132313178D01*
X131796498Y-132148009D01*
X131901468Y-131960571D01*
X131911807Y-131930115D01*
X131968665Y-131762617D01*
X131968665Y-131762615D01*
X131970523Y-131757143D01*
X131974858Y-131727246D01*
X132004429Y-131662700D01*
X132064201Y-131624388D01*
X132135197Y-131624474D01*
X132194877Y-131662929D01*
X132221677Y-131714311D01*
X132262476Y-131874959D01*
X132352416Y-132070054D01*
X132476403Y-132245492D01*
X132516032Y-132284097D01*
X132617267Y-132382715D01*
X132630286Y-132395398D01*
X132635082Y-132398603D01*
X132635085Y-132398605D01*
X132804105Y-132511540D01*
X132804110Y-132511543D01*
X132808910Y-132514750D01*
X132814219Y-132517031D01*
X132814221Y-132517032D01*
X133000982Y-132597272D01*
X133000986Y-132597273D01*
X133006292Y-132599553D01*
X133011924Y-132600827D01*
X133011926Y-132600828D01*
X133210187Y-132645690D01*
X133210192Y-132645691D01*
X133215824Y-132646965D01*
X133221595Y-132647192D01*
X133221597Y-132647192D01*
X133287664Y-132649788D01*
X133430488Y-132655399D01*
X133580545Y-132633642D01*
X133637371Y-132625403D01*
X133637375Y-132625402D01*
X133643093Y-132624573D01*
X133648565Y-132622715D01*
X133648567Y-132622715D01*
X133841057Y-132557373D01*
X133841059Y-132557372D01*
X133846521Y-132555518D01*
X134033959Y-132450548D01*
X134096414Y-132398605D01*
X134194690Y-132316869D01*
X134199128Y-132313178D01*
X134336498Y-132148009D01*
X134441468Y-131960571D01*
X134451807Y-131930115D01*
X134508665Y-131762617D01*
X134508665Y-131762615D01*
X134510523Y-131757143D01*
X134514858Y-131727246D01*
X134544429Y-131662700D01*
X134604201Y-131624388D01*
X134675197Y-131624474D01*
X134734877Y-131662929D01*
X134761677Y-131714311D01*
X134802476Y-131874959D01*
X134892416Y-132070054D01*
X135016403Y-132245492D01*
X135056032Y-132284097D01*
X135157267Y-132382715D01*
X135170286Y-132395398D01*
X135175082Y-132398603D01*
X135175085Y-132398605D01*
X135344105Y-132511540D01*
X135344110Y-132511543D01*
X135348910Y-132514750D01*
X135354219Y-132517031D01*
X135354221Y-132517032D01*
X135540982Y-132597272D01*
X135540986Y-132597273D01*
X135546292Y-132599553D01*
X135551924Y-132600827D01*
X135551926Y-132600828D01*
X135750187Y-132645690D01*
X135750192Y-132645691D01*
X135755824Y-132646965D01*
X135761595Y-132647192D01*
X135761597Y-132647192D01*
X135827664Y-132649788D01*
X135970488Y-132655399D01*
X136120545Y-132633642D01*
X136177371Y-132625403D01*
X136177375Y-132625402D01*
X136183093Y-132624573D01*
X136188565Y-132622715D01*
X136188567Y-132622715D01*
X136381057Y-132557373D01*
X136381059Y-132557372D01*
X136386521Y-132555518D01*
X136573959Y-132450548D01*
X136636414Y-132398605D01*
X136734690Y-132316869D01*
X136739128Y-132313178D01*
X136876498Y-132148009D01*
X136981468Y-131960571D01*
X136991644Y-131930594D01*
X137035338Y-131801877D01*
X137076175Y-131743801D01*
X137141928Y-131717023D01*
X137211721Y-131730044D01*
X137263394Y-131778731D01*
X137280651Y-131842379D01*
X137280651Y-132188169D01*
X137281021Y-132194990D01*
X137286545Y-132245852D01*
X137290171Y-132261104D01*
X137335326Y-132381554D01*
X137343864Y-132397149D01*
X137420365Y-132499224D01*
X137432926Y-132511785D01*
X137535001Y-132588286D01*
X137550596Y-132596824D01*
X137671044Y-132641978D01*
X137686299Y-132645605D01*
X137737164Y-132651131D01*
X137743978Y-132651500D01*
X138176935Y-132651500D01*
X138192174Y-132647025D01*
X138193379Y-132645635D01*
X138195050Y-132637952D01*
X138195050Y-132633384D01*
X138703050Y-132633384D01*
X138707525Y-132648623D01*
X138708915Y-132649828D01*
X138716598Y-132651499D01*
X139154119Y-132651499D01*
X139160940Y-132651129D01*
X139211802Y-132645605D01*
X139227054Y-132641979D01*
X139347504Y-132596824D01*
X139363099Y-132588286D01*
X139465174Y-132511785D01*
X139477735Y-132499224D01*
X139554236Y-132397149D01*
X139562774Y-132381554D01*
X139607928Y-132261106D01*
X139611555Y-132245851D01*
X139617081Y-132194986D01*
X139617450Y-132188172D01*
X139617450Y-131755215D01*
X139612975Y-131739976D01*
X139611585Y-131738771D01*
X139603902Y-131737100D01*
X138721165Y-131737100D01*
X138705926Y-131741575D01*
X138704721Y-131742965D01*
X138703050Y-131750648D01*
X138703050Y-132633384D01*
X138195050Y-132633384D01*
X138195050Y-131210985D01*
X138703050Y-131210985D01*
X138707525Y-131226224D01*
X138708915Y-131227429D01*
X138716598Y-131229100D01*
X139599334Y-131229100D01*
X139614573Y-131224625D01*
X139615778Y-131223235D01*
X139617449Y-131215552D01*
X139617449Y-130778031D01*
X139617079Y-130771210D01*
X139611555Y-130720348D01*
X139607929Y-130705096D01*
X139562774Y-130584646D01*
X139554236Y-130569051D01*
X139477735Y-130466976D01*
X139465174Y-130454415D01*
X139363099Y-130377914D01*
X139347504Y-130369376D01*
X139227056Y-130324222D01*
X139211801Y-130320595D01*
X139160936Y-130315069D01*
X139154122Y-130314700D01*
X138721165Y-130314700D01*
X138705926Y-130319175D01*
X138704721Y-130320565D01*
X138703050Y-130328248D01*
X138703050Y-131210985D01*
X138195050Y-131210985D01*
X138195050Y-130332816D01*
X138190575Y-130317577D01*
X138174934Y-130304024D01*
X138136550Y-130244298D01*
X138136550Y-130173301D01*
X138168351Y-130119704D01*
X138712650Y-129575405D01*
X138774962Y-129541379D01*
X138801745Y-129538500D01*
X148910406Y-129538500D01*
X148978527Y-129558502D01*
G37*
%TD.AperFunction*%
%TD*%
M02*
