%TF.GenerationSoftware,KiCad,Pcbnew,(6.0.1)*%
%TF.CreationDate,2022-03-27T10:41:34+03:00*%
%TF.ProjectId,shield MCU V2_gnd_layer,73686965-6c64-4204-9d43-552056325f67,rev?*%
%TF.SameCoordinates,Original*%
%TF.FileFunction,Copper,L2,Bot*%
%TF.FilePolarity,Positive*%
%FSLAX46Y46*%
G04 Gerber Fmt 4.6, Leading zero omitted, Abs format (unit mm)*
G04 Created by KiCad (PCBNEW (6.0.1)) date 2022-03-27 10:41:34*
%MOMM*%
%LPD*%
G01*
G04 APERTURE LIST*
%TA.AperFunction,ComponentPad*%
%ADD10R,1.700000X1.500000*%
%TD*%
%TA.AperFunction,ComponentPad*%
%ADD11C,1.500000*%
%TD*%
%TA.AperFunction,ComponentPad*%
%ADD12R,1.700000X1.700000*%
%TD*%
%TA.AperFunction,ComponentPad*%
%ADD13O,1.700000X1.700000*%
%TD*%
%TA.AperFunction,ComponentPad*%
%ADD14C,1.524000*%
%TD*%
%TA.AperFunction,ComponentPad*%
%ADD15R,1.320800X1.320800*%
%TD*%
%TA.AperFunction,ComponentPad*%
%ADD16C,1.320800*%
%TD*%
%TA.AperFunction,ComponentPad*%
%ADD17C,1.600000*%
%TD*%
%TA.AperFunction,Conductor*%
%ADD18C,0.250000*%
%TD*%
G04 APERTURE END LIST*
D10*
%TO.P,J2,1,P1*%
%TO.N,Net-(J3-Pad1)*%
X147320000Y-122174000D03*
D11*
%TO.P,J2,2,P2*%
%TO.N,GND*%
X144780000Y-122174000D03*
%TO.P,J2,3,P3*%
%TO.N,/5V*%
X142240000Y-122174000D03*
%TD*%
D10*
%TO.P,PoL1,1,P1*%
%TO.N,Net-(H1-Pad14)*%
X113562050Y-135666000D03*
D11*
%TO.P,PoL1,2,P2*%
%TO.N,Net-(H1-Pad13)*%
X111022050Y-135666000D03*
%TD*%
%TO.P,U3,8,GND*%
%TO.N,GND*%
X135477000Y-99663000D03*
%TO.P,U3,7,SDA*%
%TO.N,Net-(U3-Pad7)*%
X135477000Y-97123000D03*
%TO.P,U3,6,SCL*%
%TO.N,Net-(U3-Pad6)*%
X135477000Y-94583000D03*
%TO.P,U3,5,VCC*%
%TO.N,/3.3V*%
X135477000Y-92043000D03*
%TO.P,U3,4,INT*%
%TO.N,Net-(U3-Pad4)*%
X117697000Y-99663000D03*
%TO.P,U3,3,DR*%
%TO.N,unconnected-(U3-Pad3)*%
X117697000Y-97123000D03*
%TO.P,U3,2,CS*%
%TO.N,Net-(U3-Pad2)*%
X117697000Y-94583000D03*
%TO.P,U3,1,SDO*%
%TO.N,Net-(U3-Pad1)*%
X117697000Y-92043000D03*
%TD*%
%TO.P,TP1,1,1*%
%TO.N,/Vin*%
X126619000Y-69469000D03*
%TD*%
D12*
%TO.P,Bt1,1,P1*%
%TO.N,/3.3V*%
X125730000Y-121539000D03*
D13*
%TO.P,Bt1,2,P2*%
%TO.N,GND*%
X123190000Y-121539000D03*
%TO.P,Bt1,3,P3*%
%TO.N,Net-(Bt1-Pad3)*%
X120650000Y-121539000D03*
%TO.P,Bt1,4,P4*%
%TO.N,Net-(Bt1-Pad4)*%
X118110000Y-121539000D03*
%TD*%
D11*
%TO.P,SW1,3,C*%
%TO.N,/chrg+*%
X136049000Y-79470000D03*
%TO.P,SW1,2,B*%
%TO.N,/Batt+*%
X131350000Y-79470000D03*
%TO.P,SW1,1,A*%
%TO.N,/Vin*%
X126651000Y-79470000D03*
%TD*%
D10*
%TO.P,J3,1,P1*%
%TO.N,Net-(J2-Pad1)*%
X147320000Y-118237000D03*
D11*
%TO.P,J3,2,P2*%
%TO.N,GND*%
X144780000Y-118237000D03*
%TO.P,J3,3,P3*%
%TO.N,/5V*%
X142240000Y-118237000D03*
%TD*%
D10*
%TO.P,J4,1,P1*%
%TO.N,Net-(J1-Pad1)*%
X147320000Y-114300000D03*
D11*
%TO.P,J4,2,P2*%
%TO.N,GND*%
X144780000Y-114300000D03*
%TO.P,J4,3,P3*%
%TO.N,/5V*%
X142240000Y-114300000D03*
%TD*%
D10*
%TO.P,J5,1,P1*%
%TO.N,Net-(U4-Pad114)*%
X147320000Y-110617000D03*
D11*
%TO.P,J5,2,P2*%
%TO.N,GND*%
X144780000Y-110617000D03*
%TO.P,J5,3,P3*%
%TO.N,/5V*%
X142240000Y-110617000D03*
%TD*%
%TO.P,U1,6,in+*%
%TO.N,unconnected-(U1-Pad6)*%
X154019000Y-70199000D03*
%TO.P,U1,5,in-*%
%TO.N,unconnected-(U1-Pad5)*%
X140557000Y-70199000D03*
%TO.P,U1,4,out+*%
%TO.N,unconnected-(U1-Pad4)*%
X154019000Y-92551000D03*
%TO.P,U1,3,bat+*%
%TO.N,/chrg+*%
X150971000Y-92551000D03*
%TO.P,U1,2,bat-*%
%TO.N,GND*%
X143605000Y-92551000D03*
%TO.P,U1,1,out-*%
X140557000Y-92551000D03*
%TD*%
%TO.P,TP2,1,1*%
%TO.N,/3.3V*%
X154432000Y-99822000D03*
%TD*%
D10*
%TO.P,PoR1,1,P1*%
%TO.N,Net-(H1-Pad3)*%
X150773050Y-131515000D03*
D11*
%TO.P,PoR1,2,P2*%
%TO.N,Net-(H1-Pad2)*%
X148233050Y-131515000D03*
%TD*%
%TO.P,J6,3,Pin_3*%
%TO.N,/Batt+*%
X131413500Y-69183000D03*
D14*
%TO.P,J6,2,Pin_2*%
%TO.N,unconnected-(J6-Pad2)*%
X133953500Y-69183000D03*
%TO.P,J6,1,Pin_1*%
%TO.N,GND*%
X136493500Y-69183000D03*
%TD*%
D15*
%TO.P,H1,1,Current_Sensing_A*%
%TO.N,GND*%
X138449050Y-131483100D03*
D16*
%TO.P,H1,2,OUT1*%
%TO.N,Net-(H1-Pad2)*%
X137179050Y-134023100D03*
%TO.P,H1,3,OUT2*%
%TO.N,Net-(H1-Pad3)*%
X135909050Y-131483100D03*
%TO.P,H1,4,VS*%
%TO.N,/5V*%
X134639050Y-134023100D03*
%TO.P,H1,5,IN1*%
%TO.N,Net-(H1-Pad5)*%
X133369050Y-131483100D03*
%TO.P,H1,6,ENA_A*%
%TO.N,Net-(H1-Pad6)*%
X132099050Y-134023100D03*
%TO.P,H1,7,IN2*%
%TO.N,Net-(H1-Pad7)*%
X130829050Y-131483100D03*
%TO.P,H1,8,GND*%
%TO.N,GND*%
X129559050Y-134023100D03*
%TO.P,H1,9,VSS*%
%TO.N,/5V*%
X128289050Y-131483100D03*
%TO.P,H1,10,IN3*%
%TO.N,Net-(H1-Pad10)*%
X127019050Y-134023100D03*
%TO.P,H1,11,ENA_B*%
%TO.N,Net-(H1-Pad11)*%
X125749050Y-131483100D03*
%TO.P,H1,12,IN4*%
%TO.N,Net-(H1-Pad12)*%
X124479050Y-134023100D03*
%TO.P,H1,13,OUT3*%
%TO.N,Net-(H1-Pad13)*%
X123209050Y-131483100D03*
%TO.P,H1,14,OUT4*%
%TO.N,Net-(H1-Pad14)*%
X121939050Y-134023100D03*
%TO.P,H1,15,Current_Sensing_B*%
%TO.N,GND*%
X120669050Y-131483100D03*
%TD*%
D17*
%TO.P,U4,16,+3V3*%
%TO.N,/3.3V*%
X154432000Y-102746000D03*
D11*
%TO.P,U4,18,+5V*%
%TO.N,/5V*%
X154432000Y-105286000D03*
%TO.P,U4,24,VIN*%
%TO.N,/Vin*%
X154432000Y-112906000D03*
%TO.P,U4,37,PC3*%
%TO.N,Net-(J2-Pad1)*%
X154432000Y-123066000D03*
%TO.P,U4,38,PC0*%
%TO.N,Net-(J1-Pad1)*%
X154432000Y-120526000D03*
%TO.P,U4,63,PG9*%
%TO.N,Net-(Bt1-Pad3)*%
X106172000Y-130686000D03*
%TO.P,U4,83,PA5*%
%TO.N,Net-(U3-Pad6)*%
X106172000Y-96146000D03*
%TO.P,U4,85,PA6*%
%TO.N,Net-(U3-Pad1)*%
X106172000Y-98686000D03*
%TO.P,U4,87,ETH_CRS_DV/PA7*%
%TO.N,Net-(U3-Pad7)*%
X106172000Y-101226000D03*
%TO.P,U4,108,PF5*%
%TO.N,Net-(J4-Pad1)*%
X154432000Y-128146000D03*
%TO.P,U4,114,PF10*%
%TO.N,Net-(U4-Pad114)*%
X154432000Y-117986000D03*
%TO.P,U4,118,PD14*%
%TO.N,Net-(U3-Pad2)*%
X106172000Y-103766000D03*
%TO.P,U4,120,PD15*%
%TO.N,Net-(H1-Pad7)*%
X106172000Y-106306000D03*
%TO.P,U4,124,PE9*%
%TO.N,Net-(U3-Pad4)*%
X106172000Y-115446000D03*
%TO.P,U4,127,PE13*%
%TO.N,Net-(H1-Pad12)*%
X106172000Y-123066000D03*
%TO.P,U4,128,PE11*%
%TO.N,Net-(H1-Pad10)*%
X106172000Y-117986000D03*
%TO.P,U4,129,PF13*%
%TO.N,Net-(H1-Pad11)*%
X106172000Y-112906000D03*
%TO.P,U4,130,PF3*%
%TO.N,Net-(J3-Pad1)*%
X154432000Y-125606000D03*
%TO.P,U4,131,PF12*%
%TO.N,Net-(H1-Pad5)*%
X106172000Y-108846000D03*
%TO.P,U4,132,PF15*%
%TO.N,Net-(H1-Pad6)*%
X106172000Y-125606000D03*
%TO.P,U4,133,PG14*%
%TO.N,Net-(Bt1-Pad4)*%
X106172000Y-128146000D03*
%TO.P,U4,143,GND*%
%TO.N,GND*%
X154432000Y-107826000D03*
%TO.P,U4,144,GND*%
X154432000Y-110366000D03*
%TD*%
D10*
%TO.P,J1,1,P1*%
%TO.N,Net-(J4-Pad1)*%
X147320000Y-126111000D03*
D11*
%TO.P,J1,2,P2*%
%TO.N,GND*%
X144780000Y-126111000D03*
%TO.P,J1,3,P3*%
%TO.N,/5V*%
X142240000Y-126111000D03*
%TD*%
D18*
%TO.N,Net-(H1-Pad2)*%
X145724950Y-134023100D02*
X148233050Y-131515000D01*
X137179050Y-134023100D02*
X145724950Y-134023100D01*
%TO.N,Net-(H1-Pad3)*%
X138487150Y-128905000D02*
X149225000Y-128905000D01*
X135909050Y-131483100D02*
X138487150Y-128905000D01*
X149225000Y-128905000D02*
X150773050Y-130453050D01*
X150773050Y-130453050D02*
X150773050Y-131515000D01*
%TO.N,Net-(H1-Pad13)*%
X121666000Y-129286000D02*
X115824000Y-129286000D01*
X115824000Y-129286000D02*
X111022050Y-134087950D01*
X111022050Y-134087950D02*
X111022050Y-135666000D01*
X123209050Y-131483100D02*
X123209050Y-130829050D01*
X123209050Y-130829050D02*
X121666000Y-129286000D01*
%TO.N,Net-(H1-Pad14)*%
X121939050Y-134023100D02*
X115204950Y-134023100D01*
X115204950Y-134023100D02*
X113562050Y-135666000D01*
%TO.N,Net-(U3-Pad6)*%
X135477000Y-94583000D02*
X131612489Y-90718489D01*
X111599511Y-90718489D02*
X106172000Y-96146000D01*
X131612489Y-90718489D02*
X111599511Y-90718489D01*
%TO.N,Net-(U3-Pad7)*%
X135477000Y-97123000D02*
X131374000Y-101226000D01*
X131374000Y-101226000D02*
X106172000Y-101226000D01*
%TO.N,Net-(J3-Pad1)*%
X151000000Y-122174000D02*
X154432000Y-125606000D01*
X147320000Y-122174000D02*
X151000000Y-122174000D01*
%TO.N,Net-(J2-Pad1)*%
X149603000Y-118237000D02*
X154432000Y-123066000D01*
X147320000Y-118237000D02*
X149603000Y-118237000D01*
%TO.N,Net-(Bt1-Pad3)*%
X111503000Y-130686000D02*
X106172000Y-130686000D01*
X120650000Y-121539000D02*
X111503000Y-130686000D01*
%TO.N,Net-(J1-Pad1)*%
X148206000Y-114300000D02*
X154432000Y-120526000D01*
X147320000Y-114300000D02*
X148206000Y-114300000D01*
%TO.N,Net-(H1-Pad7)*%
X104648000Y-107188000D02*
X104648000Y-109982000D01*
X105918000Y-111252000D02*
X120269000Y-111252000D01*
X130829050Y-121812050D02*
X121539000Y-112522000D01*
X104648000Y-107188000D02*
X105530000Y-106306000D01*
X130829050Y-131483100D02*
X130829050Y-121812050D01*
X104648000Y-109982000D02*
X105918000Y-111252000D01*
X105530000Y-106306000D02*
X106172000Y-106306000D01*
X120269000Y-111252000D02*
X121539000Y-112522000D01*
%TO.N,Net-(H1-Pad11)*%
X128778000Y-121666000D02*
X128778000Y-128454150D01*
X128778000Y-128454150D02*
X125749050Y-131483100D01*
X120018000Y-112906000D02*
X128778000Y-121666000D01*
X106172000Y-112906000D02*
X120018000Y-112906000D01*
%TO.N,Net-(J4-Pad1)*%
X152397000Y-126111000D02*
X154432000Y-128146000D01*
X147320000Y-126111000D02*
X152397000Y-126111000D01*
%TO.N,Net-(H1-Pad5)*%
X133369050Y-131483100D02*
X133369050Y-122574050D01*
X133369050Y-122574050D02*
X119641000Y-108846000D01*
X119641000Y-108846000D02*
X106172000Y-108846000D01*
%TO.N,Net-(H1-Pad6)*%
X104775000Y-134620000D02*
X104775000Y-127003000D01*
X106997500Y-136842500D02*
X104775000Y-134620000D01*
X104775000Y-127003000D02*
X106172000Y-125606000D01*
X132099050Y-134023100D02*
X129279650Y-136842500D01*
X129279650Y-136842500D02*
X106997500Y-136842500D01*
%TO.N,Net-(Bt1-Pad4)*%
X106172000Y-128146000D02*
X109725000Y-128146000D01*
X109725000Y-128146000D02*
X116332000Y-121539000D01*
X116332000Y-121539000D02*
X118110000Y-121539000D01*
%TO.N,Net-(U4-Pad114)*%
X147320000Y-110617000D02*
X147320000Y-110874000D01*
X147320000Y-110874000D02*
X154432000Y-117986000D01*
%TD*%
M02*
