%TF.GenerationSoftware,KiCad,Pcbnew,(6.0.1)*%
%TF.CreationDate,2022-04-01T11:53:39+03:00*%
%TF.ProjectId,shield MCU V2_gnd_layer,73686965-6c64-4204-9d43-552056325f67,rev?*%
%TF.SameCoordinates,Original*%
%TF.FileFunction,Copper,L1,Top*%
%TF.FilePolarity,Positive*%
%FSLAX46Y46*%
G04 Gerber Fmt 4.6, Leading zero omitted, Abs format (unit mm)*
G04 Created by KiCad (PCBNEW (6.0.1)) date 2022-04-01 11:53:39*
%MOMM*%
%LPD*%
G01*
G04 APERTURE LIST*
%TA.AperFunction,ComponentPad*%
%ADD10R,1.700000X1.500000*%
%TD*%
%TA.AperFunction,ComponentPad*%
%ADD11C,1.500000*%
%TD*%
%TA.AperFunction,ComponentPad*%
%ADD12R,1.700000X1.700000*%
%TD*%
%TA.AperFunction,ComponentPad*%
%ADD13O,1.700000X1.700000*%
%TD*%
%TA.AperFunction,ComponentPad*%
%ADD14C,1.524000*%
%TD*%
%TA.AperFunction,ComponentPad*%
%ADD15R,1.320800X1.320800*%
%TD*%
%TA.AperFunction,ComponentPad*%
%ADD16C,1.320800*%
%TD*%
%TA.AperFunction,ComponentPad*%
%ADD17C,1.600000*%
%TD*%
%TA.AperFunction,Conductor*%
%ADD18C,1.000000*%
%TD*%
%TA.AperFunction,Conductor*%
%ADD19C,0.250000*%
%TD*%
G04 APERTURE END LIST*
D10*
%TO.P,J2,1,P1*%
%TO.N,Net-(J2-Pad1)*%
X147320000Y-122174000D03*
D11*
%TO.P,J2,2,P2*%
%TO.N,GND*%
X144780000Y-122174000D03*
%TO.P,J2,3,P3*%
%TO.N,/5V*%
X142240000Y-122174000D03*
%TD*%
D10*
%TO.P,PoL1,1,P1*%
%TO.N,Net-(H1-Pad14)*%
X113538000Y-136144000D03*
D11*
%TO.P,PoL1,2,P2*%
%TO.N,Net-(H1-Pad13)*%
X110998000Y-136144000D03*
%TD*%
%TO.P,U3,1,SDO*%
%TO.N,Net-(U3-Pad1)*%
X117697000Y-92043000D03*
%TO.P,U3,2,CS*%
%TO.N,Net-(U3-Pad2)*%
X117697000Y-94583000D03*
%TO.P,U3,3,DR*%
%TO.N,unconnected-(U3-Pad3)*%
X117697000Y-97123000D03*
%TO.P,U3,4,INT*%
%TO.N,Net-(U3-Pad4)*%
X117697000Y-99663000D03*
%TO.P,U3,5,VCC*%
%TO.N,/3.3V*%
X135477000Y-92043000D03*
%TO.P,U3,6,SCL*%
%TO.N,Net-(U3-Pad6)*%
X135477000Y-94583000D03*
%TO.P,U3,7,SDA*%
%TO.N,Net-(U3-Pad7)*%
X135477000Y-97123000D03*
%TO.P,U3,8,GND*%
%TO.N,GND*%
X135477000Y-99663000D03*
%TD*%
%TO.P,TP1,1,1*%
%TO.N,/Vin*%
X126619000Y-69469000D03*
%TD*%
D12*
%TO.P,Bt1,1,P1*%
%TO.N,/3.3V*%
X125730000Y-121539000D03*
D13*
%TO.P,Bt1,2,P2*%
%TO.N,GND*%
X123190000Y-121539000D03*
%TO.P,Bt1,3,P3*%
%TO.N,Net-(Bt1-Pad3)*%
X120650000Y-121539000D03*
%TO.P,Bt1,4,P4*%
%TO.N,Net-(Bt1-Pad4)*%
X118110000Y-121539000D03*
%TD*%
D11*
%TO.P,SW1,1,A*%
%TO.N,/Vin*%
X126651000Y-79470000D03*
%TO.P,SW1,2,B*%
%TO.N,/Batt+*%
X131350000Y-79470000D03*
%TO.P,SW1,3,C*%
%TO.N,/chrg+*%
X136049000Y-79470000D03*
%TD*%
D10*
%TO.P,J3,1,P1*%
%TO.N,Net-(J3-Pad1)*%
X147320000Y-118237000D03*
D11*
%TO.P,J3,2,P2*%
%TO.N,GND*%
X144780000Y-118237000D03*
%TO.P,J3,3,P3*%
%TO.N,/5V*%
X142240000Y-118237000D03*
%TD*%
D10*
%TO.P,J4,1,P1*%
%TO.N,Net-(J4-Pad1)*%
X147320000Y-114300000D03*
D11*
%TO.P,J4,2,P2*%
%TO.N,GND*%
X144780000Y-114300000D03*
%TO.P,J4,3,P3*%
%TO.N,/5V*%
X142240000Y-114300000D03*
%TD*%
D10*
%TO.P,J5,1,P1*%
%TO.N,Net-(J5-Pad1)*%
X147320000Y-110617000D03*
D11*
%TO.P,J5,2,P2*%
%TO.N,GND*%
X144780000Y-110617000D03*
%TO.P,J5,3,P3*%
%TO.N,/5V*%
X142240000Y-110617000D03*
%TD*%
%TO.P,U1,1,out-*%
%TO.N,GND*%
X140557000Y-92551000D03*
%TO.P,U1,2,bat-*%
X143605000Y-92551000D03*
%TO.P,U1,3,bat+*%
%TO.N,/chrg+*%
X150971000Y-92551000D03*
%TO.P,U1,4,out+*%
%TO.N,unconnected-(U1-Pad4)*%
X154019000Y-92551000D03*
%TO.P,U1,5,in-*%
%TO.N,unconnected-(U1-Pad5)*%
X140557000Y-70199000D03*
%TO.P,U1,6,in+*%
%TO.N,unconnected-(U1-Pad6)*%
X154019000Y-70199000D03*
%TD*%
%TO.P,TP2,1,1*%
%TO.N,/3.3V*%
X154432000Y-99822000D03*
%TD*%
D10*
%TO.P,PoR1,1,P1*%
%TO.N,Net-(H1-Pad3)*%
X150773050Y-131515000D03*
D11*
%TO.P,PoR1,2,P2*%
%TO.N,Net-(H1-Pad2)*%
X148233050Y-131515000D03*
%TD*%
D14*
%TO.P,J6,1,Pin_1*%
%TO.N,GND*%
X136493500Y-69183000D03*
%TO.P,J6,2,Pin_2*%
%TO.N,unconnected-(J6-Pad2)*%
X133953500Y-69183000D03*
D11*
%TO.P,J6,3,Pin_3*%
%TO.N,/Batt+*%
X131413500Y-69183000D03*
%TD*%
D15*
%TO.P,H1,1,Current_Sensing_A*%
%TO.N,GND*%
X138449050Y-131483100D03*
D16*
%TO.P,H1,2,OUT1*%
%TO.N,Net-(H1-Pad2)*%
X137179050Y-136105900D03*
%TO.P,H1,3,OUT2*%
%TO.N,Net-(H1-Pad3)*%
X135909050Y-131483100D03*
%TO.P,H1,4,VS*%
%TO.N,/5V*%
X134639050Y-136105900D03*
%TO.P,H1,5,IN1*%
%TO.N,Net-(H1-Pad5)*%
X133369050Y-131483100D03*
%TO.P,H1,6,ENA_A*%
%TO.N,Net-(H1-Pad6)*%
X132099050Y-136105900D03*
%TO.P,H1,7,IN2*%
%TO.N,Net-(H1-Pad7)*%
X130829050Y-131483100D03*
%TO.P,H1,8,GND*%
%TO.N,GND*%
X129559050Y-136105900D03*
%TO.P,H1,9,VSS*%
%TO.N,/5V*%
X128289050Y-131483100D03*
%TO.P,H1,10,IN3*%
%TO.N,Net-(H1-Pad10)*%
X127019050Y-136105900D03*
%TO.P,H1,11,ENA_B*%
%TO.N,Net-(H1-Pad11)*%
X125749050Y-131483100D03*
%TO.P,H1,12,IN4*%
%TO.N,Net-(H1-Pad12)*%
X124479050Y-136105900D03*
%TO.P,H1,13,OUT3*%
%TO.N,Net-(H1-Pad13)*%
X123209050Y-131483100D03*
%TO.P,H1,14,OUT4*%
%TO.N,Net-(H1-Pad14)*%
X121939050Y-136105900D03*
%TO.P,H1,15,Current_Sensing_B*%
%TO.N,GND*%
X120669050Y-131483100D03*
%TD*%
D17*
%TO.P,U4,16,+3V3*%
%TO.N,/3.3V*%
X154432000Y-102746000D03*
D11*
%TO.P,U4,18,+5V*%
%TO.N,/5V*%
X154432000Y-105286000D03*
%TO.P,U4,24,VIN*%
%TO.N,/Vin*%
X154432000Y-112906000D03*
%TO.P,U4,37,PC3*%
%TO.N,Net-(J3-Pad1)*%
X154432000Y-123066000D03*
%TO.P,U4,38,PC0*%
%TO.N,Net-(J4-Pad1)*%
X154432000Y-120526000D03*
%TO.P,U4,63,PG9*%
%TO.N,Net-(Bt1-Pad3)*%
X106172000Y-130686000D03*
%TO.P,U4,83,PA5*%
%TO.N,Net-(U3-Pad6)*%
X106172000Y-96146000D03*
%TO.P,U4,85,PA6*%
%TO.N,Net-(U3-Pad1)*%
X106172000Y-98686000D03*
%TO.P,U4,87,ETH_CRS_DV/PA7*%
%TO.N,Net-(U3-Pad7)*%
X106172000Y-101226000D03*
%TO.P,U4,108,PF5*%
%TO.N,Net-(J1-Pad1)*%
X154432000Y-128146000D03*
%TO.P,U4,114,PF10*%
%TO.N,Net-(J5-Pad1)*%
X154432000Y-117986000D03*
%TO.P,U4,118,PD14*%
%TO.N,Net-(U3-Pad2)*%
X106172000Y-103766000D03*
%TO.P,U4,120,PD15*%
%TO.N,Net-(H1-Pad7)*%
X106172000Y-106306000D03*
%TO.P,U4,124,PE9*%
%TO.N,Net-(U3-Pad4)*%
X106172000Y-115446000D03*
%TO.P,U4,127,PE13*%
%TO.N,Net-(H1-Pad12)*%
X106172000Y-123066000D03*
%TO.P,U4,128,PE11*%
%TO.N,Net-(H1-Pad10)*%
X106172000Y-117986000D03*
%TO.P,U4,129,PF13*%
%TO.N,Net-(H1-Pad11)*%
X106172000Y-112906000D03*
%TO.P,U4,130,PF3*%
%TO.N,Net-(J2-Pad1)*%
X154432000Y-125606000D03*
%TO.P,U4,131,PF12*%
%TO.N,Net-(H1-Pad5)*%
X106172000Y-108846000D03*
%TO.P,U4,132,PF15*%
%TO.N,Net-(H1-Pad6)*%
X106172000Y-125606000D03*
%TO.P,U4,133,PG14*%
%TO.N,Net-(Bt1-Pad4)*%
X106172000Y-128146000D03*
%TO.P,U4,143,GND*%
%TO.N,GND*%
X154432000Y-107826000D03*
%TO.P,U4,144,GND*%
X154432000Y-110366000D03*
%TD*%
D10*
%TO.P,J1,1,P1*%
%TO.N,Net-(J1-Pad1)*%
X147320000Y-126111000D03*
D11*
%TO.P,J1,2,P2*%
%TO.N,GND*%
X144780000Y-126111000D03*
%TO.P,J1,3,P3*%
%TO.N,/5V*%
X142240000Y-126111000D03*
%TD*%
D18*
%TO.N,/3.3V*%
X125730000Y-99695000D02*
X125730000Y-121539000D01*
X133382000Y-92043000D02*
X125730000Y-99695000D01*
X146180000Y-102746000D02*
X154432000Y-102746000D01*
X135477000Y-92043000D02*
X133382000Y-92043000D01*
X135477000Y-92043000D02*
X146180000Y-102746000D01*
X154432000Y-102746000D02*
X154432000Y-99822000D01*
D19*
%TO.N,Net-(H1-Pad14)*%
X113538000Y-136144000D02*
X121900950Y-136144000D01*
%TO.N,Net-(U3-Pad2)*%
X115983000Y-94583000D02*
X115348000Y-94583000D01*
X106172000Y-103766000D02*
X115355000Y-94583000D01*
X115355000Y-94583000D02*
X115983000Y-94583000D01*
X117697000Y-94583000D02*
X115983000Y-94583000D01*
%TO.N,Net-(U3-Pad4)*%
X107696000Y-113922000D02*
X106172000Y-115446000D01*
X117697000Y-99663000D02*
X112427000Y-99663000D01*
X107696000Y-104394000D02*
X107696000Y-113922000D01*
X112427000Y-99663000D02*
X107696000Y-104394000D01*
D18*
%TO.N,/5V*%
X128289050Y-131483100D02*
X130409950Y-133604000D01*
X142240000Y-122174000D02*
X142240000Y-126111000D01*
X142240000Y-114300000D02*
X142240000Y-118237000D01*
X142240000Y-118237000D02*
X142240000Y-122174000D01*
X132137150Y-127635000D02*
X140716000Y-127635000D01*
X130409950Y-133604000D02*
X132137150Y-133604000D01*
X128289050Y-131483100D02*
X132137150Y-127635000D01*
X154432000Y-105286000D02*
X147571000Y-105286000D01*
X147571000Y-105286000D02*
X142240000Y-110617000D01*
X142240000Y-110617000D02*
X142240000Y-114300000D01*
X132137150Y-133604000D02*
X134639050Y-136105900D01*
X140716000Y-127635000D02*
X142240000Y-126111000D01*
%TO.N,/Vin*%
X154686000Y-96520000D02*
X157353000Y-99187000D01*
X126651000Y-69374000D02*
X126651000Y-79470000D01*
X126651000Y-79470000D02*
X133160000Y-85979000D01*
X141859000Y-85979000D02*
X152400000Y-96520000D01*
X152400000Y-96520000D02*
X154686000Y-96520000D01*
X157353000Y-109985000D02*
X154432000Y-112906000D01*
X157353000Y-99187000D02*
X157353000Y-109985000D01*
X133160000Y-85979000D02*
X141859000Y-85979000D01*
%TO.N,/chrg+*%
X137890000Y-79470000D02*
X150971000Y-92551000D01*
X136049000Y-79470000D02*
X137890000Y-79470000D01*
%TO.N,/Batt+*%
X131413500Y-69183000D02*
X131413500Y-79406500D01*
D19*
%TO.N,Net-(U3-Pad1)*%
X117697000Y-92043000D02*
X107347000Y-92043000D01*
X104394000Y-94996000D02*
X104394000Y-96908000D01*
X104394000Y-96908000D02*
X106172000Y-98686000D01*
X107347000Y-92043000D02*
X104394000Y-94996000D01*
%TO.N,Net-(H1-Pad12)*%
X124479050Y-135147050D02*
X123952000Y-134620000D01*
X117726000Y-134620000D02*
X106172000Y-123066000D01*
X124479050Y-136105900D02*
X124479050Y-135147050D01*
X123952000Y-134620000D02*
X117726000Y-134620000D01*
%TO.N,Net-(H1-Pad10)*%
X125075950Y-138049000D02*
X127019050Y-136105900D01*
X106553000Y-138049000D02*
X125075950Y-138049000D01*
X104013000Y-120145000D02*
X104013000Y-135509000D01*
X106172000Y-117986000D02*
X104013000Y-120145000D01*
X104013000Y-135509000D02*
X106553000Y-138049000D01*
%TD*%
%TA.AperFunction,Conductor*%
%TO.N,GND*%
G36*
X158438121Y-66441002D02*
G01*
X158484614Y-66494658D01*
X158496000Y-66547000D01*
X158496000Y-98683059D01*
X158475998Y-98751180D01*
X158422342Y-98797673D01*
X158352068Y-98807777D01*
X158287488Y-98778283D01*
X158258747Y-98742210D01*
X158249926Y-98725618D01*
X158246268Y-98718739D01*
X158245657Y-98717574D01*
X158205729Y-98640547D01*
X158202892Y-98635074D01*
X158199569Y-98630911D01*
X158197066Y-98626204D01*
X158185390Y-98611887D01*
X158138261Y-98554102D01*
X158137433Y-98553075D01*
X158108469Y-98516792D01*
X158108464Y-98516787D01*
X158106262Y-98514028D01*
X158103761Y-98511527D01*
X158103119Y-98510809D01*
X158099406Y-98506461D01*
X158091642Y-98496941D01*
X158072065Y-98472938D01*
X158067323Y-98469015D01*
X158067321Y-98469013D01*
X158036727Y-98443703D01*
X158027947Y-98435713D01*
X155442855Y-95850621D01*
X155433753Y-95840478D01*
X155413897Y-95815782D01*
X155410032Y-95810975D01*
X155371578Y-95778708D01*
X155367931Y-95775528D01*
X155366119Y-95773885D01*
X155363925Y-95771691D01*
X155330651Y-95744358D01*
X155329853Y-95743696D01*
X155258526Y-95683846D01*
X155253856Y-95681278D01*
X155249739Y-95677897D01*
X155167914Y-95634023D01*
X155166755Y-95633394D01*
X155090619Y-95591538D01*
X155090611Y-95591535D01*
X155085213Y-95588567D01*
X155080131Y-95586955D01*
X155075437Y-95584438D01*
X154986469Y-95557238D01*
X154985441Y-95556918D01*
X154896694Y-95528765D01*
X154891398Y-95528171D01*
X154886302Y-95526613D01*
X154793743Y-95517210D01*
X154792607Y-95517089D01*
X154758992Y-95513319D01*
X154746270Y-95511892D01*
X154746266Y-95511892D01*
X154742773Y-95511500D01*
X154739246Y-95511500D01*
X154738261Y-95511445D01*
X154732581Y-95510998D01*
X154703175Y-95508011D01*
X154695663Y-95507248D01*
X154695661Y-95507248D01*
X154689538Y-95506626D01*
X154647259Y-95510623D01*
X154643891Y-95510941D01*
X154632033Y-95511500D01*
X152869925Y-95511500D01*
X152801804Y-95491498D01*
X152780830Y-95474595D01*
X152028433Y-94722198D01*
X151274479Y-93968245D01*
X151240454Y-93905933D01*
X151245518Y-93835118D01*
X151288065Y-93778282D01*
X151330963Y-93757443D01*
X151397762Y-93739544D01*
X151397765Y-93739543D01*
X151403076Y-93738120D01*
X151602654Y-93645056D01*
X151783038Y-93518749D01*
X151938749Y-93363038D01*
X151973087Y-93313999D01*
X152061899Y-93187162D01*
X152061900Y-93187160D01*
X152065056Y-93182653D01*
X152067379Y-93177671D01*
X152067382Y-93177666D01*
X152155795Y-92988061D01*
X152158120Y-92983076D01*
X152215115Y-92770371D01*
X152234307Y-92551000D01*
X152755693Y-92551000D01*
X152774885Y-92770371D01*
X152831880Y-92983076D01*
X152834205Y-92988061D01*
X152922618Y-93177666D01*
X152922621Y-93177671D01*
X152924944Y-93182653D01*
X152928100Y-93187160D01*
X152928101Y-93187162D01*
X153016914Y-93313999D01*
X153051251Y-93363038D01*
X153206962Y-93518749D01*
X153387346Y-93645056D01*
X153586924Y-93738120D01*
X153799629Y-93795115D01*
X154019000Y-93814307D01*
X154238371Y-93795115D01*
X154451076Y-93738120D01*
X154650654Y-93645056D01*
X154831038Y-93518749D01*
X154986749Y-93363038D01*
X155021087Y-93313999D01*
X155109899Y-93187162D01*
X155109900Y-93187160D01*
X155113056Y-93182653D01*
X155115379Y-93177671D01*
X155115382Y-93177666D01*
X155203795Y-92988061D01*
X155206120Y-92983076D01*
X155263115Y-92770371D01*
X155282307Y-92551000D01*
X155263115Y-92331629D01*
X155206120Y-92118924D01*
X155115498Y-91924583D01*
X155115382Y-91924334D01*
X155115379Y-91924329D01*
X155113056Y-91919347D01*
X155081786Y-91874689D01*
X154989908Y-91743473D01*
X154989906Y-91743470D01*
X154986749Y-91738962D01*
X154831038Y-91583251D01*
X154805859Y-91565620D01*
X154713342Y-91500839D01*
X154650654Y-91456944D01*
X154451076Y-91363880D01*
X154238371Y-91306885D01*
X154019000Y-91287693D01*
X153799629Y-91306885D01*
X153586924Y-91363880D01*
X153577999Y-91368042D01*
X153392334Y-91454618D01*
X153392329Y-91454621D01*
X153387347Y-91456944D01*
X153382840Y-91460100D01*
X153382838Y-91460101D01*
X153211473Y-91580092D01*
X153211470Y-91580094D01*
X153206962Y-91583251D01*
X153051251Y-91738962D01*
X153048094Y-91743470D01*
X153048092Y-91743473D01*
X152956214Y-91874689D01*
X152924944Y-91919347D01*
X152922621Y-91924329D01*
X152922618Y-91924334D01*
X152922502Y-91924583D01*
X152831880Y-92118924D01*
X152774885Y-92331629D01*
X152755693Y-92551000D01*
X152234307Y-92551000D01*
X152215115Y-92331629D01*
X152158120Y-92118924D01*
X152067498Y-91924583D01*
X152067382Y-91924334D01*
X152067379Y-91924329D01*
X152065056Y-91919347D01*
X152033786Y-91874689D01*
X151941908Y-91743473D01*
X151941906Y-91743470D01*
X151938749Y-91738962D01*
X151783038Y-91583251D01*
X151757859Y-91565620D01*
X151665342Y-91500839D01*
X151602654Y-91456944D01*
X151403076Y-91363880D01*
X151190371Y-91306885D01*
X151184895Y-91306406D01*
X151184862Y-91306400D01*
X151117643Y-91271409D01*
X138646855Y-78800621D01*
X138637753Y-78790478D01*
X138617897Y-78765782D01*
X138614032Y-78760975D01*
X138575578Y-78728708D01*
X138571931Y-78725528D01*
X138570119Y-78723885D01*
X138567925Y-78721691D01*
X138534651Y-78694358D01*
X138533853Y-78693696D01*
X138462526Y-78633846D01*
X138457856Y-78631278D01*
X138453739Y-78627897D01*
X138371914Y-78584023D01*
X138370755Y-78583394D01*
X138294619Y-78541538D01*
X138294611Y-78541535D01*
X138289213Y-78538567D01*
X138284131Y-78536955D01*
X138279437Y-78534438D01*
X138190469Y-78507238D01*
X138189441Y-78506918D01*
X138100694Y-78478765D01*
X138095398Y-78478171D01*
X138090302Y-78476613D01*
X137997743Y-78467210D01*
X137996607Y-78467089D01*
X137962992Y-78463319D01*
X137950270Y-78461892D01*
X137950266Y-78461892D01*
X137946773Y-78461500D01*
X137943246Y-78461500D01*
X137942261Y-78461445D01*
X137936581Y-78460998D01*
X137907175Y-78458011D01*
X137899663Y-78457248D01*
X137899661Y-78457248D01*
X137893538Y-78456626D01*
X137851259Y-78460623D01*
X137847891Y-78460941D01*
X137836033Y-78461500D01*
X136842568Y-78461500D01*
X136770297Y-78438713D01*
X136765218Y-78435156D01*
X136680654Y-78375944D01*
X136481076Y-78282880D01*
X136268371Y-78225885D01*
X136049000Y-78206693D01*
X135829629Y-78225885D01*
X135616924Y-78282880D01*
X135523562Y-78326415D01*
X135422334Y-78373618D01*
X135422329Y-78373621D01*
X135417347Y-78375944D01*
X135412840Y-78379100D01*
X135412838Y-78379101D01*
X135241473Y-78499092D01*
X135241470Y-78499094D01*
X135236962Y-78502251D01*
X135081251Y-78657962D01*
X135078094Y-78662470D01*
X135078092Y-78662473D01*
X134981360Y-78800621D01*
X134954944Y-78838347D01*
X134952621Y-78843328D01*
X134952618Y-78843334D01*
X134905415Y-78944562D01*
X134861880Y-79037924D01*
X134804885Y-79250629D01*
X134785693Y-79470000D01*
X134804885Y-79689371D01*
X134861880Y-79902076D01*
X134864205Y-79907061D01*
X134952618Y-80096666D01*
X134952621Y-80096671D01*
X134954944Y-80101653D01*
X135081251Y-80282038D01*
X135236962Y-80437749D01*
X135417346Y-80564056D01*
X135616924Y-80657120D01*
X135829629Y-80714115D01*
X136049000Y-80733307D01*
X136268371Y-80714115D01*
X136481076Y-80657120D01*
X136680654Y-80564056D01*
X136770297Y-80501287D01*
X136842568Y-80478500D01*
X137420075Y-80478500D01*
X137488196Y-80498502D01*
X137509170Y-80515405D01*
X141749170Y-84755405D01*
X141783196Y-84817717D01*
X141778131Y-84888532D01*
X141735584Y-84945368D01*
X141669064Y-84970179D01*
X141660075Y-84970500D01*
X133629925Y-84970500D01*
X133561804Y-84950498D01*
X133540830Y-84933595D01*
X128077234Y-79470000D01*
X130086693Y-79470000D01*
X130105885Y-79689371D01*
X130162880Y-79902076D01*
X130165205Y-79907061D01*
X130253618Y-80096666D01*
X130253621Y-80096671D01*
X130255944Y-80101653D01*
X130382251Y-80282038D01*
X130537962Y-80437749D01*
X130718346Y-80564056D01*
X130917924Y-80657120D01*
X131130629Y-80714115D01*
X131350000Y-80733307D01*
X131569371Y-80714115D01*
X131782076Y-80657120D01*
X131981654Y-80564056D01*
X132162038Y-80437749D01*
X132317749Y-80282038D01*
X132444056Y-80101653D01*
X132446379Y-80096671D01*
X132446382Y-80096666D01*
X132534795Y-79907061D01*
X132537120Y-79902076D01*
X132594115Y-79689371D01*
X132613307Y-79470000D01*
X132594115Y-79250629D01*
X132537120Y-79037924D01*
X132444056Y-78838347D01*
X132440899Y-78833838D01*
X132438881Y-78830343D01*
X132422000Y-78767342D01*
X132422000Y-69976567D01*
X132444787Y-69904297D01*
X132500181Y-69825185D01*
X132507556Y-69814653D01*
X132527336Y-69772235D01*
X132562685Y-69696429D01*
X132609602Y-69643144D01*
X132677880Y-69623683D01*
X132745840Y-69644225D01*
X132791074Y-69696428D01*
X132797419Y-69710035D01*
X132846686Y-69815689D01*
X132846689Y-69815694D01*
X132849012Y-69820676D01*
X132852168Y-69825183D01*
X132852169Y-69825185D01*
X132960312Y-69979629D01*
X132976523Y-70002781D01*
X133133719Y-70159977D01*
X133138227Y-70163134D01*
X133138230Y-70163136D01*
X133213995Y-70216187D01*
X133315823Y-70287488D01*
X133320805Y-70289811D01*
X133320810Y-70289814D01*
X133511310Y-70378645D01*
X133517304Y-70381440D01*
X133522612Y-70382862D01*
X133522614Y-70382863D01*
X133588449Y-70400503D01*
X133732037Y-70438978D01*
X133953500Y-70458353D01*
X134174963Y-70438978D01*
X134318551Y-70400503D01*
X134384386Y-70382863D01*
X134384388Y-70382862D01*
X134389696Y-70381440D01*
X134395690Y-70378645D01*
X134586190Y-70289814D01*
X134586195Y-70289811D01*
X134591177Y-70287488D01*
X134656459Y-70241777D01*
X135799277Y-70241777D01*
X135808574Y-70253793D01*
X135851569Y-70283898D01*
X135861055Y-70289376D01*
X136052493Y-70378645D01*
X136062785Y-70382391D01*
X136266809Y-70437059D01*
X136277604Y-70438962D01*
X136488025Y-70457372D01*
X136498975Y-70457372D01*
X136709396Y-70438962D01*
X136720191Y-70437059D01*
X136924215Y-70382391D01*
X136934507Y-70378645D01*
X137125945Y-70289376D01*
X137135431Y-70283898D01*
X137179264Y-70253207D01*
X137187639Y-70242729D01*
X137180571Y-70229281D01*
X137150290Y-70199000D01*
X139293693Y-70199000D01*
X139312885Y-70418371D01*
X139369880Y-70631076D01*
X139372205Y-70636061D01*
X139460618Y-70825666D01*
X139460621Y-70825671D01*
X139462944Y-70830653D01*
X139466100Y-70835160D01*
X139466101Y-70835162D01*
X139569474Y-70982793D01*
X139589251Y-71011038D01*
X139744962Y-71166749D01*
X139925346Y-71293056D01*
X140124924Y-71386120D01*
X140337629Y-71443115D01*
X140557000Y-71462307D01*
X140776371Y-71443115D01*
X140989076Y-71386120D01*
X141188654Y-71293056D01*
X141369038Y-71166749D01*
X141524749Y-71011038D01*
X141544527Y-70982793D01*
X141647899Y-70835162D01*
X141647900Y-70835160D01*
X141651056Y-70830653D01*
X141653379Y-70825671D01*
X141653382Y-70825666D01*
X141741795Y-70636061D01*
X141744120Y-70631076D01*
X141801115Y-70418371D01*
X141820307Y-70199000D01*
X152755693Y-70199000D01*
X152774885Y-70418371D01*
X152831880Y-70631076D01*
X152834205Y-70636061D01*
X152922618Y-70825666D01*
X152922621Y-70825671D01*
X152924944Y-70830653D01*
X152928100Y-70835160D01*
X152928101Y-70835162D01*
X153031474Y-70982793D01*
X153051251Y-71011038D01*
X153206962Y-71166749D01*
X153387346Y-71293056D01*
X153586924Y-71386120D01*
X153799629Y-71443115D01*
X154019000Y-71462307D01*
X154238371Y-71443115D01*
X154451076Y-71386120D01*
X154650654Y-71293056D01*
X154831038Y-71166749D01*
X154986749Y-71011038D01*
X155006527Y-70982793D01*
X155109899Y-70835162D01*
X155109900Y-70835160D01*
X155113056Y-70830653D01*
X155115379Y-70825671D01*
X155115382Y-70825666D01*
X155203795Y-70636061D01*
X155206120Y-70631076D01*
X155263115Y-70418371D01*
X155282307Y-70199000D01*
X155263115Y-69979629D01*
X155206120Y-69766924D01*
X155148401Y-69643144D01*
X155115382Y-69572334D01*
X155115379Y-69572329D01*
X155113056Y-69567347D01*
X155102163Y-69551790D01*
X154989908Y-69391473D01*
X154989906Y-69391470D01*
X154986749Y-69386962D01*
X154831038Y-69231251D01*
X154824181Y-69226449D01*
X154748447Y-69173420D01*
X154650654Y-69104944D01*
X154451076Y-69011880D01*
X154238371Y-68954885D01*
X154019000Y-68935693D01*
X153799629Y-68954885D01*
X153586924Y-69011880D01*
X153520393Y-69042904D01*
X153392334Y-69102618D01*
X153392329Y-69102621D01*
X153387347Y-69104944D01*
X153382840Y-69108100D01*
X153382838Y-69108101D01*
X153211473Y-69228092D01*
X153211470Y-69228094D01*
X153206962Y-69231251D01*
X153051251Y-69386962D01*
X153048094Y-69391470D01*
X153048092Y-69391473D01*
X152935837Y-69551790D01*
X152924944Y-69567347D01*
X152922621Y-69572329D01*
X152922618Y-69572334D01*
X152889599Y-69643144D01*
X152831880Y-69766924D01*
X152774885Y-69979629D01*
X152755693Y-70199000D01*
X141820307Y-70199000D01*
X141801115Y-69979629D01*
X141744120Y-69766924D01*
X141686401Y-69643144D01*
X141653382Y-69572334D01*
X141653379Y-69572329D01*
X141651056Y-69567347D01*
X141640163Y-69551790D01*
X141527908Y-69391473D01*
X141527906Y-69391470D01*
X141524749Y-69386962D01*
X141369038Y-69231251D01*
X141362181Y-69226449D01*
X141286447Y-69173420D01*
X141188654Y-69104944D01*
X140989076Y-69011880D01*
X140776371Y-68954885D01*
X140557000Y-68935693D01*
X140337629Y-68954885D01*
X140124924Y-69011880D01*
X140058393Y-69042904D01*
X139930334Y-69102618D01*
X139930329Y-69102621D01*
X139925347Y-69104944D01*
X139920840Y-69108100D01*
X139920838Y-69108101D01*
X139749473Y-69228092D01*
X139749470Y-69228094D01*
X139744962Y-69231251D01*
X139589251Y-69386962D01*
X139586094Y-69391470D01*
X139586092Y-69391473D01*
X139473837Y-69551790D01*
X139462944Y-69567347D01*
X139460621Y-69572329D01*
X139460618Y-69572334D01*
X139427599Y-69643144D01*
X139369880Y-69766924D01*
X139312885Y-69979629D01*
X139293693Y-70199000D01*
X137150290Y-70199000D01*
X136506312Y-69555022D01*
X136492368Y-69547408D01*
X136490535Y-69547539D01*
X136483920Y-69551790D01*
X135805707Y-70230003D01*
X135799277Y-70241777D01*
X134656459Y-70241777D01*
X134693005Y-70216187D01*
X134768770Y-70163136D01*
X134768773Y-70163134D01*
X134773281Y-70159977D01*
X134930477Y-70002781D01*
X134946689Y-69979629D01*
X135054831Y-69825185D01*
X135054832Y-69825183D01*
X135057988Y-69820676D01*
X135060311Y-69815694D01*
X135060314Y-69815689D01*
X135109581Y-69710035D01*
X135156499Y-69656750D01*
X135224776Y-69637289D01*
X135292736Y-69657831D01*
X135337971Y-69710035D01*
X135387123Y-69815441D01*
X135392603Y-69824932D01*
X135423294Y-69868765D01*
X135433771Y-69877140D01*
X135447218Y-69870072D01*
X136121478Y-69195812D01*
X136127856Y-69184132D01*
X136857908Y-69184132D01*
X136858039Y-69185965D01*
X136862290Y-69192580D01*
X137540503Y-69870793D01*
X137552277Y-69877223D01*
X137564293Y-69867926D01*
X137594397Y-69824932D01*
X137599877Y-69815441D01*
X137689145Y-69624007D01*
X137692891Y-69613715D01*
X137747559Y-69409691D01*
X137749462Y-69398896D01*
X137767872Y-69188475D01*
X137767872Y-69177525D01*
X137749462Y-68967104D01*
X137747559Y-68956309D01*
X137692891Y-68752285D01*
X137689145Y-68741993D01*
X137599877Y-68550559D01*
X137594397Y-68541068D01*
X137563706Y-68497235D01*
X137553229Y-68488860D01*
X137539782Y-68495928D01*
X136865522Y-69170188D01*
X136857908Y-69184132D01*
X136127856Y-69184132D01*
X136129092Y-69181868D01*
X136128961Y-69180035D01*
X136124710Y-69173420D01*
X135446497Y-68495207D01*
X135434723Y-68488777D01*
X135422707Y-68498074D01*
X135392603Y-68541068D01*
X135387123Y-68550559D01*
X135337971Y-68655965D01*
X135291053Y-68709250D01*
X135222776Y-68728711D01*
X135154816Y-68708169D01*
X135109581Y-68655965D01*
X135060314Y-68550311D01*
X135060311Y-68550306D01*
X135057988Y-68545324D01*
X135024916Y-68498092D01*
X134933636Y-68367730D01*
X134933634Y-68367727D01*
X134930477Y-68363219D01*
X134773281Y-68206023D01*
X134768773Y-68202866D01*
X134768770Y-68202864D01*
X134693005Y-68149813D01*
X134655099Y-68123271D01*
X135799360Y-68123271D01*
X135806428Y-68136718D01*
X136480688Y-68810978D01*
X136494632Y-68818592D01*
X136496465Y-68818461D01*
X136503080Y-68814210D01*
X137181293Y-68135997D01*
X137187723Y-68124223D01*
X137178426Y-68112207D01*
X137135431Y-68082102D01*
X137125945Y-68076624D01*
X136934507Y-67987355D01*
X136924215Y-67983609D01*
X136720191Y-67928941D01*
X136709396Y-67927038D01*
X136498975Y-67908628D01*
X136488025Y-67908628D01*
X136277604Y-67927038D01*
X136266809Y-67928941D01*
X136062785Y-67983609D01*
X136052493Y-67987355D01*
X135861059Y-68076623D01*
X135851568Y-68082103D01*
X135807735Y-68112794D01*
X135799360Y-68123271D01*
X134655099Y-68123271D01*
X134591177Y-68078512D01*
X134586195Y-68076189D01*
X134586190Y-68076186D01*
X134394678Y-67986883D01*
X134394677Y-67986882D01*
X134389696Y-67984560D01*
X134384388Y-67983138D01*
X134384386Y-67983137D01*
X134318551Y-67965497D01*
X134174963Y-67927022D01*
X133953500Y-67907647D01*
X133732037Y-67927022D01*
X133588449Y-67965497D01*
X133522614Y-67983137D01*
X133522612Y-67983138D01*
X133517304Y-67984560D01*
X133512323Y-67986882D01*
X133512322Y-67986883D01*
X133320811Y-68076186D01*
X133320806Y-68076189D01*
X133315824Y-68078512D01*
X133311317Y-68081668D01*
X133311315Y-68081669D01*
X133138230Y-68202864D01*
X133138227Y-68202866D01*
X133133719Y-68206023D01*
X132976523Y-68363219D01*
X132973366Y-68367727D01*
X132973364Y-68367730D01*
X132882084Y-68498092D01*
X132849012Y-68545324D01*
X132846689Y-68550306D01*
X132846686Y-68550311D01*
X132819345Y-68608945D01*
X132791074Y-68669572D01*
X132744158Y-68722856D01*
X132675881Y-68742317D01*
X132607921Y-68721775D01*
X132562685Y-68669571D01*
X132509882Y-68556334D01*
X132509879Y-68556329D01*
X132507556Y-68551347D01*
X132500359Y-68541068D01*
X132384408Y-68375473D01*
X132384406Y-68375470D01*
X132381249Y-68370962D01*
X132225538Y-68215251D01*
X132212360Y-68206023D01*
X132095537Y-68124223D01*
X132045154Y-68088944D01*
X131845576Y-67995880D01*
X131632871Y-67938885D01*
X131413500Y-67919693D01*
X131194129Y-67938885D01*
X130981424Y-67995880D01*
X130888062Y-68039415D01*
X130786834Y-68086618D01*
X130786829Y-68086621D01*
X130781847Y-68088944D01*
X130777340Y-68092100D01*
X130777338Y-68092101D01*
X130605973Y-68212092D01*
X130605970Y-68212094D01*
X130601462Y-68215251D01*
X130445751Y-68370962D01*
X130442594Y-68375470D01*
X130442592Y-68375473D01*
X130326641Y-68541068D01*
X130319444Y-68551347D01*
X130317121Y-68556329D01*
X130317118Y-68556334D01*
X130272012Y-68653065D01*
X130226380Y-68750924D01*
X130169385Y-68963629D01*
X130150193Y-69183000D01*
X130169385Y-69402371D01*
X130226380Y-69615076D01*
X130319444Y-69814653D01*
X130326819Y-69825185D01*
X130382213Y-69904297D01*
X130405000Y-69976567D01*
X130405000Y-78585745D01*
X130382213Y-78658016D01*
X130306755Y-78765782D01*
X130255944Y-78838347D01*
X130253621Y-78843328D01*
X130253618Y-78843334D01*
X130206415Y-78944562D01*
X130162880Y-79037924D01*
X130105885Y-79250629D01*
X130086693Y-79470000D01*
X128077234Y-79470000D01*
X127930591Y-79323357D01*
X127895600Y-79256138D01*
X127895594Y-79256103D01*
X127895115Y-79250629D01*
X127838120Y-79037924D01*
X127784064Y-78922001D01*
X127747379Y-78843328D01*
X127747377Y-78843325D01*
X127745056Y-78838347D01*
X127682287Y-78748703D01*
X127659500Y-78676433D01*
X127659500Y-70216867D01*
X127682287Y-70144597D01*
X127709896Y-70105167D01*
X127709899Y-70105161D01*
X127713056Y-70100653D01*
X127715379Y-70095671D01*
X127715382Y-70095666D01*
X127803795Y-69906061D01*
X127806120Y-69901076D01*
X127863115Y-69688371D01*
X127882307Y-69469000D01*
X127863115Y-69249629D01*
X127806120Y-69036924D01*
X127758650Y-68935124D01*
X127715382Y-68842334D01*
X127715379Y-68842329D01*
X127713056Y-68837347D01*
X127699832Y-68818461D01*
X127589908Y-68661473D01*
X127589906Y-68661470D01*
X127586749Y-68656962D01*
X127431038Y-68501251D01*
X127422407Y-68495207D01*
X127351759Y-68445739D01*
X127250654Y-68374944D01*
X127051076Y-68281880D01*
X126838371Y-68224885D01*
X126619000Y-68205693D01*
X126399629Y-68224885D01*
X126186924Y-68281880D01*
X126093562Y-68325415D01*
X125992334Y-68372618D01*
X125992329Y-68372621D01*
X125987347Y-68374944D01*
X125982840Y-68378100D01*
X125982838Y-68378101D01*
X125811473Y-68498092D01*
X125811470Y-68498094D01*
X125806962Y-68501251D01*
X125651251Y-68656962D01*
X125648094Y-68661470D01*
X125648092Y-68661473D01*
X125538168Y-68818461D01*
X125524944Y-68837347D01*
X125522621Y-68842329D01*
X125522618Y-68842334D01*
X125479350Y-68935124D01*
X125431880Y-69036924D01*
X125374885Y-69249629D01*
X125355693Y-69469000D01*
X125374885Y-69688371D01*
X125431880Y-69901076D01*
X125434205Y-69906061D01*
X125522618Y-70095666D01*
X125522621Y-70095671D01*
X125524944Y-70100653D01*
X125528100Y-70105160D01*
X125528101Y-70105162D01*
X125619713Y-70235997D01*
X125642500Y-70308268D01*
X125642500Y-78676433D01*
X125619713Y-78748703D01*
X125556944Y-78838347D01*
X125554623Y-78843325D01*
X125554621Y-78843328D01*
X125517936Y-78922001D01*
X125463880Y-79037924D01*
X125406885Y-79250629D01*
X125387693Y-79470000D01*
X125406885Y-79689371D01*
X125463880Y-79902076D01*
X125466205Y-79907061D01*
X125554618Y-80096666D01*
X125554621Y-80096671D01*
X125556944Y-80101653D01*
X125683251Y-80282038D01*
X125838962Y-80437749D01*
X126019346Y-80564056D01*
X126218924Y-80657120D01*
X126431629Y-80714115D01*
X126437103Y-80714594D01*
X126437138Y-80714600D01*
X126504357Y-80749591D01*
X132403145Y-86648379D01*
X132412247Y-86658522D01*
X132435968Y-86688025D01*
X132440696Y-86691992D01*
X132474421Y-86720291D01*
X132478069Y-86723472D01*
X132479881Y-86725115D01*
X132482075Y-86727309D01*
X132515349Y-86754642D01*
X132516147Y-86755304D01*
X132587474Y-86815154D01*
X132592144Y-86817722D01*
X132596261Y-86821103D01*
X132654145Y-86852140D01*
X132678086Y-86864977D01*
X132679245Y-86865606D01*
X132755381Y-86907462D01*
X132755389Y-86907465D01*
X132760787Y-86910433D01*
X132765869Y-86912045D01*
X132770563Y-86914562D01*
X132859531Y-86941762D01*
X132860559Y-86942082D01*
X132949306Y-86970235D01*
X132954602Y-86970829D01*
X132959698Y-86972387D01*
X133052257Y-86981790D01*
X133053393Y-86981911D01*
X133087008Y-86985681D01*
X133099730Y-86987108D01*
X133099734Y-86987108D01*
X133103227Y-86987500D01*
X133106754Y-86987500D01*
X133107739Y-86987555D01*
X133113419Y-86988002D01*
X133142825Y-86990989D01*
X133150337Y-86991752D01*
X133150339Y-86991752D01*
X133156462Y-86992374D01*
X133202108Y-86988059D01*
X133213967Y-86987500D01*
X141389075Y-86987500D01*
X141457196Y-87007502D01*
X141478170Y-87024405D01*
X151643145Y-97189379D01*
X151652247Y-97199522D01*
X151675968Y-97229025D01*
X151680696Y-97232992D01*
X151714421Y-97261291D01*
X151718069Y-97264472D01*
X151719881Y-97266115D01*
X151722075Y-97268309D01*
X151755349Y-97295642D01*
X151756147Y-97296304D01*
X151827474Y-97356154D01*
X151832144Y-97358722D01*
X151836261Y-97362103D01*
X151888504Y-97390115D01*
X151918086Y-97405977D01*
X151919245Y-97406606D01*
X151995381Y-97448462D01*
X151995389Y-97448465D01*
X152000787Y-97451433D01*
X152005869Y-97453045D01*
X152010563Y-97455562D01*
X152099531Y-97482762D01*
X152100559Y-97483082D01*
X152189306Y-97511235D01*
X152194602Y-97511829D01*
X152199698Y-97513387D01*
X152292257Y-97522790D01*
X152293393Y-97522911D01*
X152327008Y-97526681D01*
X152339730Y-97528108D01*
X152339734Y-97528108D01*
X152343227Y-97528500D01*
X152346754Y-97528500D01*
X152347739Y-97528555D01*
X152353419Y-97529002D01*
X152382825Y-97531989D01*
X152390337Y-97532752D01*
X152390339Y-97532752D01*
X152396462Y-97533374D01*
X152442108Y-97529059D01*
X152453967Y-97528500D01*
X154216075Y-97528500D01*
X154284196Y-97548502D01*
X154305170Y-97565405D01*
X155393077Y-98653312D01*
X155427103Y-98715624D01*
X155422038Y-98786439D01*
X155379491Y-98843275D01*
X155312971Y-98868086D01*
X155243597Y-98852995D01*
X155231717Y-98845624D01*
X155063654Y-98727944D01*
X154864076Y-98634880D01*
X154651371Y-98577885D01*
X154432000Y-98558693D01*
X154212629Y-98577885D01*
X153999924Y-98634880D01*
X153906562Y-98678415D01*
X153805334Y-98725618D01*
X153805329Y-98725621D01*
X153800347Y-98727944D01*
X153795840Y-98731100D01*
X153795838Y-98731101D01*
X153624473Y-98851092D01*
X153624470Y-98851094D01*
X153619962Y-98854251D01*
X153464251Y-99009962D01*
X153461094Y-99014470D01*
X153461092Y-99014473D01*
X153350243Y-99172782D01*
X153337944Y-99190347D01*
X153335621Y-99195329D01*
X153335618Y-99195334D01*
X153291019Y-99290979D01*
X153244880Y-99389924D01*
X153187885Y-99602629D01*
X153168693Y-99822000D01*
X153187885Y-100041371D01*
X153244880Y-100254076D01*
X153288921Y-100348523D01*
X153317619Y-100410065D01*
X153337944Y-100453653D01*
X153352918Y-100475038D01*
X153400713Y-100543297D01*
X153423500Y-100615567D01*
X153423500Y-101611500D01*
X153403498Y-101679621D01*
X153349842Y-101726114D01*
X153297500Y-101737500D01*
X146649924Y-101737500D01*
X146581803Y-101717498D01*
X146560829Y-101700595D01*
X138461395Y-93601161D01*
X139871393Y-93601161D01*
X139880687Y-93613175D01*
X139921088Y-93641464D01*
X139930584Y-93646947D01*
X140120113Y-93735326D01*
X140130405Y-93739072D01*
X140332401Y-93793196D01*
X140343196Y-93795099D01*
X140551525Y-93813326D01*
X140562475Y-93813326D01*
X140770804Y-93795099D01*
X140781599Y-93793196D01*
X140983595Y-93739072D01*
X140993887Y-93735326D01*
X141183416Y-93646947D01*
X141192912Y-93641464D01*
X141234148Y-93612590D01*
X141242523Y-93602112D01*
X141242023Y-93601161D01*
X142919393Y-93601161D01*
X142928687Y-93613175D01*
X142969088Y-93641464D01*
X142978584Y-93646947D01*
X143168113Y-93735326D01*
X143178405Y-93739072D01*
X143380401Y-93793196D01*
X143391196Y-93795099D01*
X143599525Y-93813326D01*
X143610475Y-93813326D01*
X143818804Y-93795099D01*
X143829599Y-93793196D01*
X144031595Y-93739072D01*
X144041887Y-93735326D01*
X144231416Y-93646947D01*
X144240912Y-93641464D01*
X144282148Y-93612590D01*
X144290523Y-93602112D01*
X144283457Y-93588668D01*
X143617811Y-92923021D01*
X143603868Y-92915408D01*
X143602034Y-92915539D01*
X143595420Y-92919790D01*
X142925820Y-93589391D01*
X142919393Y-93601161D01*
X141242023Y-93601161D01*
X141235457Y-93588668D01*
X140569811Y-92923021D01*
X140555868Y-92915408D01*
X140554034Y-92915539D01*
X140547420Y-92919790D01*
X139877820Y-93589391D01*
X139871393Y-93601161D01*
X138461395Y-93601161D01*
X137416709Y-92556475D01*
X139294674Y-92556475D01*
X139312901Y-92764804D01*
X139314804Y-92775599D01*
X139368928Y-92977595D01*
X139372674Y-92987887D01*
X139461054Y-93177417D01*
X139466534Y-93186907D01*
X139495411Y-93228149D01*
X139505887Y-93236523D01*
X139519334Y-93229455D01*
X140184979Y-92563811D01*
X140191356Y-92552132D01*
X140921408Y-92552132D01*
X140921539Y-92553966D01*
X140925790Y-92560580D01*
X141595391Y-93230180D01*
X141607161Y-93236607D01*
X141619176Y-93227311D01*
X141647466Y-93186907D01*
X141652946Y-93177417D01*
X141741326Y-92987887D01*
X141745072Y-92977595D01*
X141799196Y-92775599D01*
X141801099Y-92764804D01*
X141819326Y-92556475D01*
X142342674Y-92556475D01*
X142360901Y-92764804D01*
X142362804Y-92775599D01*
X142416928Y-92977595D01*
X142420674Y-92987887D01*
X142509054Y-93177417D01*
X142514534Y-93186907D01*
X142543411Y-93228149D01*
X142553887Y-93236523D01*
X142567334Y-93229455D01*
X143232979Y-92563811D01*
X143239356Y-92552132D01*
X143969408Y-92552132D01*
X143969539Y-92553966D01*
X143973790Y-92560580D01*
X144643391Y-93230180D01*
X144655161Y-93236607D01*
X144667176Y-93227311D01*
X144695466Y-93186907D01*
X144700946Y-93177417D01*
X144789326Y-92987887D01*
X144793072Y-92977595D01*
X144847196Y-92775599D01*
X144849099Y-92764804D01*
X144867326Y-92556475D01*
X144867326Y-92545525D01*
X144849099Y-92337196D01*
X144847196Y-92326401D01*
X144793072Y-92124405D01*
X144789326Y-92114113D01*
X144700946Y-91924583D01*
X144695466Y-91915093D01*
X144666589Y-91873851D01*
X144656113Y-91865477D01*
X144642666Y-91872545D01*
X143977021Y-92538189D01*
X143969408Y-92552132D01*
X143239356Y-92552132D01*
X143240592Y-92549868D01*
X143240461Y-92548034D01*
X143236210Y-92541420D01*
X142566609Y-91871820D01*
X142554839Y-91865393D01*
X142542824Y-91874689D01*
X142514534Y-91915093D01*
X142509054Y-91924583D01*
X142420674Y-92114113D01*
X142416928Y-92124405D01*
X142362804Y-92326401D01*
X142360901Y-92337196D01*
X142342674Y-92545525D01*
X142342674Y-92556475D01*
X141819326Y-92556475D01*
X141819326Y-92545525D01*
X141801099Y-92337196D01*
X141799196Y-92326401D01*
X141745072Y-92124405D01*
X141741326Y-92114113D01*
X141652946Y-91924583D01*
X141647466Y-91915093D01*
X141618589Y-91873851D01*
X141608113Y-91865477D01*
X141594666Y-91872545D01*
X140929021Y-92538189D01*
X140921408Y-92552132D01*
X140191356Y-92552132D01*
X140192592Y-92549868D01*
X140192461Y-92548034D01*
X140188210Y-92541420D01*
X139518609Y-91871820D01*
X139506839Y-91865393D01*
X139494824Y-91874689D01*
X139466534Y-91915093D01*
X139461054Y-91924583D01*
X139372674Y-92114113D01*
X139368928Y-92124405D01*
X139314804Y-92326401D01*
X139312901Y-92337196D01*
X139294674Y-92545525D01*
X139294674Y-92556475D01*
X137416709Y-92556475D01*
X136756591Y-91896357D01*
X136721600Y-91829138D01*
X136721594Y-91829105D01*
X136721115Y-91823629D01*
X136664120Y-91610924D01*
X136612343Y-91499887D01*
X139871477Y-91499887D01*
X139878545Y-91513334D01*
X140544189Y-92178979D01*
X140558132Y-92186592D01*
X140559966Y-92186461D01*
X140566580Y-92182210D01*
X141236180Y-91512609D01*
X141242607Y-91500839D01*
X141241871Y-91499887D01*
X142919477Y-91499887D01*
X142926545Y-91513334D01*
X143592189Y-92178979D01*
X143606132Y-92186592D01*
X143607966Y-92186461D01*
X143614580Y-92182210D01*
X144284180Y-91512609D01*
X144290607Y-91500839D01*
X144281313Y-91488825D01*
X144240912Y-91460536D01*
X144231416Y-91455053D01*
X144041887Y-91366674D01*
X144031595Y-91362928D01*
X143829599Y-91308804D01*
X143818804Y-91306901D01*
X143610475Y-91288674D01*
X143599525Y-91288674D01*
X143391196Y-91306901D01*
X143380401Y-91308804D01*
X143178405Y-91362928D01*
X143168113Y-91366674D01*
X142978583Y-91455054D01*
X142969093Y-91460534D01*
X142927851Y-91489411D01*
X142919477Y-91499887D01*
X141241871Y-91499887D01*
X141233313Y-91488825D01*
X141192912Y-91460536D01*
X141183416Y-91455053D01*
X140993887Y-91366674D01*
X140983595Y-91362928D01*
X140781599Y-91308804D01*
X140770804Y-91306901D01*
X140562475Y-91288674D01*
X140551525Y-91288674D01*
X140343196Y-91306901D01*
X140332401Y-91308804D01*
X140130405Y-91362928D01*
X140120113Y-91366674D01*
X139930583Y-91455054D01*
X139921093Y-91460534D01*
X139879851Y-91489411D01*
X139871477Y-91499887D01*
X136612343Y-91499887D01*
X136607458Y-91489411D01*
X136573382Y-91416334D01*
X136573379Y-91416329D01*
X136571056Y-91411347D01*
X136563180Y-91400099D01*
X136447908Y-91235473D01*
X136447906Y-91235470D01*
X136444749Y-91230962D01*
X136289038Y-91075251D01*
X136252167Y-91049433D01*
X136198297Y-91011713D01*
X136108654Y-90948944D01*
X135909076Y-90855880D01*
X135696371Y-90798885D01*
X135477000Y-90779693D01*
X135257629Y-90798885D01*
X135044924Y-90855880D01*
X134929001Y-90909936D01*
X134850328Y-90946621D01*
X134850325Y-90946623D01*
X134845347Y-90948944D01*
X134778880Y-90995484D01*
X134755703Y-91011713D01*
X134683433Y-91034500D01*
X133443842Y-91034500D01*
X133430235Y-91033763D01*
X133398737Y-91030341D01*
X133398732Y-91030341D01*
X133392611Y-91029676D01*
X133374611Y-91031251D01*
X133342609Y-91034050D01*
X133337784Y-91034379D01*
X133335313Y-91034500D01*
X133332231Y-91034500D01*
X133309763Y-91036703D01*
X133289489Y-91038691D01*
X133288174Y-91038813D01*
X133255913Y-91041636D01*
X133195587Y-91046913D01*
X133190468Y-91048400D01*
X133185167Y-91048920D01*
X133096166Y-91075791D01*
X133095033Y-91076126D01*
X133011586Y-91100370D01*
X133011582Y-91100372D01*
X133005664Y-91102091D01*
X133000932Y-91104544D01*
X132995831Y-91106084D01*
X132990388Y-91108978D01*
X132913740Y-91149731D01*
X132912574Y-91150343D01*
X132835547Y-91190271D01*
X132830074Y-91193108D01*
X132825911Y-91196431D01*
X132821204Y-91198934D01*
X132749082Y-91257755D01*
X132748226Y-91258446D01*
X132709027Y-91289738D01*
X132706523Y-91292242D01*
X132705805Y-91292884D01*
X132701472Y-91296585D01*
X132667938Y-91323935D01*
X132664011Y-91328682D01*
X132664009Y-91328684D01*
X132638713Y-91359262D01*
X132630723Y-91368042D01*
X125060621Y-98938145D01*
X125050478Y-98947247D01*
X125020975Y-98970968D01*
X125004865Y-98990167D01*
X124988709Y-99009421D01*
X124985528Y-99013069D01*
X124983885Y-99014881D01*
X124981691Y-99017075D01*
X124954358Y-99050349D01*
X124953696Y-99051147D01*
X124893846Y-99122474D01*
X124891278Y-99127144D01*
X124887897Y-99131261D01*
X124865634Y-99172782D01*
X124844023Y-99213086D01*
X124843394Y-99214245D01*
X124801538Y-99290381D01*
X124801535Y-99290389D01*
X124798567Y-99295787D01*
X124796955Y-99300869D01*
X124794438Y-99305563D01*
X124767238Y-99394531D01*
X124766918Y-99395559D01*
X124738765Y-99484306D01*
X124738171Y-99489602D01*
X124736613Y-99494698D01*
X124735990Y-99500834D01*
X124727218Y-99587187D01*
X124727089Y-99588393D01*
X124721500Y-99638227D01*
X124721500Y-99641754D01*
X124721445Y-99642739D01*
X124720998Y-99648419D01*
X124716626Y-99691462D01*
X124717206Y-99697593D01*
X124720941Y-99737109D01*
X124721500Y-99748967D01*
X124721500Y-120117991D01*
X124701498Y-120186112D01*
X124647842Y-120232605D01*
X124642306Y-120234903D01*
X124641704Y-120235232D01*
X124633295Y-120238385D01*
X124516739Y-120325739D01*
X124429385Y-120442295D01*
X124426233Y-120450703D01*
X124426232Y-120450705D01*
X124384722Y-120561433D01*
X124342081Y-120618198D01*
X124275519Y-120642898D01*
X124206170Y-120627691D01*
X124173546Y-120602004D01*
X124122799Y-120546234D01*
X124115273Y-120539215D01*
X123948139Y-120407222D01*
X123939552Y-120401517D01*
X123753117Y-120298599D01*
X123743705Y-120294369D01*
X123542959Y-120223280D01*
X123532988Y-120220646D01*
X123461837Y-120207972D01*
X123448540Y-120209432D01*
X123444000Y-120223989D01*
X123444000Y-122857517D01*
X123448064Y-122871359D01*
X123461478Y-122873393D01*
X123468184Y-122872534D01*
X123478262Y-122870392D01*
X123682255Y-122809191D01*
X123691842Y-122805433D01*
X123883095Y-122711739D01*
X123891945Y-122706464D01*
X124065328Y-122582792D01*
X124073193Y-122576145D01*
X124177897Y-122471805D01*
X124240268Y-122437889D01*
X124311075Y-122443077D01*
X124367837Y-122485723D01*
X124384819Y-122516826D01*
X124429385Y-122635705D01*
X124516739Y-122752261D01*
X124633295Y-122839615D01*
X124769684Y-122890745D01*
X124831866Y-122897500D01*
X126628134Y-122897500D01*
X126690316Y-122890745D01*
X126826705Y-122839615D01*
X126943261Y-122752261D01*
X127030615Y-122635705D01*
X127081745Y-122499316D01*
X127088500Y-122437134D01*
X127088500Y-120640866D01*
X127081745Y-120578684D01*
X127030615Y-120442295D01*
X126943261Y-120325739D01*
X126826705Y-120238385D01*
X126818296Y-120235233D01*
X126810425Y-120230923D01*
X126811336Y-120229259D01*
X126763510Y-120193337D01*
X126738807Y-120126776D01*
X126738500Y-120117991D01*
X126738500Y-100713161D01*
X134791393Y-100713161D01*
X134800687Y-100725175D01*
X134841088Y-100753464D01*
X134850584Y-100758947D01*
X135040113Y-100847326D01*
X135050405Y-100851072D01*
X135252401Y-100905196D01*
X135263196Y-100907099D01*
X135471525Y-100925326D01*
X135482475Y-100925326D01*
X135690804Y-100907099D01*
X135701599Y-100905196D01*
X135903595Y-100851072D01*
X135913887Y-100847326D01*
X136103416Y-100758947D01*
X136112912Y-100753464D01*
X136154148Y-100724590D01*
X136162523Y-100714112D01*
X136155457Y-100700668D01*
X135489811Y-100035021D01*
X135475868Y-100027408D01*
X135474034Y-100027539D01*
X135467420Y-100031790D01*
X134797820Y-100701391D01*
X134791393Y-100713161D01*
X126738500Y-100713161D01*
X126738500Y-100164925D01*
X126758502Y-100096804D01*
X126775405Y-100075830D01*
X127182760Y-99668475D01*
X134214674Y-99668475D01*
X134232901Y-99876804D01*
X134234804Y-99887599D01*
X134288928Y-100089595D01*
X134292674Y-100099887D01*
X134381054Y-100289417D01*
X134386534Y-100298907D01*
X134415411Y-100340149D01*
X134425887Y-100348523D01*
X134439334Y-100341455D01*
X135104979Y-99675811D01*
X135111356Y-99664132D01*
X135841408Y-99664132D01*
X135841539Y-99665966D01*
X135845790Y-99672580D01*
X136515391Y-100342180D01*
X136527161Y-100348607D01*
X136539176Y-100339311D01*
X136567466Y-100298907D01*
X136572946Y-100289417D01*
X136661326Y-100099887D01*
X136665072Y-100089595D01*
X136719196Y-99887599D01*
X136721099Y-99876804D01*
X136739326Y-99668475D01*
X136739326Y-99657525D01*
X136721099Y-99449196D01*
X136719196Y-99438401D01*
X136665072Y-99236405D01*
X136661326Y-99226113D01*
X136572946Y-99036583D01*
X136567466Y-99027093D01*
X136538589Y-98985851D01*
X136528113Y-98977477D01*
X136514666Y-98984545D01*
X135849021Y-99650189D01*
X135841408Y-99664132D01*
X135111356Y-99664132D01*
X135112592Y-99661868D01*
X135112461Y-99660034D01*
X135108210Y-99653420D01*
X134438609Y-98983820D01*
X134426839Y-98977393D01*
X134414824Y-98986689D01*
X134386534Y-99027093D01*
X134381054Y-99036583D01*
X134292674Y-99226113D01*
X134288928Y-99236405D01*
X134234804Y-99438401D01*
X134232901Y-99449196D01*
X134214674Y-99657525D01*
X134214674Y-99668475D01*
X127182760Y-99668475D01*
X133762829Y-93088405D01*
X133825141Y-93054379D01*
X133851924Y-93051500D01*
X134683432Y-93051500D01*
X134755703Y-93074287D01*
X134845346Y-93137056D01*
X134850328Y-93139379D01*
X134850333Y-93139382D01*
X134977768Y-93198805D01*
X135031053Y-93245722D01*
X135050514Y-93313999D01*
X135029972Y-93381959D01*
X134977768Y-93427195D01*
X134850334Y-93486618D01*
X134850329Y-93486621D01*
X134845347Y-93488944D01*
X134840840Y-93492100D01*
X134840838Y-93492101D01*
X134669473Y-93612092D01*
X134669470Y-93612094D01*
X134664962Y-93615251D01*
X134509251Y-93770962D01*
X134506094Y-93775470D01*
X134506092Y-93775473D01*
X134414743Y-93905933D01*
X134382944Y-93951347D01*
X134380621Y-93956329D01*
X134380618Y-93956334D01*
X134349323Y-94023448D01*
X134289880Y-94150924D01*
X134232885Y-94363629D01*
X134213693Y-94583000D01*
X134232885Y-94802371D01*
X134289880Y-95015076D01*
X134305988Y-95049619D01*
X134380618Y-95209666D01*
X134380621Y-95209671D01*
X134382944Y-95214653D01*
X134386100Y-95219160D01*
X134386101Y-95219162D01*
X134469644Y-95338473D01*
X134509251Y-95395038D01*
X134664962Y-95550749D01*
X134669471Y-95553906D01*
X134669473Y-95553908D01*
X134713243Y-95584556D01*
X134845346Y-95677056D01*
X134850328Y-95679379D01*
X134850333Y-95679382D01*
X134977768Y-95738805D01*
X135031053Y-95785722D01*
X135050514Y-95853999D01*
X135029972Y-95921959D01*
X134977768Y-95967195D01*
X134850334Y-96026618D01*
X134850329Y-96026621D01*
X134845347Y-96028944D01*
X134840840Y-96032100D01*
X134840838Y-96032101D01*
X134669473Y-96152092D01*
X134669470Y-96152094D01*
X134664962Y-96155251D01*
X134509251Y-96310962D01*
X134382944Y-96491347D01*
X134380621Y-96496329D01*
X134380618Y-96496334D01*
X134344978Y-96572765D01*
X134289880Y-96690924D01*
X134232885Y-96903629D01*
X134213693Y-97123000D01*
X134232885Y-97342371D01*
X134289880Y-97555076D01*
X134305987Y-97589618D01*
X134380618Y-97749666D01*
X134380621Y-97749671D01*
X134382944Y-97754653D01*
X134386100Y-97759160D01*
X134386101Y-97759162D01*
X134469644Y-97878473D01*
X134509251Y-97935038D01*
X134664962Y-98090749D01*
X134845346Y-98217056D01*
X134850328Y-98219379D01*
X134850333Y-98219382D01*
X134978359Y-98279081D01*
X135031644Y-98325998D01*
X135051105Y-98394276D01*
X135030563Y-98462236D01*
X134978359Y-98507471D01*
X134850583Y-98567054D01*
X134841093Y-98572534D01*
X134799851Y-98601411D01*
X134791477Y-98611887D01*
X134798545Y-98625334D01*
X135464189Y-99290979D01*
X135478132Y-99298592D01*
X135479966Y-99298461D01*
X135486580Y-99294210D01*
X136156180Y-98624609D01*
X136162607Y-98612839D01*
X136153313Y-98600825D01*
X136112912Y-98572536D01*
X136103416Y-98567053D01*
X135975641Y-98507471D01*
X135922356Y-98460554D01*
X135902895Y-98392276D01*
X135923437Y-98324316D01*
X135975641Y-98279081D01*
X136103667Y-98219382D01*
X136103672Y-98219379D01*
X136108654Y-98217056D01*
X136289038Y-98090749D01*
X136444749Y-97935038D01*
X136484357Y-97878473D01*
X136567899Y-97759162D01*
X136567900Y-97759160D01*
X136571056Y-97754653D01*
X136573379Y-97749671D01*
X136573382Y-97749666D01*
X136648013Y-97589618D01*
X136664120Y-97555076D01*
X136721115Y-97342371D01*
X136740307Y-97123000D01*
X136721115Y-96903629D01*
X136664120Y-96690924D01*
X136609022Y-96572765D01*
X136573382Y-96496334D01*
X136573379Y-96496329D01*
X136571056Y-96491347D01*
X136444749Y-96310962D01*
X136289038Y-96155251D01*
X136283646Y-96151475D01*
X136209759Y-96099739D01*
X136108654Y-96028944D01*
X136103672Y-96026621D01*
X136103667Y-96026618D01*
X135976232Y-95967195D01*
X135922947Y-95920278D01*
X135903486Y-95852001D01*
X135924028Y-95784041D01*
X135976232Y-95738805D01*
X136103667Y-95679382D01*
X136103672Y-95679379D01*
X136108654Y-95677056D01*
X136240757Y-95584556D01*
X136284527Y-95553908D01*
X136284529Y-95553906D01*
X136289038Y-95550749D01*
X136444749Y-95395038D01*
X136484357Y-95338473D01*
X136567899Y-95219162D01*
X136567900Y-95219160D01*
X136571056Y-95214653D01*
X136573379Y-95209671D01*
X136573382Y-95209666D01*
X136648012Y-95049619D01*
X136664120Y-95015076D01*
X136675482Y-94972675D01*
X136683443Y-94942963D01*
X136720395Y-94882340D01*
X136784256Y-94851319D01*
X136854750Y-94859747D01*
X136894245Y-94886479D01*
X145423145Y-103415379D01*
X145432247Y-103425522D01*
X145455968Y-103455025D01*
X145460696Y-103458992D01*
X145494421Y-103487291D01*
X145498069Y-103490472D01*
X145499881Y-103492115D01*
X145502075Y-103494309D01*
X145535349Y-103521642D01*
X145536147Y-103522304D01*
X145607474Y-103582154D01*
X145612144Y-103584722D01*
X145616261Y-103588103D01*
X145698120Y-103631995D01*
X145699280Y-103632624D01*
X145775389Y-103674466D01*
X145775394Y-103674468D01*
X145780787Y-103677433D01*
X145785865Y-103679044D01*
X145790563Y-103681563D01*
X145879498Y-103708753D01*
X145880702Y-103709128D01*
X145969306Y-103737235D01*
X145974597Y-103737828D01*
X145979698Y-103739388D01*
X146072311Y-103748795D01*
X146073431Y-103748915D01*
X146123227Y-103754500D01*
X146126756Y-103754500D01*
X146127739Y-103754555D01*
X146133426Y-103755003D01*
X146153683Y-103757060D01*
X146170336Y-103758752D01*
X146170339Y-103758752D01*
X146176463Y-103759374D01*
X146222112Y-103755059D01*
X146233969Y-103754500D01*
X153551260Y-103754500D01*
X153623531Y-103777287D01*
X153775251Y-103883523D01*
X153780233Y-103885846D01*
X153780238Y-103885849D01*
X153873613Y-103929390D01*
X153926898Y-103976307D01*
X153946359Y-104044585D01*
X153925817Y-104112545D01*
X153873612Y-104157780D01*
X153805332Y-104189619D01*
X153805328Y-104189621D01*
X153800347Y-104191944D01*
X153733880Y-104238484D01*
X153710703Y-104254713D01*
X153638433Y-104277500D01*
X147632850Y-104277500D01*
X147619242Y-104276763D01*
X147587737Y-104273340D01*
X147587733Y-104273340D01*
X147581612Y-104272675D01*
X147575473Y-104273212D01*
X147575469Y-104273212D01*
X147531589Y-104277051D01*
X147526752Y-104277381D01*
X147524314Y-104277500D01*
X147521231Y-104277500D01*
X147518174Y-104277800D01*
X147518169Y-104277800D01*
X147478580Y-104281682D01*
X147477265Y-104281804D01*
X147390723Y-104289375D01*
X147390721Y-104289375D01*
X147384587Y-104289912D01*
X147379463Y-104291401D01*
X147374167Y-104291920D01*
X147285172Y-104318789D01*
X147284085Y-104319111D01*
X147194664Y-104345091D01*
X147189932Y-104347544D01*
X147184831Y-104349084D01*
X147179400Y-104351972D01*
X147179392Y-104351975D01*
X147102680Y-104392763D01*
X147101514Y-104393375D01*
X147024548Y-104433271D01*
X147019075Y-104436108D01*
X147014914Y-104439430D01*
X147010204Y-104441934D01*
X147005430Y-104445828D01*
X147005428Y-104445829D01*
X146938168Y-104500686D01*
X146937142Y-104501515D01*
X146898028Y-104532738D01*
X146895537Y-104535229D01*
X146894810Y-104535879D01*
X146890461Y-104539594D01*
X146856938Y-104566935D01*
X146853015Y-104571677D01*
X146853013Y-104571679D01*
X146827703Y-104602273D01*
X146819713Y-104611053D01*
X142093357Y-109337409D01*
X142026138Y-109372400D01*
X142026105Y-109372406D01*
X142020629Y-109372885D01*
X141807924Y-109429880D01*
X141716169Y-109472666D01*
X141613334Y-109520618D01*
X141613329Y-109520621D01*
X141608347Y-109522944D01*
X141603840Y-109526100D01*
X141603838Y-109526101D01*
X141432473Y-109646092D01*
X141432470Y-109646094D01*
X141427962Y-109649251D01*
X141272251Y-109804962D01*
X141269094Y-109809470D01*
X141269092Y-109809473D01*
X141179812Y-109936978D01*
X141145944Y-109985347D01*
X141143621Y-109990329D01*
X141143618Y-109990334D01*
X141122080Y-110036523D01*
X141052880Y-110184924D01*
X140995885Y-110397629D01*
X140976693Y-110617000D01*
X140995885Y-110836371D01*
X141052880Y-111049076D01*
X141145944Y-111248653D01*
X141177801Y-111294149D01*
X141208713Y-111338297D01*
X141231500Y-111410567D01*
X141231500Y-113506433D01*
X141208713Y-113578703D01*
X141145944Y-113668347D01*
X141143623Y-113673325D01*
X141143621Y-113673328D01*
X141106936Y-113752001D01*
X141052880Y-113867924D01*
X140995885Y-114080629D01*
X140976693Y-114300000D01*
X140995885Y-114519371D01*
X141052880Y-114732076D01*
X141145944Y-114931653D01*
X141177801Y-114977149D01*
X141208713Y-115021297D01*
X141231500Y-115093567D01*
X141231500Y-117443433D01*
X141208713Y-117515703D01*
X141145944Y-117605347D01*
X141052880Y-117804924D01*
X140995885Y-118017629D01*
X140976693Y-118237000D01*
X140995885Y-118456371D01*
X141052880Y-118669076D01*
X141145944Y-118868653D01*
X141177801Y-118914149D01*
X141208713Y-118958297D01*
X141231500Y-119030567D01*
X141231500Y-121380433D01*
X141208713Y-121452703D01*
X141145944Y-121542347D01*
X141052880Y-121741924D01*
X140995885Y-121954629D01*
X140976693Y-122174000D01*
X140995885Y-122393371D01*
X141052880Y-122606076D01*
X141145944Y-122805653D01*
X141182643Y-122858065D01*
X141208713Y-122895297D01*
X141231500Y-122967567D01*
X141231500Y-125317433D01*
X141208713Y-125389703D01*
X141192484Y-125412880D01*
X141145944Y-125479347D01*
X141052880Y-125678924D01*
X140995885Y-125891629D01*
X140995406Y-125897105D01*
X140995400Y-125897138D01*
X140960409Y-125964357D01*
X140335171Y-126589595D01*
X140272859Y-126623621D01*
X140246076Y-126626500D01*
X132198992Y-126626500D01*
X132185385Y-126625763D01*
X132153887Y-126622341D01*
X132153882Y-126622341D01*
X132147761Y-126621676D01*
X132129761Y-126623251D01*
X132097759Y-126626050D01*
X132092934Y-126626379D01*
X132090463Y-126626500D01*
X132087381Y-126626500D01*
X132064913Y-126628703D01*
X132044639Y-126630691D01*
X132043324Y-126630813D01*
X132011063Y-126633636D01*
X131950737Y-126638913D01*
X131945618Y-126640400D01*
X131940317Y-126640920D01*
X131851344Y-126667782D01*
X131850204Y-126668120D01*
X131760813Y-126694091D01*
X131756079Y-126696545D01*
X131750981Y-126698084D01*
X131745537Y-126700978D01*
X131745536Y-126700979D01*
X131668981Y-126741684D01*
X131667813Y-126742298D01*
X131658430Y-126747162D01*
X131585224Y-126785108D01*
X131581061Y-126788431D01*
X131576354Y-126790934D01*
X131504232Y-126849755D01*
X131503376Y-126850446D01*
X131464177Y-126881738D01*
X131461673Y-126884242D01*
X131460955Y-126884884D01*
X131456622Y-126888585D01*
X131423088Y-126915935D01*
X131419161Y-126920682D01*
X131419159Y-126920684D01*
X131393863Y-126951262D01*
X131385873Y-126960042D01*
X129697592Y-128648324D01*
X128022998Y-130322918D01*
X127977514Y-130352035D01*
X127783670Y-130423548D01*
X127599044Y-130533388D01*
X127594704Y-130537194D01*
X127594700Y-130537197D01*
X127460733Y-130654684D01*
X127437527Y-130675035D01*
X127304528Y-130843744D01*
X127301839Y-130848855D01*
X127301837Y-130848858D01*
X127251029Y-130945428D01*
X127204500Y-131033865D01*
X127140795Y-131239031D01*
X127140688Y-131239937D01*
X127107711Y-131301021D01*
X127045562Y-131335343D01*
X126974723Y-131330617D01*
X126917685Y-131288342D01*
X126896922Y-131246554D01*
X126893274Y-131233618D01*
X126844988Y-131062409D01*
X126833726Y-131039571D01*
X126752525Y-130874914D01*
X126749971Y-130869735D01*
X126627029Y-130705094D01*
X126624887Y-130702226D01*
X126624886Y-130702225D01*
X126621434Y-130697602D01*
X126575053Y-130654728D01*
X126467920Y-130555695D01*
X126467917Y-130555693D01*
X126463680Y-130551776D01*
X126281993Y-130437140D01*
X126082458Y-130357534D01*
X126076798Y-130356408D01*
X126076794Y-130356407D01*
X125877424Y-130316750D01*
X125877421Y-130316750D01*
X125871757Y-130315623D01*
X125865982Y-130315547D01*
X125865978Y-130315547D01*
X125758305Y-130314138D01*
X125656946Y-130312811D01*
X125651249Y-130313790D01*
X125651248Y-130313790D01*
X125450917Y-130348213D01*
X125445220Y-130349192D01*
X125243670Y-130423548D01*
X125059044Y-130533388D01*
X125054704Y-130537194D01*
X125054700Y-130537197D01*
X124920733Y-130654684D01*
X124897527Y-130675035D01*
X124764528Y-130843744D01*
X124761839Y-130848855D01*
X124761837Y-130848858D01*
X124711029Y-130945428D01*
X124664500Y-131033865D01*
X124600795Y-131239031D01*
X124600688Y-131239937D01*
X124567711Y-131301021D01*
X124505562Y-131335343D01*
X124434723Y-131330617D01*
X124377685Y-131288342D01*
X124356922Y-131246554D01*
X124353274Y-131233618D01*
X124304988Y-131062409D01*
X124293726Y-131039571D01*
X124212525Y-130874914D01*
X124209971Y-130869735D01*
X124087029Y-130705094D01*
X124084887Y-130702226D01*
X124084886Y-130702225D01*
X124081434Y-130697602D01*
X124035053Y-130654728D01*
X123927920Y-130555695D01*
X123927917Y-130555693D01*
X123923680Y-130551776D01*
X123741993Y-130437140D01*
X123542458Y-130357534D01*
X123536798Y-130356408D01*
X123536794Y-130356407D01*
X123337424Y-130316750D01*
X123337421Y-130316750D01*
X123331757Y-130315623D01*
X123325982Y-130315547D01*
X123325978Y-130315547D01*
X123218305Y-130314138D01*
X123116946Y-130312811D01*
X123111249Y-130313790D01*
X123111248Y-130313790D01*
X122910917Y-130348213D01*
X122905220Y-130349192D01*
X122703670Y-130423548D01*
X122519044Y-130533388D01*
X122514704Y-130537194D01*
X122514700Y-130537197D01*
X122380733Y-130654684D01*
X122357527Y-130675035D01*
X122224528Y-130843744D01*
X122221839Y-130848855D01*
X122221837Y-130848858D01*
X122171029Y-130945428D01*
X122124500Y-131033865D01*
X122060795Y-131239031D01*
X122060591Y-131240756D01*
X122027482Y-131302077D01*
X121965332Y-131336396D01*
X121894493Y-131331665D01*
X121837457Y-131289388D01*
X121816698Y-131247604D01*
X121766088Y-131068153D01*
X121761963Y-131057406D01*
X121672098Y-130875178D01*
X121667588Y-130867819D01*
X121657077Y-130859930D01*
X121644658Y-130866702D01*
X121041072Y-131470288D01*
X121033458Y-131484232D01*
X121033589Y-131486065D01*
X121037840Y-131492680D01*
X121643663Y-132098503D01*
X121656043Y-132105263D01*
X121662623Y-132100337D01*
X121738186Y-131965410D01*
X121742868Y-131954895D01*
X121808179Y-131762495D01*
X121810864Y-131751311D01*
X121814536Y-131725982D01*
X121844105Y-131661436D01*
X121903876Y-131623123D01*
X121974873Y-131623207D01*
X122034554Y-131661661D01*
X122061355Y-131713045D01*
X122102476Y-131874959D01*
X122192416Y-132070054D01*
X122316403Y-132245492D01*
X122389674Y-132316869D01*
X122457267Y-132382715D01*
X122470286Y-132395398D01*
X122475082Y-132398603D01*
X122475085Y-132398605D01*
X122644105Y-132511540D01*
X122644110Y-132511543D01*
X122648910Y-132514750D01*
X122654219Y-132517031D01*
X122654221Y-132517032D01*
X122840982Y-132597272D01*
X122840986Y-132597273D01*
X122846292Y-132599553D01*
X122851924Y-132600827D01*
X122851926Y-132600828D01*
X123050187Y-132645690D01*
X123050192Y-132645691D01*
X123055824Y-132646965D01*
X123061595Y-132647192D01*
X123061597Y-132647192D01*
X123127664Y-132649788D01*
X123270488Y-132655399D01*
X123420545Y-132633642D01*
X123477371Y-132625403D01*
X123477375Y-132625402D01*
X123483093Y-132624573D01*
X123488565Y-132622715D01*
X123488567Y-132622715D01*
X123681057Y-132557373D01*
X123681059Y-132557372D01*
X123686521Y-132555518D01*
X123873959Y-132450548D01*
X123936414Y-132398605D01*
X124034690Y-132316869D01*
X124039128Y-132313178D01*
X124176498Y-132148009D01*
X124281468Y-131960571D01*
X124291807Y-131930115D01*
X124348665Y-131762617D01*
X124348665Y-131762615D01*
X124350523Y-131757143D01*
X124354858Y-131727246D01*
X124384429Y-131662700D01*
X124444201Y-131624388D01*
X124515197Y-131624474D01*
X124574877Y-131662929D01*
X124601677Y-131714311D01*
X124642476Y-131874959D01*
X124732416Y-132070054D01*
X124856403Y-132245492D01*
X124929674Y-132316869D01*
X124997267Y-132382715D01*
X125010286Y-132395398D01*
X125015082Y-132398603D01*
X125015085Y-132398605D01*
X125184105Y-132511540D01*
X125184110Y-132511543D01*
X125188910Y-132514750D01*
X125194219Y-132517031D01*
X125194221Y-132517032D01*
X125380982Y-132597272D01*
X125380986Y-132597273D01*
X125386292Y-132599553D01*
X125391924Y-132600827D01*
X125391926Y-132600828D01*
X125590187Y-132645690D01*
X125590192Y-132645691D01*
X125595824Y-132646965D01*
X125601595Y-132647192D01*
X125601597Y-132647192D01*
X125667664Y-132649788D01*
X125810488Y-132655399D01*
X125960545Y-132633642D01*
X126017371Y-132625403D01*
X126017375Y-132625402D01*
X126023093Y-132624573D01*
X126028565Y-132622715D01*
X126028567Y-132622715D01*
X126221057Y-132557373D01*
X126221059Y-132557372D01*
X126226521Y-132555518D01*
X126413959Y-132450548D01*
X126476414Y-132398605D01*
X126574690Y-132316869D01*
X126579128Y-132313178D01*
X126716498Y-132148009D01*
X126821468Y-131960571D01*
X126831807Y-131930115D01*
X126888665Y-131762617D01*
X126888665Y-131762615D01*
X126890523Y-131757143D01*
X126894858Y-131727246D01*
X126924429Y-131662700D01*
X126984201Y-131624388D01*
X127055197Y-131624474D01*
X127114877Y-131662929D01*
X127141677Y-131714311D01*
X127182476Y-131874959D01*
X127272416Y-132070054D01*
X127396403Y-132245492D01*
X127469674Y-132316869D01*
X127537267Y-132382715D01*
X127550286Y-132395398D01*
X127555082Y-132398603D01*
X127555085Y-132398605D01*
X127724105Y-132511540D01*
X127724110Y-132511543D01*
X127728910Y-132514750D01*
X127734219Y-132517031D01*
X127734221Y-132517032D01*
X127920982Y-132597272D01*
X127920986Y-132597273D01*
X127926292Y-132599553D01*
X127959234Y-132607007D01*
X128020520Y-132640805D01*
X129653099Y-134273384D01*
X129662201Y-134283527D01*
X129685918Y-134313025D01*
X129724400Y-134345315D01*
X129728012Y-134348467D01*
X129729838Y-134350123D01*
X129732025Y-134352310D01*
X129734408Y-134354267D01*
X129734413Y-134354272D01*
X129765218Y-134379576D01*
X129766202Y-134380393D01*
X129837424Y-134440154D01*
X129842097Y-134442723D01*
X129846212Y-134446103D01*
X129851641Y-134449014D01*
X129851644Y-134449016D01*
X129928130Y-134490028D01*
X129929288Y-134490657D01*
X130005338Y-134532465D01*
X130010737Y-134535433D01*
X130015815Y-134537044D01*
X130020513Y-134539563D01*
X130109448Y-134566753D01*
X130110652Y-134567128D01*
X130199256Y-134595235D01*
X130204547Y-134595828D01*
X130209648Y-134597388D01*
X130302261Y-134606795D01*
X130303381Y-134606915D01*
X130353177Y-134612500D01*
X130356706Y-134612500D01*
X130357689Y-134612555D01*
X130363376Y-134613003D01*
X130383633Y-134615060D01*
X130400286Y-134616752D01*
X130400289Y-134616752D01*
X130406413Y-134617374D01*
X130452062Y-134613059D01*
X130463919Y-134612500D01*
X131667225Y-134612500D01*
X131735346Y-134632502D01*
X131756320Y-134649405D01*
X131865243Y-134758328D01*
X131899269Y-134820640D01*
X131894204Y-134891455D01*
X131851657Y-134948291D01*
X131806061Y-134967908D01*
X131806493Y-134969519D01*
X131800918Y-134971013D01*
X131795220Y-134971992D01*
X131593670Y-135046348D01*
X131409044Y-135156188D01*
X131404704Y-135159994D01*
X131404700Y-135159997D01*
X131294114Y-135256979D01*
X131247527Y-135297835D01*
X131243952Y-135302370D01*
X131243951Y-135302371D01*
X131217771Y-135335580D01*
X131114528Y-135466544D01*
X131111839Y-135471655D01*
X131111837Y-135471658D01*
X131090430Y-135512347D01*
X131014500Y-135656665D01*
X130950795Y-135861831D01*
X130950591Y-135863556D01*
X130917482Y-135924877D01*
X130855332Y-135959196D01*
X130784493Y-135954465D01*
X130727457Y-135912188D01*
X130706698Y-135870404D01*
X130656088Y-135690953D01*
X130651963Y-135680206D01*
X130562098Y-135497978D01*
X130557588Y-135490619D01*
X130547077Y-135482730D01*
X130534658Y-135489502D01*
X129931072Y-136093088D01*
X129923458Y-136107032D01*
X129923589Y-136108865D01*
X129927840Y-136115480D01*
X130533663Y-136721303D01*
X130546043Y-136728063D01*
X130552623Y-136723137D01*
X130628186Y-136588210D01*
X130632868Y-136577695D01*
X130698179Y-136385295D01*
X130700865Y-136374104D01*
X130704536Y-136348782D01*
X130734105Y-136284236D01*
X130793876Y-136245923D01*
X130864873Y-136246007D01*
X130924554Y-136284461D01*
X130951355Y-136335845D01*
X130992476Y-136497759D01*
X131082416Y-136692854D01*
X131206403Y-136868292D01*
X131210537Y-136872319D01*
X131345991Y-137004272D01*
X131360286Y-137018198D01*
X131365082Y-137021403D01*
X131365085Y-137021405D01*
X131534105Y-137134340D01*
X131534110Y-137134343D01*
X131538910Y-137137550D01*
X131544219Y-137139831D01*
X131544221Y-137139832D01*
X131730982Y-137220072D01*
X131730986Y-137220073D01*
X131736292Y-137222353D01*
X131741924Y-137223627D01*
X131741926Y-137223628D01*
X131940187Y-137268490D01*
X131940192Y-137268491D01*
X131945824Y-137269765D01*
X131951595Y-137269992D01*
X131951597Y-137269992D01*
X132017664Y-137272588D01*
X132160488Y-137278199D01*
X132285218Y-137260114D01*
X132367371Y-137248203D01*
X132367375Y-137248202D01*
X132373093Y-137247373D01*
X132378565Y-137245515D01*
X132378567Y-137245515D01*
X132571057Y-137180173D01*
X132571059Y-137180172D01*
X132576521Y-137178318D01*
X132763959Y-137073348D01*
X132826414Y-137021405D01*
X132847014Y-137004272D01*
X132929128Y-136935978D01*
X133044298Y-136797502D01*
X133062807Y-136775247D01*
X133066498Y-136770809D01*
X133171468Y-136583371D01*
X133173945Y-136576076D01*
X133208360Y-136474690D01*
X133237820Y-136387904D01*
X133278657Y-136329829D01*
X133344410Y-136303051D01*
X133414202Y-136316072D01*
X133446228Y-136339312D01*
X133483398Y-136376482D01*
X133516426Y-136434562D01*
X133532476Y-136497759D01*
X133622416Y-136692854D01*
X133746403Y-136868292D01*
X133750537Y-136872319D01*
X133885991Y-137004272D01*
X133900286Y-137018198D01*
X133905082Y-137021403D01*
X133905085Y-137021405D01*
X134074105Y-137134340D01*
X134074110Y-137134343D01*
X134078910Y-137137550D01*
X134084219Y-137139831D01*
X134084221Y-137139832D01*
X134270982Y-137220072D01*
X134270986Y-137220073D01*
X134276292Y-137222353D01*
X134281924Y-137223627D01*
X134281926Y-137223628D01*
X134480187Y-137268490D01*
X134480192Y-137268491D01*
X134485824Y-137269765D01*
X134491595Y-137269992D01*
X134491597Y-137269992D01*
X134557664Y-137272588D01*
X134700488Y-137278199D01*
X134825218Y-137260114D01*
X134907371Y-137248203D01*
X134907375Y-137248202D01*
X134913093Y-137247373D01*
X134918565Y-137245515D01*
X134918567Y-137245515D01*
X135111057Y-137180173D01*
X135111059Y-137180172D01*
X135116521Y-137178318D01*
X135303959Y-137073348D01*
X135366414Y-137021405D01*
X135387014Y-137004272D01*
X135469128Y-136935978D01*
X135584298Y-136797502D01*
X135602807Y-136775247D01*
X135606498Y-136770809D01*
X135711468Y-136583371D01*
X135713945Y-136576076D01*
X135778665Y-136385417D01*
X135778665Y-136385415D01*
X135780523Y-136379943D01*
X135784858Y-136350046D01*
X135814429Y-136285500D01*
X135874201Y-136247188D01*
X135945197Y-136247274D01*
X136004877Y-136285729D01*
X136031677Y-136337111D01*
X136072476Y-136497759D01*
X136162416Y-136692854D01*
X136286403Y-136868292D01*
X136290537Y-136872319D01*
X136425991Y-137004272D01*
X136440286Y-137018198D01*
X136445082Y-137021403D01*
X136445085Y-137021405D01*
X136614105Y-137134340D01*
X136614110Y-137134343D01*
X136618910Y-137137550D01*
X136624219Y-137139831D01*
X136624221Y-137139832D01*
X136810982Y-137220072D01*
X136810986Y-137220073D01*
X136816292Y-137222353D01*
X136821924Y-137223627D01*
X136821926Y-137223628D01*
X137020187Y-137268490D01*
X137020192Y-137268491D01*
X137025824Y-137269765D01*
X137031595Y-137269992D01*
X137031597Y-137269992D01*
X137097664Y-137272588D01*
X137240488Y-137278199D01*
X137365218Y-137260114D01*
X137447371Y-137248203D01*
X137447375Y-137248202D01*
X137453093Y-137247373D01*
X137458565Y-137245515D01*
X137458567Y-137245515D01*
X137651057Y-137180173D01*
X137651059Y-137180172D01*
X137656521Y-137178318D01*
X137843959Y-137073348D01*
X137906414Y-137021405D01*
X137927014Y-137004272D01*
X138009128Y-136935978D01*
X138124298Y-136797502D01*
X138142807Y-136775247D01*
X138146498Y-136770809D01*
X138251468Y-136583371D01*
X138253945Y-136576076D01*
X138318665Y-136385417D01*
X138318665Y-136385415D01*
X138320523Y-136379943D01*
X138321352Y-136374225D01*
X138321353Y-136374221D01*
X138339959Y-136245895D01*
X138351349Y-136167338D01*
X138352958Y-136105900D01*
X138333301Y-135891972D01*
X138324801Y-135861831D01*
X138290824Y-135741361D01*
X138274988Y-135685209D01*
X138263726Y-135662371D01*
X138182525Y-135497714D01*
X138179971Y-135492535D01*
X138060066Y-135331962D01*
X138054887Y-135325026D01*
X138054886Y-135325025D01*
X138051434Y-135320402D01*
X138022903Y-135294028D01*
X137897920Y-135178495D01*
X137897917Y-135178493D01*
X137893680Y-135174576D01*
X137711993Y-135059940D01*
X137512458Y-134980334D01*
X137506798Y-134979208D01*
X137506794Y-134979207D01*
X137307424Y-134939550D01*
X137307421Y-134939550D01*
X137301757Y-134938423D01*
X137295982Y-134938347D01*
X137295978Y-134938347D01*
X137188305Y-134936938D01*
X137086946Y-134935611D01*
X137081249Y-134936590D01*
X137081248Y-134936590D01*
X136889612Y-134969519D01*
X136875220Y-134971992D01*
X136673670Y-135046348D01*
X136489044Y-135156188D01*
X136484704Y-135159994D01*
X136484700Y-135159997D01*
X136374114Y-135256979D01*
X136327527Y-135297835D01*
X136323952Y-135302370D01*
X136323951Y-135302371D01*
X136297771Y-135335580D01*
X136194528Y-135466544D01*
X136191839Y-135471655D01*
X136191837Y-135471658D01*
X136170430Y-135512347D01*
X136094500Y-135656665D01*
X136030795Y-135861831D01*
X136030688Y-135862737D01*
X135997711Y-135923821D01*
X135935562Y-135958143D01*
X135864723Y-135953417D01*
X135807685Y-135911142D01*
X135786922Y-135869354D01*
X135783275Y-135856423D01*
X135734988Y-135685209D01*
X135723726Y-135662371D01*
X135642525Y-135497714D01*
X135639971Y-135492535D01*
X135520066Y-135331962D01*
X135514887Y-135325026D01*
X135514886Y-135325025D01*
X135511434Y-135320402D01*
X135482903Y-135294028D01*
X135357920Y-135178495D01*
X135357917Y-135178493D01*
X135353680Y-135174576D01*
X135171993Y-135059940D01*
X134972458Y-134980334D01*
X134966795Y-134979207D01*
X134961253Y-134977566D01*
X134961786Y-134975767D01*
X134904562Y-134945177D01*
X132894005Y-132934621D01*
X132884903Y-132924478D01*
X132865047Y-132899782D01*
X132861182Y-132894975D01*
X132822728Y-132862708D01*
X132819081Y-132859528D01*
X132817269Y-132857885D01*
X132815075Y-132855691D01*
X132781801Y-132828358D01*
X132781003Y-132827696D01*
X132709676Y-132767846D01*
X132705006Y-132765278D01*
X132700889Y-132761897D01*
X132643005Y-132730860D01*
X132619064Y-132718023D01*
X132617905Y-132717394D01*
X132541769Y-132675538D01*
X132541761Y-132675535D01*
X132536363Y-132672567D01*
X132531281Y-132670955D01*
X132526587Y-132668438D01*
X132437619Y-132641238D01*
X132436591Y-132640918D01*
X132347844Y-132612765D01*
X132342548Y-132612171D01*
X132337452Y-132610613D01*
X132244893Y-132601210D01*
X132243757Y-132601089D01*
X132205728Y-132596824D01*
X132197420Y-132595892D01*
X132197416Y-132595892D01*
X132193923Y-132595500D01*
X132190396Y-132595500D01*
X132189411Y-132595445D01*
X132183731Y-132594998D01*
X132154325Y-132592011D01*
X132146813Y-132591248D01*
X132146811Y-132591248D01*
X132140688Y-132590626D01*
X132098409Y-132594623D01*
X132095041Y-132594941D01*
X132083183Y-132595500D01*
X131668219Y-132595500D01*
X131600098Y-132575498D01*
X131553605Y-132521842D01*
X131543501Y-132451568D01*
X131572995Y-132386988D01*
X131587645Y-132372630D01*
X131659128Y-132313178D01*
X131796498Y-132148009D01*
X131901468Y-131960571D01*
X131911807Y-131930115D01*
X131968665Y-131762617D01*
X131968665Y-131762615D01*
X131970523Y-131757143D01*
X131974858Y-131727246D01*
X132004429Y-131662700D01*
X132064201Y-131624388D01*
X132135197Y-131624474D01*
X132194877Y-131662929D01*
X132221677Y-131714311D01*
X132262476Y-131874959D01*
X132352416Y-132070054D01*
X132476403Y-132245492D01*
X132549674Y-132316869D01*
X132617267Y-132382715D01*
X132630286Y-132395398D01*
X132635082Y-132398603D01*
X132635085Y-132398605D01*
X132804105Y-132511540D01*
X132804110Y-132511543D01*
X132808910Y-132514750D01*
X132814219Y-132517031D01*
X132814221Y-132517032D01*
X133000982Y-132597272D01*
X133000986Y-132597273D01*
X133006292Y-132599553D01*
X133011924Y-132600827D01*
X133011926Y-132600828D01*
X133210187Y-132645690D01*
X133210192Y-132645691D01*
X133215824Y-132646965D01*
X133221595Y-132647192D01*
X133221597Y-132647192D01*
X133287664Y-132649788D01*
X133430488Y-132655399D01*
X133580545Y-132633642D01*
X133637371Y-132625403D01*
X133637375Y-132625402D01*
X133643093Y-132624573D01*
X133648565Y-132622715D01*
X133648567Y-132622715D01*
X133841057Y-132557373D01*
X133841059Y-132557372D01*
X133846521Y-132555518D01*
X134033959Y-132450548D01*
X134096414Y-132398605D01*
X134194690Y-132316869D01*
X134199128Y-132313178D01*
X134336498Y-132148009D01*
X134441468Y-131960571D01*
X134451807Y-131930115D01*
X134508665Y-131762617D01*
X134508665Y-131762615D01*
X134510523Y-131757143D01*
X134514858Y-131727246D01*
X134544429Y-131662700D01*
X134604201Y-131624388D01*
X134675197Y-131624474D01*
X134734877Y-131662929D01*
X134761677Y-131714311D01*
X134802476Y-131874959D01*
X134892416Y-132070054D01*
X135016403Y-132245492D01*
X135089674Y-132316869D01*
X135157267Y-132382715D01*
X135170286Y-132395398D01*
X135175082Y-132398603D01*
X135175085Y-132398605D01*
X135344105Y-132511540D01*
X135344110Y-132511543D01*
X135348910Y-132514750D01*
X135354219Y-132517031D01*
X135354221Y-132517032D01*
X135540982Y-132597272D01*
X135540986Y-132597273D01*
X135546292Y-132599553D01*
X135551924Y-132600827D01*
X135551926Y-132600828D01*
X135750187Y-132645690D01*
X135750192Y-132645691D01*
X135755824Y-132646965D01*
X135761595Y-132647192D01*
X135761597Y-132647192D01*
X135827664Y-132649788D01*
X135970488Y-132655399D01*
X136120545Y-132633642D01*
X136177371Y-132625403D01*
X136177375Y-132625402D01*
X136183093Y-132624573D01*
X136188565Y-132622715D01*
X136188567Y-132622715D01*
X136381057Y-132557373D01*
X136381059Y-132557372D01*
X136386521Y-132555518D01*
X136573959Y-132450548D01*
X136636414Y-132398605D01*
X136734690Y-132316869D01*
X136739128Y-132313178D01*
X136876498Y-132148009D01*
X136981468Y-131960571D01*
X136991644Y-131930594D01*
X137035338Y-131801877D01*
X137076175Y-131743801D01*
X137141928Y-131717023D01*
X137211721Y-131730044D01*
X137263394Y-131778731D01*
X137280651Y-131842379D01*
X137280651Y-132188169D01*
X137281021Y-132194990D01*
X137286545Y-132245852D01*
X137290171Y-132261104D01*
X137335326Y-132381554D01*
X137343864Y-132397149D01*
X137420365Y-132499224D01*
X137432926Y-132511785D01*
X137535001Y-132588286D01*
X137550596Y-132596824D01*
X137671044Y-132641978D01*
X137686299Y-132645605D01*
X137737164Y-132651131D01*
X137743978Y-132651500D01*
X138176935Y-132651500D01*
X138192174Y-132647025D01*
X138193379Y-132645635D01*
X138195050Y-132637952D01*
X138195050Y-132633384D01*
X138703050Y-132633384D01*
X138707525Y-132648623D01*
X138708915Y-132649828D01*
X138716598Y-132651499D01*
X139154119Y-132651499D01*
X139160940Y-132651129D01*
X139211802Y-132645605D01*
X139227054Y-132641979D01*
X139347504Y-132596824D01*
X139363099Y-132588286D01*
X139465174Y-132511785D01*
X139477735Y-132499224D01*
X139554236Y-132397149D01*
X139562774Y-132381554D01*
X139607928Y-132261106D01*
X139611555Y-132245851D01*
X139617081Y-132194986D01*
X139617450Y-132188172D01*
X139617450Y-131755215D01*
X139612975Y-131739976D01*
X139611585Y-131738771D01*
X139603902Y-131737100D01*
X138721165Y-131737100D01*
X138705926Y-131741575D01*
X138704721Y-131742965D01*
X138703050Y-131750648D01*
X138703050Y-132633384D01*
X138195050Y-132633384D01*
X138195050Y-131515000D01*
X146969743Y-131515000D01*
X146988935Y-131734371D01*
X147045930Y-131947076D01*
X147054570Y-131965604D01*
X147136668Y-132141666D01*
X147136671Y-132141671D01*
X147138994Y-132146653D01*
X147142150Y-132151160D01*
X147142151Y-132151162D01*
X147258181Y-132316869D01*
X147265301Y-132327038D01*
X147421012Y-132482749D01*
X147425521Y-132485906D01*
X147425523Y-132485908D01*
X147462365Y-132511705D01*
X147601396Y-132609056D01*
X147800974Y-132702120D01*
X148013679Y-132759115D01*
X148233050Y-132778307D01*
X148452421Y-132759115D01*
X148665126Y-132702120D01*
X148864704Y-132609056D01*
X149003735Y-132511705D01*
X149040577Y-132485908D01*
X149040579Y-132485906D01*
X149045088Y-132482749D01*
X149200799Y-132327038D01*
X149203440Y-132323266D01*
X149262321Y-132284097D01*
X149333308Y-132282975D01*
X149393634Y-132320409D01*
X149421036Y-132372836D01*
X149421305Y-132375316D01*
X149424077Y-132382711D01*
X149424078Y-132382714D01*
X149450565Y-132453367D01*
X149472435Y-132511705D01*
X149559789Y-132628261D01*
X149676345Y-132715615D01*
X149812734Y-132766745D01*
X149874916Y-132773500D01*
X151671184Y-132773500D01*
X151733366Y-132766745D01*
X151869755Y-132715615D01*
X151986311Y-132628261D01*
X152073665Y-132511705D01*
X152124795Y-132375316D01*
X152131550Y-132313134D01*
X152131550Y-130716866D01*
X152124795Y-130654684D01*
X152073665Y-130518295D01*
X151986311Y-130401739D01*
X151869755Y-130314385D01*
X151733366Y-130263255D01*
X151671184Y-130256500D01*
X149874916Y-130256500D01*
X149812734Y-130263255D01*
X149676345Y-130314385D01*
X149559789Y-130401739D01*
X149472435Y-130518295D01*
X149469283Y-130526703D01*
X149424079Y-130647285D01*
X149421305Y-130654684D01*
X149421063Y-130656909D01*
X149387093Y-130716374D01*
X149324138Y-130749196D01*
X149253433Y-130742771D01*
X149203458Y-130706759D01*
X149200799Y-130702962D01*
X149045088Y-130547251D01*
X149030730Y-130537197D01*
X148930444Y-130466976D01*
X148864704Y-130420944D01*
X148665126Y-130327880D01*
X148452421Y-130270885D01*
X148233050Y-130251693D01*
X148013679Y-130270885D01*
X147800974Y-130327880D01*
X147731760Y-130360155D01*
X147606384Y-130418618D01*
X147606379Y-130418621D01*
X147601397Y-130420944D01*
X147596890Y-130424100D01*
X147596888Y-130424101D01*
X147425523Y-130544092D01*
X147425520Y-130544094D01*
X147421012Y-130547251D01*
X147265301Y-130702962D01*
X147262144Y-130707470D01*
X147262142Y-130707473D01*
X147217513Y-130771210D01*
X147138994Y-130883347D01*
X147136671Y-130888329D01*
X147136668Y-130888334D01*
X147131278Y-130899894D01*
X147045930Y-131082924D01*
X146988935Y-131295629D01*
X146969743Y-131515000D01*
X138195050Y-131515000D01*
X138195050Y-131210985D01*
X138703050Y-131210985D01*
X138707525Y-131226224D01*
X138708915Y-131227429D01*
X138716598Y-131229100D01*
X139599334Y-131229100D01*
X139614573Y-131224625D01*
X139615778Y-131223235D01*
X139617449Y-131215552D01*
X139617449Y-130778031D01*
X139617079Y-130771210D01*
X139611555Y-130720348D01*
X139607929Y-130705096D01*
X139562774Y-130584646D01*
X139554236Y-130569051D01*
X139477735Y-130466976D01*
X139465174Y-130454415D01*
X139363099Y-130377914D01*
X139347504Y-130369376D01*
X139227056Y-130324222D01*
X139211801Y-130320595D01*
X139160936Y-130315069D01*
X139154122Y-130314700D01*
X138721165Y-130314700D01*
X138705926Y-130319175D01*
X138704721Y-130320565D01*
X138703050Y-130328248D01*
X138703050Y-131210985D01*
X138195050Y-131210985D01*
X138195050Y-130332816D01*
X138190575Y-130317577D01*
X138189185Y-130316372D01*
X138181502Y-130314701D01*
X137743981Y-130314701D01*
X137737160Y-130315071D01*
X137686298Y-130320595D01*
X137671046Y-130324221D01*
X137550596Y-130369376D01*
X137535001Y-130377914D01*
X137432926Y-130454415D01*
X137420365Y-130466976D01*
X137343864Y-130569051D01*
X137335326Y-130584646D01*
X137290172Y-130705094D01*
X137286545Y-130720349D01*
X137281019Y-130771214D01*
X137280650Y-130778028D01*
X137280650Y-131128883D01*
X137260648Y-131197004D01*
X137206992Y-131243497D01*
X137136718Y-131253601D01*
X137072138Y-131224107D01*
X137033381Y-131163084D01*
X137004988Y-131062409D01*
X136993726Y-131039571D01*
X136912525Y-130874914D01*
X136909971Y-130869735D01*
X136787029Y-130705094D01*
X136784887Y-130702226D01*
X136784886Y-130702225D01*
X136781434Y-130697602D01*
X136735053Y-130654728D01*
X136627920Y-130555695D01*
X136627917Y-130555693D01*
X136623680Y-130551776D01*
X136441993Y-130437140D01*
X136242458Y-130357534D01*
X136236798Y-130356408D01*
X136236794Y-130356407D01*
X136037424Y-130316750D01*
X136037421Y-130316750D01*
X136031757Y-130315623D01*
X136025982Y-130315547D01*
X136025978Y-130315547D01*
X135918305Y-130314138D01*
X135816946Y-130312811D01*
X135811249Y-130313790D01*
X135811248Y-130313790D01*
X135610917Y-130348213D01*
X135605220Y-130349192D01*
X135403670Y-130423548D01*
X135219044Y-130533388D01*
X135214704Y-130537194D01*
X135214700Y-130537197D01*
X135080733Y-130654684D01*
X135057527Y-130675035D01*
X134924528Y-130843744D01*
X134921839Y-130848855D01*
X134921837Y-130848858D01*
X134871029Y-130945428D01*
X134824500Y-131033865D01*
X134760795Y-131239031D01*
X134760688Y-131239937D01*
X134727711Y-131301021D01*
X134665562Y-131335343D01*
X134594723Y-131330617D01*
X134537685Y-131288342D01*
X134516922Y-131246554D01*
X134513274Y-131233618D01*
X134464988Y-131062409D01*
X134453726Y-131039571D01*
X134372525Y-130874914D01*
X134369971Y-130869735D01*
X134247029Y-130705094D01*
X134244887Y-130702226D01*
X134244886Y-130702225D01*
X134241434Y-130697602D01*
X134195053Y-130654728D01*
X134087920Y-130555695D01*
X134087917Y-130555693D01*
X134083680Y-130551776D01*
X133901993Y-130437140D01*
X133702458Y-130357534D01*
X133696798Y-130356408D01*
X133696794Y-130356407D01*
X133497424Y-130316750D01*
X133497421Y-130316750D01*
X133491757Y-130315623D01*
X133485982Y-130315547D01*
X133485978Y-130315547D01*
X133378305Y-130314138D01*
X133276946Y-130312811D01*
X133271249Y-130313790D01*
X133271248Y-130313790D01*
X133070917Y-130348213D01*
X133065220Y-130349192D01*
X132863670Y-130423548D01*
X132679044Y-130533388D01*
X132674704Y-130537194D01*
X132674700Y-130537197D01*
X132540733Y-130654684D01*
X132517527Y-130675035D01*
X132384528Y-130843744D01*
X132381839Y-130848855D01*
X132381837Y-130848858D01*
X132331029Y-130945428D01*
X132284500Y-131033865D01*
X132220795Y-131239031D01*
X132220688Y-131239937D01*
X132187711Y-131301021D01*
X132125562Y-131335343D01*
X132054723Y-131330617D01*
X131997685Y-131288342D01*
X131976922Y-131246554D01*
X131973274Y-131233618D01*
X131924988Y-131062409D01*
X131913726Y-131039571D01*
X131832525Y-130874914D01*
X131829971Y-130869735D01*
X131707029Y-130705094D01*
X131704887Y-130702226D01*
X131704886Y-130702225D01*
X131701434Y-130697602D01*
X131655053Y-130654728D01*
X131547920Y-130555695D01*
X131547917Y-130555693D01*
X131543680Y-130551776D01*
X131361993Y-130437140D01*
X131162458Y-130357534D01*
X131130580Y-130351193D01*
X131125407Y-130350164D01*
X131062497Y-130317256D01*
X131027366Y-130255561D01*
X131031167Y-130184666D01*
X131060894Y-130137490D01*
X132517979Y-128680405D01*
X132580291Y-128646379D01*
X132607074Y-128643500D01*
X140654157Y-128643500D01*
X140667764Y-128644237D01*
X140699262Y-128647659D01*
X140699267Y-128647659D01*
X140705388Y-128648324D01*
X140731638Y-128646027D01*
X140755388Y-128643950D01*
X140760214Y-128643621D01*
X140762686Y-128643500D01*
X140765769Y-128643500D01*
X140777738Y-128642326D01*
X140808506Y-128639310D01*
X140809819Y-128639188D01*
X140854084Y-128635315D01*
X140902413Y-128631087D01*
X140907532Y-128629600D01*
X140912833Y-128629080D01*
X141001834Y-128602209D01*
X141002967Y-128601874D01*
X141086414Y-128577630D01*
X141086418Y-128577628D01*
X141092336Y-128575909D01*
X141097068Y-128573456D01*
X141102169Y-128571916D01*
X141107612Y-128569022D01*
X141184260Y-128528269D01*
X141185426Y-128527657D01*
X141262453Y-128487729D01*
X141267926Y-128484892D01*
X141272089Y-128481569D01*
X141276796Y-128479066D01*
X141348918Y-128420245D01*
X141349774Y-128419554D01*
X141388973Y-128388262D01*
X141391477Y-128385758D01*
X141392195Y-128385116D01*
X141396528Y-128381415D01*
X141430062Y-128354065D01*
X141459288Y-128318737D01*
X141467277Y-128309958D01*
X141631235Y-128146000D01*
X153168693Y-128146000D01*
X153187885Y-128365371D01*
X153244880Y-128578076D01*
X153275731Y-128644237D01*
X153335618Y-128772666D01*
X153335621Y-128772671D01*
X153337944Y-128777653D01*
X153464251Y-128958038D01*
X153619962Y-129113749D01*
X153800346Y-129240056D01*
X153999924Y-129333120D01*
X154212629Y-129390115D01*
X154432000Y-129409307D01*
X154651371Y-129390115D01*
X154864076Y-129333120D01*
X155063654Y-129240056D01*
X155244038Y-129113749D01*
X155399749Y-128958038D01*
X155526056Y-128777653D01*
X155528379Y-128772671D01*
X155528382Y-128772666D01*
X155588269Y-128644237D01*
X155619120Y-128578076D01*
X155676115Y-128365371D01*
X155695307Y-128146000D01*
X155676115Y-127926629D01*
X155619120Y-127713924D01*
X155575585Y-127620562D01*
X155528382Y-127519334D01*
X155528379Y-127519329D01*
X155526056Y-127514347D01*
X155424375Y-127369131D01*
X155402908Y-127338473D01*
X155402906Y-127338470D01*
X155399749Y-127333962D01*
X155244038Y-127178251D01*
X155235954Y-127172590D01*
X155143288Y-127107705D01*
X155063654Y-127051944D01*
X155058672Y-127049621D01*
X155058667Y-127049618D01*
X154931232Y-126990195D01*
X154877947Y-126943278D01*
X154858486Y-126875001D01*
X154879028Y-126807041D01*
X154931232Y-126761805D01*
X155058667Y-126702382D01*
X155058672Y-126702379D01*
X155063654Y-126700056D01*
X155244038Y-126573749D01*
X155399749Y-126418038D01*
X155526056Y-126237653D01*
X155528379Y-126232671D01*
X155528382Y-126232666D01*
X155616795Y-126043061D01*
X155619120Y-126038076D01*
X155676115Y-125825371D01*
X155695307Y-125606000D01*
X155676115Y-125386629D01*
X155619120Y-125173924D01*
X155560786Y-125048825D01*
X155528382Y-124979334D01*
X155528379Y-124979329D01*
X155526056Y-124974347D01*
X155485041Y-124915771D01*
X155402908Y-124798473D01*
X155402906Y-124798470D01*
X155399749Y-124793962D01*
X155244038Y-124638251D01*
X155063654Y-124511944D01*
X155058672Y-124509621D01*
X155058667Y-124509618D01*
X154931232Y-124450195D01*
X154877947Y-124403278D01*
X154858486Y-124335001D01*
X154879028Y-124267041D01*
X154931232Y-124221805D01*
X155058667Y-124162382D01*
X155058672Y-124162379D01*
X155063654Y-124160056D01*
X155244038Y-124033749D01*
X155399749Y-123878038D01*
X155526056Y-123697653D01*
X155528379Y-123692671D01*
X155528382Y-123692666D01*
X155616795Y-123503061D01*
X155619120Y-123498076D01*
X155676115Y-123285371D01*
X155695307Y-123066000D01*
X155676115Y-122846629D01*
X155619120Y-122633924D01*
X155574580Y-122538408D01*
X155528382Y-122439334D01*
X155528379Y-122439329D01*
X155526056Y-122434347D01*
X155522899Y-122429838D01*
X155402908Y-122258473D01*
X155402906Y-122258470D01*
X155399749Y-122253962D01*
X155244038Y-122098251D01*
X155063654Y-121971944D01*
X155058672Y-121969621D01*
X155058667Y-121969618D01*
X154931232Y-121910195D01*
X154877947Y-121863278D01*
X154858486Y-121795001D01*
X154879028Y-121727041D01*
X154931232Y-121681805D01*
X155058667Y-121622382D01*
X155058672Y-121622379D01*
X155063654Y-121620056D01*
X155219614Y-121510851D01*
X155239527Y-121496908D01*
X155239529Y-121496906D01*
X155244038Y-121493749D01*
X155399749Y-121338038D01*
X155414928Y-121316361D01*
X155522899Y-121162162D01*
X155522900Y-121162160D01*
X155526056Y-121157653D01*
X155528379Y-121152671D01*
X155528382Y-121152666D01*
X155576066Y-121050406D01*
X155619120Y-120958076D01*
X155676115Y-120745371D01*
X155695307Y-120526000D01*
X155676115Y-120306629D01*
X155619120Y-120093924D01*
X155575585Y-120000562D01*
X155528382Y-119899334D01*
X155528379Y-119899329D01*
X155526056Y-119894347D01*
X155522899Y-119889838D01*
X155402908Y-119718473D01*
X155402906Y-119718470D01*
X155399749Y-119713962D01*
X155244038Y-119558251D01*
X155220830Y-119542000D01*
X155131136Y-119479196D01*
X155063654Y-119431944D01*
X155058672Y-119429621D01*
X155058667Y-119429618D01*
X154931232Y-119370195D01*
X154877947Y-119323278D01*
X154858486Y-119255001D01*
X154879028Y-119187041D01*
X154931232Y-119141805D01*
X155058667Y-119082382D01*
X155058672Y-119082379D01*
X155063654Y-119080056D01*
X155244038Y-118953749D01*
X155399749Y-118798038D01*
X155479995Y-118683436D01*
X155522899Y-118622162D01*
X155522900Y-118622160D01*
X155526056Y-118617653D01*
X155528379Y-118612671D01*
X155528382Y-118612666D01*
X155575585Y-118511438D01*
X155619120Y-118418076D01*
X155676115Y-118205371D01*
X155695307Y-117986000D01*
X155676115Y-117766629D01*
X155619120Y-117553924D01*
X155563884Y-117435469D01*
X155528382Y-117359334D01*
X155528379Y-117359329D01*
X155526056Y-117354347D01*
X155522899Y-117349838D01*
X155402908Y-117178473D01*
X155402906Y-117178470D01*
X155399749Y-117173962D01*
X155244038Y-117018251D01*
X155210553Y-116994804D01*
X155164759Y-116962739D01*
X155063654Y-116891944D01*
X154864076Y-116798880D01*
X154651371Y-116741885D01*
X154432000Y-116722693D01*
X154212629Y-116741885D01*
X153999924Y-116798880D01*
X153932769Y-116830195D01*
X153805334Y-116889618D01*
X153805329Y-116889621D01*
X153800347Y-116891944D01*
X153795840Y-116895100D01*
X153795838Y-116895101D01*
X153624473Y-117015092D01*
X153624470Y-117015094D01*
X153619962Y-117018251D01*
X153464251Y-117173962D01*
X153461094Y-117178470D01*
X153461092Y-117178473D01*
X153341101Y-117349838D01*
X153337944Y-117354347D01*
X153335621Y-117359329D01*
X153335618Y-117359334D01*
X153300116Y-117435469D01*
X153244880Y-117553924D01*
X153187885Y-117766629D01*
X153168693Y-117986000D01*
X153187885Y-118205371D01*
X153244880Y-118418076D01*
X153288415Y-118511438D01*
X153335618Y-118612666D01*
X153335621Y-118612671D01*
X153337944Y-118617653D01*
X153341100Y-118622160D01*
X153341101Y-118622162D01*
X153384006Y-118683436D01*
X153464251Y-118798038D01*
X153619962Y-118953749D01*
X153800346Y-119080056D01*
X153805328Y-119082379D01*
X153805333Y-119082382D01*
X153932768Y-119141805D01*
X153986053Y-119188722D01*
X154005514Y-119256999D01*
X153984972Y-119324959D01*
X153932768Y-119370195D01*
X153805334Y-119429618D01*
X153805329Y-119429621D01*
X153800347Y-119431944D01*
X153795840Y-119435100D01*
X153795838Y-119435101D01*
X153624473Y-119555092D01*
X153624470Y-119555094D01*
X153619962Y-119558251D01*
X153464251Y-119713962D01*
X153461094Y-119718470D01*
X153461092Y-119718473D01*
X153341101Y-119889838D01*
X153337944Y-119894347D01*
X153335621Y-119899329D01*
X153335618Y-119899334D01*
X153288415Y-120000562D01*
X153244880Y-120093924D01*
X153187885Y-120306629D01*
X153168693Y-120526000D01*
X153187885Y-120745371D01*
X153244880Y-120958076D01*
X153287934Y-121050406D01*
X153335618Y-121152666D01*
X153335621Y-121152671D01*
X153337944Y-121157653D01*
X153341100Y-121162160D01*
X153341101Y-121162162D01*
X153449073Y-121316361D01*
X153464251Y-121338038D01*
X153619962Y-121493749D01*
X153624471Y-121496906D01*
X153624473Y-121496908D01*
X153644386Y-121510851D01*
X153800346Y-121620056D01*
X153805328Y-121622379D01*
X153805333Y-121622382D01*
X153932768Y-121681805D01*
X153986053Y-121728722D01*
X154005514Y-121796999D01*
X153984972Y-121864959D01*
X153932768Y-121910195D01*
X153805334Y-121969618D01*
X153805329Y-121969621D01*
X153800347Y-121971944D01*
X153795840Y-121975100D01*
X153795838Y-121975101D01*
X153624473Y-122095092D01*
X153624470Y-122095094D01*
X153619962Y-122098251D01*
X153464251Y-122253962D01*
X153461094Y-122258470D01*
X153461092Y-122258473D01*
X153341101Y-122429838D01*
X153337944Y-122434347D01*
X153335621Y-122439329D01*
X153335618Y-122439334D01*
X153289420Y-122538408D01*
X153244880Y-122633924D01*
X153187885Y-122846629D01*
X153168693Y-123066000D01*
X153187885Y-123285371D01*
X153244880Y-123498076D01*
X153247205Y-123503061D01*
X153335618Y-123692666D01*
X153335621Y-123692671D01*
X153337944Y-123697653D01*
X153464251Y-123878038D01*
X153619962Y-124033749D01*
X153800346Y-124160056D01*
X153805328Y-124162379D01*
X153805333Y-124162382D01*
X153932768Y-124221805D01*
X153986053Y-124268722D01*
X154005514Y-124336999D01*
X153984972Y-124404959D01*
X153932768Y-124450195D01*
X153805334Y-124509618D01*
X153805329Y-124509621D01*
X153800347Y-124511944D01*
X153795840Y-124515100D01*
X153795838Y-124515101D01*
X153624473Y-124635092D01*
X153624470Y-124635094D01*
X153619962Y-124638251D01*
X153464251Y-124793962D01*
X153461094Y-124798470D01*
X153461092Y-124798473D01*
X153378959Y-124915771D01*
X153337944Y-124974347D01*
X153335621Y-124979329D01*
X153335618Y-124979334D01*
X153303214Y-125048825D01*
X153244880Y-125173924D01*
X153187885Y-125386629D01*
X153168693Y-125606000D01*
X153187885Y-125825371D01*
X153244880Y-126038076D01*
X153247205Y-126043061D01*
X153335618Y-126232666D01*
X153335621Y-126232671D01*
X153337944Y-126237653D01*
X153464251Y-126418038D01*
X153619962Y-126573749D01*
X153800346Y-126700056D01*
X153805328Y-126702379D01*
X153805333Y-126702382D01*
X153932768Y-126761805D01*
X153986053Y-126808722D01*
X154005514Y-126876999D01*
X153984972Y-126944959D01*
X153932768Y-126990195D01*
X153805334Y-127049618D01*
X153805329Y-127049621D01*
X153800347Y-127051944D01*
X153795840Y-127055100D01*
X153795838Y-127055101D01*
X153624473Y-127175092D01*
X153624470Y-127175094D01*
X153619962Y-127178251D01*
X153464251Y-127333962D01*
X153461094Y-127338470D01*
X153461092Y-127338473D01*
X153439625Y-127369131D01*
X153337944Y-127514347D01*
X153335621Y-127519329D01*
X153335618Y-127519334D01*
X153288415Y-127620562D01*
X153244880Y-127713924D01*
X153187885Y-127926629D01*
X153168693Y-128146000D01*
X141631235Y-128146000D01*
X142386644Y-127390591D01*
X142453861Y-127355600D01*
X142453895Y-127355594D01*
X142459371Y-127355115D01*
X142464676Y-127353694D01*
X142464679Y-127353693D01*
X142666765Y-127299543D01*
X142666764Y-127299543D01*
X142672076Y-127298120D01*
X142871654Y-127205056D01*
X142934342Y-127161161D01*
X144094393Y-127161161D01*
X144103687Y-127173175D01*
X144144088Y-127201464D01*
X144153584Y-127206947D01*
X144343113Y-127295326D01*
X144353405Y-127299072D01*
X144555401Y-127353196D01*
X144566196Y-127355099D01*
X144774525Y-127373326D01*
X144785475Y-127373326D01*
X144993804Y-127355099D01*
X145004599Y-127353196D01*
X145206595Y-127299072D01*
X145216887Y-127295326D01*
X145406416Y-127206947D01*
X145415912Y-127201464D01*
X145457148Y-127172590D01*
X145465523Y-127162112D01*
X145458457Y-127148668D01*
X144792811Y-126483021D01*
X144778868Y-126475408D01*
X144777034Y-126475539D01*
X144770420Y-126479790D01*
X144100820Y-127149391D01*
X144094393Y-127161161D01*
X142934342Y-127161161D01*
X143052038Y-127078749D01*
X143207749Y-126923038D01*
X143215449Y-126912042D01*
X143330899Y-126747162D01*
X143330900Y-126747160D01*
X143334056Y-126742653D01*
X143336379Y-126737671D01*
X143336382Y-126737666D01*
X143396081Y-126609640D01*
X143442998Y-126556355D01*
X143511276Y-126536894D01*
X143579236Y-126557436D01*
X143624471Y-126609640D01*
X143684054Y-126737417D01*
X143689534Y-126746907D01*
X143718411Y-126788149D01*
X143728887Y-126796523D01*
X143742334Y-126789455D01*
X144407979Y-126123811D01*
X144414356Y-126112132D01*
X145144408Y-126112132D01*
X145144539Y-126113966D01*
X145148790Y-126120580D01*
X145818391Y-126790180D01*
X145836695Y-126800175D01*
X145896741Y-126813238D01*
X145946943Y-126863441D01*
X145961618Y-126910217D01*
X145962755Y-126920684D01*
X145967401Y-126963460D01*
X145967402Y-126963464D01*
X145968255Y-126971316D01*
X146019385Y-127107705D01*
X146106739Y-127224261D01*
X146223295Y-127311615D01*
X146359684Y-127362745D01*
X146421866Y-127369500D01*
X148218134Y-127369500D01*
X148280316Y-127362745D01*
X148416705Y-127311615D01*
X148533261Y-127224261D01*
X148620615Y-127107705D01*
X148671745Y-126971316D01*
X148678500Y-126909134D01*
X148678500Y-125312866D01*
X148671745Y-125250684D01*
X148620615Y-125114295D01*
X148533261Y-124997739D01*
X148416705Y-124910385D01*
X148280316Y-124859255D01*
X148218134Y-124852500D01*
X146421866Y-124852500D01*
X146359684Y-124859255D01*
X146223295Y-124910385D01*
X146106739Y-124997739D01*
X146019385Y-125114295D01*
X145968255Y-125250684D01*
X145967402Y-125258540D01*
X145961636Y-125311614D01*
X145934394Y-125377176D01*
X145876031Y-125417602D01*
X145838269Y-125421716D01*
X145817666Y-125432545D01*
X145152021Y-126098189D01*
X145144408Y-126112132D01*
X144414356Y-126112132D01*
X144415592Y-126109868D01*
X144415461Y-126108034D01*
X144411210Y-126101420D01*
X143741609Y-125431820D01*
X143729839Y-125425393D01*
X143717824Y-125434689D01*
X143689534Y-125475093D01*
X143684054Y-125484583D01*
X143624471Y-125612360D01*
X143577554Y-125665645D01*
X143509276Y-125685106D01*
X143441316Y-125664564D01*
X143396081Y-125612360D01*
X143336379Y-125484328D01*
X143336377Y-125484325D01*
X143334056Y-125479347D01*
X143287516Y-125412880D01*
X143271287Y-125389703D01*
X143248500Y-125317433D01*
X143248500Y-125059887D01*
X144094477Y-125059887D01*
X144101545Y-125073334D01*
X144767189Y-125738979D01*
X144781132Y-125746592D01*
X144782966Y-125746461D01*
X144789580Y-125742210D01*
X145459180Y-125072609D01*
X145465607Y-125060839D01*
X145456313Y-125048825D01*
X145415912Y-125020536D01*
X145406416Y-125015053D01*
X145216887Y-124926674D01*
X145206595Y-124922928D01*
X145004599Y-124868804D01*
X144993804Y-124866901D01*
X144785475Y-124848674D01*
X144774525Y-124848674D01*
X144566196Y-124866901D01*
X144555401Y-124868804D01*
X144353405Y-124922928D01*
X144343113Y-124926674D01*
X144153583Y-125015054D01*
X144144093Y-125020534D01*
X144102851Y-125049411D01*
X144094477Y-125059887D01*
X143248500Y-125059887D01*
X143248500Y-123224161D01*
X144094393Y-123224161D01*
X144103687Y-123236175D01*
X144144088Y-123264464D01*
X144153584Y-123269947D01*
X144343113Y-123358326D01*
X144353405Y-123362072D01*
X144555401Y-123416196D01*
X144566196Y-123418099D01*
X144774525Y-123436326D01*
X144785475Y-123436326D01*
X144993804Y-123418099D01*
X145004599Y-123416196D01*
X145206595Y-123362072D01*
X145216887Y-123358326D01*
X145406416Y-123269947D01*
X145415912Y-123264464D01*
X145457148Y-123235590D01*
X145465523Y-123225112D01*
X145458457Y-123211668D01*
X144792811Y-122546021D01*
X144778868Y-122538408D01*
X144777034Y-122538539D01*
X144770420Y-122542790D01*
X144100820Y-123212391D01*
X144094393Y-123224161D01*
X143248500Y-123224161D01*
X143248500Y-122967567D01*
X143271287Y-122895297D01*
X143297357Y-122858065D01*
X143334056Y-122805653D01*
X143351457Y-122768338D01*
X143396081Y-122672640D01*
X143442998Y-122619355D01*
X143511276Y-122599894D01*
X143579236Y-122620436D01*
X143624471Y-122672640D01*
X143684054Y-122800417D01*
X143689534Y-122809907D01*
X143718411Y-122851149D01*
X143728887Y-122859523D01*
X143742334Y-122852455D01*
X144407979Y-122186811D01*
X144414356Y-122175132D01*
X145144408Y-122175132D01*
X145144539Y-122176966D01*
X145148790Y-122183580D01*
X145818391Y-122853180D01*
X145836695Y-122863175D01*
X145896741Y-122876238D01*
X145946943Y-122926441D01*
X145961618Y-122973218D01*
X145967401Y-123026460D01*
X145967402Y-123026464D01*
X145968255Y-123034316D01*
X146019385Y-123170705D01*
X146106739Y-123287261D01*
X146223295Y-123374615D01*
X146359684Y-123425745D01*
X146421866Y-123432500D01*
X148218134Y-123432500D01*
X148280316Y-123425745D01*
X148416705Y-123374615D01*
X148533261Y-123287261D01*
X148620615Y-123170705D01*
X148671745Y-123034316D01*
X148678500Y-122972134D01*
X148678500Y-121375866D01*
X148671745Y-121313684D01*
X148620615Y-121177295D01*
X148533261Y-121060739D01*
X148416705Y-120973385D01*
X148280316Y-120922255D01*
X148218134Y-120915500D01*
X146421866Y-120915500D01*
X146359684Y-120922255D01*
X146223295Y-120973385D01*
X146106739Y-121060739D01*
X146019385Y-121177295D01*
X145968255Y-121313684D01*
X145965186Y-121341935D01*
X145961636Y-121374614D01*
X145934394Y-121440176D01*
X145876031Y-121480602D01*
X145838269Y-121484716D01*
X145817666Y-121495545D01*
X145152021Y-122161189D01*
X145144408Y-122175132D01*
X144414356Y-122175132D01*
X144415592Y-122172868D01*
X144415461Y-122171034D01*
X144411210Y-122164420D01*
X143741609Y-121494820D01*
X143729839Y-121488393D01*
X143717824Y-121497689D01*
X143689534Y-121538093D01*
X143684054Y-121547583D01*
X143624471Y-121675360D01*
X143577554Y-121728645D01*
X143509276Y-121748106D01*
X143441316Y-121727564D01*
X143396081Y-121675360D01*
X143336379Y-121547328D01*
X143336377Y-121547325D01*
X143334056Y-121542347D01*
X143271287Y-121452703D01*
X143248500Y-121380433D01*
X143248500Y-121122887D01*
X144094477Y-121122887D01*
X144101545Y-121136334D01*
X144767189Y-121801979D01*
X144781132Y-121809592D01*
X144782966Y-121809461D01*
X144789580Y-121805210D01*
X145459180Y-121135609D01*
X145465607Y-121123839D01*
X145456313Y-121111825D01*
X145415912Y-121083536D01*
X145406416Y-121078053D01*
X145216887Y-120989674D01*
X145206595Y-120985928D01*
X145004599Y-120931804D01*
X144993804Y-120929901D01*
X144785475Y-120911674D01*
X144774525Y-120911674D01*
X144566196Y-120929901D01*
X144555401Y-120931804D01*
X144353405Y-120985928D01*
X144343113Y-120989674D01*
X144153583Y-121078054D01*
X144144093Y-121083534D01*
X144102851Y-121112411D01*
X144094477Y-121122887D01*
X143248500Y-121122887D01*
X143248500Y-119287161D01*
X144094393Y-119287161D01*
X144103687Y-119299175D01*
X144144088Y-119327464D01*
X144153584Y-119332947D01*
X144343113Y-119421326D01*
X144353405Y-119425072D01*
X144555401Y-119479196D01*
X144566196Y-119481099D01*
X144774525Y-119499326D01*
X144785475Y-119499326D01*
X144993804Y-119481099D01*
X145004599Y-119479196D01*
X145206595Y-119425072D01*
X145216887Y-119421326D01*
X145406416Y-119332947D01*
X145415912Y-119327464D01*
X145457148Y-119298590D01*
X145465523Y-119288112D01*
X145458457Y-119274668D01*
X144792811Y-118609021D01*
X144778868Y-118601408D01*
X144777034Y-118601539D01*
X144770420Y-118605790D01*
X144100820Y-119275391D01*
X144094393Y-119287161D01*
X143248500Y-119287161D01*
X143248500Y-119030567D01*
X143271287Y-118958297D01*
X143302199Y-118914149D01*
X143334056Y-118868653D01*
X143396081Y-118735640D01*
X143442998Y-118682355D01*
X143511276Y-118662894D01*
X143579236Y-118683436D01*
X143624471Y-118735640D01*
X143684054Y-118863417D01*
X143689534Y-118872907D01*
X143718411Y-118914149D01*
X143728887Y-118922523D01*
X143742334Y-118915455D01*
X144407979Y-118249811D01*
X144414356Y-118238132D01*
X145144408Y-118238132D01*
X145144539Y-118239966D01*
X145148790Y-118246580D01*
X145818391Y-118916180D01*
X145836695Y-118926175D01*
X145896741Y-118939238D01*
X145946943Y-118989441D01*
X145961618Y-119036218D01*
X145967401Y-119089460D01*
X145967402Y-119089464D01*
X145968255Y-119097316D01*
X146019385Y-119233705D01*
X146106739Y-119350261D01*
X146223295Y-119437615D01*
X146359684Y-119488745D01*
X146421866Y-119495500D01*
X148218134Y-119495500D01*
X148280316Y-119488745D01*
X148416705Y-119437615D01*
X148533261Y-119350261D01*
X148620615Y-119233705D01*
X148671745Y-119097316D01*
X148678500Y-119035134D01*
X148678500Y-117438866D01*
X148671745Y-117376684D01*
X148620615Y-117240295D01*
X148533261Y-117123739D01*
X148416705Y-117036385D01*
X148280316Y-116985255D01*
X148218134Y-116978500D01*
X146421866Y-116978500D01*
X146359684Y-116985255D01*
X146223295Y-117036385D01*
X146106739Y-117123739D01*
X146019385Y-117240295D01*
X145968255Y-117376684D01*
X145967402Y-117384540D01*
X145961636Y-117437614D01*
X145934394Y-117503176D01*
X145876031Y-117543602D01*
X145838269Y-117547716D01*
X145817666Y-117558545D01*
X145152021Y-118224189D01*
X145144408Y-118238132D01*
X144414356Y-118238132D01*
X144415592Y-118235868D01*
X144415461Y-118234034D01*
X144411210Y-118227420D01*
X143741609Y-117557820D01*
X143729839Y-117551393D01*
X143717824Y-117560689D01*
X143689534Y-117601093D01*
X143684054Y-117610583D01*
X143624471Y-117738360D01*
X143577554Y-117791645D01*
X143509276Y-117811106D01*
X143441316Y-117790564D01*
X143396081Y-117738360D01*
X143336379Y-117610328D01*
X143336377Y-117610325D01*
X143334056Y-117605347D01*
X143271287Y-117515703D01*
X143248500Y-117443433D01*
X143248500Y-117185887D01*
X144094477Y-117185887D01*
X144101545Y-117199334D01*
X144767189Y-117864979D01*
X144781132Y-117872592D01*
X144782966Y-117872461D01*
X144789580Y-117868210D01*
X145459180Y-117198609D01*
X145465607Y-117186839D01*
X145456313Y-117174825D01*
X145415912Y-117146536D01*
X145406416Y-117141053D01*
X145216887Y-117052674D01*
X145206595Y-117048928D01*
X145004599Y-116994804D01*
X144993804Y-116992901D01*
X144785475Y-116974674D01*
X144774525Y-116974674D01*
X144566196Y-116992901D01*
X144555401Y-116994804D01*
X144353405Y-117048928D01*
X144343113Y-117052674D01*
X144153583Y-117141054D01*
X144144093Y-117146534D01*
X144102851Y-117175411D01*
X144094477Y-117185887D01*
X143248500Y-117185887D01*
X143248500Y-115350161D01*
X144094393Y-115350161D01*
X144103687Y-115362175D01*
X144144088Y-115390464D01*
X144153584Y-115395947D01*
X144343113Y-115484326D01*
X144353405Y-115488072D01*
X144555401Y-115542196D01*
X144566196Y-115544099D01*
X144774525Y-115562326D01*
X144785475Y-115562326D01*
X144993804Y-115544099D01*
X145004599Y-115542196D01*
X145206595Y-115488072D01*
X145216887Y-115484326D01*
X145406416Y-115395947D01*
X145415912Y-115390464D01*
X145457148Y-115361590D01*
X145465523Y-115351112D01*
X145458457Y-115337668D01*
X144792811Y-114672021D01*
X144778868Y-114664408D01*
X144777034Y-114664539D01*
X144770420Y-114668790D01*
X144100820Y-115338391D01*
X144094393Y-115350161D01*
X143248500Y-115350161D01*
X143248500Y-115093567D01*
X143271287Y-115021297D01*
X143302199Y-114977149D01*
X143334056Y-114931653D01*
X143396081Y-114798640D01*
X143442998Y-114745355D01*
X143511276Y-114725894D01*
X143579236Y-114746436D01*
X143624471Y-114798640D01*
X143684054Y-114926417D01*
X143689534Y-114935907D01*
X143718411Y-114977149D01*
X143728887Y-114985523D01*
X143742334Y-114978455D01*
X144407979Y-114312811D01*
X144414356Y-114301132D01*
X145144408Y-114301132D01*
X145144539Y-114302966D01*
X145148790Y-114309580D01*
X145818391Y-114979180D01*
X145836695Y-114989175D01*
X145896741Y-115002238D01*
X145946943Y-115052441D01*
X145961618Y-115099218D01*
X145967401Y-115152460D01*
X145967402Y-115152464D01*
X145968255Y-115160316D01*
X146019385Y-115296705D01*
X146106739Y-115413261D01*
X146223295Y-115500615D01*
X146359684Y-115551745D01*
X146421866Y-115558500D01*
X148218134Y-115558500D01*
X148280316Y-115551745D01*
X148416705Y-115500615D01*
X148533261Y-115413261D01*
X148620615Y-115296705D01*
X148671745Y-115160316D01*
X148678500Y-115098134D01*
X148678500Y-113501866D01*
X148671745Y-113439684D01*
X148620615Y-113303295D01*
X148533261Y-113186739D01*
X148416705Y-113099385D01*
X148280316Y-113048255D01*
X148218134Y-113041500D01*
X146421866Y-113041500D01*
X146359684Y-113048255D01*
X146223295Y-113099385D01*
X146106739Y-113186739D01*
X146019385Y-113303295D01*
X145968255Y-113439684D01*
X145967402Y-113447540D01*
X145961636Y-113500614D01*
X145934394Y-113566176D01*
X145876031Y-113606602D01*
X145838269Y-113610716D01*
X145817666Y-113621545D01*
X145152021Y-114287189D01*
X145144408Y-114301132D01*
X144414356Y-114301132D01*
X144415592Y-114298868D01*
X144415461Y-114297034D01*
X144411210Y-114290420D01*
X143741609Y-113620820D01*
X143729839Y-113614393D01*
X143717824Y-113623689D01*
X143689534Y-113664093D01*
X143684054Y-113673583D01*
X143624471Y-113801360D01*
X143577554Y-113854645D01*
X143509276Y-113874106D01*
X143441316Y-113853564D01*
X143396081Y-113801360D01*
X143336379Y-113673328D01*
X143336377Y-113673325D01*
X143334056Y-113668347D01*
X143271287Y-113578703D01*
X143248500Y-113506433D01*
X143248500Y-113248887D01*
X144094477Y-113248887D01*
X144101545Y-113262334D01*
X144767189Y-113927979D01*
X144781132Y-113935592D01*
X144782966Y-113935461D01*
X144789580Y-113931210D01*
X145459180Y-113261609D01*
X145465607Y-113249839D01*
X145456313Y-113237825D01*
X145415912Y-113209536D01*
X145406416Y-113204053D01*
X145216887Y-113115674D01*
X145206595Y-113111928D01*
X145004599Y-113057804D01*
X144993804Y-113055901D01*
X144785475Y-113037674D01*
X144774525Y-113037674D01*
X144566196Y-113055901D01*
X144555401Y-113057804D01*
X144353405Y-113111928D01*
X144343113Y-113115674D01*
X144153583Y-113204054D01*
X144144093Y-113209534D01*
X144102851Y-113238411D01*
X144094477Y-113248887D01*
X143248500Y-113248887D01*
X143248500Y-111667161D01*
X144094393Y-111667161D01*
X144103687Y-111679175D01*
X144144088Y-111707464D01*
X144153584Y-111712947D01*
X144343113Y-111801326D01*
X144353405Y-111805072D01*
X144555401Y-111859196D01*
X144566196Y-111861099D01*
X144774525Y-111879326D01*
X144785475Y-111879326D01*
X144993804Y-111861099D01*
X145004599Y-111859196D01*
X145206595Y-111805072D01*
X145216887Y-111801326D01*
X145406416Y-111712947D01*
X145415912Y-111707464D01*
X145457148Y-111678590D01*
X145465523Y-111668112D01*
X145458457Y-111654668D01*
X144792811Y-110989021D01*
X144778868Y-110981408D01*
X144777034Y-110981539D01*
X144770420Y-110985790D01*
X144100820Y-111655391D01*
X144094393Y-111667161D01*
X143248500Y-111667161D01*
X143248500Y-111410567D01*
X143271287Y-111338297D01*
X143302199Y-111294149D01*
X143334056Y-111248653D01*
X143396081Y-111115640D01*
X143442998Y-111062355D01*
X143511276Y-111042894D01*
X143579236Y-111063436D01*
X143624471Y-111115640D01*
X143684054Y-111243417D01*
X143689534Y-111252907D01*
X143718411Y-111294149D01*
X143728886Y-111302523D01*
X143742335Y-111295454D01*
X144419658Y-110618132D01*
X145144408Y-110618132D01*
X145144539Y-110619966D01*
X145148790Y-110626580D01*
X145818391Y-111296180D01*
X145836695Y-111306175D01*
X145896741Y-111319238D01*
X145946943Y-111369441D01*
X145961618Y-111416218D01*
X145967401Y-111469460D01*
X145967402Y-111469464D01*
X145968255Y-111477316D01*
X146019385Y-111613705D01*
X146106739Y-111730261D01*
X146223295Y-111817615D01*
X146359684Y-111868745D01*
X146421866Y-111875500D01*
X148218134Y-111875500D01*
X148280316Y-111868745D01*
X148416705Y-111817615D01*
X148533261Y-111730261D01*
X148620615Y-111613705D01*
X148671745Y-111477316D01*
X148678500Y-111415134D01*
X148678500Y-110371475D01*
X153169674Y-110371475D01*
X153187901Y-110579804D01*
X153189804Y-110590599D01*
X153243928Y-110792595D01*
X153247674Y-110802887D01*
X153336054Y-110992417D01*
X153341534Y-111001907D01*
X153370411Y-111043149D01*
X153380887Y-111051523D01*
X153394334Y-111044455D01*
X154059979Y-110378811D01*
X154067592Y-110364868D01*
X154067461Y-110363034D01*
X154063210Y-110356420D01*
X153393609Y-109686820D01*
X153381839Y-109680393D01*
X153369824Y-109689689D01*
X153341534Y-109730093D01*
X153336054Y-109739583D01*
X153247674Y-109929113D01*
X153243928Y-109939405D01*
X153189804Y-110141401D01*
X153187901Y-110152196D01*
X153169674Y-110360525D01*
X153169674Y-110371475D01*
X148678500Y-110371475D01*
X148678500Y-109818866D01*
X148671745Y-109756684D01*
X148620615Y-109620295D01*
X148533261Y-109503739D01*
X148416705Y-109416385D01*
X148280316Y-109365255D01*
X148218134Y-109358500D01*
X146421866Y-109358500D01*
X146359684Y-109365255D01*
X146223295Y-109416385D01*
X146106739Y-109503739D01*
X146019385Y-109620295D01*
X145968255Y-109756684D01*
X145962520Y-109809473D01*
X145961636Y-109817614D01*
X145934394Y-109883176D01*
X145876031Y-109923602D01*
X145838269Y-109927716D01*
X145817666Y-109938545D01*
X145152021Y-110604189D01*
X145144408Y-110618132D01*
X144419658Y-110618132D01*
X144780000Y-110257790D01*
X145459178Y-109578611D01*
X145465606Y-109566839D01*
X145456310Y-109554824D01*
X145415912Y-109526536D01*
X145406416Y-109521053D01*
X145216887Y-109432674D01*
X145206595Y-109428928D01*
X145139556Y-109410965D01*
X145078933Y-109374013D01*
X145047912Y-109310152D01*
X145056340Y-109239658D01*
X145083072Y-109200163D01*
X145407074Y-108876161D01*
X153746393Y-108876161D01*
X153755687Y-108888175D01*
X153796088Y-108916464D01*
X153805584Y-108921947D01*
X153933950Y-108981805D01*
X153987235Y-109028723D01*
X154006696Y-109097000D01*
X153986154Y-109164960D01*
X153933951Y-109210194D01*
X153805588Y-109270052D01*
X153796093Y-109275534D01*
X153754851Y-109304411D01*
X153746477Y-109314887D01*
X153753545Y-109328334D01*
X154419189Y-109993979D01*
X154433132Y-110001592D01*
X154434966Y-110001461D01*
X154441580Y-109997210D01*
X155111180Y-109327609D01*
X155117607Y-109315839D01*
X155108313Y-109303825D01*
X155067912Y-109275536D01*
X155058416Y-109270053D01*
X154930050Y-109210195D01*
X154876765Y-109163277D01*
X154857304Y-109095000D01*
X154877846Y-109027040D01*
X154930050Y-108981805D01*
X155058416Y-108921947D01*
X155067912Y-108916464D01*
X155109148Y-108887590D01*
X155117523Y-108877112D01*
X155110457Y-108863668D01*
X154444811Y-108198021D01*
X154430868Y-108190408D01*
X154429034Y-108190539D01*
X154422420Y-108194790D01*
X153752820Y-108864391D01*
X153746393Y-108876161D01*
X145407074Y-108876161D01*
X146451760Y-107831475D01*
X153169674Y-107831475D01*
X153187901Y-108039804D01*
X153189804Y-108050599D01*
X153243928Y-108252595D01*
X153247674Y-108262887D01*
X153336054Y-108452417D01*
X153341534Y-108461907D01*
X153370411Y-108503149D01*
X153380887Y-108511523D01*
X153394334Y-108504455D01*
X154059979Y-107838811D01*
X154066356Y-107827132D01*
X154796408Y-107827132D01*
X154796539Y-107828966D01*
X154800790Y-107835580D01*
X155470391Y-108505180D01*
X155482161Y-108511607D01*
X155494176Y-108502311D01*
X155522466Y-108461907D01*
X155527946Y-108452417D01*
X155616326Y-108262887D01*
X155620072Y-108252595D01*
X155674196Y-108050599D01*
X155676099Y-108039804D01*
X155694326Y-107831475D01*
X155694326Y-107820525D01*
X155676099Y-107612196D01*
X155674196Y-107601401D01*
X155620072Y-107399405D01*
X155616326Y-107389113D01*
X155527946Y-107199583D01*
X155522466Y-107190093D01*
X155493589Y-107148851D01*
X155483113Y-107140477D01*
X155469666Y-107147545D01*
X154804021Y-107813189D01*
X154796408Y-107827132D01*
X154066356Y-107827132D01*
X154067592Y-107824868D01*
X154067461Y-107823034D01*
X154063210Y-107816420D01*
X153393609Y-107146820D01*
X153381839Y-107140393D01*
X153369824Y-107149689D01*
X153341534Y-107190093D01*
X153336054Y-107199583D01*
X153247674Y-107389113D01*
X153243928Y-107399405D01*
X153189804Y-107601401D01*
X153187901Y-107612196D01*
X153169674Y-107820525D01*
X153169674Y-107831475D01*
X146451760Y-107831475D01*
X147951830Y-106331405D01*
X148014142Y-106297379D01*
X148040925Y-106294500D01*
X153638432Y-106294500D01*
X153710703Y-106317287D01*
X153800346Y-106380056D01*
X153805328Y-106382379D01*
X153805333Y-106382382D01*
X153933359Y-106442081D01*
X153986644Y-106488998D01*
X154006105Y-106557276D01*
X153985563Y-106625236D01*
X153933359Y-106670471D01*
X153805583Y-106730054D01*
X153796093Y-106735534D01*
X153754851Y-106764411D01*
X153746477Y-106774887D01*
X153753545Y-106788334D01*
X154419189Y-107453979D01*
X154433132Y-107461592D01*
X154434966Y-107461461D01*
X154441580Y-107457210D01*
X155111180Y-106787609D01*
X155117607Y-106775839D01*
X155108313Y-106763825D01*
X155067912Y-106735536D01*
X155058416Y-106730053D01*
X154930641Y-106670471D01*
X154877356Y-106623554D01*
X154857895Y-106555276D01*
X154878437Y-106487316D01*
X154930641Y-106442081D01*
X155058667Y-106382382D01*
X155058672Y-106382379D01*
X155063654Y-106380056D01*
X155244038Y-106253749D01*
X155399749Y-106098038D01*
X155526056Y-105917653D01*
X155528379Y-105912671D01*
X155528382Y-105912666D01*
X155616795Y-105723061D01*
X155619120Y-105718076D01*
X155676115Y-105505371D01*
X155695307Y-105286000D01*
X155676115Y-105066629D01*
X155619120Y-104853924D01*
X155563082Y-104733749D01*
X155528382Y-104659334D01*
X155528379Y-104659329D01*
X155526056Y-104654347D01*
X155522899Y-104649838D01*
X155402908Y-104478473D01*
X155402906Y-104478470D01*
X155399749Y-104473962D01*
X155244038Y-104318251D01*
X155205693Y-104291401D01*
X155153297Y-104254713D01*
X155063654Y-104191944D01*
X155058672Y-104189621D01*
X155058667Y-104189618D01*
X154990387Y-104157779D01*
X154937102Y-104110862D01*
X154917641Y-104042584D01*
X154938183Y-103974624D01*
X154990388Y-103929389D01*
X155083758Y-103885851D01*
X155083764Y-103885847D01*
X155088749Y-103883523D01*
X155193611Y-103810098D01*
X155271789Y-103755357D01*
X155271792Y-103755355D01*
X155276300Y-103752198D01*
X155438198Y-103590300D01*
X155444165Y-103581779D01*
X155508003Y-103490608D01*
X155569523Y-103402749D01*
X155571846Y-103397767D01*
X155571849Y-103397762D01*
X155663961Y-103200225D01*
X155663961Y-103200224D01*
X155666284Y-103195243D01*
X155683810Y-103129838D01*
X155724119Y-102979402D01*
X155724119Y-102979400D01*
X155725543Y-102974087D01*
X155745498Y-102746000D01*
X155725543Y-102517913D01*
X155717878Y-102489307D01*
X155667707Y-102302067D01*
X155667706Y-102302065D01*
X155666284Y-102296757D01*
X155616434Y-102189852D01*
X155571849Y-102094238D01*
X155571846Y-102094233D01*
X155569523Y-102089251D01*
X155463287Y-101937531D01*
X155440500Y-101865260D01*
X155440500Y-100615567D01*
X155463287Y-100543297D01*
X155511082Y-100475038D01*
X155526056Y-100453653D01*
X155546382Y-100410065D01*
X155575079Y-100348523D01*
X155619120Y-100254076D01*
X155676115Y-100041371D01*
X155695307Y-99822000D01*
X155676115Y-99602629D01*
X155619120Y-99389924D01*
X155572981Y-99290979D01*
X155528382Y-99195334D01*
X155528379Y-99195329D01*
X155526056Y-99190347D01*
X155513757Y-99172782D01*
X155408380Y-99022288D01*
X155385692Y-98955014D01*
X155402977Y-98886153D01*
X155454747Y-98837569D01*
X155524565Y-98824687D01*
X155590264Y-98851595D01*
X155600688Y-98860922D01*
X156307595Y-99567829D01*
X156341621Y-99630141D01*
X156344500Y-99656924D01*
X156344500Y-109515076D01*
X156324498Y-109583197D01*
X156307595Y-109604171D01*
X155848837Y-110062929D01*
X155786525Y-110096955D01*
X155715710Y-110091890D01*
X155658874Y-110049343D01*
X155638035Y-110006445D01*
X155620072Y-109939405D01*
X155616326Y-109929113D01*
X155527946Y-109739583D01*
X155522466Y-109730093D01*
X155493589Y-109688851D01*
X155483114Y-109680477D01*
X155469665Y-109687546D01*
X154432000Y-110725210D01*
X153752822Y-111404389D01*
X153746394Y-111416161D01*
X153755690Y-111428176D01*
X153796088Y-111456464D01*
X153805584Y-111461947D01*
X153933359Y-111521529D01*
X153986644Y-111568446D01*
X154006105Y-111636724D01*
X153985563Y-111704684D01*
X153933359Y-111749919D01*
X153805334Y-111809618D01*
X153805329Y-111809621D01*
X153800347Y-111811944D01*
X153795840Y-111815100D01*
X153795838Y-111815101D01*
X153624473Y-111935092D01*
X153624470Y-111935094D01*
X153619962Y-111938251D01*
X153464251Y-112093962D01*
X153337944Y-112274347D01*
X153335621Y-112279329D01*
X153335618Y-112279334D01*
X153288415Y-112380562D01*
X153244880Y-112473924D01*
X153187885Y-112686629D01*
X153168693Y-112906000D01*
X153187885Y-113125371D01*
X153244880Y-113338076D01*
X153247205Y-113343061D01*
X153335618Y-113532666D01*
X153335621Y-113532671D01*
X153337944Y-113537653D01*
X153341100Y-113542160D01*
X153341101Y-113542162D01*
X153432945Y-113673328D01*
X153464251Y-113718038D01*
X153619962Y-113873749D01*
X153624471Y-113876906D01*
X153624473Y-113876908D01*
X153697410Y-113927979D01*
X153800346Y-114000056D01*
X153999924Y-114093120D01*
X154212629Y-114150115D01*
X154432000Y-114169307D01*
X154651371Y-114150115D01*
X154864076Y-114093120D01*
X155063654Y-114000056D01*
X155166590Y-113927979D01*
X155239527Y-113876908D01*
X155239529Y-113876906D01*
X155244038Y-113873749D01*
X155399749Y-113718038D01*
X155431056Y-113673328D01*
X155522899Y-113542162D01*
X155522900Y-113542160D01*
X155526056Y-113537653D01*
X155528379Y-113532671D01*
X155528382Y-113532666D01*
X155616795Y-113343061D01*
X155619120Y-113338076D01*
X155676115Y-113125371D01*
X155676594Y-113119894D01*
X155676600Y-113119862D01*
X155711591Y-113052643D01*
X158022379Y-110741855D01*
X158032522Y-110732753D01*
X158057218Y-110712897D01*
X158062025Y-110709032D01*
X158094292Y-110670578D01*
X158097472Y-110666931D01*
X158099115Y-110665119D01*
X158101309Y-110662925D01*
X158128642Y-110629651D01*
X158129348Y-110628800D01*
X158134656Y-110622475D01*
X158189154Y-110557526D01*
X158191722Y-110552856D01*
X158195103Y-110548739D01*
X158239015Y-110466842D01*
X158239624Y-110465720D01*
X158259585Y-110429411D01*
X158309931Y-110379352D01*
X158379348Y-110364459D01*
X158445797Y-110389460D01*
X158488181Y-110446417D01*
X158496000Y-110490112D01*
X158496000Y-140463000D01*
X158475998Y-140531121D01*
X158422342Y-140577614D01*
X158370000Y-140589000D01*
X103631000Y-140589000D01*
X103562879Y-140568998D01*
X103516386Y-140515342D01*
X103505000Y-140463000D01*
X103505000Y-136201094D01*
X103525002Y-136132973D01*
X103578658Y-136086480D01*
X103648932Y-136076376D01*
X103713512Y-136105870D01*
X103720095Y-136111999D01*
X106049343Y-138441247D01*
X106056887Y-138449537D01*
X106061000Y-138456018D01*
X106066777Y-138461443D01*
X106110667Y-138502658D01*
X106113509Y-138505413D01*
X106133230Y-138525134D01*
X106136425Y-138527612D01*
X106145447Y-138535318D01*
X106177679Y-138565586D01*
X106184628Y-138569406D01*
X106195432Y-138575346D01*
X106211956Y-138586199D01*
X106227959Y-138598613D01*
X106268543Y-138616176D01*
X106279173Y-138621383D01*
X106317940Y-138642695D01*
X106325617Y-138644666D01*
X106325622Y-138644668D01*
X106337558Y-138647732D01*
X106356266Y-138654137D01*
X106374855Y-138662181D01*
X106382680Y-138663420D01*
X106382682Y-138663421D01*
X106418519Y-138669097D01*
X106430140Y-138671504D01*
X106461959Y-138679673D01*
X106472970Y-138682500D01*
X106493231Y-138682500D01*
X106512940Y-138684051D01*
X106532943Y-138687219D01*
X106540835Y-138686473D01*
X106546062Y-138685979D01*
X106576954Y-138683059D01*
X106588811Y-138682500D01*
X124997183Y-138682500D01*
X125008366Y-138683027D01*
X125015859Y-138684702D01*
X125023785Y-138684453D01*
X125023786Y-138684453D01*
X125083936Y-138682562D01*
X125087895Y-138682500D01*
X125115806Y-138682500D01*
X125119741Y-138682003D01*
X125119806Y-138681995D01*
X125131643Y-138681062D01*
X125163901Y-138680048D01*
X125167920Y-138679922D01*
X125175839Y-138679673D01*
X125195293Y-138674021D01*
X125214650Y-138670013D01*
X125226880Y-138668468D01*
X125226881Y-138668468D01*
X125234747Y-138667474D01*
X125242118Y-138664555D01*
X125242120Y-138664555D01*
X125275862Y-138651196D01*
X125287092Y-138647351D01*
X125321933Y-138637229D01*
X125321934Y-138637229D01*
X125329543Y-138635018D01*
X125336362Y-138630985D01*
X125336367Y-138630983D01*
X125346978Y-138624707D01*
X125364726Y-138616012D01*
X125383567Y-138608552D01*
X125403937Y-138593753D01*
X125419337Y-138582564D01*
X125429257Y-138576048D01*
X125460485Y-138557580D01*
X125460488Y-138557578D01*
X125467312Y-138553542D01*
X125481633Y-138539221D01*
X125496667Y-138526380D01*
X125498382Y-138525134D01*
X125513057Y-138514472D01*
X125541248Y-138480395D01*
X125549238Y-138471616D01*
X126723128Y-137297726D01*
X126785440Y-137263700D01*
X126840028Y-137263928D01*
X126865824Y-137269765D01*
X126871598Y-137269992D01*
X126871599Y-137269992D01*
X126911714Y-137271568D01*
X127080488Y-137278199D01*
X127205218Y-137260114D01*
X127287371Y-137248203D01*
X127287375Y-137248202D01*
X127293093Y-137247373D01*
X127298565Y-137245515D01*
X127298567Y-137245515D01*
X127491057Y-137180173D01*
X127491059Y-137180172D01*
X127496521Y-137178318D01*
X127652898Y-137090743D01*
X128938567Y-137090743D01*
X128948449Y-137103232D01*
X128994345Y-137133899D01*
X129004455Y-137139389D01*
X129191141Y-137219595D01*
X129202084Y-137223150D01*
X129400253Y-137267992D01*
X129411663Y-137269494D01*
X129614693Y-137277471D01*
X129626175Y-137276869D01*
X129827262Y-137247714D01*
X129838445Y-137245029D01*
X130030845Y-137179718D01*
X130041360Y-137175036D01*
X130171459Y-137102177D01*
X130181323Y-137092100D01*
X130178368Y-137084428D01*
X129571862Y-136477922D01*
X129557918Y-136470308D01*
X129556085Y-136470439D01*
X129549470Y-136474690D01*
X128944763Y-137079397D01*
X128938567Y-137090743D01*
X127652898Y-137090743D01*
X127683959Y-137073348D01*
X127746414Y-137021405D01*
X127767014Y-137004272D01*
X127849128Y-136935978D01*
X127964298Y-136797502D01*
X127982807Y-136775247D01*
X127986498Y-136770809D01*
X128091468Y-136583371D01*
X128093945Y-136576076D01*
X128158665Y-136385417D01*
X128158665Y-136385415D01*
X128160523Y-136379943D01*
X128161352Y-136374225D01*
X128161353Y-136374221D01*
X128165045Y-136348754D01*
X128194614Y-136284208D01*
X128254385Y-136245895D01*
X128325382Y-136245979D01*
X128385063Y-136284433D01*
X128411864Y-136335818D01*
X128451527Y-136491991D01*
X128455368Y-136502838D01*
X128540432Y-136687355D01*
X128546188Y-136697324D01*
X128561498Y-136718988D01*
X128572089Y-136727379D01*
X128585389Y-136720351D01*
X129187028Y-136118712D01*
X129194642Y-136104768D01*
X129194511Y-136102935D01*
X129190260Y-136096320D01*
X128582868Y-135488928D01*
X128570488Y-135482168D01*
X128564522Y-135486634D01*
X128477653Y-135651747D01*
X128473252Y-135662371D01*
X128412997Y-135856423D01*
X128411729Y-135862390D01*
X128377999Y-135924863D01*
X128315849Y-135959182D01*
X128245010Y-135954453D01*
X128187973Y-135912176D01*
X128167215Y-135870394D01*
X128114988Y-135685209D01*
X128103726Y-135662371D01*
X128022525Y-135497714D01*
X128019971Y-135492535D01*
X127900066Y-135331962D01*
X127894887Y-135325026D01*
X127894886Y-135325025D01*
X127891434Y-135320402D01*
X127862903Y-135294028D01*
X127737920Y-135178495D01*
X127737917Y-135178493D01*
X127733680Y-135174576D01*
X127647986Y-135120507D01*
X128937769Y-135120507D01*
X128941256Y-135128896D01*
X129546238Y-135733878D01*
X129560182Y-135741492D01*
X129562015Y-135741361D01*
X129568630Y-135737110D01*
X130173123Y-135132617D01*
X130179883Y-135120237D01*
X130173853Y-135112182D01*
X130096645Y-135063467D01*
X130086402Y-135058248D01*
X129897678Y-134982955D01*
X129886651Y-134979688D01*
X129687371Y-134940049D01*
X129675925Y-134938846D01*
X129472768Y-134936187D01*
X129461288Y-134937090D01*
X129261047Y-134971498D01*
X129249927Y-134974478D01*
X129059302Y-135044803D01*
X129048924Y-135049753D01*
X128947367Y-135110174D01*
X128937769Y-135120507D01*
X127647986Y-135120507D01*
X127551993Y-135059940D01*
X127352458Y-134980334D01*
X127346798Y-134979208D01*
X127346794Y-134979207D01*
X127147424Y-134939550D01*
X127147421Y-134939550D01*
X127141757Y-134938423D01*
X127135982Y-134938347D01*
X127135978Y-134938347D01*
X127028305Y-134936938D01*
X126926946Y-134935611D01*
X126921249Y-134936590D01*
X126921248Y-134936590D01*
X126729612Y-134969519D01*
X126715220Y-134971992D01*
X126513670Y-135046348D01*
X126329044Y-135156188D01*
X126324704Y-135159994D01*
X126324700Y-135159997D01*
X126214114Y-135256979D01*
X126167527Y-135297835D01*
X126163952Y-135302370D01*
X126163951Y-135302371D01*
X126137771Y-135335580D01*
X126034528Y-135466544D01*
X126031839Y-135471655D01*
X126031837Y-135471658D01*
X126010430Y-135512347D01*
X125934500Y-135656665D01*
X125870795Y-135861831D01*
X125870688Y-135862737D01*
X125837711Y-135923821D01*
X125775562Y-135958143D01*
X125704723Y-135953417D01*
X125647685Y-135911142D01*
X125626922Y-135869354D01*
X125623275Y-135856423D01*
X125574988Y-135685209D01*
X125563726Y-135662371D01*
X125482525Y-135497714D01*
X125479971Y-135492535D01*
X125360066Y-135331962D01*
X125354887Y-135325026D01*
X125354886Y-135325025D01*
X125351434Y-135320402D01*
X125322903Y-135294028D01*
X125197920Y-135178495D01*
X125197917Y-135178493D01*
X125193680Y-135174576D01*
X125188799Y-135171496D01*
X125188796Y-135171494D01*
X125174973Y-135162773D01*
X125168711Y-135158822D01*
X125121773Y-135105556D01*
X125111590Y-135062854D01*
X125111213Y-135062914D01*
X125110440Y-135058032D01*
X125110008Y-135056222D01*
X125109972Y-135055080D01*
X125109723Y-135047160D01*
X125104072Y-135027708D01*
X125100064Y-135008356D01*
X125098517Y-134996113D01*
X125097524Y-134988253D01*
X125094133Y-134979688D01*
X125081250Y-134947147D01*
X125077405Y-134935920D01*
X125076771Y-134933737D01*
X125065068Y-134893457D01*
X125061034Y-134886635D01*
X125061031Y-134886629D01*
X125054756Y-134876018D01*
X125046060Y-134858268D01*
X125041522Y-134846806D01*
X125041519Y-134846801D01*
X125038602Y-134839433D01*
X125012623Y-134803675D01*
X125006107Y-134793757D01*
X124987625Y-134762507D01*
X124983592Y-134755687D01*
X124969268Y-134741363D01*
X124956426Y-134726328D01*
X124944522Y-134709943D01*
X124910456Y-134681761D01*
X124901677Y-134673772D01*
X124455652Y-134227747D01*
X124448112Y-134219461D01*
X124444000Y-134212982D01*
X124394348Y-134166356D01*
X124391507Y-134163602D01*
X124371770Y-134143865D01*
X124368573Y-134141385D01*
X124359551Y-134133680D01*
X124333100Y-134108841D01*
X124327321Y-134103414D01*
X124320375Y-134099595D01*
X124320372Y-134099593D01*
X124309566Y-134093652D01*
X124293047Y-134082801D01*
X124292583Y-134082441D01*
X124277041Y-134070386D01*
X124269772Y-134067241D01*
X124269768Y-134067238D01*
X124236463Y-134052826D01*
X124225813Y-134047609D01*
X124187060Y-134026305D01*
X124167437Y-134021267D01*
X124148734Y-134014863D01*
X124137420Y-134009967D01*
X124137419Y-134009967D01*
X124130145Y-134006819D01*
X124122322Y-134005580D01*
X124122312Y-134005577D01*
X124086476Y-133999901D01*
X124074856Y-133997495D01*
X124039711Y-133988472D01*
X124039710Y-133988472D01*
X124032030Y-133986500D01*
X124011776Y-133986500D01*
X123992065Y-133984949D01*
X123979886Y-133983020D01*
X123972057Y-133981780D01*
X123964165Y-133982526D01*
X123928039Y-133985941D01*
X123916181Y-133986500D01*
X118040595Y-133986500D01*
X117972474Y-133966498D01*
X117951500Y-133949595D01*
X116469848Y-132467943D01*
X120048567Y-132467943D01*
X120058449Y-132480432D01*
X120104345Y-132511099D01*
X120114455Y-132516589D01*
X120301141Y-132596795D01*
X120312084Y-132600350D01*
X120510253Y-132645192D01*
X120521663Y-132646694D01*
X120724693Y-132654671D01*
X120736175Y-132654069D01*
X120937262Y-132624914D01*
X120948445Y-132622229D01*
X121140845Y-132556918D01*
X121151360Y-132552236D01*
X121281459Y-132479377D01*
X121291323Y-132469300D01*
X121288368Y-132461628D01*
X120681862Y-131855122D01*
X120667918Y-131847508D01*
X120666085Y-131847639D01*
X120659470Y-131851890D01*
X120054763Y-132456597D01*
X120048567Y-132467943D01*
X116469848Y-132467943D01*
X115460055Y-131458150D01*
X119496424Y-131458150D01*
X119509713Y-131660893D01*
X119511514Y-131672263D01*
X119561527Y-131869191D01*
X119565368Y-131880038D01*
X119650432Y-132064555D01*
X119656188Y-132074524D01*
X119671498Y-132096188D01*
X119682089Y-132104579D01*
X119695389Y-132097551D01*
X120297028Y-131495912D01*
X120304642Y-131481968D01*
X120304511Y-131480135D01*
X120300260Y-131473520D01*
X119692868Y-130866128D01*
X119680488Y-130859368D01*
X119674522Y-130863834D01*
X119587653Y-131028947D01*
X119583252Y-131039571D01*
X119522999Y-131233618D01*
X119520607Y-131244872D01*
X119496725Y-131446649D01*
X119496424Y-131458150D01*
X115460055Y-131458150D01*
X114499612Y-130497707D01*
X120047769Y-130497707D01*
X120051256Y-130506096D01*
X120656238Y-131111078D01*
X120670182Y-131118692D01*
X120672015Y-131118561D01*
X120678630Y-131114310D01*
X121283123Y-130509817D01*
X121289883Y-130497437D01*
X121283853Y-130489382D01*
X121206645Y-130440667D01*
X121196402Y-130435448D01*
X121007678Y-130360155D01*
X120996651Y-130356888D01*
X120797371Y-130317249D01*
X120785925Y-130316046D01*
X120582768Y-130313387D01*
X120571288Y-130314290D01*
X120371047Y-130348698D01*
X120359927Y-130351678D01*
X120169302Y-130422003D01*
X120158924Y-130426953D01*
X120057367Y-130487374D01*
X120047769Y-130497707D01*
X114499612Y-130497707D01*
X107440328Y-123438423D01*
X107406302Y-123376111D01*
X107407716Y-123316717D01*
X107414691Y-123290685D01*
X107414692Y-123290681D01*
X107416115Y-123285371D01*
X107435307Y-123066000D01*
X107416115Y-122846629D01*
X107359120Y-122633924D01*
X107314580Y-122538408D01*
X107268382Y-122439334D01*
X107268379Y-122439329D01*
X107266056Y-122434347D01*
X107262899Y-122429838D01*
X107142908Y-122258473D01*
X107142906Y-122258470D01*
X107139749Y-122253962D01*
X106984038Y-122098251D01*
X106803654Y-121971944D01*
X106604076Y-121878880D01*
X106391371Y-121821885D01*
X106172000Y-121802693D01*
X105952629Y-121821885D01*
X105739924Y-121878880D01*
X105672769Y-121910195D01*
X105545334Y-121969618D01*
X105545329Y-121969621D01*
X105540347Y-121971944D01*
X105535840Y-121975100D01*
X105535838Y-121975101D01*
X105364473Y-122095092D01*
X105364470Y-122095094D01*
X105359962Y-122098251D01*
X105204251Y-122253962D01*
X105201094Y-122258470D01*
X105201092Y-122258473D01*
X105081101Y-122429838D01*
X105077944Y-122434347D01*
X105075621Y-122439329D01*
X105075618Y-122439334D01*
X105029420Y-122538408D01*
X104984880Y-122633924D01*
X104927885Y-122846629D01*
X104908693Y-123066000D01*
X104927885Y-123285371D01*
X104984880Y-123498076D01*
X104987205Y-123503061D01*
X105075618Y-123692666D01*
X105075621Y-123692671D01*
X105077944Y-123697653D01*
X105204251Y-123878038D01*
X105359962Y-124033749D01*
X105540346Y-124160056D01*
X105545328Y-124162379D01*
X105545333Y-124162382D01*
X105672768Y-124221805D01*
X105726053Y-124268722D01*
X105745514Y-124336999D01*
X105724972Y-124404959D01*
X105672768Y-124450195D01*
X105545334Y-124509618D01*
X105545329Y-124509621D01*
X105540347Y-124511944D01*
X105535840Y-124515100D01*
X105535838Y-124515101D01*
X105364473Y-124635092D01*
X105364470Y-124635094D01*
X105359962Y-124638251D01*
X105204251Y-124793962D01*
X105201094Y-124798470D01*
X105201092Y-124798473D01*
X105118959Y-124915771D01*
X105077944Y-124974347D01*
X105075621Y-124979329D01*
X105075618Y-124979334D01*
X105043214Y-125048825D01*
X104984880Y-125173924D01*
X104927885Y-125386629D01*
X104908693Y-125606000D01*
X104927885Y-125825371D01*
X104984880Y-126038076D01*
X104987205Y-126043061D01*
X105075618Y-126232666D01*
X105075621Y-126232671D01*
X105077944Y-126237653D01*
X105204251Y-126418038D01*
X105359962Y-126573749D01*
X105540346Y-126700056D01*
X105545328Y-126702379D01*
X105545333Y-126702382D01*
X105672768Y-126761805D01*
X105726053Y-126808722D01*
X105745514Y-126876999D01*
X105724972Y-126944959D01*
X105672768Y-126990195D01*
X105545334Y-127049618D01*
X105545329Y-127049621D01*
X105540347Y-127051944D01*
X105535840Y-127055100D01*
X105535838Y-127055101D01*
X105364473Y-127175092D01*
X105364470Y-127175094D01*
X105359962Y-127178251D01*
X105204251Y-127333962D01*
X105201094Y-127338470D01*
X105201092Y-127338473D01*
X105179625Y-127369131D01*
X105077944Y-127514347D01*
X105075621Y-127519329D01*
X105075618Y-127519334D01*
X105028415Y-127620562D01*
X104984880Y-127713924D01*
X104927885Y-127926629D01*
X104908693Y-128146000D01*
X104927885Y-128365371D01*
X104984880Y-128578076D01*
X105015731Y-128644237D01*
X105075618Y-128772666D01*
X105075621Y-128772671D01*
X105077944Y-128777653D01*
X105204251Y-128958038D01*
X105359962Y-129113749D01*
X105540346Y-129240056D01*
X105545328Y-129242379D01*
X105545333Y-129242382D01*
X105672768Y-129301805D01*
X105726053Y-129348722D01*
X105745514Y-129416999D01*
X105724972Y-129484959D01*
X105672768Y-129530195D01*
X105545334Y-129589618D01*
X105545329Y-129589621D01*
X105540347Y-129591944D01*
X105535840Y-129595100D01*
X105535838Y-129595101D01*
X105364473Y-129715092D01*
X105364470Y-129715094D01*
X105359962Y-129718251D01*
X105204251Y-129873962D01*
X105077944Y-130054347D01*
X105075621Y-130059329D01*
X105075618Y-130059334D01*
X105039174Y-130137490D01*
X104984880Y-130253924D01*
X104927885Y-130466629D01*
X104908693Y-130686000D01*
X104927885Y-130905371D01*
X104984880Y-131118076D01*
X105005868Y-131163084D01*
X105075618Y-131312666D01*
X105075621Y-131312671D01*
X105077944Y-131317653D01*
X105081100Y-131322160D01*
X105081101Y-131322162D01*
X105192999Y-131481968D01*
X105204251Y-131498038D01*
X105359962Y-131653749D01*
X105364471Y-131656906D01*
X105364473Y-131656908D01*
X105439241Y-131709261D01*
X105540346Y-131780056D01*
X105739924Y-131873120D01*
X105952629Y-131930115D01*
X106172000Y-131949307D01*
X106391371Y-131930115D01*
X106604076Y-131873120D01*
X106803654Y-131780056D01*
X106904759Y-131709261D01*
X106979527Y-131656908D01*
X106979529Y-131656906D01*
X106984038Y-131653749D01*
X107139749Y-131498038D01*
X107151002Y-131481968D01*
X107262899Y-131322162D01*
X107262900Y-131322160D01*
X107266056Y-131317653D01*
X107268379Y-131312671D01*
X107268382Y-131312666D01*
X107338132Y-131163084D01*
X107359120Y-131118076D01*
X107416115Y-130905371D01*
X107435307Y-130686000D01*
X107416115Y-130466629D01*
X107359120Y-130253924D01*
X107304826Y-130137490D01*
X107268382Y-130059334D01*
X107268379Y-130059329D01*
X107266056Y-130054347D01*
X107139749Y-129873962D01*
X106984038Y-129718251D01*
X106803654Y-129591944D01*
X106798672Y-129589621D01*
X106798667Y-129589618D01*
X106671232Y-129530195D01*
X106617947Y-129483278D01*
X106598486Y-129415001D01*
X106619028Y-129347041D01*
X106671232Y-129301805D01*
X106798667Y-129242382D01*
X106798672Y-129242379D01*
X106803654Y-129240056D01*
X106984038Y-129113749D01*
X107139749Y-128958038D01*
X107266056Y-128777653D01*
X107268379Y-128772671D01*
X107268382Y-128772666D01*
X107328269Y-128644237D01*
X107359120Y-128578076D01*
X107416115Y-128365371D01*
X107435307Y-128146000D01*
X107416115Y-127926629D01*
X107359120Y-127713924D01*
X107315585Y-127620562D01*
X107268382Y-127519334D01*
X107268379Y-127519329D01*
X107266056Y-127514347D01*
X107164375Y-127369131D01*
X107142908Y-127338473D01*
X107142906Y-127338470D01*
X107139749Y-127333962D01*
X106984038Y-127178251D01*
X106975954Y-127172590D01*
X106883288Y-127107705D01*
X106803654Y-127051944D01*
X106798672Y-127049621D01*
X106798667Y-127049618D01*
X106671232Y-126990195D01*
X106617947Y-126943278D01*
X106598486Y-126875001D01*
X106619028Y-126807041D01*
X106671232Y-126761805D01*
X106798667Y-126702382D01*
X106798672Y-126702379D01*
X106803654Y-126700056D01*
X106984038Y-126573749D01*
X107139749Y-126418038D01*
X107266056Y-126237653D01*
X107268379Y-126232671D01*
X107268382Y-126232666D01*
X107356795Y-126043061D01*
X107359120Y-126038076D01*
X107416115Y-125825371D01*
X107435307Y-125606000D01*
X107428970Y-125533566D01*
X107442959Y-125463962D01*
X107492359Y-125412969D01*
X107561485Y-125396779D01*
X107628390Y-125420532D01*
X107643586Y-125433490D01*
X117222343Y-135012247D01*
X117229887Y-135020537D01*
X117234000Y-135027018D01*
X117239777Y-135032443D01*
X117283667Y-135073658D01*
X117286509Y-135076413D01*
X117306230Y-135096134D01*
X117309425Y-135098612D01*
X117318447Y-135106318D01*
X117350679Y-135136586D01*
X117357628Y-135140406D01*
X117368432Y-135146346D01*
X117384956Y-135157199D01*
X117400959Y-135169613D01*
X117441543Y-135187176D01*
X117452173Y-135192383D01*
X117490940Y-135213695D01*
X117498617Y-135215666D01*
X117498622Y-135215668D01*
X117510558Y-135218732D01*
X117529266Y-135225137D01*
X117547855Y-135233181D01*
X117555680Y-135234420D01*
X117555682Y-135234421D01*
X117591519Y-135240097D01*
X117603140Y-135242504D01*
X117638289Y-135251528D01*
X117645970Y-135253500D01*
X117666231Y-135253500D01*
X117685940Y-135255051D01*
X117705943Y-135258219D01*
X117713835Y-135257473D01*
X117719062Y-135256979D01*
X117749954Y-135254059D01*
X117761811Y-135253500D01*
X120862703Y-135253500D01*
X120930824Y-135273502D01*
X120977317Y-135327158D01*
X120987421Y-135397432D01*
X120961650Y-135457510D01*
X120957708Y-135462510D01*
X120899825Y-135503621D01*
X120858761Y-135510500D01*
X115022500Y-135510500D01*
X114954379Y-135490498D01*
X114907886Y-135436842D01*
X114896500Y-135384500D01*
X114896500Y-135345866D01*
X114889745Y-135283684D01*
X114838615Y-135147295D01*
X114751261Y-135030739D01*
X114634705Y-134943385D01*
X114498316Y-134892255D01*
X114436134Y-134885500D01*
X112639866Y-134885500D01*
X112577684Y-134892255D01*
X112441295Y-134943385D01*
X112324739Y-135030739D01*
X112237385Y-135147295D01*
X112234233Y-135155703D01*
X112189029Y-135276285D01*
X112186255Y-135283684D01*
X112186013Y-135285909D01*
X112152043Y-135345374D01*
X112089088Y-135378196D01*
X112018383Y-135371771D01*
X111968408Y-135335759D01*
X111965749Y-135331962D01*
X111810038Y-135176251D01*
X111803245Y-135171494D01*
X111730042Y-135120237D01*
X111629654Y-135049944D01*
X111430076Y-134956880D01*
X111217371Y-134899885D01*
X110998000Y-134880693D01*
X110778629Y-134899885D01*
X110565924Y-134956880D01*
X110510006Y-134982955D01*
X110371334Y-135047618D01*
X110371329Y-135047621D01*
X110366347Y-135049944D01*
X110361840Y-135053100D01*
X110361838Y-135053101D01*
X110190473Y-135173092D01*
X110190470Y-135173094D01*
X110185962Y-135176251D01*
X110030251Y-135331962D01*
X110027094Y-135336470D01*
X110027092Y-135336473D01*
X109914190Y-135497714D01*
X109903944Y-135512347D01*
X109901621Y-135517329D01*
X109901618Y-135517334D01*
X109854415Y-135618562D01*
X109810880Y-135711924D01*
X109753885Y-135924629D01*
X109734693Y-136144000D01*
X109753885Y-136363371D01*
X109810880Y-136576076D01*
X109816629Y-136588404D01*
X109901618Y-136770666D01*
X109901621Y-136770671D01*
X109903944Y-136775653D01*
X109907100Y-136780160D01*
X109907101Y-136780162D01*
X110018123Y-136938717D01*
X110030251Y-136956038D01*
X110185962Y-137111749D01*
X110190471Y-137114906D01*
X110190473Y-137114908D01*
X110292413Y-137186287D01*
X110336741Y-137241744D01*
X110344050Y-137312364D01*
X110312019Y-137375724D01*
X110250818Y-137411709D01*
X110220142Y-137415500D01*
X106867595Y-137415500D01*
X106799474Y-137395498D01*
X106778500Y-137378595D01*
X104683405Y-135283500D01*
X104649379Y-135221188D01*
X104646500Y-135194405D01*
X104646500Y-121505695D01*
X116747251Y-121505695D01*
X116747548Y-121510848D01*
X116747548Y-121510851D01*
X116749119Y-121538093D01*
X116760110Y-121728715D01*
X116761247Y-121733761D01*
X116761248Y-121733767D01*
X116776621Y-121801979D01*
X116809222Y-121946639D01*
X116893266Y-122153616D01*
X116944942Y-122237944D01*
X117007291Y-122339688D01*
X117009987Y-122344088D01*
X117156250Y-122512938D01*
X117328126Y-122655632D01*
X117521000Y-122768338D01*
X117729692Y-122848030D01*
X117734760Y-122849061D01*
X117734763Y-122849062D01*
X117829862Y-122868410D01*
X117948597Y-122892567D01*
X117953772Y-122892757D01*
X117953774Y-122892757D01*
X118166673Y-122900564D01*
X118166677Y-122900564D01*
X118171837Y-122900753D01*
X118176957Y-122900097D01*
X118176959Y-122900097D01*
X118388288Y-122873025D01*
X118388289Y-122873025D01*
X118393416Y-122872368D01*
X118398366Y-122870883D01*
X118602429Y-122809661D01*
X118602434Y-122809659D01*
X118607384Y-122808174D01*
X118807994Y-122709896D01*
X118989860Y-122580173D01*
X119148096Y-122422489D01*
X119207594Y-122339689D01*
X119278453Y-122241077D01*
X119279776Y-122242028D01*
X119326645Y-122198857D01*
X119396580Y-122186625D01*
X119462026Y-122214144D01*
X119489875Y-122245994D01*
X119549987Y-122344088D01*
X119696250Y-122512938D01*
X119868126Y-122655632D01*
X120061000Y-122768338D01*
X120269692Y-122848030D01*
X120274760Y-122849061D01*
X120274763Y-122849062D01*
X120369862Y-122868410D01*
X120488597Y-122892567D01*
X120493772Y-122892757D01*
X120493774Y-122892757D01*
X120706673Y-122900564D01*
X120706677Y-122900564D01*
X120711837Y-122900753D01*
X120716957Y-122900097D01*
X120716959Y-122900097D01*
X120928288Y-122873025D01*
X120928289Y-122873025D01*
X120933416Y-122872368D01*
X120938366Y-122870883D01*
X121142429Y-122809661D01*
X121142434Y-122809659D01*
X121147384Y-122808174D01*
X121347994Y-122709896D01*
X121529860Y-122580173D01*
X121688096Y-122422489D01*
X121747594Y-122339689D01*
X121818453Y-122241077D01*
X121819640Y-122241930D01*
X121866960Y-122198362D01*
X121936897Y-122186145D01*
X122002338Y-122213678D01*
X122030166Y-122245511D01*
X122087694Y-122339388D01*
X122093777Y-122347699D01*
X122233213Y-122508667D01*
X122240580Y-122515883D01*
X122404434Y-122651916D01*
X122412881Y-122657831D01*
X122596756Y-122765279D01*
X122606042Y-122769729D01*
X122805001Y-122845703D01*
X122814899Y-122848579D01*
X122918250Y-122869606D01*
X122932299Y-122868410D01*
X122936000Y-122858065D01*
X122936000Y-120222102D01*
X122932082Y-120208758D01*
X122917806Y-120206771D01*
X122879324Y-120212660D01*
X122869288Y-120215051D01*
X122666868Y-120281212D01*
X122657359Y-120285209D01*
X122468463Y-120383542D01*
X122459738Y-120389036D01*
X122289433Y-120516905D01*
X122281726Y-120523748D01*
X122134590Y-120677717D01*
X122128109Y-120685722D01*
X122023498Y-120839074D01*
X121968587Y-120884076D01*
X121898062Y-120892247D01*
X121834315Y-120860993D01*
X121813618Y-120836509D01*
X121732822Y-120711617D01*
X121732820Y-120711614D01*
X121730014Y-120707277D01*
X121579670Y-120542051D01*
X121575619Y-120538852D01*
X121575615Y-120538848D01*
X121408414Y-120406800D01*
X121408410Y-120406798D01*
X121404359Y-120403598D01*
X121368028Y-120383542D01*
X121344400Y-120370499D01*
X121208789Y-120295638D01*
X121203920Y-120293914D01*
X121203916Y-120293912D01*
X121003087Y-120222795D01*
X121003083Y-120222794D01*
X120998212Y-120221069D01*
X120993119Y-120220162D01*
X120993116Y-120220161D01*
X120783373Y-120182800D01*
X120783367Y-120182799D01*
X120778284Y-120181894D01*
X120704452Y-120180992D01*
X120560081Y-120179228D01*
X120560079Y-120179228D01*
X120554911Y-120179165D01*
X120334091Y-120212955D01*
X120121756Y-120282357D01*
X119923607Y-120385507D01*
X119919474Y-120388610D01*
X119919471Y-120388612D01*
X119836771Y-120450705D01*
X119744965Y-120519635D01*
X119590629Y-120681138D01*
X119483201Y-120838621D01*
X119428293Y-120883621D01*
X119357768Y-120891792D01*
X119294021Y-120860538D01*
X119273324Y-120836054D01*
X119192822Y-120711617D01*
X119192820Y-120711614D01*
X119190014Y-120707277D01*
X119039670Y-120542051D01*
X119035619Y-120538852D01*
X119035615Y-120538848D01*
X118868414Y-120406800D01*
X118868410Y-120406798D01*
X118864359Y-120403598D01*
X118828028Y-120383542D01*
X118804400Y-120370499D01*
X118668789Y-120295638D01*
X118663920Y-120293914D01*
X118663916Y-120293912D01*
X118463087Y-120222795D01*
X118463083Y-120222794D01*
X118458212Y-120221069D01*
X118453119Y-120220162D01*
X118453116Y-120220161D01*
X118243373Y-120182800D01*
X118243367Y-120182799D01*
X118238284Y-120181894D01*
X118164452Y-120180992D01*
X118020081Y-120179228D01*
X118020079Y-120179228D01*
X118014911Y-120179165D01*
X117794091Y-120212955D01*
X117581756Y-120282357D01*
X117383607Y-120385507D01*
X117379474Y-120388610D01*
X117379471Y-120388612D01*
X117296771Y-120450705D01*
X117204965Y-120519635D01*
X117050629Y-120681138D01*
X116924743Y-120865680D01*
X116884320Y-120952765D01*
X116836698Y-121055358D01*
X116830688Y-121068305D01*
X116770989Y-121283570D01*
X116747251Y-121505695D01*
X104646500Y-121505695D01*
X104646500Y-120459594D01*
X104666502Y-120391473D01*
X104683405Y-120370499D01*
X105799577Y-119254328D01*
X105861889Y-119220302D01*
X105921283Y-119221716D01*
X105934648Y-119225297D01*
X105952629Y-119230115D01*
X106172000Y-119249307D01*
X106391371Y-119230115D01*
X106604076Y-119173120D01*
X106803654Y-119080056D01*
X106984038Y-118953749D01*
X107139749Y-118798038D01*
X107219995Y-118683436D01*
X107262899Y-118622162D01*
X107262900Y-118622160D01*
X107266056Y-118617653D01*
X107268379Y-118612671D01*
X107268382Y-118612666D01*
X107315585Y-118511438D01*
X107359120Y-118418076D01*
X107416115Y-118205371D01*
X107435307Y-117986000D01*
X107416115Y-117766629D01*
X107359120Y-117553924D01*
X107303884Y-117435469D01*
X107268382Y-117359334D01*
X107268379Y-117359329D01*
X107266056Y-117354347D01*
X107262899Y-117349838D01*
X107142908Y-117178473D01*
X107142906Y-117178470D01*
X107139749Y-117173962D01*
X106984038Y-117018251D01*
X106950553Y-116994804D01*
X106904759Y-116962739D01*
X106803654Y-116891944D01*
X106798672Y-116889621D01*
X106798667Y-116889618D01*
X106671232Y-116830195D01*
X106617947Y-116783278D01*
X106598486Y-116715001D01*
X106619028Y-116647041D01*
X106671232Y-116601805D01*
X106798667Y-116542382D01*
X106798672Y-116542379D01*
X106803654Y-116540056D01*
X106984038Y-116413749D01*
X107139749Y-116258038D01*
X107266056Y-116077653D01*
X107268379Y-116072671D01*
X107268382Y-116072666D01*
X107356795Y-115883061D01*
X107359120Y-115878076D01*
X107416115Y-115665371D01*
X107435307Y-115446000D01*
X107416115Y-115226629D01*
X107414692Y-115221319D01*
X107414691Y-115221312D01*
X107407716Y-115195281D01*
X107409406Y-115124304D01*
X107440328Y-115073576D01*
X108088247Y-114425657D01*
X108096537Y-114418113D01*
X108103018Y-114414000D01*
X108149659Y-114364332D01*
X108152413Y-114361491D01*
X108172134Y-114341770D01*
X108174612Y-114338575D01*
X108182318Y-114329553D01*
X108207158Y-114303101D01*
X108212586Y-114297321D01*
X108222346Y-114279568D01*
X108233199Y-114263045D01*
X108240753Y-114253306D01*
X108245613Y-114247041D01*
X108263176Y-114206457D01*
X108268383Y-114195827D01*
X108289695Y-114157060D01*
X108291666Y-114149383D01*
X108291668Y-114149378D01*
X108294732Y-114137442D01*
X108301138Y-114118730D01*
X108306034Y-114107417D01*
X108309181Y-114100145D01*
X108313740Y-114071365D01*
X108316097Y-114056481D01*
X108318504Y-114044860D01*
X108327528Y-114009711D01*
X108327528Y-114009710D01*
X108329500Y-114002030D01*
X108329500Y-113981769D01*
X108331051Y-113962058D01*
X108332979Y-113949885D01*
X108334219Y-113942057D01*
X108330059Y-113898046D01*
X108329500Y-113886189D01*
X108329500Y-104708594D01*
X108349502Y-104640473D01*
X108366405Y-104619499D01*
X112652499Y-100333405D01*
X112714811Y-100299379D01*
X112741594Y-100296500D01*
X116538646Y-100296500D01*
X116606767Y-100316502D01*
X116641858Y-100350228D01*
X116729251Y-100475038D01*
X116884962Y-100630749D01*
X117065346Y-100757056D01*
X117264924Y-100850120D01*
X117477629Y-100907115D01*
X117697000Y-100926307D01*
X117916371Y-100907115D01*
X118129076Y-100850120D01*
X118328654Y-100757056D01*
X118509038Y-100630749D01*
X118664749Y-100475038D01*
X118704357Y-100418473D01*
X118787899Y-100299162D01*
X118787900Y-100299160D01*
X118791056Y-100294653D01*
X118793379Y-100289671D01*
X118793382Y-100289666D01*
X118881795Y-100100061D01*
X118884120Y-100095076D01*
X118941115Y-99882371D01*
X118960307Y-99663000D01*
X118941115Y-99443629D01*
X118884120Y-99230924D01*
X118836791Y-99129427D01*
X118793382Y-99036334D01*
X118793379Y-99036329D01*
X118791056Y-99031347D01*
X118775703Y-99009421D01*
X118667908Y-98855473D01*
X118667906Y-98855470D01*
X118664749Y-98850962D01*
X118509038Y-98695251D01*
X118503646Y-98691475D01*
X118422820Y-98634880D01*
X118328654Y-98568944D01*
X118323672Y-98566621D01*
X118323667Y-98566618D01*
X118196232Y-98507195D01*
X118142947Y-98460278D01*
X118123486Y-98392001D01*
X118144028Y-98324041D01*
X118196232Y-98278805D01*
X118323667Y-98219382D01*
X118323672Y-98219379D01*
X118328654Y-98217056D01*
X118509038Y-98090749D01*
X118664749Y-97935038D01*
X118704357Y-97878473D01*
X118787899Y-97759162D01*
X118787900Y-97759160D01*
X118791056Y-97754653D01*
X118793379Y-97749671D01*
X118793382Y-97749666D01*
X118868013Y-97589618D01*
X118884120Y-97555076D01*
X118941115Y-97342371D01*
X118960307Y-97123000D01*
X118941115Y-96903629D01*
X118884120Y-96690924D01*
X118829022Y-96572765D01*
X118793382Y-96496334D01*
X118793379Y-96496329D01*
X118791056Y-96491347D01*
X118664749Y-96310962D01*
X118509038Y-96155251D01*
X118503646Y-96151475D01*
X118429759Y-96099739D01*
X118328654Y-96028944D01*
X118323672Y-96026621D01*
X118323667Y-96026618D01*
X118196232Y-95967195D01*
X118142947Y-95920278D01*
X118123486Y-95852001D01*
X118144028Y-95784041D01*
X118196232Y-95738805D01*
X118323667Y-95679382D01*
X118323672Y-95679379D01*
X118328654Y-95677056D01*
X118460757Y-95584556D01*
X118504527Y-95553908D01*
X118504529Y-95553906D01*
X118509038Y-95550749D01*
X118664749Y-95395038D01*
X118704357Y-95338473D01*
X118787899Y-95219162D01*
X118787900Y-95219160D01*
X118791056Y-95214653D01*
X118793379Y-95209671D01*
X118793382Y-95209666D01*
X118868012Y-95049619D01*
X118884120Y-95015076D01*
X118941115Y-94802371D01*
X118960307Y-94583000D01*
X118941115Y-94363629D01*
X118884120Y-94150924D01*
X118824677Y-94023448D01*
X118793382Y-93956334D01*
X118793379Y-93956329D01*
X118791056Y-93951347D01*
X118759257Y-93905933D01*
X118667908Y-93775473D01*
X118667906Y-93775470D01*
X118664749Y-93770962D01*
X118509038Y-93615251D01*
X118472107Y-93589391D01*
X118375731Y-93521908D01*
X118328654Y-93488944D01*
X118323672Y-93486621D01*
X118323667Y-93486618D01*
X118196232Y-93427195D01*
X118142947Y-93380278D01*
X118123486Y-93312001D01*
X118144028Y-93244041D01*
X118196232Y-93198805D01*
X118323667Y-93139382D01*
X118323672Y-93139379D01*
X118328654Y-93137056D01*
X118509038Y-93010749D01*
X118664749Y-92855038D01*
X118720316Y-92775681D01*
X118787899Y-92679162D01*
X118787900Y-92679160D01*
X118791056Y-92674653D01*
X118793379Y-92669671D01*
X118793382Y-92669666D01*
X118881795Y-92480061D01*
X118884120Y-92475076D01*
X118941115Y-92262371D01*
X118960307Y-92043000D01*
X118941115Y-91823629D01*
X118884120Y-91610924D01*
X118827458Y-91489411D01*
X118793382Y-91416334D01*
X118793379Y-91416329D01*
X118791056Y-91411347D01*
X118783180Y-91400099D01*
X118667908Y-91235473D01*
X118667906Y-91235470D01*
X118664749Y-91230962D01*
X118509038Y-91075251D01*
X118472167Y-91049433D01*
X118418297Y-91011713D01*
X118328654Y-90948944D01*
X118129076Y-90855880D01*
X117916371Y-90798885D01*
X117697000Y-90779693D01*
X117477629Y-90798885D01*
X117264924Y-90855880D01*
X117171562Y-90899415D01*
X117070334Y-90946618D01*
X117070329Y-90946621D01*
X117065347Y-90948944D01*
X117060841Y-90952099D01*
X117060838Y-90952101D01*
X116889473Y-91072092D01*
X116889470Y-91072094D01*
X116884962Y-91075251D01*
X116729251Y-91230962D01*
X116664151Y-91323935D01*
X116641859Y-91355771D01*
X116586402Y-91400099D01*
X116538646Y-91409500D01*
X107425768Y-91409500D01*
X107414585Y-91408973D01*
X107407092Y-91407298D01*
X107399166Y-91407547D01*
X107399165Y-91407547D01*
X107339002Y-91409438D01*
X107335044Y-91409500D01*
X107307144Y-91409500D01*
X107303154Y-91410004D01*
X107291320Y-91410936D01*
X107247111Y-91412326D01*
X107239495Y-91414539D01*
X107239493Y-91414539D01*
X107227652Y-91417979D01*
X107208293Y-91421988D01*
X107206983Y-91422154D01*
X107188203Y-91424526D01*
X107180837Y-91427442D01*
X107180831Y-91427444D01*
X107147098Y-91440800D01*
X107135868Y-91444645D01*
X107101537Y-91454619D01*
X107093407Y-91456981D01*
X107086584Y-91461016D01*
X107075966Y-91467295D01*
X107058213Y-91475992D01*
X107050568Y-91479019D01*
X107039383Y-91483448D01*
X107032968Y-91488109D01*
X107003612Y-91509437D01*
X106993695Y-91515951D01*
X106955638Y-91538458D01*
X106941317Y-91552779D01*
X106926284Y-91565619D01*
X106909893Y-91577528D01*
X106904842Y-91583634D01*
X106881702Y-91611605D01*
X106873712Y-91620384D01*
X104001747Y-94492348D01*
X103993461Y-94499888D01*
X103986982Y-94504000D01*
X103981557Y-94509777D01*
X103940357Y-94553651D01*
X103937602Y-94556493D01*
X103917865Y-94576230D01*
X103915385Y-94579427D01*
X103907682Y-94588447D01*
X103877414Y-94620679D01*
X103873595Y-94627625D01*
X103873593Y-94627628D01*
X103867652Y-94638434D01*
X103856801Y-94654953D01*
X103844386Y-94670959D01*
X103841241Y-94678228D01*
X103841238Y-94678232D01*
X103826826Y-94711537D01*
X103821609Y-94722187D01*
X103800305Y-94760940D01*
X103798334Y-94768615D01*
X103798334Y-94768616D01*
X103795267Y-94780562D01*
X103788863Y-94799266D01*
X103780819Y-94817855D01*
X103779580Y-94825678D01*
X103779577Y-94825688D01*
X103773901Y-94861524D01*
X103771495Y-94873144D01*
X103764239Y-94901406D01*
X103760500Y-94915970D01*
X103760500Y-94936224D01*
X103758949Y-94955934D01*
X103755780Y-94975943D01*
X103755253Y-94975860D01*
X103755144Y-94976191D01*
X103756441Y-94982936D01*
X103759941Y-95019961D01*
X103760500Y-95031819D01*
X103760500Y-96829233D01*
X103759973Y-96840416D01*
X103758298Y-96847909D01*
X103758547Y-96855835D01*
X103758547Y-96855836D01*
X103760438Y-96915986D01*
X103760500Y-96919945D01*
X103760500Y-96947856D01*
X103760997Y-96951790D01*
X103760997Y-96951791D01*
X103761005Y-96951856D01*
X103761938Y-96963693D01*
X103763327Y-97007889D01*
X103768978Y-97027339D01*
X103772987Y-97046700D01*
X103775526Y-97066797D01*
X103778445Y-97074168D01*
X103778445Y-97074170D01*
X103791804Y-97107912D01*
X103795649Y-97119142D01*
X103805771Y-97153983D01*
X103807982Y-97161593D01*
X103812015Y-97168412D01*
X103812017Y-97168417D01*
X103818293Y-97179028D01*
X103826988Y-97196776D01*
X103834448Y-97215617D01*
X103839110Y-97222033D01*
X103839110Y-97222034D01*
X103860436Y-97251387D01*
X103866952Y-97261307D01*
X103889458Y-97299362D01*
X103903779Y-97313683D01*
X103916619Y-97328716D01*
X103928528Y-97345107D01*
X103962605Y-97373298D01*
X103971384Y-97381288D01*
X104903672Y-98313576D01*
X104937698Y-98375888D01*
X104936284Y-98435281D01*
X104929309Y-98461312D01*
X104929308Y-98461319D01*
X104927885Y-98466629D01*
X104908693Y-98686000D01*
X104927885Y-98905371D01*
X104984880Y-99118076D01*
X105020906Y-99195334D01*
X105075618Y-99312666D01*
X105075621Y-99312671D01*
X105077944Y-99317653D01*
X105081100Y-99322160D01*
X105081101Y-99322162D01*
X105194636Y-99484306D01*
X105204251Y-99498038D01*
X105359962Y-99653749D01*
X105364471Y-99656906D01*
X105364473Y-99656908D01*
X105405074Y-99685337D01*
X105540346Y-99780056D01*
X105545328Y-99782379D01*
X105545333Y-99782382D01*
X105672768Y-99841805D01*
X105726053Y-99888722D01*
X105745514Y-99956999D01*
X105724972Y-100024959D01*
X105672768Y-100070195D01*
X105545334Y-100129618D01*
X105545329Y-100129621D01*
X105540347Y-100131944D01*
X105535840Y-100135100D01*
X105535838Y-100135101D01*
X105364473Y-100255092D01*
X105364470Y-100255094D01*
X105359962Y-100258251D01*
X105204251Y-100413962D01*
X105201094Y-100418470D01*
X105201092Y-100418473D01*
X105081101Y-100589838D01*
X105077944Y-100594347D01*
X105075621Y-100599329D01*
X105075618Y-100599334D01*
X105059496Y-100633908D01*
X104984880Y-100793924D01*
X104927885Y-101006629D01*
X104908693Y-101226000D01*
X104927885Y-101445371D01*
X104984880Y-101658076D01*
X104987205Y-101663061D01*
X105075618Y-101852666D01*
X105075621Y-101852671D01*
X105077944Y-101857653D01*
X105204251Y-102038038D01*
X105359962Y-102193749D01*
X105540346Y-102320056D01*
X105545328Y-102322379D01*
X105545333Y-102322382D01*
X105672768Y-102381805D01*
X105726053Y-102428722D01*
X105745514Y-102496999D01*
X105724972Y-102564959D01*
X105672768Y-102610195D01*
X105545334Y-102669618D01*
X105545329Y-102669621D01*
X105540347Y-102671944D01*
X105535840Y-102675100D01*
X105535838Y-102675101D01*
X105364473Y-102795092D01*
X105364470Y-102795094D01*
X105359962Y-102798251D01*
X105204251Y-102953962D01*
X105201094Y-102958470D01*
X105201092Y-102958473D01*
X105081101Y-103129838D01*
X105077944Y-103134347D01*
X105075621Y-103139329D01*
X105075618Y-103139334D01*
X105028415Y-103240562D01*
X104984880Y-103333924D01*
X104927885Y-103546629D01*
X104908693Y-103766000D01*
X104927885Y-103985371D01*
X104984880Y-104198076D01*
X104987205Y-104203061D01*
X105075618Y-104392666D01*
X105075621Y-104392671D01*
X105077944Y-104397653D01*
X105081100Y-104402160D01*
X105081101Y-104402162D01*
X105196477Y-104566935D01*
X105204251Y-104578038D01*
X105359962Y-104733749D01*
X105540346Y-104860056D01*
X105545328Y-104862379D01*
X105545333Y-104862382D01*
X105672768Y-104921805D01*
X105726053Y-104968722D01*
X105745514Y-105036999D01*
X105724972Y-105104959D01*
X105672768Y-105150195D01*
X105545334Y-105209618D01*
X105545329Y-105209621D01*
X105540347Y-105211944D01*
X105535840Y-105215100D01*
X105535838Y-105215101D01*
X105364473Y-105335092D01*
X105364470Y-105335094D01*
X105359962Y-105338251D01*
X105204251Y-105493962D01*
X105077944Y-105674347D01*
X105075621Y-105679329D01*
X105075618Y-105679334D01*
X105060029Y-105712765D01*
X104984880Y-105873924D01*
X104927885Y-106086629D01*
X104908693Y-106306000D01*
X104927885Y-106525371D01*
X104984880Y-106738076D01*
X105002045Y-106774887D01*
X105075618Y-106932666D01*
X105075621Y-106932671D01*
X105077944Y-106937653D01*
X105204251Y-107118038D01*
X105359962Y-107273749D01*
X105540346Y-107400056D01*
X105545328Y-107402379D01*
X105545333Y-107402382D01*
X105672768Y-107461805D01*
X105726053Y-107508722D01*
X105745514Y-107576999D01*
X105724972Y-107644959D01*
X105672768Y-107690195D01*
X105545334Y-107749618D01*
X105545329Y-107749621D01*
X105540347Y-107751944D01*
X105535840Y-107755100D01*
X105535838Y-107755101D01*
X105364473Y-107875092D01*
X105364470Y-107875094D01*
X105359962Y-107878251D01*
X105204251Y-108033962D01*
X105201094Y-108038470D01*
X105201092Y-108038473D01*
X105081101Y-108209838D01*
X105077944Y-108214347D01*
X105075621Y-108219329D01*
X105075618Y-108219334D01*
X105055309Y-108262887D01*
X104984880Y-108413924D01*
X104927885Y-108626629D01*
X104908693Y-108846000D01*
X104927885Y-109065371D01*
X104984880Y-109278076D01*
X105022382Y-109358500D01*
X105075618Y-109472666D01*
X105075621Y-109472671D01*
X105077944Y-109477653D01*
X105081100Y-109482160D01*
X105081101Y-109482162D01*
X105151847Y-109583197D01*
X105204251Y-109658038D01*
X105359962Y-109813749D01*
X105364471Y-109816906D01*
X105364473Y-109816908D01*
X105439241Y-109869261D01*
X105540346Y-109940056D01*
X105739924Y-110033120D01*
X105952629Y-110090115D01*
X106172000Y-110109307D01*
X106391371Y-110090115D01*
X106604076Y-110033120D01*
X106803654Y-109940056D01*
X106808163Y-109936899D01*
X106864229Y-109897641D01*
X106931503Y-109874953D01*
X107000364Y-109892238D01*
X107048948Y-109944008D01*
X107062500Y-110000854D01*
X107062500Y-111751146D01*
X107042498Y-111819267D01*
X106988842Y-111865760D01*
X106918568Y-111875864D01*
X106864229Y-111854359D01*
X106808163Y-111815101D01*
X106808161Y-111815100D01*
X106803654Y-111811944D01*
X106604076Y-111718880D01*
X106391371Y-111661885D01*
X106172000Y-111642693D01*
X105952629Y-111661885D01*
X105739924Y-111718880D01*
X105670729Y-111751146D01*
X105545334Y-111809618D01*
X105545329Y-111809621D01*
X105540347Y-111811944D01*
X105535840Y-111815100D01*
X105535838Y-111815101D01*
X105364473Y-111935092D01*
X105364470Y-111935094D01*
X105359962Y-111938251D01*
X105204251Y-112093962D01*
X105077944Y-112274347D01*
X105075621Y-112279329D01*
X105075618Y-112279334D01*
X105028415Y-112380562D01*
X104984880Y-112473924D01*
X104927885Y-112686629D01*
X104908693Y-112906000D01*
X104927885Y-113125371D01*
X104984880Y-113338076D01*
X104987205Y-113343061D01*
X105075618Y-113532666D01*
X105075621Y-113532671D01*
X105077944Y-113537653D01*
X105081100Y-113542160D01*
X105081101Y-113542162D01*
X105172945Y-113673328D01*
X105204251Y-113718038D01*
X105359962Y-113873749D01*
X105364471Y-113876906D01*
X105364473Y-113876908D01*
X105437410Y-113927979D01*
X105540346Y-114000056D01*
X105545328Y-114002379D01*
X105545333Y-114002382D01*
X105672768Y-114061805D01*
X105726053Y-114108722D01*
X105745514Y-114176999D01*
X105724972Y-114244959D01*
X105672768Y-114290195D01*
X105545334Y-114349618D01*
X105545329Y-114349621D01*
X105540347Y-114351944D01*
X105535840Y-114355100D01*
X105535838Y-114355101D01*
X105364473Y-114475092D01*
X105364470Y-114475094D01*
X105359962Y-114478251D01*
X105204251Y-114633962D01*
X105201094Y-114638470D01*
X105201092Y-114638473D01*
X105125496Y-114746436D01*
X105077944Y-114814347D01*
X105075621Y-114819329D01*
X105075618Y-114819334D01*
X105028415Y-114920562D01*
X104984880Y-115013924D01*
X104927885Y-115226629D01*
X104908693Y-115446000D01*
X104927885Y-115665371D01*
X104984880Y-115878076D01*
X104987205Y-115883061D01*
X105075618Y-116072666D01*
X105075621Y-116072671D01*
X105077944Y-116077653D01*
X105204251Y-116258038D01*
X105359962Y-116413749D01*
X105540346Y-116540056D01*
X105545328Y-116542379D01*
X105545333Y-116542382D01*
X105672768Y-116601805D01*
X105726053Y-116648722D01*
X105745514Y-116716999D01*
X105724972Y-116784959D01*
X105672768Y-116830195D01*
X105545334Y-116889618D01*
X105545329Y-116889621D01*
X105540347Y-116891944D01*
X105535840Y-116895100D01*
X105535838Y-116895101D01*
X105364473Y-117015092D01*
X105364470Y-117015094D01*
X105359962Y-117018251D01*
X105204251Y-117173962D01*
X105201094Y-117178470D01*
X105201092Y-117178473D01*
X105081101Y-117349838D01*
X105077944Y-117354347D01*
X105075621Y-117359329D01*
X105075618Y-117359334D01*
X105040116Y-117435469D01*
X104984880Y-117553924D01*
X104927885Y-117766629D01*
X104908693Y-117986000D01*
X104927885Y-118205371D01*
X104929308Y-118210681D01*
X104929309Y-118210685D01*
X104936284Y-118236717D01*
X104934594Y-118307694D01*
X104903672Y-118358423D01*
X103720095Y-119542000D01*
X103657783Y-119576026D01*
X103586968Y-119570961D01*
X103530132Y-119528414D01*
X103505321Y-119461894D01*
X103505000Y-119452905D01*
X103505000Y-94994794D01*
X103507496Y-94986295D01*
X103505000Y-94966766D01*
X103505000Y-75558452D01*
X109346524Y-75558452D01*
X109348990Y-75567081D01*
X109348991Y-75567086D01*
X109354639Y-75586848D01*
X109358217Y-75603609D01*
X109361130Y-75623952D01*
X109361133Y-75623962D01*
X109362405Y-75632845D01*
X109373021Y-75656195D01*
X109379464Y-75673707D01*
X109386512Y-75698365D01*
X109402274Y-75723348D01*
X109410404Y-75738414D01*
X109422633Y-75765310D01*
X109439374Y-75784739D01*
X109450479Y-75799747D01*
X109464160Y-75821431D01*
X109470888Y-75827373D01*
X109486296Y-75840981D01*
X109498340Y-75853173D01*
X109517619Y-75875547D01*
X109525147Y-75880426D01*
X109525150Y-75880429D01*
X109539139Y-75889496D01*
X109554013Y-75900786D01*
X109573228Y-75917756D01*
X109581354Y-75921571D01*
X109581355Y-75921572D01*
X109587021Y-75924232D01*
X109599966Y-75930310D01*
X109614935Y-75938624D01*
X109639727Y-75954693D01*
X109656650Y-75959754D01*
X109664290Y-75962039D01*
X109681736Y-75968701D01*
X109704948Y-75979599D01*
X109734130Y-75984143D01*
X109750849Y-75987926D01*
X109770536Y-75993814D01*
X109770539Y-75993815D01*
X109779141Y-75996387D01*
X109788116Y-75996442D01*
X109788117Y-75996442D01*
X109794810Y-75996483D01*
X109813556Y-75996597D01*
X109814328Y-75996630D01*
X109815423Y-75996800D01*
X109846298Y-75996800D01*
X109847068Y-75996802D01*
X109920716Y-75997252D01*
X109920717Y-75997252D01*
X109924652Y-75997276D01*
X109925996Y-75996892D01*
X109927341Y-75996800D01*
X120819098Y-75996800D01*
X120819869Y-75996802D01*
X120897452Y-75997276D01*
X120906081Y-75994810D01*
X120906086Y-75994809D01*
X120925848Y-75989161D01*
X120942609Y-75985583D01*
X120962952Y-75982670D01*
X120962962Y-75982667D01*
X120971845Y-75981395D01*
X120995195Y-75970779D01*
X121012707Y-75964336D01*
X121028737Y-75959754D01*
X121037365Y-75957288D01*
X121062348Y-75941526D01*
X121077414Y-75933396D01*
X121104310Y-75921167D01*
X121123739Y-75904426D01*
X121138747Y-75893321D01*
X121152839Y-75884430D01*
X121160431Y-75879640D01*
X121179982Y-75857503D01*
X121192174Y-75845459D01*
X121207749Y-75832039D01*
X121207750Y-75832037D01*
X121214547Y-75826181D01*
X121219426Y-75818653D01*
X121219429Y-75818650D01*
X121228496Y-75804661D01*
X121239786Y-75789787D01*
X121250812Y-75777302D01*
X121256756Y-75770572D01*
X121269310Y-75743834D01*
X121277624Y-75728865D01*
X121293693Y-75704073D01*
X121301039Y-75679509D01*
X121307701Y-75662064D01*
X121314783Y-75646979D01*
X121318599Y-75638852D01*
X121323143Y-75609670D01*
X121326926Y-75592951D01*
X121332814Y-75573264D01*
X121332815Y-75573261D01*
X121335387Y-75564659D01*
X121335597Y-75530244D01*
X121335630Y-75529472D01*
X121335800Y-75528377D01*
X121335800Y-75497502D01*
X121335802Y-75496732D01*
X121336252Y-75423084D01*
X121336252Y-75423083D01*
X121336276Y-75419148D01*
X121335892Y-75417804D01*
X121335800Y-75416459D01*
X121335800Y-72483951D01*
X122303960Y-72483951D01*
X122322687Y-72721894D01*
X122323841Y-72726701D01*
X122323842Y-72726707D01*
X122332734Y-72763744D01*
X122378405Y-72953978D01*
X122380298Y-72958549D01*
X122380299Y-72958551D01*
X122388300Y-72977866D01*
X122469743Y-73174489D01*
X122594453Y-73377996D01*
X122749462Y-73559489D01*
X122930955Y-73714498D01*
X123134462Y-73839208D01*
X123139032Y-73841101D01*
X123139034Y-73841102D01*
X123345673Y-73926694D01*
X123354973Y-73930546D01*
X123434922Y-73949740D01*
X123582244Y-73985109D01*
X123582250Y-73985110D01*
X123587057Y-73986264D01*
X123825000Y-74004991D01*
X124062943Y-73986264D01*
X124067750Y-73985110D01*
X124067756Y-73985109D01*
X124215078Y-73949740D01*
X124295027Y-73930546D01*
X124304327Y-73926694D01*
X124510966Y-73841102D01*
X124510968Y-73841101D01*
X124515538Y-73839208D01*
X124719045Y-73714498D01*
X124900538Y-73559489D01*
X125055547Y-73377996D01*
X125180257Y-73174489D01*
X125261701Y-72977866D01*
X125269701Y-72958551D01*
X125269702Y-72958549D01*
X125271595Y-72953978D01*
X125317266Y-72763744D01*
X125326158Y-72726707D01*
X125326159Y-72726701D01*
X125327313Y-72721894D01*
X125346040Y-72483951D01*
X125327313Y-72246008D01*
X125319436Y-72213194D01*
X125275336Y-72029506D01*
X125271595Y-72013924D01*
X125180257Y-71793413D01*
X125055547Y-71589906D01*
X124900538Y-71408413D01*
X124719045Y-71253404D01*
X124515538Y-71128694D01*
X124510968Y-71126801D01*
X124510966Y-71126800D01*
X124299600Y-71039250D01*
X124299598Y-71039249D01*
X124295027Y-71037356D01*
X124185404Y-71011038D01*
X124067756Y-70982793D01*
X124067750Y-70982792D01*
X124062943Y-70981638D01*
X123825000Y-70962911D01*
X123587057Y-70981638D01*
X123582250Y-70982792D01*
X123582244Y-70982793D01*
X123464596Y-71011038D01*
X123354973Y-71037356D01*
X123350402Y-71039249D01*
X123350400Y-71039250D01*
X123139034Y-71126800D01*
X123139032Y-71126801D01*
X123134462Y-71128694D01*
X122930955Y-71253404D01*
X122749462Y-71408413D01*
X122594453Y-71589906D01*
X122469743Y-71793413D01*
X122378405Y-72013924D01*
X122374664Y-72029506D01*
X122330565Y-72213194D01*
X122322687Y-72246008D01*
X122304441Y-72477838D01*
X122303960Y-72483951D01*
X121335800Y-72483951D01*
X121335800Y-69452302D01*
X121335802Y-69451532D01*
X121336074Y-69407011D01*
X121336276Y-69373948D01*
X121333810Y-69365319D01*
X121333809Y-69365314D01*
X121328161Y-69345552D01*
X121324583Y-69328791D01*
X121321670Y-69308448D01*
X121321667Y-69308438D01*
X121320395Y-69299555D01*
X121309779Y-69276205D01*
X121303336Y-69258693D01*
X121298754Y-69242663D01*
X121296288Y-69234035D01*
X121280526Y-69209052D01*
X121272396Y-69193986D01*
X121260167Y-69167090D01*
X121243426Y-69147661D01*
X121232321Y-69132653D01*
X121223430Y-69118561D01*
X121218640Y-69110969D01*
X121196503Y-69091418D01*
X121184459Y-69079226D01*
X121171039Y-69063651D01*
X121171037Y-69063650D01*
X121165181Y-69056853D01*
X121157653Y-69051974D01*
X121157650Y-69051971D01*
X121143661Y-69042904D01*
X121128787Y-69031614D01*
X121116302Y-69020588D01*
X121109572Y-69014644D01*
X121101446Y-69010829D01*
X121101445Y-69010828D01*
X121095779Y-69008168D01*
X121082834Y-69002090D01*
X121067865Y-68993776D01*
X121043073Y-68977707D01*
X121018509Y-68970361D01*
X121001064Y-68963699D01*
X120996459Y-68961537D01*
X120977852Y-68952801D01*
X120948670Y-68948257D01*
X120931951Y-68944474D01*
X120912264Y-68938586D01*
X120912261Y-68938585D01*
X120903659Y-68936013D01*
X120894684Y-68935958D01*
X120894683Y-68935958D01*
X120887990Y-68935917D01*
X120869244Y-68935803D01*
X120868472Y-68935770D01*
X120867377Y-68935600D01*
X120836502Y-68935600D01*
X120835732Y-68935598D01*
X120762084Y-68935148D01*
X120762083Y-68935148D01*
X120758148Y-68935124D01*
X120756804Y-68935508D01*
X120755459Y-68935600D01*
X109863702Y-68935600D01*
X109862932Y-68935598D01*
X109862078Y-68935593D01*
X109785348Y-68935124D01*
X109776719Y-68937590D01*
X109776714Y-68937591D01*
X109756952Y-68943239D01*
X109740191Y-68946817D01*
X109719848Y-68949730D01*
X109719838Y-68949733D01*
X109710955Y-68951005D01*
X109687605Y-68961621D01*
X109670093Y-68968064D01*
X109666448Y-68969106D01*
X109645435Y-68975112D01*
X109620452Y-68990874D01*
X109605386Y-68999004D01*
X109578490Y-69011233D01*
X109559061Y-69027974D01*
X109544053Y-69039079D01*
X109522369Y-69052760D01*
X109516427Y-69059488D01*
X109502819Y-69074896D01*
X109490627Y-69086940D01*
X109468253Y-69106219D01*
X109463374Y-69113747D01*
X109463371Y-69113750D01*
X109454304Y-69127739D01*
X109443014Y-69142613D01*
X109426044Y-69161828D01*
X109413490Y-69188566D01*
X109405176Y-69203535D01*
X109389107Y-69228327D01*
X109386535Y-69236927D01*
X109381761Y-69252890D01*
X109375099Y-69270336D01*
X109364201Y-69293548D01*
X109359658Y-69322728D01*
X109355874Y-69339449D01*
X109349986Y-69359136D01*
X109349985Y-69359139D01*
X109347413Y-69367741D01*
X109347296Y-69386962D01*
X109347203Y-69402146D01*
X109347170Y-69402928D01*
X109347000Y-69404023D01*
X109347000Y-69434898D01*
X109346998Y-69435668D01*
X109346524Y-69513252D01*
X109346908Y-69514596D01*
X109347000Y-69515941D01*
X109347000Y-75480098D01*
X109346998Y-75480868D01*
X109346524Y-75558452D01*
X103505000Y-75558452D01*
X103505000Y-72481388D01*
X105339330Y-72481388D01*
X105339718Y-72486318D01*
X105339718Y-72486321D01*
X105340287Y-72493550D01*
X105358025Y-72718929D01*
X105359179Y-72723736D01*
X105359180Y-72723742D01*
X105368784Y-72763744D01*
X105413649Y-72950621D01*
X105504833Y-73170759D01*
X105629332Y-73373922D01*
X105784080Y-73555108D01*
X105965266Y-73709856D01*
X106168429Y-73834355D01*
X106172999Y-73836248D01*
X106173003Y-73836250D01*
X106383994Y-73923645D01*
X106388567Y-73925539D01*
X106414234Y-73931701D01*
X106615446Y-73980008D01*
X106615452Y-73980009D01*
X106620259Y-73981163D01*
X106857800Y-73999858D01*
X107095341Y-73981163D01*
X107100148Y-73980009D01*
X107100154Y-73980008D01*
X107301366Y-73931701D01*
X107327033Y-73925539D01*
X107331606Y-73923645D01*
X107542597Y-73836250D01*
X107542601Y-73836248D01*
X107547171Y-73834355D01*
X107750334Y-73709856D01*
X107931520Y-73555108D01*
X108086268Y-73373922D01*
X108210767Y-73170759D01*
X108301951Y-72950621D01*
X108346816Y-72763744D01*
X108356420Y-72723742D01*
X108356421Y-72723736D01*
X108357575Y-72718929D01*
X108376270Y-72481388D01*
X108357575Y-72243847D01*
X108349269Y-72209247D01*
X108306174Y-72029744D01*
X108301951Y-72012155D01*
X108210767Y-71792017D01*
X108086268Y-71588854D01*
X107931520Y-71407668D01*
X107750334Y-71252920D01*
X107547171Y-71128421D01*
X107542601Y-71126528D01*
X107542597Y-71126526D01*
X107331606Y-71039131D01*
X107331604Y-71039130D01*
X107327033Y-71037237D01*
X107217906Y-71011038D01*
X107100154Y-70982768D01*
X107100148Y-70982767D01*
X107095341Y-70981613D01*
X106857800Y-70962918D01*
X106620259Y-70981613D01*
X106615452Y-70982767D01*
X106615446Y-70982768D01*
X106497694Y-71011038D01*
X106388567Y-71037237D01*
X106383996Y-71039130D01*
X106383994Y-71039131D01*
X106173003Y-71126526D01*
X106172999Y-71126528D01*
X106168429Y-71128421D01*
X105965266Y-71252920D01*
X105784080Y-71407668D01*
X105629332Y-71588854D01*
X105504833Y-71792017D01*
X105413649Y-72012155D01*
X105409426Y-72029744D01*
X105366332Y-72209247D01*
X105358025Y-72243847D01*
X105339809Y-72475307D01*
X105339330Y-72481388D01*
X103505000Y-72481388D01*
X103505000Y-66547000D01*
X103525002Y-66478879D01*
X103578658Y-66432386D01*
X103631000Y-66421000D01*
X158370000Y-66421000D01*
X158438121Y-66441002D01*
G37*
%TD.AperFunction*%
%TD*%
M02*
