M48
; DRILL file {KiCad (6.0.1)} date Wed Apr  6 09:12:45 2022
; FORMAT={-:-/ absolute / inch / decimal}
; #@! TF.CreationDate,2022-04-06T09:12:45+03:00
; #@! TF.GenerationSoftware,Kicad,Pcbnew,(6.0.1)
; #@! TF.FileFunction,Plated,1,2,PTH
FMAT,2
INCH
; #@! TA.AperFunction,Plated,PTH,ViaDrill
T1C0.0315
; #@! TA.AperFunction,Plated,PTH,ComponentDrill
T2C0.0315
; #@! TA.AperFunction,Plated,PTH,ComponentDrill
T3C0.0320
; #@! TA.AperFunction,Plated,PTH,ComponentDrill
T4C0.0394
%
G90
G05
T1
X4.275Y-4.045
X4.275Y-4.145
X4.275Y-4.245
X4.275Y-4.345
X4.275Y-4.645
X4.275Y-4.745
X4.275Y-4.845
X4.275Y-4.945
X4.275Y-5.045
X4.47Y-3.125
X5.105Y-4.46
X5.305Y-4.38
X5.385Y-4.885
X5.4035Y-4.4152
X5.78Y-4.9873
X5.965Y-3.785
X5.965Y-3.885
X5.965Y-3.985
X5.965Y-4.085
X5.965Y-4.545
X5.965Y-4.945
X5.965Y-5.045
X5.965Y-5.145
T2
X4.18Y-3.95
X4.182Y-4.0451
X4.182Y-4.1451
X4.182Y-4.2451
X4.182Y-4.3451
X4.182Y-4.4451
X4.182Y-4.6451
X4.182Y-4.7451
X4.182Y-4.8451
X4.182Y-4.9451
X4.182Y-5.0451
X4.375Y-4.43
X4.375Y-4.585
X4.375Y-4.74
X4.375Y-4.895
X4.375Y-5.04
X4.475Y-4.43
X4.475Y-4.585
X4.475Y-4.74
X4.475Y-4.895
X4.475Y-5.04
X4.575Y-4.43
X4.575Y-4.585
X4.575Y-4.74
X4.575Y-4.895
X4.575Y-5.04
X4.6337Y-3.6237
X4.6337Y-3.7237
X4.6337Y-3.8237
X4.6337Y-3.9237
X4.78Y-4.58
X4.78Y-4.68
X4.985Y-2.735
X4.9863Y-3.1287
X5.1713Y-3.1287
X5.1738Y-2.7237
X5.2738Y-2.7237
X5.3337Y-3.6237
X5.3337Y-3.7237
X5.3337Y-3.8237
X5.3337Y-3.9237
X5.3563Y-3.1287
X5.3738Y-2.7237
X5.5337Y-2.7637
X5.5337Y-3.6437
X5.6537Y-3.6437
X5.765Y-4.595
X5.765Y-4.695
X5.9437Y-3.6437
X6.0637Y-2.7637
X6.0637Y-3.6437
X6.082Y-3.7853
X6.082Y-3.8853
X6.082Y-3.9853
X6.082Y-4.0853
X6.082Y-4.1853
X6.082Y-4.2853
X6.082Y-4.4451
X6.082Y-4.5451
X6.082Y-4.6451
X6.082Y-4.8451
X6.082Y-4.9451
X6.082Y-5.0451
X6.082Y-5.1451
T3
X4.905Y-4.533
X4.955Y-4.715
X5.005Y-4.533
X5.055Y-4.715
X5.105Y-4.533
X5.155Y-4.715
X5.205Y-4.533
X5.255Y-4.715
X5.305Y-4.533
X5.355Y-4.715
X5.405Y-4.533
X5.455Y-4.715
X5.505Y-4.533
X5.555Y-4.715
X5.605Y-4.533
T4
X4.835Y-5.13
X4.835Y-5.23
X4.835Y-5.33
X4.835Y-5.43
T0
M30
