M48
; DRILL file {KiCad (6.0.1)} date Sun Mar 27 10:41:44 2022
; FORMAT={-:-/ absolute / inch / decimal}
; #@! TF.CreationDate,2022-03-27T10:41:44+03:00
; #@! TF.GenerationSoftware,Kicad,Pcbnew,(6.0.1)
; #@! TF.FileFunction,Plated,1,2,PTH
FMAT,2
INCH
; #@! TA.AperFunction,Plated,PTH,ComponentDrill
T1C0.0315
; #@! TA.AperFunction,Plated,PTH,ComponentDrill
T2C0.0320
; #@! TA.AperFunction,Plated,PTH,ComponentDrill
T3C0.0394
%
G90
G05
T1
X4.18Y-3.7853
X4.18Y-3.8853
X4.18Y-3.9853
X4.18Y-4.0853
X4.18Y-4.1853
X4.18Y-4.2853
X4.18Y-4.4451
X4.18Y-4.5451
X4.18Y-4.6451
X4.18Y-4.8451
X4.18Y-4.9451
X4.18Y-5.0451
X4.18Y-5.1451
X4.3709Y-5.3412
X4.4709Y-5.3412
X4.6337Y-3.6237
X4.6337Y-3.7237
X4.6337Y-3.8237
X4.6337Y-3.9237
X4.985Y-2.735
X4.9863Y-3.1287
X5.1713Y-3.1287
X5.1738Y-2.7237
X5.2738Y-2.7237
X5.3337Y-3.6237
X5.3337Y-3.7237
X5.3337Y-3.8237
X5.3337Y-3.9237
X5.3563Y-3.1287
X5.3738Y-2.7237
X5.5337Y-2.7637
X5.5337Y-3.6437
X5.6Y-4.355
X5.6Y-4.5
X5.6Y-4.655
X5.6Y-4.81
X5.6Y-4.965
X5.6537Y-3.6437
X5.7Y-4.355
X5.7Y-4.5
X5.7Y-4.655
X5.7Y-4.81
X5.7Y-4.965
X5.8Y-4.355
X5.8Y-4.5
X5.8Y-4.655
X5.8Y-4.81
X5.8Y-4.965
X5.8359Y-5.1778
X5.9359Y-5.1778
X5.9437Y-3.6437
X6.0637Y-2.7637
X6.0637Y-3.6437
X6.08Y-3.93
X6.08Y-4.0451
X6.08Y-4.1451
X6.08Y-4.2451
X6.08Y-4.3451
X6.08Y-4.4451
X6.08Y-4.6451
X6.08Y-4.7451
X6.08Y-4.8451
X6.08Y-4.9451
X6.08Y-5.0451
T2
X4.7508Y-5.1765
X4.8007Y-5.2765
X4.8507Y-5.1765
X4.9007Y-5.2765
X4.9508Y-5.1765
X5.0008Y-5.2765
X5.0507Y-5.1765
X5.1007Y-5.2765
X5.1507Y-5.1765
X5.2008Y-5.2765
X5.2508Y-5.1765
X5.3007Y-5.2765
X5.3507Y-5.1765
X5.4007Y-5.2765
X5.4508Y-5.1765
T3
X4.65Y-4.785
X4.75Y-4.785
X4.85Y-4.785
X4.95Y-4.785
T0
M30
