%TF.GenerationSoftware,KiCad,Pcbnew,(6.0.1)*%
%TF.CreationDate,2022-04-22T14:13:29+03:00*%
%TF.ProjectId,teststi,74657374-7374-4692-9e6b-696361645f70,rev?*%
%TF.SameCoordinates,Original*%
%TF.FileFunction,Copper,L1,Top*%
%TF.FilePolarity,Positive*%
%FSLAX46Y46*%
G04 Gerber Fmt 4.6, Leading zero omitted, Abs format (unit mm)*
G04 Created by KiCad (PCBNEW (6.0.1)) date 2022-04-22 14:13:29*
%MOMM*%
%LPD*%
G01*
G04 APERTURE LIST*
G04 Aperture macros list*
%AMRoundRect*
0 Rectangle with rounded corners*
0 $1 Rounding radius*
0 $2 $3 $4 $5 $6 $7 $8 $9 X,Y pos of 4 corners*
0 Add a 4 corners polygon primitive as box body*
4,1,4,$2,$3,$4,$5,$6,$7,$8,$9,$2,$3,0*
0 Add four circle primitives for the rounded corners*
1,1,$1+$1,$2,$3*
1,1,$1+$1,$4,$5*
1,1,$1+$1,$6,$7*
1,1,$1+$1,$8,$9*
0 Add four rect primitives between the rounded corners*
20,1,$1+$1,$2,$3,$4,$5,0*
20,1,$1+$1,$4,$5,$6,$7,0*
20,1,$1+$1,$6,$7,$8,$9,0*
20,1,$1+$1,$8,$9,$2,$3,0*%
G04 Aperture macros list end*
%TA.AperFunction,SMDPad,CuDef*%
%ADD10RoundRect,0.250000X-0.325000X-0.650000X0.325000X-0.650000X0.325000X0.650000X-0.325000X0.650000X0*%
%TD*%
%TA.AperFunction,ComponentPad*%
%ADD11C,2.000000*%
%TD*%
%TA.AperFunction,SMDPad,CuDef*%
%ADD12RoundRect,0.150000X-0.325000X-0.150000X0.325000X-0.150000X0.325000X0.150000X-0.325000X0.150000X0*%
%TD*%
%TA.AperFunction,SMDPad,CuDef*%
%ADD13RoundRect,0.150000X-0.150000X-0.325000X0.150000X-0.325000X0.150000X0.325000X-0.150000X0.325000X0*%
%TD*%
%TA.AperFunction,ViaPad*%
%ADD14C,2.000000*%
%TD*%
%TA.AperFunction,Conductor*%
%ADD15C,0.250000*%
%TD*%
%TA.AperFunction,Conductor*%
%ADD16C,0.500000*%
%TD*%
G04 APERTURE END LIST*
D10*
%TO.P,C5,2*%
%TO.N,GND*%
X74930000Y-59817000D03*
%TO.P,C5,1*%
%TO.N,/Vs*%
X71980000Y-59817000D03*
%TD*%
%TO.P,C4,2*%
%TO.N,GND*%
X74930000Y-57277000D03*
%TO.P,C4,1*%
%TO.N,/Vs*%
X71980000Y-57277000D03*
%TD*%
%TO.P,C3,2*%
%TO.N,GND*%
X74930000Y-54610000D03*
%TO.P,C3,1*%
%TO.N,/Vs*%
X71980000Y-54610000D03*
%TD*%
%TO.P,C2,2*%
%TO.N,GND*%
X74930000Y-51943000D03*
%TO.P,C2,1*%
%TO.N,/Vs*%
X71980000Y-51943000D03*
%TD*%
D11*
%TO.P,U2,1,SDO*%
%TO.N,Net-(U1-Pad12)*%
X77941000Y-64548000D03*
%TO.P,U2,2,CS*%
%TO.N,Net-(U1-Pad7)*%
X80481000Y-64548000D03*
%TO.P,U2,3,DR*%
%TO.N,unconnected-(U2-Pad3)*%
X83021000Y-64548000D03*
%TO.P,U2,4,INT*%
%TO.N,Net-(U1-Pad8)*%
X85561000Y-64548000D03*
%TO.P,U2,5,VCC*%
%TO.N,/Vs*%
X77941000Y-46768000D03*
%TO.P,U2,6,SCL*%
%TO.N,Net-(U1-Pad14)*%
X80481000Y-46768000D03*
%TO.P,U2,7,SDA*%
%TO.N,Net-(U1-Pad13)*%
X83021000Y-46768000D03*
%TO.P,U2,8,GND*%
%TO.N,GND*%
X85561000Y-46768000D03*
%TD*%
D12*
%TO.P,U1,1,Vdd_I/O*%
%TO.N,/Vs*%
X78502000Y-52991000D03*
%TO.P,U1,2,GND*%
%TO.N,GND*%
X78502000Y-53791000D03*
%TO.P,U1,3,RES*%
%TO.N,unconnected-(U1-Pad3)*%
X78502000Y-54591000D03*
%TO.P,U1,4,GND*%
%TO.N,GND*%
X78502000Y-55391000D03*
%TO.P,U1,5,GND*%
X78502000Y-56191000D03*
%TO.P,U1,6,Vs*%
%TO.N,/Vs*%
X78502000Y-56991000D03*
D13*
%TO.P,U1,7,~{CS}*%
%TO.N,Net-(U1-Pad7)*%
X79502000Y-56991000D03*
D12*
%TO.P,U1,8,INT1*%
%TO.N,Net-(U1-Pad8)*%
X80502000Y-56991000D03*
%TO.P,U1,9,INT2*%
%TO.N,unconnected-(U1-Pad9)*%
X80502000Y-56191000D03*
%TO.P,U1,10,NC*%
%TO.N,unconnected-(U1-Pad10)*%
X80502000Y-55391000D03*
%TO.P,U1,11,RES*%
%TO.N,unconnected-(U1-Pad11)*%
X80502000Y-54591000D03*
%TO.P,U1,12,SDO/ADDR*%
%TO.N,Net-(U1-Pad12)*%
X80502000Y-53791000D03*
%TO.P,U1,13,SDA/SDI/SDIO*%
%TO.N,Net-(U1-Pad13)*%
X80502000Y-52991000D03*
D13*
%TO.P,U1,14,SCL/SCLK*%
%TO.N,Net-(U1-Pad14)*%
X79502000Y-52991000D03*
%TD*%
D14*
%TO.N,GND*%
X72136000Y-46228000D03*
X75946000Y-49276000D03*
%TD*%
D15*
%TO.N,GND*%
X77470000Y-55159000D02*
X78502000Y-56191000D01*
X77470000Y-54991000D02*
X77470000Y-55159000D01*
X77870000Y-55391000D02*
X78502000Y-55391000D01*
X77470000Y-54991000D02*
X77870000Y-55391000D01*
X77470000Y-54476928D02*
X77470000Y-54991000D01*
X78155928Y-53791000D02*
X77470000Y-54476928D01*
X78502000Y-53791000D02*
X78155928Y-53791000D01*
D16*
%TO.N,/Vs*%
X78502000Y-50054000D02*
X78502000Y-52991000D01*
X77941000Y-49493000D02*
X78502000Y-50054000D01*
X77941000Y-46768000D02*
X77941000Y-49493000D01*
X71980000Y-50575000D02*
X75787000Y-46768000D01*
X75787000Y-46768000D02*
X77941000Y-46768000D01*
X71980000Y-51943000D02*
X71980000Y-50575000D01*
X71980000Y-62963000D02*
X71980000Y-59817000D01*
X75057000Y-63373000D02*
X72390000Y-63373000D01*
X72390000Y-63373000D02*
X71980000Y-62963000D01*
X78486000Y-59944000D02*
X75057000Y-63373000D01*
X78486000Y-58225270D02*
X78486000Y-59944000D01*
X78502000Y-58209270D02*
X78486000Y-58225270D01*
X78502000Y-56991000D02*
X78502000Y-58209270D01*
D15*
%TO.N,Net-(U1-Pad12)*%
X77941000Y-64548000D02*
X79941000Y-66548000D01*
X79941000Y-66548000D02*
X86741000Y-66548000D01*
X86741000Y-66548000D02*
X88011000Y-65278000D01*
X80848072Y-53791000D02*
X80502000Y-53791000D01*
X88011000Y-65278000D02*
X88011000Y-60953928D01*
X88011000Y-60953928D02*
X80848072Y-53791000D01*
D16*
%TO.N,/Vs*%
X71980000Y-51943000D02*
X71980000Y-59817000D01*
D15*
%TO.N,Net-(U1-Pad8)*%
X85561000Y-62050000D02*
X80502000Y-56991000D01*
X85561000Y-64548000D02*
X85561000Y-62050000D01*
%TO.N,Net-(U1-Pad7)*%
X79502000Y-63569000D02*
X79502000Y-56991000D01*
X80481000Y-64548000D02*
X79502000Y-63569000D01*
%TO.N,Net-(U1-Pad13)*%
X83021000Y-46768000D02*
X83021000Y-50472000D01*
X83021000Y-50472000D02*
X80502000Y-52991000D01*
%TO.N,Net-(U1-Pad14)*%
X79502000Y-47747000D02*
X79502000Y-52991000D01*
X80481000Y-46768000D02*
X79502000Y-47747000D01*
%TD*%
%TA.AperFunction,Conductor*%
%TO.N,GND*%
G36*
X93033121Y-44470002D02*
G01*
X93079614Y-44523658D01*
X93091000Y-44576000D01*
X93091000Y-66930000D01*
X93070998Y-66998121D01*
X93017342Y-67044614D01*
X92965000Y-67056000D01*
X87433094Y-67056000D01*
X87364973Y-67035998D01*
X87318480Y-66982342D01*
X87308376Y-66912068D01*
X87337870Y-66847488D01*
X87343999Y-66840905D01*
X88403247Y-65781657D01*
X88411537Y-65774113D01*
X88418018Y-65770000D01*
X88434791Y-65752139D01*
X88464658Y-65720333D01*
X88467413Y-65717491D01*
X88487134Y-65697770D01*
X88489612Y-65694575D01*
X88497318Y-65685553D01*
X88522158Y-65659101D01*
X88527586Y-65653321D01*
X88537346Y-65635568D01*
X88548199Y-65619045D01*
X88555753Y-65609306D01*
X88560613Y-65603041D01*
X88578176Y-65562457D01*
X88583383Y-65551827D01*
X88604695Y-65513060D01*
X88606666Y-65505383D01*
X88606668Y-65505378D01*
X88609732Y-65493442D01*
X88616138Y-65474730D01*
X88621033Y-65463419D01*
X88624181Y-65456145D01*
X88625421Y-65448317D01*
X88625423Y-65448310D01*
X88631099Y-65412476D01*
X88633505Y-65400856D01*
X88642528Y-65365711D01*
X88642528Y-65365710D01*
X88644500Y-65358030D01*
X88644500Y-65337776D01*
X88646051Y-65318065D01*
X88647980Y-65305886D01*
X88649220Y-65298057D01*
X88645059Y-65254038D01*
X88644500Y-65242181D01*
X88644500Y-61032695D01*
X88645027Y-61021512D01*
X88646702Y-61014019D01*
X88644562Y-60945928D01*
X88644500Y-60941971D01*
X88644500Y-60914072D01*
X88643996Y-60910081D01*
X88643063Y-60898239D01*
X88641923Y-60861964D01*
X88641674Y-60854039D01*
X88639462Y-60846425D01*
X88639461Y-60846420D01*
X88636023Y-60834587D01*
X88632012Y-60815223D01*
X88630467Y-60802992D01*
X88629474Y-60795131D01*
X88626557Y-60787764D01*
X88626556Y-60787759D01*
X88613198Y-60754020D01*
X88609354Y-60742793D01*
X88599230Y-60707950D01*
X88597018Y-60700335D01*
X88586707Y-60682900D01*
X88578012Y-60665152D01*
X88570552Y-60646311D01*
X88558487Y-60629704D01*
X88544564Y-60610541D01*
X88538048Y-60600621D01*
X88519580Y-60569393D01*
X88519578Y-60569390D01*
X88515542Y-60562566D01*
X88501221Y-60548245D01*
X88488380Y-60533211D01*
X88481131Y-60523234D01*
X88476472Y-60516821D01*
X88442395Y-60488630D01*
X88433616Y-60480640D01*
X81502333Y-53549356D01*
X81470431Y-53495414D01*
X81450309Y-53426153D01*
X81450309Y-53355847D01*
X81465520Y-53303491D01*
X81482562Y-53244831D01*
X81483520Y-53232671D01*
X81485307Y-53209958D01*
X81485307Y-53209950D01*
X81485500Y-53207502D01*
X81485500Y-52955594D01*
X81505502Y-52887473D01*
X81522405Y-52866499D01*
X83413253Y-50975652D01*
X83421539Y-50968112D01*
X83428018Y-50964000D01*
X83474644Y-50914348D01*
X83477398Y-50911507D01*
X83497135Y-50891770D01*
X83499615Y-50888573D01*
X83507320Y-50879551D01*
X83532159Y-50853100D01*
X83537586Y-50847321D01*
X83541405Y-50840375D01*
X83541407Y-50840372D01*
X83547348Y-50829566D01*
X83558199Y-50813047D01*
X83565758Y-50803301D01*
X83570614Y-50797041D01*
X83573759Y-50789772D01*
X83573762Y-50789768D01*
X83588174Y-50756463D01*
X83593391Y-50745813D01*
X83614695Y-50707060D01*
X83616698Y-50699261D01*
X83619733Y-50687438D01*
X83626137Y-50668734D01*
X83631033Y-50657420D01*
X83631033Y-50657419D01*
X83634181Y-50650145D01*
X83635420Y-50642322D01*
X83635423Y-50642312D01*
X83641099Y-50606476D01*
X83643505Y-50594856D01*
X83652528Y-50559711D01*
X83652528Y-50559710D01*
X83654500Y-50552030D01*
X83654500Y-50531776D01*
X83656051Y-50512065D01*
X83657980Y-50499886D01*
X83659220Y-50492057D01*
X83655059Y-50448038D01*
X83654500Y-50436181D01*
X83654500Y-48219566D01*
X83674502Y-48151445D01*
X83714665Y-48112133D01*
X83896556Y-48000670D01*
X84693160Y-48000670D01*
X84698887Y-48008320D01*
X84870042Y-48113205D01*
X84878837Y-48117687D01*
X85088988Y-48204734D01*
X85098373Y-48207783D01*
X85319554Y-48260885D01*
X85329301Y-48262428D01*
X85556070Y-48280275D01*
X85565930Y-48280275D01*
X85792699Y-48262428D01*
X85802446Y-48260885D01*
X86023627Y-48207783D01*
X86033012Y-48204734D01*
X86243163Y-48117687D01*
X86251958Y-48113205D01*
X86419445Y-48010568D01*
X86428907Y-48000110D01*
X86425124Y-47991334D01*
X85573812Y-47140022D01*
X85559868Y-47132408D01*
X85558035Y-47132539D01*
X85551420Y-47136790D01*
X84699920Y-47988290D01*
X84693160Y-48000670D01*
X83896556Y-48000670D01*
X83906202Y-47994759D01*
X83906208Y-47994755D01*
X83910416Y-47992176D01*
X84090969Y-47837969D01*
X84094177Y-47834213D01*
X84094182Y-47834208D01*
X84224706Y-47681384D01*
X84284156Y-47642574D01*
X84318558Y-47640360D01*
X84337667Y-47632123D01*
X85188978Y-46780812D01*
X85195356Y-46769132D01*
X85925408Y-46769132D01*
X85925539Y-46770965D01*
X85929790Y-46777580D01*
X86781290Y-47629080D01*
X86793670Y-47635840D01*
X86801320Y-47630113D01*
X86906205Y-47458958D01*
X86910687Y-47450163D01*
X86997734Y-47240012D01*
X87000783Y-47230627D01*
X87053885Y-47009446D01*
X87055428Y-46999699D01*
X87073275Y-46772930D01*
X87073275Y-46763070D01*
X87055428Y-46536301D01*
X87053885Y-46526554D01*
X87000783Y-46305373D01*
X86997734Y-46295988D01*
X86910687Y-46085837D01*
X86906205Y-46077042D01*
X86803568Y-45909555D01*
X86793110Y-45900093D01*
X86784334Y-45903876D01*
X85933022Y-46755188D01*
X85925408Y-46769132D01*
X85195356Y-46769132D01*
X85196592Y-46766868D01*
X85196461Y-46765035D01*
X85192210Y-46758420D01*
X84340710Y-45906920D01*
X84323898Y-45897740D01*
X84260650Y-45883980D01*
X84225225Y-45855224D01*
X84094177Y-45701787D01*
X84090969Y-45698031D01*
X83910416Y-45543824D01*
X83906208Y-45541245D01*
X83906202Y-45541241D01*
X83897470Y-45535890D01*
X84693093Y-45535890D01*
X84696876Y-45544666D01*
X85548188Y-46395978D01*
X85562132Y-46403592D01*
X85563965Y-46403461D01*
X85570580Y-46399210D01*
X86422080Y-45547710D01*
X86428840Y-45535330D01*
X86423113Y-45527680D01*
X86251958Y-45422795D01*
X86243163Y-45418313D01*
X86033012Y-45331266D01*
X86023627Y-45328217D01*
X85802446Y-45275115D01*
X85792699Y-45273572D01*
X85565930Y-45255725D01*
X85556070Y-45255725D01*
X85329301Y-45273572D01*
X85319554Y-45275115D01*
X85098373Y-45328217D01*
X85088988Y-45331266D01*
X84878837Y-45418313D01*
X84870042Y-45422795D01*
X84702555Y-45525432D01*
X84693093Y-45535890D01*
X83897470Y-45535890D01*
X83712183Y-45422346D01*
X83707963Y-45419760D01*
X83703393Y-45417867D01*
X83703389Y-45417865D01*
X83493167Y-45330789D01*
X83493165Y-45330788D01*
X83488594Y-45328895D01*
X83408391Y-45309640D01*
X83262524Y-45274620D01*
X83262518Y-45274619D01*
X83257711Y-45273465D01*
X83021000Y-45254835D01*
X82784289Y-45273465D01*
X82779482Y-45274619D01*
X82779476Y-45274620D01*
X82633609Y-45309640D01*
X82553406Y-45328895D01*
X82548835Y-45330788D01*
X82548833Y-45330789D01*
X82338611Y-45417865D01*
X82338607Y-45417867D01*
X82334037Y-45419760D01*
X82329817Y-45422346D01*
X82135798Y-45541241D01*
X82135792Y-45541245D01*
X82131584Y-45543824D01*
X81951031Y-45698031D01*
X81947823Y-45701787D01*
X81947818Y-45701792D01*
X81846811Y-45820056D01*
X81787361Y-45858866D01*
X81716366Y-45859372D01*
X81655189Y-45820056D01*
X81554182Y-45701792D01*
X81554177Y-45701787D01*
X81550969Y-45698031D01*
X81370416Y-45543824D01*
X81366208Y-45541245D01*
X81366202Y-45541241D01*
X81172183Y-45422346D01*
X81167963Y-45419760D01*
X81163393Y-45417867D01*
X81163389Y-45417865D01*
X80953167Y-45330789D01*
X80953165Y-45330788D01*
X80948594Y-45328895D01*
X80868391Y-45309640D01*
X80722524Y-45274620D01*
X80722518Y-45274619D01*
X80717711Y-45273465D01*
X80481000Y-45254835D01*
X80244289Y-45273465D01*
X80239482Y-45274619D01*
X80239476Y-45274620D01*
X80093609Y-45309640D01*
X80013406Y-45328895D01*
X80008835Y-45330788D01*
X80008833Y-45330789D01*
X79798611Y-45417865D01*
X79798607Y-45417867D01*
X79794037Y-45419760D01*
X79789817Y-45422346D01*
X79595798Y-45541241D01*
X79595792Y-45541245D01*
X79591584Y-45543824D01*
X79411031Y-45698031D01*
X79407823Y-45701787D01*
X79407818Y-45701792D01*
X79306811Y-45820056D01*
X79247361Y-45858866D01*
X79176366Y-45859372D01*
X79115189Y-45820056D01*
X79014182Y-45701792D01*
X79014177Y-45701787D01*
X79010969Y-45698031D01*
X78830416Y-45543824D01*
X78826208Y-45541245D01*
X78826202Y-45541241D01*
X78632183Y-45422346D01*
X78627963Y-45419760D01*
X78623393Y-45417867D01*
X78623389Y-45417865D01*
X78413167Y-45330789D01*
X78413165Y-45330788D01*
X78408594Y-45328895D01*
X78328391Y-45309640D01*
X78182524Y-45274620D01*
X78182518Y-45274619D01*
X78177711Y-45273465D01*
X77941000Y-45254835D01*
X77704289Y-45273465D01*
X77699482Y-45274619D01*
X77699476Y-45274620D01*
X77553609Y-45309640D01*
X77473406Y-45328895D01*
X77468835Y-45330788D01*
X77468833Y-45330789D01*
X77258611Y-45417865D01*
X77258607Y-45417867D01*
X77254037Y-45419760D01*
X77249817Y-45422346D01*
X77055798Y-45541241D01*
X77055792Y-45541245D01*
X77051584Y-45543824D01*
X76871031Y-45698031D01*
X76716824Y-45878584D01*
X76673467Y-45949336D01*
X76620819Y-45996967D01*
X76566035Y-46009500D01*
X75854070Y-46009500D01*
X75835120Y-46008067D01*
X75820885Y-46005901D01*
X75820881Y-46005901D01*
X75813651Y-46004801D01*
X75806359Y-46005394D01*
X75806356Y-46005394D01*
X75760982Y-46009085D01*
X75750767Y-46009500D01*
X75742707Y-46009500D01*
X75729417Y-46011049D01*
X75714493Y-46012789D01*
X75710118Y-46013222D01*
X75644661Y-46018546D01*
X75644658Y-46018547D01*
X75637363Y-46019140D01*
X75630399Y-46021396D01*
X75624440Y-46022587D01*
X75618585Y-46023971D01*
X75611319Y-46024818D01*
X75542673Y-46049735D01*
X75538545Y-46051152D01*
X75476064Y-46071393D01*
X75476062Y-46071394D01*
X75469101Y-46073649D01*
X75462846Y-46077445D01*
X75457372Y-46079951D01*
X75451942Y-46082670D01*
X75445063Y-46085167D01*
X75438943Y-46089180D01*
X75438942Y-46089180D01*
X75384024Y-46125186D01*
X75380320Y-46127523D01*
X75317893Y-46165405D01*
X75309516Y-46172803D01*
X75309492Y-46172776D01*
X75306500Y-46175429D01*
X75303267Y-46178132D01*
X75297148Y-46182144D01*
X75292116Y-46187456D01*
X75243872Y-46238383D01*
X75241494Y-46240825D01*
X71491089Y-49991230D01*
X71476677Y-50003616D01*
X71465082Y-50012149D01*
X71465077Y-50012154D01*
X71459182Y-50016492D01*
X71454443Y-50022070D01*
X71454440Y-50022073D01*
X71424965Y-50056768D01*
X71418035Y-50064284D01*
X71412340Y-50069979D01*
X71410060Y-50072861D01*
X71394719Y-50092251D01*
X71391928Y-50095655D01*
X71349409Y-50145703D01*
X71344667Y-50151285D01*
X71341339Y-50157801D01*
X71337972Y-50162850D01*
X71334805Y-50167979D01*
X71330266Y-50173716D01*
X71299345Y-50239875D01*
X71297442Y-50243769D01*
X71264231Y-50308808D01*
X71262492Y-50315916D01*
X71260393Y-50321559D01*
X71258476Y-50327322D01*
X71255378Y-50333950D01*
X71253888Y-50341112D01*
X71253888Y-50341113D01*
X71240514Y-50405412D01*
X71239544Y-50409696D01*
X71222192Y-50480610D01*
X71221500Y-50491764D01*
X71221464Y-50491762D01*
X71221225Y-50495755D01*
X71220851Y-50499947D01*
X71219360Y-50507115D01*
X71220160Y-50536672D01*
X71221454Y-50584521D01*
X71221500Y-50587928D01*
X71221500Y-50602317D01*
X71201498Y-50670438D01*
X71180145Y-50694016D01*
X71180652Y-50694522D01*
X71055695Y-50819697D01*
X71051855Y-50825927D01*
X71051854Y-50825928D01*
X70998231Y-50912921D01*
X70962885Y-50970262D01*
X70907203Y-51138139D01*
X70896500Y-51242600D01*
X70896500Y-52643400D01*
X70896837Y-52646646D01*
X70896837Y-52646650D01*
X70906752Y-52742206D01*
X70907474Y-52749166D01*
X70909655Y-52755702D01*
X70909655Y-52755704D01*
X70953617Y-52887473D01*
X70963450Y-52916946D01*
X71056522Y-53067348D01*
X71061704Y-53072521D01*
X71176609Y-53187226D01*
X71210688Y-53249509D01*
X71205685Y-53320329D01*
X71176764Y-53365416D01*
X71055695Y-53486697D01*
X71051855Y-53492927D01*
X71051854Y-53492928D01*
X71024688Y-53537000D01*
X70962885Y-53637262D01*
X70955395Y-53659844D01*
X70911893Y-53791000D01*
X70907203Y-53805139D01*
X70896500Y-53909600D01*
X70896500Y-55310400D01*
X70896837Y-55313646D01*
X70896837Y-55313650D01*
X70906752Y-55409206D01*
X70907474Y-55416166D01*
X70963450Y-55583946D01*
X71056522Y-55734348D01*
X71061704Y-55739521D01*
X71176609Y-55854226D01*
X71210688Y-55916509D01*
X71205685Y-55987329D01*
X71176764Y-56032416D01*
X71055695Y-56153697D01*
X71051855Y-56159927D01*
X71051854Y-56159928D01*
X71007518Y-56231855D01*
X70962885Y-56304262D01*
X70960150Y-56312509D01*
X70916205Y-56445000D01*
X70907203Y-56472139D01*
X70896500Y-56576600D01*
X70896500Y-57977400D01*
X70896837Y-57980646D01*
X70896837Y-57980650D01*
X70906752Y-58076206D01*
X70907474Y-58083166D01*
X70963450Y-58250946D01*
X71056522Y-58401348D01*
X71061704Y-58406521D01*
X71113109Y-58457837D01*
X71147188Y-58520120D01*
X71142185Y-58590940D01*
X71113265Y-58636027D01*
X71055695Y-58693697D01*
X70962885Y-58844262D01*
X70907203Y-59012139D01*
X70896500Y-59116600D01*
X70896500Y-60517400D01*
X70896837Y-60520646D01*
X70896837Y-60520650D01*
X70906752Y-60616206D01*
X70907474Y-60623166D01*
X70963450Y-60790946D01*
X71056522Y-60941348D01*
X71061704Y-60946521D01*
X71181697Y-61066305D01*
X71180059Y-61067945D01*
X71214656Y-61116744D01*
X71221500Y-61157706D01*
X71221500Y-62895930D01*
X71220067Y-62914880D01*
X71216801Y-62936349D01*
X71217394Y-62943641D01*
X71217394Y-62943644D01*
X71221085Y-62989018D01*
X71221500Y-62999233D01*
X71221500Y-63007293D01*
X71221925Y-63010937D01*
X71224789Y-63035507D01*
X71225222Y-63039882D01*
X71231140Y-63112637D01*
X71233396Y-63119601D01*
X71234587Y-63125560D01*
X71235971Y-63131415D01*
X71236818Y-63138681D01*
X71261735Y-63207327D01*
X71263152Y-63211455D01*
X71274632Y-63246890D01*
X71285649Y-63280899D01*
X71289445Y-63287154D01*
X71291951Y-63292628D01*
X71294670Y-63298058D01*
X71297167Y-63304937D01*
X71301180Y-63311057D01*
X71301180Y-63311058D01*
X71337186Y-63365976D01*
X71339523Y-63369680D01*
X71377405Y-63432107D01*
X71381121Y-63436315D01*
X71381122Y-63436316D01*
X71384803Y-63440484D01*
X71384776Y-63440508D01*
X71387429Y-63443500D01*
X71390132Y-63446733D01*
X71394144Y-63452852D01*
X71399456Y-63457884D01*
X71450383Y-63506128D01*
X71452825Y-63508506D01*
X71806230Y-63861911D01*
X71818616Y-63876323D01*
X71827149Y-63887918D01*
X71827154Y-63887923D01*
X71831492Y-63893818D01*
X71837070Y-63898557D01*
X71837073Y-63898560D01*
X71871768Y-63928035D01*
X71879284Y-63934965D01*
X71884980Y-63940661D01*
X71887841Y-63942924D01*
X71887846Y-63942929D01*
X71907266Y-63958293D01*
X71910667Y-63961082D01*
X71966285Y-64008333D01*
X71972805Y-64011662D01*
X71977852Y-64015028D01*
X71982976Y-64018193D01*
X71988717Y-64022735D01*
X71995348Y-64025834D01*
X71995351Y-64025836D01*
X72042723Y-64047976D01*
X72050949Y-64051820D01*
X72054830Y-64053634D01*
X72058782Y-64055565D01*
X72116854Y-64085218D01*
X72123808Y-64088769D01*
X72130914Y-64090508D01*
X72136564Y-64092609D01*
X72142321Y-64094524D01*
X72148950Y-64097622D01*
X72220435Y-64112491D01*
X72224701Y-64113457D01*
X72295610Y-64130808D01*
X72301212Y-64131156D01*
X72301215Y-64131156D01*
X72306764Y-64131500D01*
X72306762Y-64131535D01*
X72310734Y-64131775D01*
X72314955Y-64132152D01*
X72322115Y-64133641D01*
X72399542Y-64131546D01*
X72402950Y-64131500D01*
X74989930Y-64131500D01*
X75008880Y-64132933D01*
X75023115Y-64135099D01*
X75023119Y-64135099D01*
X75030349Y-64136199D01*
X75037641Y-64135606D01*
X75037644Y-64135606D01*
X75083018Y-64131915D01*
X75093233Y-64131500D01*
X75101293Y-64131500D01*
X75118680Y-64129473D01*
X75129507Y-64128211D01*
X75133882Y-64127778D01*
X75199339Y-64122454D01*
X75199342Y-64122453D01*
X75206637Y-64121860D01*
X75213601Y-64119604D01*
X75219560Y-64118413D01*
X75225415Y-64117029D01*
X75232681Y-64116182D01*
X75301327Y-64091265D01*
X75305455Y-64089848D01*
X75367936Y-64069607D01*
X75367938Y-64069606D01*
X75374899Y-64067351D01*
X75381154Y-64063555D01*
X75386628Y-64061049D01*
X75392058Y-64058330D01*
X75398937Y-64055833D01*
X75444690Y-64025836D01*
X75459976Y-64015814D01*
X75463680Y-64013477D01*
X75526107Y-63975595D01*
X75534484Y-63968197D01*
X75534508Y-63968224D01*
X75537500Y-63965571D01*
X75540733Y-63962868D01*
X75546852Y-63958856D01*
X75600128Y-63902617D01*
X75602506Y-63900175D01*
X78653405Y-60849276D01*
X78715717Y-60815250D01*
X78786532Y-60820315D01*
X78843368Y-60862862D01*
X78868179Y-60929382D01*
X78868500Y-60938371D01*
X78868500Y-63122172D01*
X78848498Y-63190293D01*
X78794842Y-63236786D01*
X78724568Y-63246890D01*
X78676665Y-63229604D01*
X78632192Y-63202351D01*
X78632187Y-63202348D01*
X78627963Y-63199760D01*
X78623393Y-63197867D01*
X78623389Y-63197865D01*
X78413167Y-63110789D01*
X78413165Y-63110788D01*
X78408594Y-63108895D01*
X78286501Y-63079583D01*
X78182524Y-63054620D01*
X78182518Y-63054619D01*
X78177711Y-63053465D01*
X77941000Y-63034835D01*
X77704289Y-63053465D01*
X77699482Y-63054619D01*
X77699476Y-63054620D01*
X77595499Y-63079583D01*
X77473406Y-63108895D01*
X77468835Y-63110788D01*
X77468833Y-63110789D01*
X77258611Y-63197865D01*
X77258607Y-63197867D01*
X77254037Y-63199760D01*
X77249817Y-63202346D01*
X77055798Y-63321241D01*
X77055792Y-63321245D01*
X77051584Y-63323824D01*
X76871031Y-63478031D01*
X76716824Y-63658584D01*
X76714245Y-63662792D01*
X76714241Y-63662798D01*
X76595346Y-63856817D01*
X76592760Y-63861037D01*
X76590867Y-63865607D01*
X76590865Y-63865611D01*
X76506368Y-64069607D01*
X76501895Y-64080406D01*
X76446465Y-64311289D01*
X76427835Y-64548000D01*
X76446465Y-64784711D01*
X76501895Y-65015594D01*
X76503788Y-65020165D01*
X76503789Y-65020167D01*
X76550042Y-65131831D01*
X76592760Y-65234963D01*
X76595346Y-65239183D01*
X76714241Y-65433202D01*
X76714245Y-65433208D01*
X76716824Y-65437416D01*
X76871031Y-65617969D01*
X77051584Y-65772176D01*
X77055792Y-65774755D01*
X77055798Y-65774759D01*
X77134739Y-65823134D01*
X77254037Y-65896240D01*
X77258607Y-65898133D01*
X77258611Y-65898135D01*
X77468833Y-65985211D01*
X77473406Y-65987105D01*
X77553609Y-66006360D01*
X77699476Y-66041380D01*
X77699482Y-66041381D01*
X77704289Y-66042535D01*
X77941000Y-66061165D01*
X78177711Y-66042535D01*
X78182518Y-66041381D01*
X78182524Y-66041380D01*
X78400951Y-65988940D01*
X78471859Y-65992487D01*
X78519458Y-66022362D01*
X79338002Y-66840907D01*
X79372026Y-66903217D01*
X79366961Y-66974033D01*
X79324414Y-67030868D01*
X79257894Y-67055679D01*
X79248905Y-67056000D01*
X70611000Y-67056000D01*
X70542879Y-67035998D01*
X70496386Y-66982342D01*
X70485000Y-66930000D01*
X70485000Y-44576000D01*
X70505002Y-44507879D01*
X70558658Y-44461386D01*
X70611000Y-44450000D01*
X92965000Y-44450000D01*
X93033121Y-44470002D01*
G37*
%TD.AperFunction*%
%TA.AperFunction,Conductor*%
G36*
X76634156Y-47546502D02*
G01*
X76673466Y-47586663D01*
X76716824Y-47657416D01*
X76871031Y-47837969D01*
X77051584Y-47992176D01*
X77122336Y-48035533D01*
X77169967Y-48088181D01*
X77182500Y-48142965D01*
X77182500Y-49425930D01*
X77181067Y-49444880D01*
X77177801Y-49466349D01*
X77178394Y-49473641D01*
X77178394Y-49473644D01*
X77182085Y-49519018D01*
X77182500Y-49529233D01*
X77182500Y-49537293D01*
X77182925Y-49540937D01*
X77185789Y-49565507D01*
X77186222Y-49569882D01*
X77192140Y-49642637D01*
X77194396Y-49649601D01*
X77195587Y-49655560D01*
X77196971Y-49661415D01*
X77197818Y-49668681D01*
X77222735Y-49737327D01*
X77224152Y-49741455D01*
X77246649Y-49810899D01*
X77250445Y-49817154D01*
X77252951Y-49822628D01*
X77255670Y-49828058D01*
X77258167Y-49834937D01*
X77262180Y-49841057D01*
X77262180Y-49841058D01*
X77298186Y-49895976D01*
X77300523Y-49899680D01*
X77338405Y-49962107D01*
X77342121Y-49966315D01*
X77342122Y-49966316D01*
X77345803Y-49970484D01*
X77345776Y-49970508D01*
X77348429Y-49973500D01*
X77351132Y-49976733D01*
X77355144Y-49982852D01*
X77360456Y-49987884D01*
X77411383Y-50036128D01*
X77413825Y-50038506D01*
X77706595Y-50331276D01*
X77740621Y-50393588D01*
X77743500Y-50420371D01*
X77743500Y-52291050D01*
X77723498Y-52359171D01*
X77706595Y-52380145D01*
X77652547Y-52434193D01*
X77648511Y-52441017D01*
X77648509Y-52441020D01*
X77584893Y-52548589D01*
X77567855Y-52577399D01*
X77521438Y-52737169D01*
X77520934Y-52743574D01*
X77520933Y-52743579D01*
X77519987Y-52755600D01*
X77518500Y-52774498D01*
X77518500Y-53207502D01*
X77521438Y-53244831D01*
X77523232Y-53251007D01*
X77523233Y-53251011D01*
X77553951Y-53356744D01*
X77553951Y-53427049D01*
X77527061Y-53519605D01*
X77527101Y-53533706D01*
X77534370Y-53537000D01*
X77589550Y-53537000D01*
X77657671Y-53557002D01*
X77678645Y-53573905D01*
X77770193Y-53665453D01*
X77799099Y-53682548D01*
X77847550Y-53734440D01*
X77860255Y-53804291D01*
X77833179Y-53869921D01*
X77799099Y-53899452D01*
X77770193Y-53916547D01*
X77678645Y-54008095D01*
X77616333Y-54042121D01*
X77589550Y-54045000D01*
X77540122Y-54045000D01*
X77526591Y-54048973D01*
X77525456Y-54056871D01*
X77553951Y-54154951D01*
X77553951Y-54225256D01*
X77521438Y-54337169D01*
X77520933Y-54343579D01*
X77520933Y-54343582D01*
X77520418Y-54350135D01*
X77518500Y-54374498D01*
X77518500Y-54807502D01*
X77521438Y-54844831D01*
X77523232Y-54851007D01*
X77523233Y-54851011D01*
X77553951Y-54956744D01*
X77553951Y-55027049D01*
X77527061Y-55119605D01*
X77527101Y-55133706D01*
X77534370Y-55137000D01*
X77589550Y-55137000D01*
X77657671Y-55157002D01*
X77678645Y-55173905D01*
X77770193Y-55265453D01*
X77777017Y-55269489D01*
X77777020Y-55269491D01*
X77851689Y-55313650D01*
X77913399Y-55350145D01*
X77921010Y-55352356D01*
X77921012Y-55352357D01*
X78012616Y-55378970D01*
X78069331Y-55395447D01*
X78069333Y-55395448D01*
X78073169Y-55396562D01*
X78072962Y-55397274D01*
X78131963Y-55426968D01*
X78162237Y-55478245D01*
X78202372Y-55424632D01*
X78268892Y-55399821D01*
X78277881Y-55399500D01*
X78630000Y-55399500D01*
X78698121Y-55419502D01*
X78744614Y-55473158D01*
X78756000Y-55525500D01*
X78756000Y-56056500D01*
X78735998Y-56124621D01*
X78682342Y-56171114D01*
X78630000Y-56182500D01*
X78270137Y-56182500D01*
X78202016Y-56162498D01*
X78157064Y-56110621D01*
X78141129Y-56145512D01*
X78081403Y-56183896D01*
X78075771Y-56185233D01*
X78073169Y-56185438D01*
X78066990Y-56187233D01*
X78066991Y-56187233D01*
X77921012Y-56229643D01*
X77921010Y-56229644D01*
X77913399Y-56231855D01*
X77906572Y-56235892D01*
X77906573Y-56235892D01*
X77777020Y-56312509D01*
X77777017Y-56312511D01*
X77770193Y-56316547D01*
X77678645Y-56408095D01*
X77616333Y-56442121D01*
X77589550Y-56445000D01*
X77540122Y-56445000D01*
X77526591Y-56448973D01*
X77525456Y-56456871D01*
X77553951Y-56554951D01*
X77553951Y-56625256D01*
X77523233Y-56730989D01*
X77523232Y-56730993D01*
X77521438Y-56737169D01*
X77518500Y-56774498D01*
X77518500Y-57207502D01*
X77521438Y-57244831D01*
X77567855Y-57404601D01*
X77571892Y-57411427D01*
X77648509Y-57540980D01*
X77648511Y-57540983D01*
X77652547Y-57547807D01*
X77706595Y-57601855D01*
X77740621Y-57664167D01*
X77743500Y-57690950D01*
X77743500Y-58053129D01*
X77739889Y-58083077D01*
X77728192Y-58130880D01*
X77727500Y-58142034D01*
X77727464Y-58142032D01*
X77727225Y-58146025D01*
X77726851Y-58150217D01*
X77725360Y-58157385D01*
X77725558Y-58164702D01*
X77727454Y-58234791D01*
X77727500Y-58238198D01*
X77727500Y-59577629D01*
X77707498Y-59645750D01*
X77690595Y-59666724D01*
X74779724Y-62577595D01*
X74717412Y-62611621D01*
X74690629Y-62614500D01*
X72864500Y-62614500D01*
X72796379Y-62594498D01*
X72749886Y-62540842D01*
X72738500Y-62488500D01*
X72738500Y-61157683D01*
X72758502Y-61089562D01*
X72779855Y-61065984D01*
X72779348Y-61065478D01*
X72899134Y-60945483D01*
X72904305Y-60940303D01*
X72911037Y-60929382D01*
X72993275Y-60795968D01*
X72993276Y-60795966D01*
X72997115Y-60789738D01*
X73024243Y-60707950D01*
X73050632Y-60628389D01*
X73050632Y-60628387D01*
X73052797Y-60621861D01*
X73063500Y-60517400D01*
X73063500Y-60514095D01*
X73847001Y-60514095D01*
X73847338Y-60520614D01*
X73857257Y-60616206D01*
X73860149Y-60629600D01*
X73911588Y-60783784D01*
X73917761Y-60796962D01*
X74003063Y-60934807D01*
X74012099Y-60946208D01*
X74126829Y-61060739D01*
X74138240Y-61069751D01*
X74276243Y-61154816D01*
X74289424Y-61160963D01*
X74443710Y-61212138D01*
X74457086Y-61215005D01*
X74551438Y-61224672D01*
X74557854Y-61225000D01*
X74657885Y-61225000D01*
X74673124Y-61220525D01*
X74674329Y-61219135D01*
X74676000Y-61211452D01*
X74676000Y-61206884D01*
X75184000Y-61206884D01*
X75188475Y-61222123D01*
X75189865Y-61223328D01*
X75197548Y-61224999D01*
X75302095Y-61224999D01*
X75308614Y-61224662D01*
X75404206Y-61214743D01*
X75417600Y-61211851D01*
X75571784Y-61160412D01*
X75584962Y-61154239D01*
X75722807Y-61068937D01*
X75734208Y-61059901D01*
X75848739Y-60945171D01*
X75857751Y-60933760D01*
X75942816Y-60795757D01*
X75948963Y-60782576D01*
X76000138Y-60628290D01*
X76003005Y-60614914D01*
X76012672Y-60520562D01*
X76013000Y-60514146D01*
X76013000Y-60089115D01*
X76008525Y-60073876D01*
X76007135Y-60072671D01*
X75999452Y-60071000D01*
X75202115Y-60071000D01*
X75186876Y-60075475D01*
X75185671Y-60076865D01*
X75184000Y-60084548D01*
X75184000Y-61206884D01*
X74676000Y-61206884D01*
X74676000Y-60089115D01*
X74671525Y-60073876D01*
X74670135Y-60072671D01*
X74662452Y-60071000D01*
X73865116Y-60071000D01*
X73849877Y-60075475D01*
X73848672Y-60076865D01*
X73847001Y-60084548D01*
X73847001Y-60514095D01*
X73063500Y-60514095D01*
X73063500Y-59544885D01*
X73847000Y-59544885D01*
X73851475Y-59560124D01*
X73852865Y-59561329D01*
X73860548Y-59563000D01*
X74657885Y-59563000D01*
X74673124Y-59558525D01*
X74674329Y-59557135D01*
X74676000Y-59549452D01*
X74676000Y-59544885D01*
X75184000Y-59544885D01*
X75188475Y-59560124D01*
X75189865Y-59561329D01*
X75197548Y-59563000D01*
X75994884Y-59563000D01*
X76010123Y-59558525D01*
X76011328Y-59557135D01*
X76012999Y-59549452D01*
X76012999Y-59119905D01*
X76012662Y-59113386D01*
X76002743Y-59017794D01*
X75999851Y-59004400D01*
X75948412Y-58850216D01*
X75942239Y-58837038D01*
X75856937Y-58699193D01*
X75847901Y-58687792D01*
X75796183Y-58636164D01*
X75762104Y-58573881D01*
X75767107Y-58503061D01*
X75796029Y-58457972D01*
X75848739Y-58405171D01*
X75857751Y-58393760D01*
X75942816Y-58255757D01*
X75948963Y-58242576D01*
X76000138Y-58088290D01*
X76003005Y-58074914D01*
X76012672Y-57980562D01*
X76013000Y-57974146D01*
X76013000Y-57549115D01*
X76008525Y-57533876D01*
X76007135Y-57532671D01*
X75999452Y-57531000D01*
X75202115Y-57531000D01*
X75186876Y-57535475D01*
X75185671Y-57536865D01*
X75184000Y-57544548D01*
X75184000Y-59544885D01*
X74676000Y-59544885D01*
X74676000Y-57549115D01*
X74671525Y-57533876D01*
X74670135Y-57532671D01*
X74662452Y-57531000D01*
X73865116Y-57531000D01*
X73849877Y-57535475D01*
X73848672Y-57536865D01*
X73847001Y-57544548D01*
X73847001Y-57974095D01*
X73847338Y-57980614D01*
X73857257Y-58076206D01*
X73860149Y-58089600D01*
X73911588Y-58243784D01*
X73917761Y-58256962D01*
X74003063Y-58394807D01*
X74012099Y-58406208D01*
X74063817Y-58457836D01*
X74097896Y-58520119D01*
X74092893Y-58590939D01*
X74063971Y-58636028D01*
X74011261Y-58688829D01*
X74002249Y-58700240D01*
X73917184Y-58838243D01*
X73911037Y-58851424D01*
X73859862Y-59005710D01*
X73856995Y-59019086D01*
X73847328Y-59113438D01*
X73847000Y-59119855D01*
X73847000Y-59544885D01*
X73063500Y-59544885D01*
X73063500Y-59116600D01*
X73063163Y-59113350D01*
X73053238Y-59017692D01*
X73053237Y-59017688D01*
X73052526Y-59010834D01*
X72996550Y-58843054D01*
X72903478Y-58692652D01*
X72898296Y-58687479D01*
X72846891Y-58636163D01*
X72812812Y-58573880D01*
X72817815Y-58503060D01*
X72846736Y-58457972D01*
X72899134Y-58405483D01*
X72904305Y-58400303D01*
X72997115Y-58249738D01*
X73052797Y-58081861D01*
X73054185Y-58068320D01*
X73063167Y-57980650D01*
X73063500Y-57977400D01*
X73063500Y-57004885D01*
X73847000Y-57004885D01*
X73851475Y-57020124D01*
X73852865Y-57021329D01*
X73860548Y-57023000D01*
X74657885Y-57023000D01*
X74673124Y-57018525D01*
X74674329Y-57017135D01*
X74676000Y-57009452D01*
X74676000Y-57004885D01*
X75184000Y-57004885D01*
X75188475Y-57020124D01*
X75189865Y-57021329D01*
X75197548Y-57023000D01*
X75994884Y-57023000D01*
X76010123Y-57018525D01*
X76011328Y-57017135D01*
X76012999Y-57009452D01*
X76012999Y-56579905D01*
X76012662Y-56573386D01*
X76002743Y-56477794D01*
X75999851Y-56464400D01*
X75948412Y-56310216D01*
X75942239Y-56297038D01*
X75856937Y-56159193D01*
X75847897Y-56147787D01*
X75732684Y-56032773D01*
X75698605Y-55970491D01*
X75703608Y-55899671D01*
X75732529Y-55854583D01*
X75848739Y-55738171D01*
X75857751Y-55726760D01*
X75900831Y-55656870D01*
X77525456Y-55656870D01*
X77554212Y-55755846D01*
X77554212Y-55826154D01*
X77527061Y-55919605D01*
X77527101Y-55933706D01*
X77534370Y-55937000D01*
X78045905Y-55937000D01*
X78114026Y-55957002D01*
X78158978Y-56008879D01*
X78174913Y-55973988D01*
X78234639Y-55935604D01*
X78245124Y-55932525D01*
X78246329Y-55931135D01*
X78248000Y-55923452D01*
X78248000Y-55663115D01*
X78243525Y-55647876D01*
X78232947Y-55638710D01*
X78188786Y-55614596D01*
X78161492Y-55564611D01*
X78124753Y-55617280D01*
X78059102Y-55644307D01*
X78045905Y-55645000D01*
X77540122Y-55645000D01*
X77526591Y-55648973D01*
X77525456Y-55656870D01*
X75900831Y-55656870D01*
X75942816Y-55588757D01*
X75948963Y-55575576D01*
X76000138Y-55421290D01*
X76003005Y-55407914D01*
X76012672Y-55313562D01*
X76013000Y-55307146D01*
X76013000Y-54882115D01*
X76008525Y-54866876D01*
X76007135Y-54865671D01*
X75999452Y-54864000D01*
X75202115Y-54864000D01*
X75186876Y-54868475D01*
X75185671Y-54869865D01*
X75184000Y-54877548D01*
X75184000Y-57004885D01*
X74676000Y-57004885D01*
X74676000Y-54882115D01*
X74671525Y-54866876D01*
X74670135Y-54865671D01*
X74662452Y-54864000D01*
X73865116Y-54864000D01*
X73849877Y-54868475D01*
X73848672Y-54869865D01*
X73847001Y-54877548D01*
X73847001Y-55307095D01*
X73847338Y-55313614D01*
X73857257Y-55409206D01*
X73860149Y-55422600D01*
X73911588Y-55576784D01*
X73917761Y-55589962D01*
X74003063Y-55727807D01*
X74012103Y-55739213D01*
X74127316Y-55854227D01*
X74161395Y-55916509D01*
X74156392Y-55987329D01*
X74127471Y-56032417D01*
X74011261Y-56148829D01*
X74002249Y-56160240D01*
X73917184Y-56298243D01*
X73911037Y-56311424D01*
X73859862Y-56465710D01*
X73856995Y-56479086D01*
X73847328Y-56573438D01*
X73847000Y-56579855D01*
X73847000Y-57004885D01*
X73063500Y-57004885D01*
X73063500Y-56576600D01*
X73061254Y-56554951D01*
X73053238Y-56477692D01*
X73053237Y-56477688D01*
X73052526Y-56470834D01*
X72996550Y-56303054D01*
X72903478Y-56152652D01*
X72783390Y-56032773D01*
X72749312Y-55970491D01*
X72754315Y-55899671D01*
X72783236Y-55854583D01*
X72783592Y-55854227D01*
X72904305Y-55733303D01*
X72962613Y-55638710D01*
X72993275Y-55588968D01*
X72993276Y-55588966D01*
X72997115Y-55582738D01*
X73033461Y-55473158D01*
X73050632Y-55421389D01*
X73050632Y-55421387D01*
X73052797Y-55414861D01*
X73063500Y-55310400D01*
X73063500Y-54337885D01*
X73847000Y-54337885D01*
X73851475Y-54353124D01*
X73852865Y-54354329D01*
X73860548Y-54356000D01*
X74657885Y-54356000D01*
X74673124Y-54351525D01*
X74674329Y-54350135D01*
X74676000Y-54342452D01*
X74676000Y-54337885D01*
X75184000Y-54337885D01*
X75188475Y-54353124D01*
X75189865Y-54354329D01*
X75197548Y-54356000D01*
X75994884Y-54356000D01*
X76010123Y-54351525D01*
X76011328Y-54350135D01*
X76012999Y-54342452D01*
X76012999Y-53912905D01*
X76012662Y-53906386D01*
X76002743Y-53810794D01*
X75999851Y-53797400D01*
X75948412Y-53643216D01*
X75942239Y-53630038D01*
X75856937Y-53492193D01*
X75847897Y-53480787D01*
X75732684Y-53365773D01*
X75698605Y-53303491D01*
X75703608Y-53232671D01*
X75732529Y-53187583D01*
X75848739Y-53071171D01*
X75857751Y-53059760D01*
X75942816Y-52921757D01*
X75948963Y-52908576D01*
X76000138Y-52754290D01*
X76003005Y-52740914D01*
X76012672Y-52646562D01*
X76013000Y-52640146D01*
X76013000Y-52215115D01*
X76008525Y-52199876D01*
X76007135Y-52198671D01*
X75999452Y-52197000D01*
X75202115Y-52197000D01*
X75186876Y-52201475D01*
X75185671Y-52202865D01*
X75184000Y-52210548D01*
X75184000Y-54337885D01*
X74676000Y-54337885D01*
X74676000Y-52215115D01*
X74671525Y-52199876D01*
X74670135Y-52198671D01*
X74662452Y-52197000D01*
X73865116Y-52197000D01*
X73849877Y-52201475D01*
X73848672Y-52202865D01*
X73847001Y-52210548D01*
X73847001Y-52640095D01*
X73847338Y-52646614D01*
X73857257Y-52742206D01*
X73860149Y-52755600D01*
X73911588Y-52909784D01*
X73917761Y-52922962D01*
X74003063Y-53060807D01*
X74012103Y-53072213D01*
X74127316Y-53187227D01*
X74161395Y-53249509D01*
X74156392Y-53320329D01*
X74127471Y-53365417D01*
X74011261Y-53481829D01*
X74002249Y-53493240D01*
X73917184Y-53631243D01*
X73911037Y-53644424D01*
X73859862Y-53798710D01*
X73856995Y-53812086D01*
X73847328Y-53906438D01*
X73847000Y-53912855D01*
X73847000Y-54337885D01*
X73063500Y-54337885D01*
X73063500Y-53909600D01*
X73059383Y-53869921D01*
X73053238Y-53810692D01*
X73053237Y-53810688D01*
X73052526Y-53803834D01*
X73007705Y-53669488D01*
X72998868Y-53643002D01*
X72996550Y-53636054D01*
X72903478Y-53485652D01*
X72783390Y-53365773D01*
X72749312Y-53303491D01*
X72754315Y-53232671D01*
X72783236Y-53187583D01*
X72783592Y-53187227D01*
X72904305Y-53066303D01*
X72908338Y-53059760D01*
X72993275Y-52921968D01*
X72993276Y-52921966D01*
X72997115Y-52915738D01*
X73052797Y-52747861D01*
X73053893Y-52737169D01*
X73063167Y-52646650D01*
X73063500Y-52643400D01*
X73063500Y-51670885D01*
X73847000Y-51670885D01*
X73851475Y-51686124D01*
X73852865Y-51687329D01*
X73860548Y-51689000D01*
X74657885Y-51689000D01*
X74673124Y-51684525D01*
X74674329Y-51683135D01*
X74676000Y-51675452D01*
X74676000Y-51670885D01*
X75184000Y-51670885D01*
X75188475Y-51686124D01*
X75189865Y-51687329D01*
X75197548Y-51689000D01*
X75994884Y-51689000D01*
X76010123Y-51684525D01*
X76011328Y-51683135D01*
X76012999Y-51675452D01*
X76012999Y-51245905D01*
X76012662Y-51239386D01*
X76002743Y-51143794D01*
X75999851Y-51130400D01*
X75948412Y-50976216D01*
X75942239Y-50963038D01*
X75856937Y-50825193D01*
X75847901Y-50813792D01*
X75733171Y-50699261D01*
X75721760Y-50690249D01*
X75583757Y-50605184D01*
X75570576Y-50599037D01*
X75416290Y-50547862D01*
X75402914Y-50544995D01*
X75308562Y-50535328D01*
X75302145Y-50535000D01*
X75202115Y-50535000D01*
X75186876Y-50539475D01*
X75185671Y-50540865D01*
X75184000Y-50548548D01*
X75184000Y-51670885D01*
X74676000Y-51670885D01*
X74676000Y-50553116D01*
X74671525Y-50537877D01*
X74670135Y-50536672D01*
X74662452Y-50535001D01*
X74557905Y-50535001D01*
X74551386Y-50535338D01*
X74455794Y-50545257D01*
X74442400Y-50548149D01*
X74288216Y-50599588D01*
X74275038Y-50605761D01*
X74137193Y-50691063D01*
X74125792Y-50700099D01*
X74011261Y-50814829D01*
X74002249Y-50826240D01*
X73917184Y-50964243D01*
X73911037Y-50977424D01*
X73859862Y-51131710D01*
X73856995Y-51145086D01*
X73847328Y-51239438D01*
X73847000Y-51245855D01*
X73847000Y-51670885D01*
X73063500Y-51670885D01*
X73063500Y-51242600D01*
X73063163Y-51239350D01*
X73053238Y-51143692D01*
X73053237Y-51143688D01*
X73052526Y-51136834D01*
X72996550Y-50969054D01*
X72919877Y-50845152D01*
X72901039Y-50776702D01*
X72922200Y-50708932D01*
X72937926Y-50689755D01*
X76064276Y-47563405D01*
X76126588Y-47529379D01*
X76153371Y-47526500D01*
X76566035Y-47526500D01*
X76634156Y-47546502D01*
G37*
%TD.AperFunction*%
%TD*%
M02*
